<?xml version="1.0" encoding="UTF-8"?>
<svg version="1.1" viewBox="0 0 1e3 1e3" xml:space="preserve" xmlns="http://www.w3.org/2000/svg"><g transform="matrix(.6279 0 0 .6279 3.721e-5 -.0003149)" stroke="#000" stroke-miterlimit="9.884"><rect transform="scale(-1,1)" x="-1593" y=".0005015" width="1593" height="1593" fill="#ffd500" fill-rule="evenodd" opacity=".99" stroke="none"/><g fill="#fff" fill-opacity=".251"><path d="m394.8 1189 1.977 0.976 1.835 1.225 1.657 1.453 1.453 1.657 1.227 1.835 0.9747 1.977 0.708 2.088 0.4307 2.163 0.144 2.2v182.1l-0.144 2.2-0.4307 2.163-0.708 2.088-0.9747 1.977-1.227 1.835-1.453 1.657-1.657 1.453-1.835 1.225-1.977 0.9747-2.088 0.7093-2.161 0.4307-2.201 0.144h-182.1l-2.201-0.144-2.163-0.4307-2.088-0.7093-1.977-0.9747-1.833-1.225-1.659-1.453-1.453-1.657-1.225-1.835-0.9747-1.977-0.7093-2.088-0.4307-2.163-0.144-2.2v-182.1l0.144-2.2 0.4307-2.163 0.7093-2.088 0.9747-1.977 1.225-1.835 1.453-1.657 1.659-1.453 1.833-1.225 1.977-0.976 2.088-0.708 2.163-0.4307 2.201-0.144h182.1l2.201 0.144 2.161 0.4307z"/><path d="m1143 1189 1.977 0.976 1.835 1.225 1.657 1.453 1.453 1.657 1.225 1.835 0.9747 1.977 0.7093 2.088 0.4307 2.163 0.144 2.2v182.1l-0.144 2.2-0.4307 2.163-0.7093 2.088-0.9747 1.977-1.225 1.835-1.453 1.657-1.657 1.453-1.835 1.225-1.977 0.9747-2.088 0.7093-2.163 0.4307-2.2 0.144h-182.1l-2.2-0.144-2.163-0.4307-2.088-0.7093-1.977-0.9747-1.833-1.225-1.659-1.453-1.453-1.657-1.225-1.835-0.976-1.977-0.708-2.088-0.4307-2.163-0.144-2.2v-182.1l0.144-2.2 0.4307-2.163 0.708-2.088 0.976-1.977 1.225-1.835 1.453-1.657 1.659-1.453 1.833-1.225 1.977-0.976 2.088-0.708 2.163-0.4307 2.2-0.144h182.1l2.2 0.144 2.163 0.4307z"/><path d="m1393 1189 1.977 0.976 1.833 1.225 1.659 1.453 1.453 1.657 1.225 1.835 0.9747 1.977 0.7093 2.088 0.4307 2.163 0.144 2.2v182.1l-0.144 2.2-0.4307 2.163-0.7093 2.088-0.9747 1.977-1.225 1.835-1.453 1.657-1.659 1.453-1.833 1.225-1.977 0.9747-2.088 0.7093-2.163 0.4307-2.201 0.144h-182.1l-2.2-0.144-2.163-0.4307-2.088-0.7093-1.979-0.9747-1.833-1.225-1.657-1.453-1.455-1.657-1.224-1.835-0.976-1.977-0.7093-2.088-0.4294-2.163-0.144-2.2v-182.1l0.144-2.2 0.4294-2.163 0.7093-2.088 0.976-1.977 1.224-1.835 1.455-1.657 1.657-1.453 1.833-1.225 1.979-0.976 2.088-0.708 2.163-0.4307 2.2-0.144h182.1l2.201 0.144 2.163 0.4307z"/><path d="m1393 190.8 1.977 0.976 1.833 1.224 1.659 1.455 1.453 1.657 1.225 1.833 0.9747 1.979 0.7093 2.088 0.4307 2.163 0.144 2.2v182.1l-0.144 2.2-0.4307 2.163-0.7093 2.088-0.9747 1.977-1.225 1.833-1.453 1.659-1.659 1.453-1.833 1.225-1.977 0.9747-2.088 0.7093-2.163 0.4307-2.201 0.144h-182.1l-2.2-0.144-2.163-0.4307-2.088-0.7093-1.979-0.9747-1.833-1.225-1.657-1.453-1.455-1.659-1.224-1.833-0.976-1.977-0.7093-2.088-0.4294-2.163-0.144-2.2v-182.1l0.144-2.2 0.4294-2.163 0.7093-2.088 0.976-1.979 1.224-1.833 1.455-1.657 1.657-1.455 1.833-1.224 1.979-0.976 2.088-0.7093 2.163-0.4293 2.2-0.144h182.1l2.201 0.144 2.163 0.4293z"/><path d="m394.8 190.8 1.977 0.976 1.835 1.224 1.657 1.455 1.453 1.657 1.227 1.833 0.9747 1.979 0.708 2.088 0.4307 2.163 0.144 2.2v182.1l-0.144 2.2-0.4307 2.163-0.708 2.088-0.9747 1.977-1.227 1.833-1.453 1.659-1.657 1.453-1.835 1.225-1.977 0.9747-2.088 0.7093-2.161 0.4307-2.201 0.144h-182.1l-2.201-0.144-2.163-0.4307-2.088-0.7093-1.977-0.9747-1.833-1.225-1.659-1.453-1.453-1.659-1.225-1.833-0.9747-1.977-0.7093-2.088-0.4307-2.163-0.144-2.2v-182.1l0.144-2.2 0.4307-2.163 0.7093-2.088 0.9747-1.979 1.225-1.833 1.453-1.657 1.659-1.455 1.833-1.224 1.977-0.976 2.088-0.7093 2.163-0.4293 2.201-0.144h182.1l2.201 0.144 2.161 0.4293z"/><path d="m893.8 190.8 1.977 0.976 1.833 1.224 1.657 1.455 1.455 1.657 1.225 1.833 0.9747 1.979 0.7093 2.088 0.4293 2.163 0.144 2.2v182.1l-0.144 2.2-0.4293 2.163-0.7093 2.088-0.9747 1.977-1.225 1.833-1.455 1.659-1.657 1.453-1.833 1.225-1.977 0.9747-2.088 0.7093-2.163 0.4307-2.201 0.144h-182.1l-2.201-0.144-2.163-0.4307-2.088-0.7093-1.977-0.9747-1.833-1.225-1.657-1.453-1.455-1.659-1.225-1.833-0.9747-1.977-0.7093-2.088-0.4307-2.163-0.144-2.2v-182.1l0.144-2.2 0.4307-2.163 0.7093-2.088 0.9747-1.979 1.225-1.833 1.455-1.657 1.657-1.455 1.833-1.224 1.977-0.976 2.088-0.7093 2.163-0.4293 2.201-0.144h182.1l2.201 0.144 2.163 0.4293z"/><path d="m1393 939.2 1.977 0.9746 1.833 1.225 1.659 1.455 1.453 1.657 1.225 1.833 0.9747 1.977 0.7093 2.088 0.4307 2.163 0.144 2.201v182.1l-0.144 2.201-0.4307 2.161-0.7093 2.089-0.9747 1.977-1.225 1.833-1.453 1.657-1.659 1.455-1.833 1.225-1.977 0.9746-2.088 0.7094-2.163 0.4293-2.201 0.144h-182.1l-2.2-0.144-2.163-0.4293-2.088-0.7094-1.979-0.9746-1.833-1.225-1.657-1.455-1.455-1.657-1.224-1.833-0.976-1.977-0.7093-2.089-0.4294-2.161-0.144-2.201v-182.1l0.144-2.201 0.4294-2.163 0.7093-2.088 0.976-1.977 1.224-1.833 1.455-1.657 1.657-1.455 1.833-1.225 1.979-0.9746 2.088-0.7094 2.163-0.4306 2.2-0.144h182.1l2.201 0.144 2.163 0.4306z"/><path d="m394.8 939.2 1.977 0.9746 1.835 1.225 1.657 1.455 1.453 1.657 1.227 1.833 0.9747 1.977 0.708 2.088 0.4307 2.163 0.144 2.201v182.1l-0.144 2.201-0.4307 2.161-0.708 2.089-0.9747 1.977-1.227 1.833-1.453 1.657-1.657 1.455-1.835 1.225-1.977 0.9746-2.088 0.7094-2.161 0.4293-2.201 0.144h-182.1l-2.201-0.144-2.163-0.4293-2.088-0.7094-1.977-0.9746-1.833-1.225-1.659-1.455-1.453-1.657-1.225-1.833-0.9747-1.977-0.7093-2.089-0.4307-2.161-0.144-2.201v-182.1l0.144-2.201 0.4307-2.163 0.7093-2.088 0.9747-1.977 1.225-1.833 1.453-1.657 1.659-1.455 1.833-1.225 1.977-0.9746 2.088-0.7094 2.163-0.4306 2.201-0.144h182.1l2.201 0.144 2.161 0.4306z"/><path d="m644.3 1189 1.977 0.976 1.833 1.225 1.659 1.453 1.453 1.657 1.225 1.835 0.9747 1.977 0.7093 2.088 0.4307 2.163 0.144 2.2v182.1l-0.144 2.2-0.4307 2.163-0.7093 2.088-0.9747 1.977-1.225 1.835-1.453 1.657-1.659 1.453-1.833 1.225-1.977 0.9747-2.088 0.7093-2.163 0.4307-2.2 0.144h-182.1l-2.2-0.144-2.163-0.4307-2.088-0.7093-1.977-0.9747-1.835-1.225-1.657-1.453-1.453-1.657-1.225-1.835-0.976-1.977-0.708-2.088-0.4307-2.163-0.144-2.2v-182.1l0.144-2.2 0.4307-2.163 0.708-2.088 0.976-1.977 1.225-1.835 1.453-1.657 1.657-1.453 1.835-1.225 1.977-0.976 2.088-0.708 2.163-0.4307 2.2-0.144h182.1l2.2 0.144 2.163 0.4307z"/></g><g fill="#fff"><path d="m644.3 190.8 1.977 0.976 1.833 1.224 1.659 1.455 1.453 1.657 1.225 1.833 0.9747 1.979 0.7093 2.088 0.4307 2.163 0.144 2.2v182.1l-0.144 2.2-0.4307 2.163-0.7093 2.088-0.9747 1.977-1.225 1.833-1.453 1.659-1.659 1.453-1.833 1.225-1.977 0.9747-2.088 0.7093-2.163 0.4307-2.2 0.144h-182.1l-2.2-0.144-2.163-0.4307-2.088-0.7093-1.977-0.9747-1.835-1.225-1.657-1.453-1.453-1.659-1.225-1.833-0.976-1.977-0.708-2.088-0.4307-2.163-0.144-2.2v-182.1l0.144-2.2 0.4307-2.163 0.708-2.088 0.976-1.979 1.225-1.833 1.453-1.657 1.657-1.455 1.835-1.224 1.977-0.976 2.088-0.7093 2.163-0.4293 2.2-0.144h182.1l2.2 0.144 2.163 0.4293z"/><path d="m394.8 689.7 1.977 0.976 1.835 1.225 1.657 1.453 1.453 1.657 1.227 1.835 0.9747 1.977 0.708 2.088 0.4307 2.163 0.144 2.2v182.1l-0.144 2.2-0.4307 2.163-0.708 2.088-0.9747 1.977-1.227 1.833-1.453 1.659-1.657 1.453-1.835 1.225-1.977 0.9747-2.088 0.7093-2.161 0.4307-2.201 0.144h-182.1l-2.201-0.144-2.163-0.4307-2.088-0.7093-1.977-0.9747-1.833-1.225-1.659-1.453-1.453-1.659-1.225-1.833-0.9747-1.977-0.7093-2.088-0.4307-2.163-0.144-2.2v-182.1l0.144-2.2 0.4307-2.163 0.7093-2.088 0.9747-1.977 1.225-1.835 1.453-1.657 1.659-1.453 1.833-1.225 1.977-0.976 2.088-0.708 2.163-0.4307 2.201-0.144h182.1l2.201 0.144 2.161 0.4307z"/><path d="m1143 190.8 1.977 0.976 1.835 1.224 1.657 1.455 1.453 1.657 1.225 1.833 0.9747 1.979 0.7093 2.088 0.4307 2.163 0.144 2.2v182.1l-0.144 2.2-0.4307 2.163-0.7093 2.088-0.9747 1.977-1.225 1.833-1.453 1.659-1.657 1.453-1.835 1.225-1.977 0.9747-2.088 0.7093-2.163 0.4307-2.2 0.144h-182.1l-2.2-0.144-2.163-0.4307-2.088-0.7093-1.977-0.9747-1.833-1.225-1.659-1.453-1.453-1.659-1.225-1.833-0.976-1.977-0.708-2.088-0.4307-2.163-0.144-2.2v-182.1l0.144-2.2 0.4307-2.163 0.708-2.088 0.976-1.979 1.225-1.833 1.453-1.657 1.659-1.455 1.833-1.224 1.977-0.976 2.088-0.7093 2.163-0.4293 2.2-0.144h182.1l2.2 0.144 2.163 0.4293z"/><path d="m394.8 440.3 1.977 0.9747 1.835 1.225 1.657 1.453 1.453 1.659 1.227 1.833 0.9747 1.977 0.708 2.088 0.4307 2.163 0.144 2.201v182.1l-0.144 2.2-0.4307 2.163-0.708 2.088-0.9747 1.977-1.227 1.835-1.453 1.657-1.657 1.453-1.835 1.225-1.977 0.976-2.088 0.708-2.161 0.4306-2.201 0.144h-182.1l-2.201-0.144-2.163-0.4306-2.088-0.708-1.977-0.976-1.833-1.225-1.659-1.453-1.453-1.657-1.225-1.835-0.9747-1.977-0.7093-2.088-0.4307-2.163-0.144-2.2v-182.1l0.144-2.201 0.4307-2.163 0.7093-2.088 0.9747-1.977 1.225-1.833 1.453-1.659 1.659-1.453 1.833-1.225 1.977-0.9747 2.088-0.7093 2.163-0.4307 2.201-0.144h182.1l2.201 0.144 2.161 0.4307z"/><path d="m893.8 440.3 1.977 0.9747 1.833 1.225 1.657 1.453 1.455 1.659 1.225 1.833 0.9747 1.977 0.7093 2.088 0.4293 2.163 0.144 2.201v182.1l-0.144 2.2-0.4293 2.163-0.7093 2.088-0.9747 1.977-1.225 1.835-1.455 1.657-1.657 1.453-1.833 1.225-1.977 0.976-2.088 0.708-2.163 0.4306-2.201 0.144h-182.1l-2.201-0.144-2.163-0.4306-2.088-0.708-1.977-0.976-1.833-1.225-1.657-1.453-1.455-1.657-1.225-1.835-0.9747-1.977-0.7093-2.088-0.4307-2.163-0.144-2.2v-182.1l0.144-2.201 0.4307-2.163 0.7093-2.088 0.9747-1.977 1.225-1.833 1.455-1.659 1.657-1.453 1.833-1.225 1.977-0.9747 2.088-0.7093 2.163-0.4307 2.201-0.144h182.1l2.201 0.144 2.163 0.4307z"/><path d="m644.3 689.7 1.977 0.976 1.833 1.225 1.659 1.453 1.453 1.657 1.225 1.835 0.9747 1.977 0.7093 2.088 0.4307 2.163 0.144 2.2v182.1l-0.144 2.2-0.4307 2.163-0.7093 2.088-0.9747 1.977-1.225 1.833-1.453 1.659-1.659 1.453-1.833 1.225-1.977 0.9747-2.088 0.7093-2.163 0.4307-2.2 0.144h-182.1l-2.2-0.144-2.163-0.4307-2.088-0.7093-1.977-0.9747-1.835-1.225-1.657-1.453-1.453-1.659-1.225-1.833-0.976-1.977-0.708-2.088-0.4307-2.163-0.144-2.2v-182.1l0.144-2.2 0.4307-2.163 0.708-2.088 0.976-1.977 1.225-1.835 1.453-1.657 1.657-1.453 1.835-1.225 1.977-0.976 2.088-0.708 2.163-0.4307 2.2-0.144h182.1l2.2 0.144 2.163 0.4307z"/><path d="m893.8 689.7 1.977 0.976 1.833 1.225 1.657 1.453 1.455 1.657 1.225 1.835 0.9747 1.977 0.7093 2.088 0.4293 2.163 0.144 2.2v182.1l-0.144 2.2-0.4293 2.163-0.7093 2.088-0.9747 1.977-1.225 1.833-1.455 1.659-1.657 1.453-1.833 1.225-1.977 0.9747-2.088 0.7093-2.163 0.4307-2.201 0.144h-182.1l-2.201-0.144-2.163-0.4307-2.088-0.7093-1.977-0.9747-1.833-1.225-1.657-1.453-1.455-1.659-1.225-1.833-0.9747-1.977-0.7093-2.088-0.4307-2.163-0.144-2.2v-182.1l0.144-2.2 0.4307-2.163 0.7093-2.088 0.9747-1.977 1.225-1.835 1.455-1.657 1.657-1.453 1.833-1.225 1.977-0.976 2.088-0.708 2.163-0.4307 2.201-0.144h182.1l2.201 0.144 2.163 0.4307z"/><path d="m1143 939.2 1.977 0.9746 1.835 1.225 1.657 1.455 1.453 1.657 1.225 1.833 0.9747 1.977 0.7093 2.088 0.4307 2.163 0.144 2.201v182.1l-0.144 2.201-0.4307 2.161-0.7093 2.089-0.9747 1.977-1.225 1.833-1.453 1.657-1.657 1.455-1.835 1.225-1.977 0.9746-2.088 0.7094-2.163 0.4293-2.2 0.144h-182.1l-2.2-0.144-2.163-0.4293-2.088-0.7094-1.977-0.9746-1.833-1.225-1.659-1.455-1.453-1.657-1.225-1.833-0.976-1.977-0.708-2.089-0.4307-2.161-0.144-2.201v-182.1l0.144-2.201 0.4307-2.163 0.708-2.088 0.976-1.977 1.225-1.833 1.453-1.657 1.659-1.455 1.833-1.225 1.977-0.9746 2.088-0.7094 2.163-0.4306 2.2-0.144h182.1l2.2 0.144 2.163 0.4306z"/><path d="m1143 689.7 1.977 0.976 1.835 1.225 1.657 1.453 1.453 1.657 1.225 1.835 0.9747 1.977 0.7093 2.088 0.4307 2.163 0.144 2.2v182.1l-0.144 2.2-0.4307 2.163-0.7093 2.088-0.9747 1.977-1.225 1.833-1.453 1.659-1.657 1.453-1.835 1.225-1.977 0.9747-2.088 0.7093-2.163 0.4307-2.2 0.144h-182.1l-2.2-0.144-2.163-0.4307-2.088-0.7093-1.977-0.9747-1.833-1.225-1.659-1.453-1.453-1.659-1.225-1.833-0.976-1.977-0.708-2.088-0.4307-2.163-0.144-2.2v-182.1l0.144-2.2 0.4307-2.163 0.708-2.088 0.976-1.977 1.225-1.835 1.453-1.657 1.659-1.453 1.833-1.225 1.977-0.976 2.088-0.708 2.163-0.4307 2.2-0.144h182.1l2.2 0.144 2.163 0.4307z"/><path d="m1393 689.7 1.977 0.976 1.833 1.225 1.659 1.453 1.453 1.657 1.225 1.835 0.9747 1.977 0.7093 2.088 0.4307 2.163 0.144 2.2v182.1l-0.144 2.2-0.4307 2.163-0.7093 2.088-0.9747 1.977-1.225 1.833-1.453 1.659-1.659 1.453-1.833 1.225-1.977 0.9747-2.088 0.7093-2.163 0.4307-2.201 0.144h-182.1l-2.2-0.144-2.163-0.4307-2.088-0.7093-1.979-0.9747-1.833-1.225-1.657-1.453-1.455-1.659-1.224-1.833-0.976-1.977-0.7093-2.088-0.4294-2.163-0.144-2.2v-182.1l0.144-2.2 0.4294-2.163 0.7093-2.088 0.976-1.977 1.224-1.835 1.455-1.657 1.657-1.453 1.833-1.225 1.979-0.976 2.088-0.708 2.163-0.4307 2.2-0.144h182.1l2.201 0.144 2.163 0.4307z"/><path d="m1143 440.3 1.977 0.9747 1.835 1.225 1.657 1.453 1.453 1.659 1.225 1.833 0.9747 1.977 0.7093 2.088 0.4307 2.163 0.144 2.201v182.1l-0.144 2.2-0.4307 2.163-0.7093 2.088-0.9747 1.977-1.225 1.835-1.453 1.657-1.657 1.453-1.835 1.225-1.977 0.976-2.088 0.708-2.163 0.4306-2.2 0.144h-182.1l-2.2-0.144-2.163-0.4306-2.088-0.708-1.977-0.976-1.833-1.225-1.659-1.453-1.453-1.657-1.225-1.835-0.976-1.977-0.708-2.088-0.4307-2.163-0.144-2.2v-182.1l0.144-2.201 0.4307-2.163 0.708-2.088 0.976-1.977 1.225-1.833 1.453-1.659 1.659-1.453 1.833-1.225 1.977-0.9747 2.088-0.7093 2.163-0.4307 2.2-0.144h182.1l2.2 0.144 2.163 0.4307z"/><path d="m1393 440.3 1.977 0.9747 1.833 1.225 1.659 1.453 1.453 1.659 1.225 1.833 0.9747 1.977 0.7093 2.088 0.4307 2.163 0.144 2.201v182.1l-0.144 2.2-0.4307 2.163-0.7093 2.088-0.9747 1.977-1.225 1.835-1.453 1.657-1.659 1.453-1.833 1.225-1.977 0.976-2.088 0.708-2.163 0.4306-2.201 0.144h-182.1l-2.2-0.144-2.163-0.4306-2.088-0.708-1.979-0.976-1.833-1.225-1.657-1.453-1.455-1.657-1.224-1.835-0.976-1.977-0.7093-2.088-0.4294-2.163-0.144-2.2v-182.1l0.144-2.201 0.4294-2.163 0.7093-2.088 0.976-1.977 1.224-1.833 1.455-1.659 1.657-1.453 1.833-1.225 1.979-0.9747 2.088-0.7093 2.163-0.4307 2.2-0.144h182.1l2.201 0.144 2.163 0.4307z"/><path d="m644.3 440.3 1.977 0.9747 1.833 1.225 1.659 1.453 1.453 1.659 1.225 1.833 0.9747 1.977 0.7093 2.088 0.4307 2.163 0.144 2.201v182.1l-0.144 2.2-0.4307 2.163-0.7093 2.088-0.9747 1.977-1.225 1.835-1.453 1.657-1.659 1.453-1.833 1.225-1.977 0.976-2.088 0.708-2.163 0.4306-2.2 0.144h-182.1l-2.2-0.144-2.163-0.4306-2.088-0.708-1.977-0.976-1.835-1.225-1.657-1.453-1.453-1.657-1.225-1.835-0.976-1.977-0.708-2.088-0.4307-2.163-0.144-2.2v-182.1l0.144-2.201 0.4307-2.163 0.708-2.088 0.976-1.977 1.225-1.833 1.453-1.659 1.657-1.453 1.835-1.225 1.977-0.9747 2.088-0.7093 2.163-0.4307 2.2-0.144h182.1l2.2 0.144 2.163 0.4307z"/><path d="m644.3 939.2 1.977 0.9746 1.833 1.225 1.659 1.455 1.453 1.657 1.225 1.833 0.9747 1.977 0.7093 2.088 0.4307 2.163 0.144 2.201v182.1l-0.144 2.201-0.4307 2.161-0.7093 2.089-0.9747 1.977-1.225 1.833-1.453 1.657-1.659 1.455-1.833 1.225-1.977 0.9746-2.088 0.7094-2.163 0.4293-2.2 0.144h-182.1l-2.2-0.144-2.163-0.4293-2.088-0.7094-1.977-0.9746-1.835-1.225-1.657-1.455-1.453-1.657-1.225-1.833-0.976-1.977-0.708-2.089-0.4307-2.161-0.144-2.201v-182.1l0.144-2.201 0.4307-2.163 0.708-2.088 0.976-1.977 1.225-1.833 1.453-1.657 1.657-1.455 1.835-1.225 1.977-0.9746 2.088-0.7094 2.163-0.4306 2.2-0.144h182.1l2.2 0.144 2.163 0.4306z"/><path d="m893.8 939.2 1.977 0.9746 1.833 1.225 1.657 1.455 1.455 1.657 1.225 1.833 0.9747 1.977 0.7093 2.088 0.4293 2.163 0.144 2.201v182.1l-0.144 2.201-0.4293 2.161-0.7093 2.089-0.9747 1.977-1.225 1.833-1.455 1.657-1.657 1.455-1.833 1.225-1.977 0.9746-2.088 0.7094-2.163 0.4293-2.201 0.144h-182.1l-2.201-0.144-2.163-0.4293-2.088-0.7094-1.977-0.9746-1.833-1.225-1.657-1.455-1.455-1.657-1.225-1.833-0.9747-1.977-0.7093-2.089-0.4307-2.161-0.144-2.201v-182.1l0.144-2.201 0.4307-2.163 0.7093-2.088 0.9747-1.977 1.225-1.833 1.455-1.657 1.657-1.455 1.833-1.225 1.977-0.9746 2.088-0.7094 2.163-0.4306 2.201-0.144h182.1l2.201 0.144 2.163 0.4306z"/><path d="m893.8 1189 1.977 0.976 1.833 1.225 1.657 1.453 1.455 1.657 1.225 1.835 0.9747 1.977 0.7093 2.088 0.4293 2.163 0.144 2.2v182.1l-0.144 2.2-0.4293 2.163-0.7093 2.088-0.9747 1.977-1.225 1.835-1.455 1.657-1.657 1.453-1.833 1.225-1.977 0.9747-2.088 0.7093-2.163 0.4307-2.201 0.144h-182.1l-2.201-0.144-2.163-0.4307-2.088-0.7093-1.977-0.9747-1.833-1.225-1.657-1.453-1.455-1.657-1.225-1.835-0.9747-1.977-0.7093-2.088-0.4307-2.163-0.144-2.2v-182.1l0.144-2.2 0.4307-2.163 0.7093-2.088 0.9747-1.977 1.225-1.835 1.455-1.657 1.657-1.453 1.833-1.225 1.977-0.976 2.088-0.708 2.163-0.4307 2.201-0.144h182.1l2.201 0.144 2.163 0.4307z"/></g></g></svg>
