<?xml version="1.0" encoding="UTF-8"?>
<svg version="1.1" viewBox="0 0 1e3 1e3" xml:space="preserve" xmlns="http://www.w3.org/2000/svg" xmlns:cc="http://creativecommons.org/ns#" xmlns:dc="http://purl.org/dc/elements/1.1/" xmlns:rdf="http://www.w3.org/1999/02/22-rdf-syntax-ns#"><metadata><rdf:RDF><cc:Work rdf:about=""><dc:format>image/svg+xml</dc:format><dc:type rdf:resource="http://purl.org/dc/dcmitype/StillImage"/><dc:title/></cc:Work></rdf:RDF></metadata><g transform="matrix(.6279 0 0 .6279 3.721e-5 -.0003149)" stroke="#000" stroke-miterlimit="9.884"><rect transform="scale(-1,1)" x="-1593" y=".0005015" width="1593" height="1593" fill="#028d7a" fill-rule="evenodd" opacity=".99" stroke="none"/><g fill="#fff" fill-opacity=".251"><path d="m394.8 1189 1.977.976 1.835 1.225 1.657 1.453 1.453 1.657 1.227 1.835.9747 1.977.708 2.088.4307 2.163.144 2.2v182.1l-.144 2.2-.4307 2.163-.708 2.088-.9747 1.977-1.227 1.835-1.453 1.657-1.657 1.453-1.835 1.225-1.977.9747-2.088.7093-2.161.4307-2.201.144h-182.1l-2.201-.144-2.163-.4307-2.088-.7093-1.977-.9747-1.833-1.225-1.659-1.453-1.453-1.657-1.225-1.835-.9747-1.977-.7093-2.088-.4307-2.163-.144-2.2v-182.1l.144-2.2.4307-2.163.7093-2.088.9747-1.977 1.225-1.835 1.453-1.657 1.659-1.453 1.833-1.225 1.977-.976 2.088-.708 2.163-.4307 2.201-.144h182.1l2.201.144 2.161.4307z" fill="#fff" fill-opacity=".251"/><path d="m1143 1189 1.977.976 1.835 1.225 1.657 1.453 1.453 1.657 1.225 1.835.9747 1.977.7093 2.088.4307 2.163.144 2.2v182.1l-.144 2.2-.4307 2.163-.7093 2.088-.9747 1.977-1.225 1.835-1.453 1.657-1.657 1.453-1.835 1.225-1.977.9747-2.088.7093-2.163.4307-2.2.144h-182.1l-2.2-.144-2.163-.4307-2.088-.7093-1.977-.9747-1.833-1.225-1.659-1.453-1.453-1.657-1.225-1.835-.976-1.977-.708-2.088-.4307-2.163-.144-2.2v-182.1l.144-2.2.4307-2.163.708-2.088.976-1.977 1.225-1.835 1.453-1.657 1.659-1.453 1.833-1.225 1.977-.976 2.088-.708 2.163-.4307 2.2-.144h182.1l2.2.144 2.163.4307z"/><g fill="#fff"><g fill-opacity=".251"><path d="m1393 1189 1.977.976 1.833 1.225 1.659 1.453 1.453 1.657 1.225 1.835.9747 1.977.7093 2.088.4307 2.163.144 2.2v182.1l-.144 2.2-.4307 2.163-.7093 2.088-.9747 1.977-1.225 1.835-1.453 1.657-1.659 1.453-1.833 1.225-1.977.9747-2.088.7093-2.163.4307-2.201.144h-182.1l-2.2-.144-2.163-.4307-2.088-.7093-1.979-.9747-1.833-1.225-1.657-1.453-1.455-1.657-1.224-1.835-.976-1.977-.7093-2.088-.4294-2.163-.144-2.2v-182.1l.144-2.2.4294-2.163.7093-2.088.976-1.977 1.224-1.835 1.455-1.657 1.657-1.453 1.833-1.225 1.979-.976 2.088-.708 2.163-.4307 2.2-.144h182.1l2.201.144 2.163.4307z"/><g fill="#fff" fill-opacity=".251"><path d="m1393 190.8 1.977.976 1.833 1.224 1.659 1.455 1.453 1.657 1.225 1.833.9747 1.979.7093 2.088.4307 2.163.144 2.2v182.1l-.144 2.2-.4307 2.163-.7093 2.088-.9747 1.977-1.225 1.833-1.453 1.659-1.659 1.453-1.833 1.225-1.977.9747-2.088.7093-2.163.4307-2.201.144h-182.1l-2.2-.144-2.163-.4307-2.088-.7093-1.979-.9747-1.833-1.225-1.657-1.453-1.455-1.659-1.224-1.833-.976-1.977-.7093-2.088-.4294-2.163-.144-2.2v-182.1l.144-2.2.4294-2.163.7093-2.088.976-1.979 1.224-1.833 1.455-1.657 1.657-1.455 1.833-1.224 1.979-.976 2.088-.7093 2.163-.4293 2.2-.144h182.1l2.201.144 2.163.4293z"/><path d="m394.8 190.8 1.977.976 1.835 1.224 1.657 1.455 1.453 1.657 1.227 1.833.9747 1.979.708 2.088.4307 2.163.144 2.2v182.1l-.144 2.2-.4307 2.163-.708 2.088-.9747 1.977-1.227 1.833-1.453 1.659-1.657 1.453-1.835 1.225-1.977.9747-2.088.7093-2.161.4307-2.201.144h-182.1l-2.201-.144-2.163-.4307-2.088-.7093-1.977-.9747-1.833-1.225-1.659-1.453-1.453-1.659-1.225-1.833-.9747-1.977-.7093-2.088-.4307-2.163-.144-2.2v-182.1l.144-2.2.4307-2.163.7093-2.088.9747-1.979 1.225-1.833 1.453-1.657 1.659-1.455 1.833-1.224 1.977-.976 2.088-.7093 2.163-.4293 2.201-.144h182.1l2.201.144 2.161.4293z"/><path d="m893.8 190.8 1.977.976 1.833 1.224 1.657 1.455 1.455 1.657 1.225 1.833.9747 1.979.7093 2.088.4293 2.163.144 2.2v182.1l-.144 2.2-.4293 2.163-.7093 2.088-.9747 1.977-1.225 1.833-1.455 1.659-1.657 1.453-1.833 1.225-1.977.9747-2.088.7093-2.163.4307-2.201.144h-182.1l-2.201-.144-2.163-.4307-2.088-.7093-1.977-.9747-1.833-1.225-1.657-1.453-1.455-1.659-1.225-1.833-.9747-1.977-.7093-2.088-.4307-2.163-.144-2.2v-182.1l.144-2.2.4307-2.163.7093-2.088.9747-1.979 1.225-1.833 1.455-1.657 1.657-1.455 1.833-1.224 1.977-.976 2.088-.7093 2.163-.4293 2.201-.144h182.1l2.201.144 2.163.4293z"/></g></g><g fill="#fff"><path d="m1393 939.2 1.977.9746 1.833 1.225 1.659 1.455 1.453 1.657 1.225 1.833.9747 1.977.7093 2.088.4307 2.163.144 2.201v182.1l-.144 2.201-.4307 2.161-.7093 2.089-.9747 1.977-1.225 1.833-1.453 1.657-1.659 1.455-1.833 1.225-1.977.9746-2.088.7094-2.163.4293-2.201.144h-182.1l-2.2-.144-2.163-.4293-2.088-.7094-1.979-.9746-1.833-1.225-1.657-1.455-1.455-1.657-1.224-1.833-.976-1.977-.7093-2.089-.4294-2.161-.144-2.201v-182.1l.144-2.201.4294-2.163.7093-2.088.976-1.977 1.224-1.833 1.455-1.657 1.657-1.455 1.833-1.225 1.979-.9746 2.088-.7094 2.163-.4306 2.2-.144h182.1l2.201.144 2.163.4306z" fill-opacity=".251"/><path d="m394.8 939.2 1.977.9746 1.835 1.225 1.657 1.455 1.453 1.657 1.227 1.833.9747 1.977.708 2.088.4307 2.163.144 2.201v182.1l-.144 2.201-.4307 2.161-.708 2.089-.9747 1.977-1.227 1.833-1.453 1.657-1.657 1.455-1.835 1.225-1.977.9746-2.088.7094-2.161.4293-2.201.144h-182.1l-2.201-.144-2.163-.4293-2.088-.7094-1.977-.9746-1.833-1.225-1.659-1.455-1.453-1.657-1.225-1.833-.9747-1.977-.7093-2.089-.4307-2.161-.144-2.201v-182.1l.144-2.201.4307-2.163.7093-2.088.9747-1.977 1.225-1.833 1.453-1.657 1.659-1.455 1.833-1.225 1.977-.9746 2.088-.7094 2.163-.4306 2.201-.144h182.1l2.201.144 2.161.4306z" fill-opacity=".251"/><path d="m644.3 1189 1.977.976 1.833 1.225 1.659 1.453 1.453 1.657 1.225 1.835.9747 1.977.7093 2.088.4307 2.163.144 2.2v182.1l-.144 2.2-.4307 2.163-.7093 2.088-.9747 1.977-1.225 1.835-1.453 1.657-1.659 1.453-1.833 1.225-1.977.9747-2.088.7093-2.163.4307-2.2.144h-182.1l-2.2-.144-2.163-.4307-2.088-.7093-1.977-.9747-1.835-1.225-1.657-1.453-1.453-1.657-1.225-1.835-.976-1.977-.708-2.088-.4307-2.163-.144-2.2v-182.1l.144-2.2.4307-2.163.708-2.088.976-1.977 1.225-1.835 1.453-1.657 1.657-1.453 1.835-1.225 1.977-.976 2.088-.708 2.163-.4307 2.2-.144h182.1l2.2.144 2.163.4307z" fill-opacity="1"/></g></g></g><g fill="#fff"><g fill="#fff"><path d="m644.3 190.8 1.977.976 1.833 1.224 1.659 1.455 1.453 1.657 1.225 1.833.9747 1.979.7093 2.088.4307 2.163.144 2.2v182.1l-.144 2.2-.4307 2.163-.7093 2.088-.9747 1.977-1.225 1.833-1.453 1.659-1.659 1.453-1.833 1.225-1.977.9747-2.088.7093-2.163.4307-2.2.144h-182.1l-2.2-.144-2.163-.4307-2.088-.7093-1.977-.9747-1.835-1.225-1.657-1.453-1.453-1.659-1.225-1.833-.976-1.977-.708-2.088-.4307-2.163-.144-2.2v-182.1l.144-2.2.4307-2.163.708-2.088.976-1.979 1.225-1.833 1.453-1.657 1.657-1.455 1.835-1.224 1.977-.976 2.088-.7093 2.163-.4293 2.2-.144h182.1l2.2.144 2.163.4293z"/><g fill-opacity=".251"><path d="m394.8 689.7 1.977.976 1.835 1.225 1.657 1.453 1.453 1.657 1.227 1.835.9747 1.977.708 2.088.4307 2.163.144 2.2v182.1l-.144 2.2-.4307 2.163-.708 2.088-.9747 1.977-1.227 1.833-1.453 1.659-1.657 1.453-1.835 1.225-1.977.9747-2.088.7093-2.161.4307-2.201.144h-182.1l-2.201-.144-2.163-.4307-2.088-.7093-1.977-.9747-1.833-1.225-1.659-1.453-1.453-1.659-1.225-1.833-.9747-1.977-.7093-2.088-.4307-2.163-.144-2.2v-182.1l.144-2.2.4307-2.163.7093-2.088.9747-1.977 1.225-1.835 1.453-1.657 1.659-1.453 1.833-1.225 1.977-.976 2.088-.708 2.163-.4307 2.201-.144h182.1l2.201.144 2.161.4307z"/><path d="m1143 190.8 1.977.976 1.835 1.224 1.657 1.455 1.453 1.657 1.225 1.833.9747 1.979.7093 2.088.4307 2.163.144 2.2v182.1l-.144 2.2-.4307 2.163-.7093 2.088-.9747 1.977-1.225 1.833-1.453 1.659-1.657 1.453-1.835 1.225-1.977.9747-2.088.7093-2.163.4307-2.2.144h-182.1l-2.2-.144-2.163-.4307-2.088-.7093-1.977-.9747-1.833-1.225-1.659-1.453-1.453-1.659-1.225-1.833-.976-1.977-.708-2.088-.4307-2.163-.144-2.2v-182.1l.144-2.2.4307-2.163.708-2.088.976-1.979 1.225-1.833 1.453-1.657 1.659-1.455 1.833-1.224 1.977-.976 2.088-.7093 2.163-.4293 2.2-.144h182.1l2.2.144 2.163.4293z"/><path d="m394.8 440.3 1.977.9747 1.835 1.225 1.657 1.453 1.453 1.659 1.227 1.833.9747 1.977.708 2.088.4307 2.163.144 2.201v182.1l-.144 2.2-.4307 2.163-.708 2.088-.9747 1.977-1.227 1.835-1.453 1.657-1.657 1.453-1.835 1.225-1.977.976-2.088.708-2.161.4306-2.201.144h-182.1l-2.201-.144-2.163-.4306-2.088-.708-1.977-.976-1.833-1.225-1.659-1.453-1.453-1.657-1.225-1.835-.9747-1.977-.7093-2.088-.4307-2.163-.144-2.2v-182.1l.144-2.201.4307-2.163.7093-2.088.9747-1.977 1.225-1.833 1.453-1.659 1.659-1.453 1.833-1.225 1.977-.9747 2.088-.7093 2.163-.4307 2.201-.144h182.1l2.201.144 2.161.4307z"/></g></g><path d="m893.8 440.3 1.977.9747 1.833 1.225 1.657 1.453 1.455 1.659 1.225 1.833.9747 1.977.7093 2.088.4293 2.163.144 2.201v182.1l-.144 2.2-.4293 2.163-.7093 2.088-.9747 1.977-1.225 1.835-1.455 1.657-1.657 1.453-1.833 1.225-1.977.976-2.088.708-2.163.4306-2.201.144h-182.1l-2.201-.144-2.163-.4306-2.088-.708-1.977-.976-1.833-1.225-1.657-1.453-1.455-1.657-1.225-1.835-.9747-1.977-.7093-2.088-.4307-2.163-.144-2.2v-182.1l.144-2.201.4307-2.163.7093-2.088.9747-1.977 1.225-1.833 1.455-1.659 1.657-1.453 1.833-1.225 1.977-.9747 2.088-.7093 2.163-.4307 2.201-.144h182.1l2.201.144 2.163.4307z"/><path d="m644.3 689.7 1.977.976 1.833 1.225 1.659 1.453 1.453 1.657 1.225 1.835.9747 1.977.7093 2.088.4307 2.163.144 2.2v182.1l-.144 2.2-.4307 2.163-.7093 2.088-.9747 1.977-1.225 1.833-1.453 1.659-1.659 1.453-1.833 1.225-1.977.9747-2.088.7093-2.163.4307-2.2.144h-182.1l-2.2-.144-2.163-.4307-2.088-.7093-1.977-.9747-1.835-1.225-1.657-1.453-1.453-1.659-1.225-1.833-.976-1.977-.708-2.088-.4307-2.163-.144-2.2v-182.1l.144-2.2.4307-2.163.708-2.088.976-1.977 1.225-1.835 1.453-1.657 1.657-1.453 1.835-1.225 1.977-.976 2.088-.708 2.163-.4307 2.2-.144h182.1l2.2.144 2.163.4307z" fill="#fff"/><path d="m893.8 689.7 1.977.976 1.833 1.225 1.657 1.453 1.455 1.657 1.225 1.835.9747 1.977.7093 2.088.4293 2.163.144 2.2v182.1l-.144 2.2-.4293 2.163-.7093 2.088-.9747 1.977-1.225 1.833-1.455 1.659-1.657 1.453-1.833 1.225-1.977.9747-2.088.7093-2.163.4307-2.201.144h-182.1l-2.201-.144-2.163-.4307-2.088-.7093-1.977-.9747-1.833-1.225-1.657-1.453-1.455-1.659-1.225-1.833-.9747-1.977-.7093-2.088-.4307-2.163-.144-2.2v-182.1l.144-2.2.4307-2.163.7093-2.088.9747-1.977 1.225-1.835 1.455-1.657 1.657-1.453 1.833-1.225 1.977-.976 2.088-.708 2.163-.4307 2.201-.144h182.1l2.201.144 2.163.4307z"/><g fill="#fff"><path d="m1143 939.2 1.977.9746 1.835 1.225 1.657 1.455 1.453 1.657 1.225 1.833.9747 1.977.7093 2.088.4307 2.163.144 2.201v182.1l-.144 2.201-.4307 2.161-.7093 2.089-.9747 1.977-1.225 1.833-1.453 1.657-1.657 1.455-1.835 1.225-1.977.9746-2.088.7094-2.163.4293-2.2.144h-182.1l-2.2-.144-2.163-.4293-2.088-.7094-1.977-.9746-1.833-1.225-1.659-1.455-1.453-1.657-1.225-1.833-.976-1.977-.708-2.089-.4307-2.161-.144-2.201v-182.1l.144-2.201.4307-2.163.708-2.088.976-1.977 1.225-1.833 1.453-1.657 1.659-1.455 1.833-1.225 1.977-.9746 2.088-.7094 2.163-.4306 2.2-.144h182.1l2.2.144 2.163.4306z" fill-opacity=".251"/><path d="m1143 689.7 1.977.976 1.835 1.225 1.657 1.453 1.453 1.657 1.225 1.835.9747 1.977.7093 2.088.4307 2.163.144 2.2v182.1l-.144 2.2-.4307 2.163-.7093 2.088-.9747 1.977-1.225 1.833-1.453 1.659-1.657 1.453-1.835 1.225-1.977.9747-2.088.7093-2.163.4307-2.2.144h-182.1l-2.2-.144-2.163-.4307-2.088-.7093-1.977-.9747-1.833-1.225-1.659-1.453-1.453-1.659-1.225-1.833-.976-1.977-.708-2.088-.4307-2.163-.144-2.2v-182.1l.144-2.2.4307-2.163.708-2.088.976-1.977 1.225-1.835 1.453-1.657 1.659-1.453 1.833-1.225 1.977-.976 2.088-.708 2.163-.4307 2.2-.144h182.1l2.2.144 2.163.4307z"/><g fill-opacity=".251"><path d="m1393 689.7 1.977.976 1.833 1.225 1.659 1.453 1.453 1.657 1.225 1.835.9747 1.977.7093 2.088.4307 2.163.144 2.2v182.1l-.144 2.2-.4307 2.163-.7093 2.088-.9747 1.977-1.225 1.833-1.453 1.659-1.659 1.453-1.833 1.225-1.977.9747-2.088.7093-2.163.4307-2.201.144h-182.1l-2.2-.144-2.163-.4307-2.088-.7093-1.979-.9747-1.833-1.225-1.657-1.453-1.455-1.659-1.224-1.833-.976-1.977-.7093-2.088-.4294-2.163-.144-2.2v-182.1l.144-2.2.4294-2.163.7093-2.088.976-1.977 1.224-1.835 1.455-1.657 1.657-1.453 1.833-1.225 1.979-.976 2.088-.708 2.163-.4307 2.2-.144h182.1l2.201.144 2.163.4307z"/><path d="m1143 440.3 1.977.9747 1.835 1.225 1.657 1.453 1.453 1.659 1.225 1.833.9747 1.977.7093 2.088.4307 2.163.144 2.201v182.1l-.144 2.2-.4307 2.163-.7093 2.088-.9747 1.977-1.225 1.835-1.453 1.657-1.657 1.453-1.835 1.225-1.977.976-2.088.708-2.163.4306-2.2.144h-182.1l-2.2-.144-2.163-.4306-2.088-.708-1.977-.976-1.833-1.225-1.659-1.453-1.453-1.657-1.225-1.835-.976-1.977-.708-2.088-.4307-2.163-.144-2.2v-182.1l.144-2.201.4307-2.163.708-2.088.976-1.977 1.225-1.833 1.453-1.659 1.659-1.453 1.833-1.225 1.977-.9747 2.088-.7093 2.163-.4307 2.2-.144h182.1l2.2.144 2.163.4307z"/><path d="m1393 440.3 1.977.9747 1.833 1.225 1.659 1.453 1.453 1.659 1.225 1.833.9747 1.977.7093 2.088.4307 2.163.144 2.201v182.1l-.144 2.2-.4307 2.163-.7093 2.088-.9747 1.977-1.225 1.835-1.453 1.657-1.659 1.453-1.833 1.225-1.977.976-2.088.708-2.163.4306-2.201.144h-182.1l-2.2-.144-2.163-.4306-2.088-.708-1.979-.976-1.833-1.225-1.657-1.453-1.455-1.657-1.224-1.835-.976-1.977-.7093-2.088-.4294-2.163-.144-2.2v-182.1l.144-2.201.4294-2.163.7093-2.088.976-1.977 1.224-1.833 1.455-1.659 1.657-1.453 1.833-1.225 1.979-.9747 2.088-.7093 2.163-.4307 2.2-.144h182.1l2.201.144 2.163.4307z"/></g><path d="m644.3 440.3 1.977.9747 1.833 1.225 1.659 1.453 1.453 1.659 1.225 1.833.9747 1.977.7093 2.088.4307 2.163.144 2.201v182.1l-.144 2.2-.4307 2.163-.7093 2.088-.9747 1.977-1.225 1.835-1.453 1.657-1.659 1.453-1.833 1.225-1.977.976-2.088.708-2.163.4306-2.2.144h-182.1l-2.2-.144-2.163-.4306-2.088-.708-1.977-.976-1.835-1.225-1.657-1.453-1.453-1.657-1.225-1.835-.976-1.977-.708-2.088-.4307-2.163-.144-2.2v-182.1l.144-2.201.4307-2.163.708-2.088.976-1.977 1.225-1.833 1.453-1.659 1.657-1.453 1.835-1.225 1.977-.9747 2.088-.7093 2.163-.4307 2.2-.144h182.1l2.2.144 2.163.4307z"/><path d="m644.3 939.2 1.977.9746 1.833 1.225 1.659 1.455 1.453 1.657 1.225 1.833.9747 1.977.7093 2.088.4307 2.163.144 2.201v182.1l-.144 2.201-.4307 2.161-.7093 2.089-.9747 1.977-1.225 1.833-1.453 1.657-1.659 1.455-1.833 1.225-1.977.9746-2.088.7094-2.163.4293-2.2.144h-182.1l-2.2-.144-2.163-.4293-2.088-.7094-1.977-.9746-1.835-1.225-1.657-1.455-1.453-1.657-1.225-1.833-.976-1.977-.708-2.089-.4307-2.161-.144-2.201v-182.1l.144-2.201.4307-2.163.708-2.088.976-1.977 1.225-1.833 1.453-1.657 1.657-1.455 1.835-1.225 1.977-.9746 2.088-.7094 2.163-.4306 2.2-.144h182.1l2.2.144 2.163.4306z"/></g><path d="m893.8 939.2 1.977.9746 1.833 1.225 1.657 1.455 1.455 1.657 1.225 1.833.9747 1.977.7093 2.088.4293 2.163.144 2.201v182.1l-.144 2.201-.4293 2.161-.7093 2.089-.9747 1.977-1.225 1.833-1.455 1.657-1.657 1.455-1.833 1.225-1.977.9746-2.088.7094-2.163.4293-2.201.144h-182.1l-2.201-.144-2.163-.4293-2.088-.7094-1.977-.9746-1.833-1.225-1.657-1.455-1.455-1.657-1.225-1.833-.9747-1.977-.7093-2.089-.4307-2.161-.144-2.201v-182.1l.144-2.201.4307-2.163.7093-2.088.9747-1.977 1.225-1.833 1.455-1.657 1.657-1.455 1.833-1.225 1.977-.9746 2.088-.7094 2.163-.4306 2.201-.144h182.1l2.201.144 2.163.4306z"/><path d="m893.8 1189 1.977.976 1.833 1.225 1.657 1.453 1.455 1.657 1.225 1.835.9747 1.977.7093 2.088.4293 2.163.144 2.2v182.1l-.144 2.2-.4293 2.163-.7093 2.088-.9747 1.977-1.225 1.835-1.455 1.657-1.657 1.453-1.833 1.225-1.977.9747-2.088.7093-2.163.4307-2.201.144h-182.1l-2.201-.144-2.163-.4307-2.088-.7093-1.977-.9747-1.833-1.225-1.657-1.453-1.455-1.657-1.225-1.835-.9747-1.977-.7093-2.088-.4307-2.163-.144-2.2v-182.1l.144-2.2.4307-2.163.7093-2.088.9747-1.977 1.225-1.835 1.455-1.657 1.657-1.453 1.833-1.225 1.977-.976 2.088-.708 2.163-.4307 2.201-.144h182.1l2.201.144 2.163.4307z" fill="#fff" fill-opacity=".251"/></g></g></svg>
