<?xml version="1.0" encoding="UTF-8"?>
<svg width="39mm" height="71mm" version="1.1" viewBox="0 0 147.4 268.3" xml:space="preserve" xmlns="http://www.w3.org/2000/svg"><g fill-rule="evenodd" stroke="#000" stroke-linecap="square" stroke-linejoin="round" stroke-width=".5"><path d="m0.2501 0.2501v148.1l0.01558 2e-3h14.74l6.929-6.93h103.8l6.927 6.934h14.49v-148.1h-25.6v5.523h-95.69v-5.523z" fill="#808080" opacity=".99"/><path d="m22 141.4-6.948 6.932h-14.78l-0.01562-2e-3v119.8h146.9v-119.8h-14.53l-6.946-6.934h-90.68z" fill="#fff" opacity=".99"/></g><g fill="none" stroke="#000" stroke-linejoin="round" stroke-miterlimit="9.884"><g stroke-linecap="round" stroke-width=".5"><path d="m63.68 267h-63.3" opacity=".99"/><path d="m147.2 267-63.34-1e-5" opacity=".99"/><path d="m59.64 265.8-59.26-1e-5" opacity=".99"/><path d="m147.2 265.8-59.33 1e-5" opacity=".99"/><path d="m55.82 264.3h-55.43" opacity=".99"/><path d="m147.2 264.3h-55.65" opacity=".99"/><path d="m52.16 262.4h-51.78" opacity=".99"/><path d="m147.2 262.4h-51.85" opacity=".99"/></g><g stroke-linecap="square" stroke-width=".5"><path d="m25.65 1.262h-25.4" opacity=".99"/><path d="m121.5 31.32-95.65-1e-6" opacity=".99"/><path d="m147.2 1.261-25.4-1e-7" opacity=".99"/><path d="m25.65 2.396h-25.4" opacity=".99"/><path d="m121.5 30.19h-95.65" opacity=".99"/><path d="m147.2 2.396h-25.4" opacity=".99"/><path d="m25.65 3.907h-25.4" opacity=".99"/><path d="m121.5 28.68h-95.65" opacity=".99"/><path d="m147.2 3.907-25.4-1e-7" opacity=".99"/><path d="m121.5 26.79h-95.65" opacity=".99"/></g></g><rect x="25.89" y="5.562" width="4.574" height="19.92" rx="0" fill-opacity=".502" fill-rule="evenodd" opacity=".99" stroke-miterlimit="9.884" stroke-width=".5"/><rect x="117.1" y="5.562" width="4.574" height="19.92" rx="0" fill-opacity=".502" fill-rule="evenodd" opacity=".99" stroke-miterlimit="9.884" stroke-width=".5"/><g fill="none" stroke="#000" stroke-linecap="square" stroke-linejoin="round" stroke-miterlimit="9.884" stroke-width=".5"><rect x="25.9" y="5.774" width="95.69" height="26.65" opacity=".99"/><path d="m116.8 7.039-86.09 1e-6" opacity=".99"/><path d="m116.8 8.173h-86.09" opacity=".99"/><path d="m116.8 9.684h-86.09" opacity=".99"/><path d="m116.8 11.57h-86.09" opacity=".99"/></g><g transform="translate(30.24)" stroke-miterlimit="9.884" stroke-width=".4999"><path d="m58.42 102.2h-29.92v-29.28h29.92z" fill="none" stroke="#c4c4c4"/><path d="m57.32 81.22a0.7456 0.7456 0 0 0-0.7463 0.7481 0.7441 0.7441 0 0 0 0.7463 0.7455c0.4144 0 0.7481-0.3321 0.7481-0.7455a0.7466 0.7466 0 0 0-0.7481-0.7481m0 0.1477c0.332 0 0.6022 0.2684 0.6022 0.6005 0 0.3303-0.2702 0.6004-0.6022 0.6004-0.3311 0-0.5978-0.2702-0.5978-0.6004 0-0.3321 0.2667-0.6005 0.5978-0.6005zm0.3804 0.9897-0.0895-0.1556c-0.0778-0.1369-0.1001-0.1575-0.1656-0.1817v-4e-3c0.1307-0.0151 0.2088-0.1002 0.2088-0.2167 0-0.1225-0.078-0.2156-0.2443-0.2156h-0.3848v0.7731h0.1591v-0.3168h0.0285c0.0681 0 0.0959 7e-3 0.1272 0.0385 0.0305 0.0314 0.0779 0.0966 0.1057 0.1522l0.0618 0.1262zm-0.5164-0.441v-0.2113h0.1432c0.1059 0 0.1611 0.0367 0.1611 0.1048 0 0.0545-0.0348 0.1063-0.1422 0.1063zm-3.723 3.578c-0.0324 0.7965-1.199 3.982-1.613 4.684-0.1797 0.3051-0.382 0.5566-0.7471 0.5557-0.3185 0-0.46-0.2256-0.4689-0.4832-0.0236-0.7187 1.296-4.32 1.747-4.907 0.2005-0.3089 0.4242-0.3588 0.68-0.3553 0.3744 4e-3 0.4116 0.2749 0.4026 0.5065m2.126 1.3c-0.2649 1.32-0.8608 2.881-1.509 4.046-1.056 1.9-2.338 2.165-3.458 2.151-1.118-0.0134-2.382-0.4268-2.391-2.154-7e-3 -1.241 0.5278-2.991 0.9828-4.139 0.7909-2.081 1.6-3.776 4.158-3.746 2.982 0.035 2.451 2.688 2.218 3.842zm-9.469-1.85c-0.4322 0-0.7142 0.273-0.9244 0.5682-0.4618 0.6487-1.464 3.251-1.62 4.318-0.1056 0.7322 0.2096 0.8805 0.5556 0.8805 0.554 0 1.175-0.5861 1.387-1.554 0 0-1.055-0.026-0.7641-0.9614 0.282-0.9082 0.8189-1.105 1.707-1.141 1.751-0.0715 1.578 1.222 1.438 1.911-0.4548 2.239-2.049 4.038-4.304 4.038-1.543 0-2.501-0.8544-2.501-2.428 0-1.121 0.5562-2.881 0.9967-3.911 0.9383-2.193 1.923-3.727 4.43-3.727 1.504 0 2.691 0.5404 2.517 1.95-0.1271 1.035-0.6443 1.643-1.585 1.716-0.2633 0.0205-1.34-7e-3 -0.9826-1.026 0.1242-0.3553 0.1761-0.6344-0.3526-0.6344zm-7.845 3.877c-0.1037 0.28-0.2989 0.8644-0.4564 1.485 0.5114-0.1271 0.8953-0.2174 1.553-0.2005 0.7499 0.0178 1.229 0.3295 1.229 0.9486 0 1.503-1.66 1.943-2.813 1.943-1.266 0-2.376-0.7205-2.376-2.103 0-1.623 0.8788-4.081 1.703-5.718 1.014-2.012 2.049-2.28 3.831-2.28 0.7835 0 1.687 0.3348 1.687 1.074 0 1.026-0.8685 1.417-1.73 1.467-0.3674 0.0205-0.9333 0.0411-1.272 0.017 0 0-0.2869 0.4376-0.592 1.216 1.596-0.2246 2.272 0.1378 2.003 1.061-0.3638 1.246-1.444 1.328-2.767 1.091zm-5.079 1.441c1.56-0.271 1.953 0.2937 1.903 0.8144-0.1463 1.564-1.581 1.913-2.827 1.885-0.9033-0.0215-1.716-0.4346-1.739-1.484-0.0393-1.835 1.832-6.079 2.713-7.485 0.4062-0.6683 0.902-0.9978 1.693-0.9978 0.7485 0 0.9346 0.3838 0.9235 0.8447-0.029 1.228-2.015 4.964-2.667 6.422zm20.06-8.242c-1.611 0-2.725 0.6389-3.477 1.531-0.1271-0.2666-0.2247-0.3838-0.3608-0.5378-0.6165-0.6971-1.609-1.023-2.94-1.023-1.3 0-2.384 0.4063-3.137 1.046-0.3911-0.6353-1.322-1.057-2.446-1.057-1.468 0-3.067 0.2085-4.016 1.738-0.022-0.5504-0.0725-0.8412-0.3821-1.17-0.3758-0.3974-0.9845-0.502-1.577-0.502-1.081 0-1.893 0.4716-2.478 1.433-0.8483 1.355-2.906 5.816-2.859 7.975 0.029 1.396 0.9657 2.401 2.641 2.44 1.31 0.0313 2.336-0.3186 2.989-0.9772 0.5857 0.6353 1.481 1.01 2.55 1.01 1.192 0 2.391-0.3569 3.099-1.139 0.5968 0.7319 1.535 1.158 2.742 1.153 1.579-7e-3 2.964-0.7551 3.87-1.903 0.4955 1.352 1.755 1.889 3.133 1.889 3.016 0 4.34-2.073 5.442-5.351 0.2487-0.7393 0.58-1.972 0.6355-3.006 0.0911-1.724-0.6382-3.546-3.427-3.546z" fill="#c4c4c4" fill-opacity=".5451"/></g><circle cx="73.7" cy="224.9" r="43.22" fill="#808080" fill-rule="evenodd" opacity=".99" stroke="#000" stroke-linecap="square" stroke-linejoin="round" stroke-miterlimit="9.884" stroke-width=".4997"/><path d="m73.7 182a12.71 12.71 0 0 0-12.69 12.3h-0.02148v17.85h-17.88v0.0137a12.71 12.71 0 0 0-12.3 12.7 12.71 12.71 0 0 0 12.3 12.69v0.0195h17.88v17.85h0.01367a12.71 12.71 0 0 0 12.7 12.3 12.71 12.71 0 0 0 12.69-12.3h0.02148v-17.85h17.82v-0.0137a12.71 12.71 0 0 0 12.3-12.7 12.71 12.71 0 0 0-12.3-12.7v-0.0195h-17.82v-17.85h-0.01563a12.71 12.71 0 0 0-12.7-12.3z" fill-opacity=".251" fill-rule="evenodd" opacity=".99"/><g fill-opacity=".502" fill-rule="evenodd"><path d="m73.71 214.6a10.27 10.27 0 0 0-4.189 0.9082v5.17h-5.176a10.27 10.27 0 0 0-0.9023 4.189 10.27 10.27 0 0 0 0.9082 4.189h5.17v5.176a10.27 10.27 0 0 0 4.189 0.9023 10.27 10.27 0 0 0 4.189-0.9082v-5.17h5.176a10.27 10.27 0 0 0 0.9023-4.189 10.27 10.27 0 0 0-0.9082-4.189h-5.17v-5.176a10.27 10.27 0 0 0-4.189-0.9023z" opacity=".99"/><circle cx="73.7" cy="194.2" r="9.709" opacity=".99"/><circle cx="73.7" cy="255.6" r="9.709" opacity=".99"/><circle cx="43.03" cy="224.6" r="9.709" opacity=".99"/><circle cx="104.4" cy="224.6" r="9.709" opacity=".99"/></g><path d="m25.76 5.793h-25.51" fill="none" opacity=".99" stroke="#000" stroke-linecap="square" stroke-linejoin="round" stroke-miterlimit="9.884" stroke-width=".5"/><path d="m147.1 5.779h-25.51" fill="none" opacity=".99" stroke="#000" stroke-linecap="square" stroke-linejoin="round" stroke-miterlimit="9.884" stroke-width=".5"/><g transform="translate(-1.342)" fill-opacity=".251" fill-rule="evenodd" stroke="#000"><path d="m16.26 30.82a12.29 12.29 0 0 0-12.3 12.29 12.29 12.29 0 0 0 0.00195 0.04883h-0.03516v60.62h0.03516a12.29 12.29 0 0 0-0.00195 0.041 12.29 12.29 0 0 0 12.3 12.3 12.29 12.29 0 0 0 12.29-12.3 12.29 12.29 0 0 0-2e-3 -0.041h0.03516v-60.62h-0.03516a12.29 12.29 0 0 0 2e-3 -0.04883 12.29 12.29 0 0 0-12.29-12.29z" opacity=".99" stroke-width=".6331"/><g stroke-width=".5"><circle cx="16.26" cy="43.11" r="9.709" opacity=".99"/><circle cx="16.26" cy="103.8" r="9.709" opacity=".99"/></g></g><g transform="translate(-1.342)" fill-opacity=".251" fill-rule="evenodd" stroke="#000"><path d="m133.8 31.24a12.29 12.29 0 0 0-12.3 12.29 12.29 12.29 0 0 0 2e-3 0.04883h-0.0352v60.62h0.0352a12.29 12.29 0 0 0-2e-3 0.041 12.29 12.29 0 0 0 12.3 12.3 12.29 12.29 0 0 0 12.29-12.3 12.29 12.29 0 0 0-2e-3 -0.041h0.0352v-60.62h-0.0352a12.29 12.29 0 0 0 2e-3 -0.04883 12.29 12.29 0 0 0-12.29-12.29z" opacity=".99" stroke-width=".6331"/><g stroke-width=".5"><circle cx="133.8" cy="43.54" r="9.709" opacity=".99"/><circle cx="133.8" cy="104.3" r="9.709" opacity=".99"/></g></g><circle cx="14.92" cy="224.5" r="9.709" fill-opacity=".502" fill-rule="evenodd" opacity=".99" stroke="#000" stroke-width=".5"/><circle cx="132.5" cy="224.8" r="9.709" fill-opacity=".502" fill-rule="evenodd" opacity=".99" stroke="#000" stroke-width=".5"/></svg>
