<?xml version="1.0" encoding="UTF-8"?>
<svg version="1.1" viewBox="0 0 211.7 332.6" xml:space="preserve" xmlns="http://www.w3.org/2000/svg"><path d="m14.87 0.1193-1.934 0.127-1.898 0.377-1.836 0.623-1.736 0.8574-1.611 1.076-1.455 1.277-1.279 1.457-1.076 1.609-0.8555 1.736-0.623 1.836-0.3789 1.9-0.127 1.932v302.8l0.127 1.932 0.3789 1.9 0.623 1.836 0.8555 1.736 1.076 1.609 1.279 1.457 1.455 1.277 1.611 1.076 1.736 0.8574 1.836 0.623 1.898 0.377 1.934 0.127h182l1.934-0.127 1.9-0.377 1.834-0.623 1.738-0.8574 1.609-1.076 1.457-1.277 1.277-1.457 1.076-1.609 0.8574-1.736 0.623-1.836 0.377-1.9 0.127-1.932v-302.8l-0.127-1.932-0.377-1.9-0.623-1.836-0.8574-1.736-1.076-1.609-1.277-1.457-1.457-1.277-1.609-1.076-1.738-0.8574-1.834-0.623-1.9-0.377-1.934-0.127zm151.1 26.87 2.318 0.1523 2.279 0.4531 2.201 0.748 2.086 1.027 1.932 1.291 1.748 1.533 1.533 1.748 1.291 1.932 1.027 2.086 0.748 2.201 0.4531 2.279 0.1523 2.32-0.1523 2.318-0.4531 2.279-0.748 2.201-1.027 2.086-1.291 1.932-1.533 1.748-1.748 1.531-1.932 1.291-2.086 1.029-2.201 0.7461-2.279 0.4531-2.318 0.1523-2.32-0.1523-2.279-0.4531-2.201-0.7461-2.086-1.029-1.932-1.291-1.748-1.531-1.533-1.748-1.291-1.932-1.027-2.086-0.748-2.201-0.4531-2.279-0.1524-2.318 0.1524-2.32 0.4531-2.279 0.748-2.201 1.027-2.086 1.291-1.932 1.533-1.748 1.748-1.533 1.932-1.291 2.086-1.027 2.201-0.748 2.279-0.4531zm-6e-3 2.969-1.934 0.125-1.898 0.3789-1.836 0.623-1.736 0.8555-1.611 1.076-1.457 1.279-1.277 1.455-1.076 1.611-0.8555 1.736-0.623 1.836-0.3789 1.9-0.127 1.932 0.127 1.934 0.3789 1.9 0.623 1.834 0.8555 1.738 1.076 1.609 1.277 1.455 1.457 1.279 1.611 1.076 1.736 0.8555 1.836 0.623 1.898 0.3789 1.934 0.125 1.934-0.125 1.9-0.3789 1.834-0.623 1.738-0.8555 1.609-1.076 1.457-1.279 1.277-1.455 1.076-1.609 0.8574-1.738 0.623-1.834 0.377-1.9 0.127-1.934-0.127-1.932-0.377-1.9-0.623-1.836-0.8574-1.736-1.076-1.611-1.277-1.455-1.457-1.279-1.609-1.076-1.738-0.8555-1.834-0.623-1.9-0.3789zm-134.1 55.88h22.85l0.2754 0.01758 0.2715 0.05469 0.2617 0.08984 0.248 0.1211 0.2305 0.1543 0.209 0.1816 0.1816 0.209 0.1543 0.2305 0.1211 0.248 0.08984 0.2617 0.05469 0.2715 0.01758 0.2754v22.85l-0.01758 0.2754-0.05469 0.2715-0.08984 0.2617-0.1211 0.248-0.1543 0.2305-0.1816 0.207-0.209 0.1836-0.2305 0.1543-0.248 0.1211-0.2617 0.0898-0.2715 0.0527-0.2754 0.0195h-22.85l-0.2773-0.0195-0.2715-0.0527-0.2617-0.0898-0.248-0.1211-0.2305-0.1543-0.207-0.1836-0.1836-0.207-0.1543-0.2305-0.1211-0.248-0.08985-0.2617-0.05273-0.2715-0.01953-0.2754v-22.85l0.01953-0.2754 0.05273-0.2715 0.08985-0.2617 0.1211-0.248 0.1543-0.2305 0.1836-0.209 0.207-0.1816 0.2305-0.1543 0.248-0.1211 0.2617-0.08984 0.2715-0.05469zm31.31 0h22.85l0.2773 0.01758 0.2715 0.05469 0.2617 0.08984 0.248 0.1211 0.2305 0.1543 0.207 0.1816 0.1836 0.209 0.1524 0.2305 0.123 0.248 0.0879 0.2617 0.05468 0.2715 0.01758 0.2754v22.85l-0.01758 0.2754-0.05468 0.2715-0.0879 0.2617-0.123 0.248-0.1524 0.2305-0.1836 0.207-0.207 0.1836-0.2305 0.1543-0.248 0.1211-0.2617 0.0898-0.2715 0.0527-0.2773 0.0195h-22.85l-0.2754-0.0195-0.2715-0.0527-0.2617-0.0898-0.248-0.1211-0.2305-0.1543-0.209-0.1836-0.1816-0.207-0.1543-0.2305-0.123-0.248-0.08789-0.2617-0.05469-0.2715-0.01758-0.2754v-22.85l0.01758-0.2754 0.05469-0.2715 0.08789-0.2617 0.123-0.248 0.1543-0.2305 0.1816-0.209 0.209-0.1816 0.2305-0.1543 0.248-0.1211 0.2617-0.08984 0.2715-0.05469zm31.33 0h22.85l0.2774 0.01758 0.2715 0.05469 0.2617 0.08984 0.248 0.1211 0.2305 0.1543 0.207 0.1816 0.1836 0.209 0.1524 0.2305 0.123 0.248 0.0879 0.2617 0.0547 0.2715 0.0176 0.2754v22.85l-0.0176 0.2754-0.0547 0.2715-0.0879 0.2617-0.123 0.248-0.1524 0.2305-0.1836 0.207-0.207 0.1836-0.2305 0.1543-0.248 0.1211-0.2617 0.0898-0.2715 0.0527-0.2774 0.0195h-22.85l-0.2754-0.0195-0.2715-0.0527-0.2637-0.0898-0.248-0.1211-0.2285-0.1543-0.209-0.1836-0.1816-0.207-0.1543-0.2305-0.123-0.248-0.08789-0.2617-0.05469-0.2715-0.01758-0.2754v-22.85l0.01758-0.2754 0.05469-0.2715 0.08789-0.2617 0.123-0.248 0.1543-0.2305 0.1816-0.209 0.209-0.1816 0.2285-0.1543 0.248-0.1211 0.2637-0.08984 0.2715-0.05469zm31.2 0h22.85l0.2754 0.01758 0.2715 0.05469 0.2617 0.08984 0.248 0.1211 0.2305 0.1543 0.209 0.1816 0.1816 0.209 0.1543 0.2305 0.1211 0.248 0.0898 0.2617 0.0547 0.2715 0.0176 0.2754v22.85l-0.0176 0.2754-0.0547 0.2715-0.0898 0.2617-0.1211 0.248-0.1543 0.2305-0.1816 0.207-0.209 0.1836-0.2305 0.1543-0.248 0.1211-0.2617 0.0898-0.2715 0.0527-0.2754 0.0195h-22.85l-0.2754-0.0195-0.2715-0.0527-0.2617-0.0898-0.248-0.1211-0.2305-0.1543-0.207-0.1836-0.1836-0.207-0.1543-0.2305-0.1211-0.248-0.0898-0.2617-0.0527-0.2715-0.0195-0.2754v-22.85l0.0195-0.2754 0.0527-0.2715 0.0898-0.2617 0.1211-0.248 0.1543-0.2305 0.1836-0.209 0.207-0.1816 0.2305-0.1543 0.248-0.1211 0.2617-0.08984 0.2715-0.05469zm31.4 0h22.85l0.2774 0.01758 0.2715 0.05469 0.2617 0.08984 0.248 0.1211 0.2305 0.1543 0.207 0.1816 0.1836 0.209 0.1524 0.2305 0.123 0.248 0.0899 0.2617 0.0527 0.2715 0.0195 0.2754v22.85l-0.0195 0.2754-0.0527 0.2715-0.0899 0.2617-0.123 0.248-0.1524 0.2305-0.1836 0.207-0.207 0.1836-0.2305 0.1543-0.248 0.1211-0.2617 0.0898-0.2715 0.0527-0.2774 0.0195h-22.85l-0.2754-0.0195-0.2715-0.0527-0.2617-0.0898-0.248-0.1211-0.2305-0.1543-0.209-0.1836-0.1816-0.207-0.1543-0.2305-0.123-0.248-0.0879-0.2617-0.0547-0.2715-0.0176-0.2754v-22.85l0.0176-0.2754 0.0547-0.2715 0.0879-0.2617 0.123-0.248 0.1543-0.2305 0.1816-0.209 0.209-0.1816 0.2305-0.1543 0.248-0.1211 0.2617-0.08984 0.2715-0.05469zm-125.2 31.34h22.85l0.2754 0.0176 0.2715 0.0547 0.2617 0.0898 0.248 0.1211 0.2305 0.1543 0.209 0.1816 0.1816 0.209 0.1543 0.2305 0.1211 0.248 0.08984 0.2617 0.05469 0.2715 0.01758 0.2754v22.85l-0.01758 0.2774-0.05469 0.2715-0.08984 0.2617-0.1211 0.248-0.1543 0.2305-0.1816 0.207-0.209 0.1836-0.2305 0.1523-0.248 0.123-0.2617 0.0898-0.2715 0.0527-0.2754 0.0195h-22.85l-0.2773-0.0195-0.2715-0.0527-0.2617-0.0898-0.248-0.123-0.2305-0.1523-0.207-0.1836-0.1836-0.207-0.1543-0.2305-0.1211-0.248-0.08985-0.2617-0.05273-0.2715-0.01953-0.2774v-22.85l0.01953-0.2754 0.05273-0.2715 0.08985-0.2617 0.1211-0.248 0.1543-0.2305 0.1836-0.209 0.207-0.1816 0.2305-0.1543 0.248-0.1211 0.2617-0.0898 0.2715-0.0547zm31.31 0h22.85l0.2773 0.0176 0.2715 0.0547 0.2617 0.0898 0.248 0.1211 0.2305 0.1543 0.207 0.1816 0.1836 0.209 0.1524 0.2305 0.123 0.248 0.0879 0.2617 0.05468 0.2715 0.01758 0.2754v22.85l-0.01758 0.2774-0.05468 0.2715-0.0879 0.2617-0.123 0.248-0.1524 0.2305-0.1836 0.207-0.207 0.1836-0.2305 0.1523-0.248 0.123-0.2617 0.0898-0.2715 0.0527-0.2773 0.0195h-22.85l-0.2754-0.0195-0.2715-0.0527-0.2617-0.0898-0.248-0.123-0.2305-0.1523-0.209-0.1836-0.1816-0.207-0.1543-0.2305-0.123-0.248-0.08789-0.2617-0.05469-0.2715-0.01758-0.2774v-22.85l0.01758-0.2754 0.05469-0.2715 0.08789-0.2617 0.123-0.248 0.1543-0.2305 0.1816-0.209 0.209-0.1816 0.2305-0.1543 0.248-0.1211 0.2617-0.0898 0.2715-0.0547zm31.33 0h22.85l0.2774 0.0176 0.2715 0.0547 0.2617 0.0898 0.248 0.1211 0.2305 0.1543 0.207 0.1816 0.1836 0.209 0.1524 0.2305 0.123 0.248 0.0879 0.2617 0.0547 0.2715 0.0176 0.2754v22.85l-0.0176 0.2774-0.0547 0.2715-0.0879 0.2617-0.123 0.248-0.1524 0.2305-0.1836 0.207-0.207 0.1836-0.2305 0.1523-0.248 0.123-0.2617 0.0898-0.2715 0.0527-0.2774 0.0195h-22.85l-0.2754-0.0195-0.2715-0.0527-0.2637-0.0898-0.248-0.123-0.2285-0.1523-0.209-0.1836-0.1816-0.207-0.1543-0.2305-0.123-0.248-0.08789-0.2617-0.05469-0.2715-0.01758-0.2774v-22.85l0.01758-0.2754 0.05469-0.2715 0.08789-0.2617 0.123-0.248 0.1543-0.2305 0.1816-0.209 0.209-0.1816 0.2285-0.1543 0.248-0.1211 0.2637-0.0898 0.2715-0.0547zm31.2 0h22.85l0.2754 0.0176 0.2715 0.0547 0.2617 0.0898 0.248 0.1211 0.2305 0.1543 0.209 0.1816 0.1816 0.209 0.1543 0.2305 0.1211 0.248 0.0898 0.2617 0.0547 0.2715 0.0176 0.2754v22.85l-0.0176 0.2774-0.0547 0.2715-0.0898 0.2617-0.1211 0.248-0.1543 0.2305-0.1816 0.207-0.209 0.1836-0.2305 0.1523-0.248 0.123-0.2617 0.0898-0.2715 0.0527-0.2754 0.0195h-22.85l-0.2754-0.0195-0.2715-0.0527-0.2617-0.0898-0.248-0.123-0.2305-0.1523-0.207-0.1836-0.1836-0.207-0.1543-0.2305-0.1211-0.248-0.0898-0.2617-0.0527-0.2715-0.0195-0.2774v-22.85l0.0195-0.2754 0.0527-0.2715 0.0898-0.2617 0.1211-0.248 0.1543-0.2305 0.1836-0.209 0.207-0.1816 0.2305-0.1543 0.248-0.1211 0.2617-0.0898 0.2715-0.0547zm31.4 0h22.85l0.2774 0.0176 0.2715 0.0547 0.2617 0.0898 0.248 0.1211 0.2305 0.1543 0.207 0.1816 0.1836 0.209 0.1524 0.2305 0.123 0.248 0.0899 0.2617 0.0527 0.2715 0.0195 0.2754v22.85l-0.0195 0.2774-0.0527 0.2715-0.0899 0.2617-0.123 0.248-0.1524 0.2305-0.1836 0.207-0.207 0.1836-0.2305 0.1523-0.248 0.123-0.2617 0.0898-0.2715 0.0527-0.2774 0.0195h-22.85l-0.2754-0.0195-0.2715-0.0527-0.2617-0.0898-0.248-0.123-0.2305-0.1523-0.209-0.1836-0.1816-0.207-0.1543-0.2305-0.123-0.248-0.0879-0.2617-0.0547-0.2715-0.0176-0.2774v-22.85l0.0176-0.2754 0.0547-0.2715 0.0879-0.2617 0.123-0.248 0.1543-0.2305 0.1816-0.209 0.209-0.1816 0.2305-0.1543 0.248-0.1211 0.2617-0.0898 0.2715-0.0547zm-125.2 31.3h22.85l0.2754 0.0176 0.2715 0.0547 0.2617 0.0879 0.248 0.123 0.2305 0.1543 0.209 0.1816 0.1816 0.209 0.1543 0.2285 0.1211 0.248 0.08984 0.2637 0.05469 0.2715 0.01758 0.2754v22.85l-0.01758 0.2774-0.05469 0.2695-0.08984 0.2637-0.1211 0.248-0.1543 0.2285-0.1816 0.209-0.209 0.1816-0.2305 0.1543-0.248 0.123-0.2617 0.0879-0.2715 0.0547-0.2754 0.0176h-22.85l-0.2773-0.0176-0.2715-0.0547-0.2617-0.0879-0.248-0.123-0.2305-0.1543-0.207-0.1816-0.1836-0.209-0.1543-0.2285-0.1211-0.248-0.08985-0.2637-0.05273-0.2695-0.01953-0.2774v-22.85l0.01953-0.2754 0.05273-0.2715 0.08985-0.2637 0.1211-0.248 0.1543-0.2285 0.1836-0.209 0.207-0.1816 0.2305-0.1543 0.248-0.123 0.2617-0.0879 0.2715-0.0547zm31.31 0h22.85l0.2773 0.0176 0.2715 0.0547 0.2617 0.0879 0.248 0.123 0.2305 0.1543 0.207 0.1816 0.1836 0.209 0.1524 0.2285 0.123 0.248 0.0879 0.2637 0.05468 0.2715 0.01758 0.2754v22.85l-0.01758 0.2774-0.05468 0.2695-0.0879 0.2637-0.123 0.248-0.1524 0.2285-0.1836 0.209-0.207 0.1816-0.2305 0.1543-0.248 0.123-0.2617 0.0879-0.2715 0.0547-0.2773 0.0176h-22.85l-0.2754-0.0176-0.2715-0.0547-0.2617-0.0879-0.248-0.123-0.2305-0.1543-0.209-0.1816-0.1816-0.209-0.1543-0.2285-0.123-0.248-0.08789-0.2637-0.05469-0.2695-0.01758-0.2774v-22.85l0.01758-0.2754 0.05469-0.2715 0.08789-0.2637 0.123-0.248 0.1543-0.2285 0.1816-0.209 0.209-0.1816 0.2305-0.1543 0.248-0.123 0.2617-0.0879 0.2715-0.0547zm31.33 0h22.85l0.2774 0.0176 0.2715 0.0547 0.2617 0.0879 0.248 0.123 0.2305 0.1543 0.207 0.1816 0.1836 0.209 0.1524 0.2285 0.123 0.248 0.0879 0.2637 0.0547 0.2715 0.0176 0.2754v22.85l-0.0176 0.2774-0.0547 0.2695-0.0879 0.2637-0.123 0.248-0.1524 0.2285-0.1836 0.209-0.207 0.1816-0.2305 0.1543-0.248 0.123-0.2617 0.0879-0.2715 0.0547-0.2774 0.0176h-22.85l-0.2754-0.0176-0.2715-0.0547-0.2637-0.0879-0.248-0.123-0.2285-0.1543-0.209-0.1816-0.1816-0.209-0.1543-0.2285-0.123-0.248-0.08789-0.2637-0.05469-0.2695-0.01758-0.2774v-22.85l0.01758-0.2754 0.05469-0.2715 0.08789-0.2637 0.123-0.248 0.1543-0.2285 0.1816-0.209 0.209-0.1816 0.2285-0.1543 0.248-0.123 0.2637-0.0879 0.2715-0.0547zm31.2 0h22.85l0.2754 0.0176 0.2715 0.0547 0.2617 0.0879 0.248 0.123 0.2305 0.1543 0.209 0.1816 0.1816 0.209 0.1543 0.2285 0.1211 0.248 0.0898 0.2637 0.0547 0.2715 0.0176 0.2754v22.85l-0.0176 0.2774-0.0547 0.2695-0.0898 0.2637-0.1211 0.248-0.1543 0.2285-0.1816 0.209-0.209 0.1816-0.2305 0.1543-0.248 0.123-0.2617 0.0879-0.2715 0.0547-0.2754 0.0176h-22.85l-0.2754-0.0176-0.2715-0.0547-0.2617-0.0879-0.248-0.123-0.2305-0.1543-0.207-0.1816-0.1836-0.209-0.1543-0.2285-0.1211-0.248-0.0898-0.2637-0.0527-0.2695-0.0195-0.2774v-22.85l0.0195-0.2754 0.0527-0.2715 0.0898-0.2637 0.1211-0.248 0.1543-0.2285 0.1836-0.209 0.207-0.1816 0.2305-0.1543 0.248-0.123 0.2617-0.0879 0.2715-0.0547zm31.4 0h22.85l0.2774 0.0176 0.2715 0.0547 0.2617 0.0879 0.248 0.123 0.2305 0.1543 0.207 0.1816 0.1836 0.209 0.1524 0.2285 0.123 0.248 0.0899 0.2637 0.0527 0.2715 0.0195 0.2754v22.85l-0.0195 0.2774-0.0527 0.2695-0.0899 0.2637-0.123 0.248-0.1524 0.2285-0.1836 0.209-0.207 0.1816-0.2305 0.1543-0.248 0.123-0.2617 0.0879-0.2715 0.0547-0.2774 0.0176h-22.85l-0.2754-0.0176-0.2715-0.0547-0.2617-0.0879-0.248-0.123-0.2305-0.1543-0.209-0.1816-0.1816-0.209-0.1543-0.2285-0.123-0.248-0.0879-0.2637-0.0547-0.2695-0.0176-0.2774v-22.85l0.0176-0.2754 0.0547-0.2715 0.0879-0.2637 0.123-0.248 0.1543-0.2285 0.1816-0.209 0.209-0.1816 0.2305-0.1543 0.248-0.123 0.2617-0.0879 0.2715-0.0547zm-125.2 31.3h22.85l0.2754 0.0195 0.2715 0.0527 0.2617 0.0898 0.248 0.1211 0.2305 0.1543 0.209 0.1836 0.1816 0.207 0.1543 0.2305 0.1211 0.248 0.08984 0.2617 0.05469 0.2715 0.01758 0.2754v22.85l-0.01758 0.2754-0.05469 0.2715-0.08984 0.2617-0.1211 0.248-0.1543 0.2305-0.1816 0.207-0.209 0.1836-0.2305 0.1543-0.248 0.1211-0.2617 0.0898-0.2715 0.0527-0.2754 0.0195h-22.85l-0.2773-0.0195-0.2715-0.0527-0.2617-0.0898-0.248-0.1211-0.2305-0.1543-0.207-0.1836-0.1836-0.207-0.1543-0.2305-0.1211-0.248-0.08985-0.2617-0.05273-0.2715-0.01953-0.2754v-22.85l0.01953-0.2754 0.05273-0.2715 0.08985-0.2617 0.1211-0.248 0.1543-0.2305 0.1836-0.207 0.207-0.1836 0.2305-0.1543 0.248-0.1211 0.2617-0.0898 0.2715-0.0527zm31.31 0h22.85l0.2773 0.0195 0.2715 0.0527 0.2617 0.0898 0.248 0.1211 0.2305 0.1543 0.207 0.1836 0.1836 0.207 0.1524 0.2305 0.123 0.248 0.0879 0.2617 0.05468 0.2715 0.01758 0.2754v22.85l-0.01758 0.2754-0.05468 0.2715-0.0879 0.2617-0.123 0.248-0.1524 0.2305-0.1836 0.207-0.207 0.1836-0.2305 0.1543-0.248 0.1211-0.2617 0.0898-0.2715 0.0527-0.2773 0.0195h-22.85l-0.2754-0.0195-0.2715-0.0527-0.2617-0.0898-0.248-0.1211-0.2305-0.1543-0.209-0.1836-0.1816-0.207-0.1543-0.2305-0.123-0.248-0.08789-0.2617-0.05469-0.2715-0.01758-0.2754v-22.85l0.01758-0.2754 0.05469-0.2715 0.08789-0.2617 0.123-0.248 0.1543-0.2305 0.1816-0.207 0.209-0.1836 0.2305-0.1543 0.248-0.1211 0.2617-0.0898 0.2715-0.0527zm31.33 0h22.85l0.2774 0.0195 0.2715 0.0527 0.2617 0.0898 0.248 0.1211 0.2305 0.1543 0.207 0.1836 0.1836 0.207 0.1524 0.2305 0.123 0.248 0.0879 0.2617 0.0547 0.2715 0.0176 0.2754v22.85l-0.0176 0.2754-0.0547 0.2715-0.0879 0.2617-0.123 0.248-0.1524 0.2305-0.1836 0.207-0.207 0.1836-0.2305 0.1543-0.248 0.1211-0.2617 0.0898-0.2715 0.0527-0.2774 0.0195h-22.85l-0.2754-0.0195-0.2715-0.0527-0.2637-0.0898-0.248-0.1211-0.2285-0.1543-0.209-0.1836-0.1816-0.207-0.1543-0.2305-0.123-0.248-0.08789-0.2617-0.05469-0.2715-0.01758-0.2754v-22.85l0.01758-0.2754 0.05469-0.2715 0.08789-0.2617 0.123-0.248 0.1543-0.2305 0.1816-0.207 0.209-0.1836 0.2285-0.1543 0.248-0.1211 0.2637-0.0898 0.2715-0.0527zm31.2 0h22.85l0.2754 0.0195 0.2715 0.0527 0.2617 0.0898 0.248 0.1211 0.2305 0.1543 0.209 0.1836 0.1816 0.207 0.1543 0.2305 0.1211 0.248 0.0898 0.2617 0.0547 0.2715 0.0176 0.2754v22.85l-0.0176 0.2754-0.0547 0.2715-0.0898 0.2617-0.1211 0.248-0.1543 0.2305-0.1816 0.207-0.209 0.1836-0.2305 0.1543-0.248 0.1211-0.2617 0.0898-0.2715 0.0527-0.2754 0.0195h-22.85l-0.2754-0.0195-0.2715-0.0527-0.2617-0.0898-0.248-0.1211-0.2305-0.1543-0.207-0.1836-0.1836-0.207-0.1543-0.2305-0.1211-0.248-0.0898-0.2617-0.0527-0.2715-0.0195-0.2754v-22.85l0.0195-0.2754 0.0527-0.2715 0.0898-0.2617 0.1211-0.248 0.1543-0.2305 0.1836-0.207 0.207-0.1836 0.2305-0.1543 0.248-0.1211 0.2617-0.0898 0.2715-0.0527zm31.4 0h22.85l0.2774 0.0195 0.2715 0.0527 0.2617 0.0898 0.248 0.1211 0.2305 0.1543 0.207 0.1836 0.1836 0.207 0.1524 0.2305 0.123 0.248 0.0899 0.2617 0.0527 0.2715 0.0195 0.2754v22.85l-0.0195 0.2754-0.0527 0.2715-0.0899 0.2617-0.123 0.248-0.1524 0.2305-0.1836 0.207-0.207 0.1836-0.2305 0.1543-0.248 0.1211-0.2617 0.0898-0.2715 0.0527-0.2774 0.0195h-22.85l-0.2754-0.0195-0.2715-0.0527-0.2617-0.0898-0.248-0.1211-0.2305-0.1543-0.209-0.1836-0.1816-0.207-0.1543-0.2305-0.123-0.248-0.0879-0.2617-0.0547-0.2715-0.0176-0.2754v-22.85l0.0176-0.2754 0.0547-0.2715 0.0879-0.2617 0.123-0.248 0.1543-0.2305 0.1816-0.207 0.209-0.1836 0.2305-0.1543 0.248-0.1211 0.2617-0.0898 0.2715-0.0527zm-125.2 31.3h22.85l0.2754 0.0176 0.2715 0.0547 0.2617 0.0879 0.248 0.123 0.2305 0.1543 0.209 0.1816 0.1816 0.209 0.1543 0.2305 0.1211 0.248 0.08984 0.2617 0.05469 0.2715 0.01758 0.2754v22.85l-0.01758 0.2774-0.05469 0.2715-0.08984 0.2617-0.1211 0.248-0.1543 0.2305-0.1816 0.207-0.209 0.1836-0.2305 0.1523-0.248 0.123-0.2617 0.0898-0.2715 0.0527-0.2754 0.0176h-22.85l-0.2773-0.0176-0.2715-0.0527-0.2617-0.0898-0.248-0.123-0.2305-0.1523-0.207-0.1836-0.1836-0.207-0.1543-0.2305-0.1211-0.248-0.08985-0.2617-0.05273-0.2715-0.01953-0.2774v-22.85l0.01953-0.2754 0.05273-0.2715 0.08985-0.2617 0.1211-0.248 0.1543-0.2305 0.1836-0.209 0.207-0.1816 0.2305-0.1543 0.248-0.123 0.2617-0.0879 0.2715-0.0547zm31.31 0h22.85l0.2773 0.0176 0.2715 0.0547 0.2617 0.0879 0.248 0.123 0.2305 0.1543 0.207 0.1816 0.1836 0.209 0.1524 0.2305 0.123 0.248 0.0879 0.2617 0.05468 0.2715 0.01758 0.2754v22.85l-0.01758 0.2774-0.05468 0.2715-0.0879 0.2617-0.123 0.248-0.1524 0.2305-0.1836 0.207-0.207 0.1836-0.2305 0.1523-0.248 0.123-0.2617 0.0898-0.2715 0.0527-0.2773 0.0176h-22.85l-0.2754-0.0176-0.2715-0.0527-0.2617-0.0898-0.248-0.123-0.2305-0.1523-0.209-0.1836-0.1816-0.207-0.1543-0.2305-0.123-0.248-0.08789-0.2617-0.05469-0.2715-0.01758-0.2774v-22.85l0.01758-0.2754 0.05469-0.2715 0.08789-0.2617 0.123-0.248 0.1543-0.2305 0.1816-0.209 0.209-0.1816 0.2305-0.1543 0.248-0.123 0.2617-0.0879 0.2715-0.0547zm31.33 0h22.85l0.2774 0.0176 0.2715 0.0547 0.2617 0.0879 0.248 0.123 0.2305 0.1543 0.207 0.1816 0.1836 0.209 0.1524 0.2305 0.123 0.248 0.0879 0.2617 0.0547 0.2715 0.0176 0.2754v22.85l-0.0176 0.2774-0.0547 0.2715-0.0879 0.2617-0.123 0.248-0.1524 0.2305-0.1836 0.207-0.207 0.1836-0.2305 0.1523-0.248 0.123-0.2617 0.0898-0.2715 0.0527-0.2774 0.0176h-22.85l-0.2754-0.0176-0.2715-0.0527-0.2637-0.0898-0.248-0.123-0.2285-0.1523-0.209-0.1836-0.1816-0.207-0.1543-0.2305-0.123-0.248-0.08789-0.2617-0.05469-0.2715-0.01758-0.2774v-22.85l0.01758-0.2754 0.05469-0.2715 0.08789-0.2617 0.123-0.248 0.1543-0.2305 0.1816-0.209 0.209-0.1816 0.2285-0.1543 0.248-0.123 0.2637-0.0879 0.2715-0.0547zm31.2 0h22.85l0.2754 0.0176 0.2715 0.0547 0.2617 0.0879 0.248 0.123 0.2305 0.1543 0.209 0.1816 0.1816 0.209 0.1543 0.2305 0.1211 0.248 0.0898 0.2617 0.0547 0.2715 0.0176 0.2754v22.85l-0.0176 0.2774-0.0547 0.2715-0.0898 0.2617-0.1211 0.248-0.1543 0.2305-0.1816 0.207-0.209 0.1836-0.2305 0.1523-0.248 0.123-0.2617 0.0898-0.2715 0.0527-0.2754 0.0176h-22.85l-0.2754-0.0176-0.2715-0.0527-0.2617-0.0898-0.248-0.123-0.2305-0.1523-0.207-0.1836-0.1836-0.207-0.1543-0.2305-0.1211-0.248-0.0898-0.2617-0.0527-0.2715-0.0195-0.2774v-22.85l0.0195-0.2754 0.0527-0.2715 0.0898-0.2617 0.1211-0.248 0.1543-0.2305 0.1836-0.209 0.207-0.1816 0.2305-0.1543 0.248-0.123 0.2617-0.0879 0.2715-0.0547zm31.4 0h22.85l0.2774 0.0176 0.2715 0.0547 0.2617 0.0879 0.248 0.123 0.2305 0.1543 0.207 0.1816 0.1836 0.209 0.1524 0.2305 0.123 0.248 0.0899 0.2617 0.0527 0.2715 0.0195 0.2754v22.85l-0.0195 0.2774-0.0527 0.2715-0.0899 0.2617-0.123 0.248-0.1524 0.2305-0.1836 0.207-0.207 0.1836-0.2305 0.1523-0.248 0.123-0.2617 0.0898-0.2715 0.0527-0.2774 0.0176h-22.85l-0.2754-0.0176-0.2715-0.0527-0.2617-0.0898-0.248-0.123-0.2305-0.1523-0.209-0.1836-0.1816-0.207-0.1543-0.2305-0.123-0.248-0.0879-0.2617-0.0547-0.2715-0.0176-0.2774v-22.85l0.0176-0.2754 0.0547-0.2715 0.0879-0.2617 0.123-0.248 0.1543-0.2305 0.1816-0.209 0.209-0.1816 0.2305-0.1543 0.248-0.123 0.2617-0.0879 0.2715-0.0547zm-51.24 44.12 3.701 0.2422 3.637 0.7226 3.51 1.193 3.326 1.639 3.084 2.061 2.789 2.445 2.445 2.789 2.061 3.084 1.641 3.326 1.191 3.512 0.7246 3.637 0.2422 3.699-0.2422 3.701-0.7246 3.637-1.191 3.512-1.641 3.324-2.061 3.084-2.445 2.789-2.789 2.445-3.084 2.061-3.326 1.641-3.51 1.191-3.637 0.7246-3.701 0.2422-3.699-0.2422-3.637-0.7246-3.512-1.191-3.326-1.641-3.084-2.061-2.789-2.445-2.445-2.789-2.061-3.084-1.641-3.324-1.191-3.512-0.7226-3.637-0.2422-3.701 0.2422-3.699 0.7226-3.637 1.191-3.512 1.641-3.326 2.061-3.084 2.445-2.789 2.789-2.445 3.084-2.061 3.326-1.639 3.512-1.193 3.637-0.7226z" fill="#fff" fill-rule="evenodd" stroke="#000" stroke-miterlimit="9.884" stroke-width=".5"/><g fill-opacity=".251"><path d="m165.3 34.79v8.16l-3.471-2.912-1.086 1.299 4.088 3.432-4.09 3.432 1.088 1.295 3.471-2.914 2e-3 8.158 7.027-5.893-4.863-4.08 4.861-4.08zm1.699 3.639 2.701 2.266-2.701 2.266zm0 8.156 2.701 2.266-2.701 2.264z" stroke="#000" stroke-miterlimit="9.884" stroke-width=".5"/><path d="m194.4 229.8h-1.252m1.252-4.382v4.382m3.618-4.382h-3.618m3.618-1.053v1.053m-3.618-1.053h3.618m-3.618-2.947v2.947m4.106-2.947h-4.106m4.106-1.069v1.069m-5.359-1.069h5.359m-5.359 9.45v-9.45m0 9.45v-9.45h5.359v1.069h-4.106v2.947h3.618v1.053h-3.618v4.382z"/><path d="m19.39 168.7 0.3357 1.038m-1.343-0.6336 1.008-0.4046m-1.939 0.5192 0.9313-0.1146m-1.506 0.0572 0.5743 0.0574m-1.107-0.229 0.5325 0.1717m-1.008-0.4617 0.4753 0.29m-0.878-0.7023 0.4027 0.4123m-0.729-0.9466 0.3263 0.5342m-0.5724-1.191 0.2461 0.6566m-0.4007-1.439 0.1546 0.7825m-0.2062-1.694 0.05154 0.9121m-0.0039-1.741-0.04769 0.8283m0.1909-1.573-0.1432 0.7441m0.3741-1.397-0.2309 0.6527m0.542-1.206-0.3111 0.5533m0.6984-0.9981-0.3874 0.4448m3.863-0.4582-0.977-0.4351m1.343-0.6029-0.3665 1.038m-0.2042-1.34 0.5706 0.3017m-3.833-0.336 0.7406-0.2405m-1.412 0.6374 0.6717-0.397m-1.252 0.9466 0.5802-0.5497m-1.059 1.248 0.479-0.6984m-0.8474 1.542 0.3683-0.8435m-0.603 1.832 0.2348-0.9886m-0.3129 2.122 0.07815-1.134m-0.0037 2.317-0.07446-1.183m0.2977 2.199-0.2233-1.015m0.5763 1.865-0.353-0.8493m0.8168 1.535-0.4637-0.6852m1.031 1.212-0.5669-0.5267m1.229 0.9007-0.6623-0.374m1.404 0.5972-0.7423-0.2233m1.55 0.2977-0.8072-0.0745m2.097-0.0706-1.29 0.1451m1.876-0.3302-0.5858 0.1851m1.137-0.4503-0.5513 0.2652m-0.6776-9.38 0.5822 0.2023m-1.734-0.3549 1.153 0.1526m-1.939-0.0725 0.7863-0.0802m-1.076 1.382-0.4598 0.3263m0.9886-0.5267-0.5287 0.2004m1.122-0.2672-0.5934 0.0668m1.51 0.0783-0.9162-0.1451m0.9162 0.1451-0.9162-0.1451-0.5934 0.0668-0.5287 0.2004-0.4598 0.3263-0.3874 0.4448-0.3111 0.5533-0.2309 0.6527-0.1432 0.7441-0.04769 0.8283 0.05154 0.9121 0.1546 0.7825 0.2461 0.6566 0.3263 0.5342 0.4027 0.4123 0.4753 0.29 0.5325 0.1717 0.5743 0.0574 0.9313-0.1146 1.008-0.4046 0.3357 1.038-0.5513 0.2652-0.5858 0.1851-1.29 0.1451-0.8072-0.0745-0.7423-0.2233-0.6623-0.374-0.5669-0.5267-0.4637-0.6852-0.353-0.8493-0.2233-1.015-0.07446-1.183 0.07815-1.134 0.2348-0.9886 0.3683-0.8435 0.479-0.6984 0.5802-0.5497 0.6717-0.397 0.7406-0.2405 0.7863-0.0802 1.153 0.1526 0.5822 0.2023 0.5706 0.3017-0.3665 1.038z"/><path d="m193.1 161.1v7.359m0.3434-7.397-0.3434 0.0382m0.7328-0.0459-0.3894 8e-3m1.07 0.0487-0.6808-0.0564m1.273 0.2253-0.592-0.1688m1.095 0.4503-0.5034-0.2815m0.918 0.6756-0.4147-0.3941m0.7386 0.9085-0.3239-0.5144m0.5552 1.156-0.2313-0.6421m0.3701 1.412-0.1389-0.7701m0.1851 1.668-0.0462-0.898m-3e-3 1.82 0.0495-0.9217m-0.1983 1.702 0.1487-0.7806m-2.836 2.804 0.649-0.0516m-1.428 6e-3 0.7786 0.0457m4.086-4.927 0.0821 1.202m-0.3283-2.214 0.2461 1.011m-0.6354-1.844 0.3892 0.8322m-0.9007-1.496 0.5115 0.6642m-1.137-1.164 0.6259 0.5m-1.359-0.8397 0.7329 0.3397m-1.551-0.5342 0.8186 0.1946m-1.702-0.2594 0.8836 0.0648m-1.834-8e-3 0.9503-0.0571m-1.909 0.2289 0.9582-0.1718m-0.9582 9.332v-9.16m0.9582 9.332-0.9582-0.1718m1.909 0.229-0.9503-0.0572m1.834-8e-3 -0.8836 0.0649m1.702-0.2595-0.8186 0.1946m1.551-0.5322-0.7329 0.3377m1.359-0.8319-0.6259 0.4944m1.137-1.153-0.5115 0.6585m0.9007-1.488-0.3892 0.8302m0.6354-1.845-0.2461 1.015m0.3283-2.229-0.0821 1.214m-1.639 1.134 0.2404-0.6451m-0.5649 1.16 0.3244-0.5152m-0.7328 0.9046 0.4082-0.3894m-0.9007 0.6565 0.4925-0.2671m-1.065 0.4217 0.5724-0.1546m2.947-3.519-0.0822 1.214-0.2461 1.015-0.3892 0.8302-0.5115 0.6585-0.6259 0.4943-0.7329 0.3377-0.8186 0.1946-0.8836 0.0649-0.9503-0.0572-0.9582-0.1718v-9.16l0.9582-0.1718 0.9503-0.0571 0.8836 0.0648 0.8186 0.1946 0.7329 0.3397 0.6259 0.5 0.5115 0.6642 0.3892 0.8322 0.2461 1.011zm-3.519 3.673 0.5724-0.1546 0.4925-0.2671 0.4082-0.3894 0.3244-0.5152 0.2404-0.6451 0.1487-0.7806 0.0495-0.9217-0.0462-0.898-0.1389-0.7701-0.2313-0.6421-0.3239-0.5144-0.4146-0.3941-0.5034-0.2815-0.592-0.1688-0.6808-0.0564-0.3894 8e-3 -0.3434 0.0382v7.359l0.7786 0.0457z"/><path d="m194.3 101.4v2.977m0.4198-3.015-0.4198 0.0382m1.114-0.0458-0.6946 8e-3m1.451 0.0686-0.7559-0.0763m1.389 0.3358-0.6335-0.2595m1.076 0.7329-0.4428-0.4734m0.5686 0.794-0.1259-0.3206m0.168 0.7022-0.0422-0.3815m-4e-3 0.7861 0.0458-0.4046m-0.1832 0.7329 0.1374-0.3283m-0.351 0.5878 0.2137-0.2595m-0.4884 0.458 0.2747-0.1984m-2.718 0.5191h0.9924m0.29 1.038h-1.283m2.137 0.084-0.855-0.084m1.58 0.3589-0.7253-0.275m1.008 0.4981-0.2825-0.2233m0.5039 0.5115-0.2214-0.2883m0.3644 0.6471-0.1431-0.3588m0.1908 0.7938-0.0477-0.4351m-4e-3 0.9197 0.0515-0.4846m-0.2062 0.8701 0.1546-0.3855m-0.3932 0.6889 0.2386-0.3033m-0.542 0.542 0.3033-0.2386m-1.074 0.5211 0.7711-0.2825m-1.679 0.3588 0.9085-0.0763m-1.694 0.0534 0.7861 0.0229m-1.13-0.0609 0.3435 0.038m-0.3435-3.412v3.375m1.957 1.069-0.918 0.0448m1.702-0.1793-0.7842 0.1345m1.436-0.3588-0.6507 0.2243m1.168-0.5381-0.5171 0.3139m0.9111-0.7155-0.3941 0.4016m-2.152-4.886 0.6871-0.2443m-1.451 0.3206 0.7634-0.0763m2.997 3.422-0.169 0.5734m0.2253-1.233-0.0562 0.6595m-0.0755-1.49 0.1316 0.8299m-0.5266-1.488 0.3949 0.6585m-0.9845-1.141 0.5897 0.4829m-1.305-0.7865 0.7157 0.3036m-3.189 4.795-0.6108-0.0382m2.459-9.443 0.5706 0.164m-1.884 9.332-0.5345-0.0152m3.016-5.412-0.542 0.3128m0.9848-0.7937-0.4428 0.4809m0.7403-1.069-0.2976 0.5878m0.4045-1.237-0.1069 0.649m0.044-1.294 0.0629 0.6451m-0.2519-1.176 0.1889 0.5305m-0.4904-0.9579 0.3016 0.4276m-0.7023-0.7634 0.4007 0.3358m-0.8912-0.584 0.4905 0.2481m1.172 7.477-0.2815 0.4876m-3.264-8.499 1.313 0.1222m-1.855-0.1069 0.5422-0.0152m-1.153 0.0532 0.6106-0.038m-1.221 0.1068 0.6108-0.0688m-1.137 0.1757 0.5266-0.1069m-0.5266 9.267v-9.16m0.5342 9.267-0.5342-0.1069m1.145 0.1756-0.6106-0.0686m0.6106 0.0686-0.6106-0.0686-0.5342-0.1069v-9.16l0.5266-0.1069 0.6108-0.0688 0.6106-0.038 0.5422-0.0152 1.313 0.1222 0.5706 0.164 0.4904 0.2481 0.4007 0.3358 0.3016 0.4276 0.1889 0.5305 0.0629 0.6451-0.1069 0.649-0.2976 0.5878-0.4428 0.4809-0.542 0.3128 0.7157 0.3036 0.5897 0.4829 0.395 0.6585 0.1316 0.8299-0.0562 0.6595-0.169 0.5734-0.2815 0.4876-0.3941 0.4016-0.5171 0.3139-0.6507 0.2243-0.7842 0.1345-0.918 0.0448-0.5345-0.0152zm1.099-5.473 0.7634-0.0763 0.6871-0.2444 0.2747-0.1984 0.2137-0.2595 0.1374-0.3283 0.0459-0.4046-0.0422-0.3815-0.1259-0.3207-0.4428-0.4734-0.6335-0.2595-0.7559-0.0763-0.6946 8e-3 -0.4198 0.0382v2.977zm-0.9925 1.038v3.375l0.3435 0.038 0.7861 0.0229 0.9085-0.0763 0.7711-0.2825 0.3033-0.2386 0.2386-0.3033 0.1546-0.3855 0.0515-0.4846-0.0477-0.4351-0.1431-0.3588-0.2214-0.2883-0.2825-0.2233-0.7253-0.275-0.855-0.084z"/><path d="m19.63 229.4h-5.634m5.634-1.069v1.069m-4.382-1.069h4.382m-4.382-3.343v3.343m3.542-3.343h-3.542m3.542-1.069v1.069m-3.542-1.069h3.542m-3.542-2.9v2.9m4.046-2.9h-4.046m4.046-1.069v1.069m-5.297-1.069h5.297m-5.297 9.45v-9.45m0 9.45v-9.45h5.297v1.069h-4.046v2.9h3.542v1.069h-3.542v3.343h4.382v1.069z"/><path d="m17.61 103.2 0.7632 2.481m-4.267 2.122-0.5496 2.474m4.817-4.596 0.6793 2.412m-2.29-7.266 0.8474 2.374m2.023 7.076h-1.328m-3.908-3.511h3.053m0.8549 3.511-0.5649-2.474m-4.183 2.474h-1.283l0.5799-2.184m4.886-0.29h-3.633m-0.5572-2.122 0.7861-2.481m0.8397 0.9542-0.7786 2.61m1.542-4.839-0.7635 2.229m-2.32 3.938 0.6948-2.412m3.145-1.565-0.7556-2.191m1.511 4.839-0.7556-2.649m-1.488-3.291h1.557m-2.427 2.374 0.8703-2.374m3.848 7.266 0.5802 2.184m-0.5802-2.184 0.5802 2.184h-1.328l-0.5649-2.474h-3.633l-0.5496 2.474h-1.283l0.5799-2.184 0.6948-2.412 0.7861-2.481 0.8703-2.374h1.557l0.8474 2.374 0.7632 2.481zm-1.603-1.328-0.7556-2.649-0.7556-2.191-0.7635 2.229-0.7786 2.61z"/><g stroke="#000" stroke-miterlimit="9.884" stroke-width=".5"><path d="m195.5 7.68 1.105 0.07245-4e-5 8.8e-6 1.086 0.216h5e-5l1.048 0.3558h3e-5l0.9928 0.4896h-5e-5l0.9206 0.615h-4e-5l0.8322 0.7299h5e-5l0.7299 0.8323v-3.8e-5l0.615 0.9203 0.4896 0.9928 0.3558 1.048v5.1e-5l0.216 1.085v5e-5l0.0373 0.569 0.0351 0.5356-0.0373 0.569-0.0351 0.5358v-5e-5l-0.216 1.086v3.8e-5l-0.3558 1.048v3.7e-5l-0.4896 0.9928v-5e-5l-0.615 0.9205v-5e-5l-0.7299 0.8322-5e-5 3.8e-5 -0.8322 0.7299h4e-5l-0.9206 0.615h5e-5l-0.9928 0.4896h-3e-5l-1.048 0.3559h-5e-5l-1.086 0.2159 4e-5 -4e-6 -1.105 0.07245-1.105-0.07245v4e-6l-1.086-0.2159h-3e-5l-1.048-0.3559h-4e-5l-0.9928-0.4896-0.9203-0.615h4e-5l-0.8323-0.7299v-3.8e-5l-0.7299-0.8322v5e-5l-0.615-0.9205-3e-5 3e-6 -0.2523-0.5114-0.2374-0.4814v-3.8e-5l-0.3558-1.048v-3.7e-5l-0.1113-0.5592-0.1047-0.5265v5e-5l-0.0373-0.569-0.0351-0.5358 0.0373-0.569 0.0351-0.5356v-5e-5l0.216-1.085v-5e-5l0.1832-0.5399 0.1726-0.5084 0.4896-0.9928 0.615-0.9203v3.8e-5l0.7299-0.8323 0.8323-0.7299v4.64e-5l0.9203-0.615v-8.8e-6l0.9928-0.4896h4e-5l1.048-0.3558-3e-5 8.8e-6 1.086-0.216v-8.8e-6l1.105-0.07245z"/><path d="m11.91 8.813 0.9928-0.4896h3.8e-5l1.048-0.3558-3.8e-5 -7.91e-5 1.086-0.216v-8.7e-6l1.105-0.07245-7.5e-5 -8.283e-4 1.105 0.07245-1.2e-5 -0.00104 1.086 0.216-2.5e-5 0.00104 1.048 0.3558h3.7e-5l0.9928 0.4896 2.5e-5 -0.00104 0.9203 0.615h-3.7e-5l0.8323 0.7299 0.7299 0.8323v-3.7e-5l0.615 0.9203 0.4896 0.9928v3.7e-5l0.3558 1.048 5e-5 1e-3 0.216 1.085 9e-6 5e-5 0.07245 1.105-0.03712 0.5661-0.03533 0.5386-5.9e-5 -1e-3 -0.216 1.086 5e-5 1e-3 -0.3558 1.048v3.8e-5l-0.4896 0.9928v-5e-5l-0.615 0.9205v-5e-5l-0.7299 0.8322v3.7e-5l-0.8323 0.7299h3.8e-5l-0.9203 0.615-8.8e-5 1.3e-5 -0.9928 0.4896v-7.53e-4l-1.048 0.3559-1.086 0.2159 3.7e-5 -3e-6 -1.105 0.07245h-5e-5l-1.105-0.07245v3e-6l-1.086-0.2159h-3.8e-5l-1.048-0.3559h-3.8e-5l-0.9928-0.4897h5e-5l-0.9205-0.615v7.53e-4l-0.8322-0.7299 1.01e-4 2.51e-4 -0.7299-0.8322v6.27e-4l-0.3151-0.4716-0.2998-0.4488v5.1e-5l-0.4896-0.9928v-3.7e-5l-0.3559-1.048v-3.8e-5l-0.2159-1.086 3.8e-6 5.1e-5 -0.07245-1.105 0.07245-1.105-3.8e-6 -5.1e-5 0.2159-1.085v-5e-5l0.3559-1.048 0.4896-0.9928 0.615-0.9203v3.8e-5l0.7299-0.8323h3.7e-5l0.8322-0.7299-1.38e-4 -0.00124 0.9205-0.615z"/><path d="m10.99 323.2c-0.2774-0.2433-0.5547-0.4866-0.8322-0.7299h-3.8e-5c-0.2433-0.2775-0.4866-0.5548-0.7299-0.8323v3e-5c-0.2049-0.3067-0.41-0.6136-0.615-0.9203-0.1631-0.3309-0.3264-0.6619-0.4896-0.9928-0.1186-0.3494-0.2373-0.6989-0.3559-1.048-0.07195-0.3619-0.1439-0.7238-0.2159-1.086l-1.631e-4 -1e-5c-0.02415-0.3682-0.0483-0.7364-0.07245-1.105v-5e-5c0.02415-0.3682 0.0483-0.7364 0.07245-1.105h-3.8e-6c0.07195-0.362 0.1439-0.7238 0.2159-1.086v-4e-5c0.1186-0.3494 0.2373-0.6988 0.3559-1.048v-4e-5c0.1632-0.3309 0.3264-0.6619 0.4896-0.9928v4e-5c0.2049-0.3068 0.41-0.6137 0.615-0.9205v4e-5c0.2433-0.2774 0.4866-0.5547 0.7299-0.8322l3.7e-5 -4e-5c0.2774-0.2434 0.5547-0.4866 0.8322-0.7299h-5.1e-5c0.3068-0.2049 0.6137-0.41 0.9205-0.615h-5e-5c0.3309-0.1632 0.6619-0.3264 0.9928-0.4896h3.8e-5c0.3494-0.1186 0.6988-0.2373 1.048-0.3559h3.8e-5c0.3619-0.072 0.7238-0.144 1.086-0.2159 0.3682-0.0242 0.7364-0.0483 1.105-0.0725h5e-5c0.3682 0.0242 0.7364 0.0483 1.105 0.0725h-3.7e-5c0.3619 0.072 0.7239 0.144 1.086 0.2159 0.3494 0.1186 0.6988 0.2373 1.048 0.3559h3.7e-5c0.3309 0.1632 0.6619 0.3264 0.9928 0.4896 0.3067 0.2049 0.6136 0.41 0.9203 0.615h-3.7e-5c0.2775 0.2433 0.5548 0.4866 0.8323 0.7299v4e-5c0.2433 0.2774 0.4866 0.5547 0.7299 0.8322v-4e-5c0.2049 0.3068 0.41 0.6137 0.615 0.9205l5e-5 -2e-5c0.1632 0.3309 0.3264 0.6619 0.4896 0.9928v3e-5c0.1186 0.3494 0.2372 0.6988 0.3558 1.048l-8.8e-5 -1e-5c0.072 0.3619 0.1441 0.7238 0.216 1.086h9e-6c0.02415 0.3682 0.0483 0.7364 0.07245 1.105v5e-5c-0.02415 0.3682-0.04831 0.7364-0.07245 1.105h-9e-6c-0.072 0.3619-0.1441 0.7238-0.216 1.086-0.1186 0.3494-0.2372 0.6989-0.3558 1.048l8.8e-5 5e-5c-0.1632 0.331-0.3264 0.6619-0.4896 0.9928-0.2049 0.3067-0.41 0.6136-0.615 0.9203v-3e-5c-0.2433 0.2775-0.4866 0.5548-0.7299 0.8323-0.2775 0.2434-0.5548 0.4866-0.8323 0.7299l-5e-5 -5e-5c-0.3067 0.2049-0.6136 0.41-0.9203 0.615l8.8e-5 4e-5c-0.3309 0.1632-0.6619 0.3264-0.9928 0.4896h-3.7e-5c-0.3494 0.1186-0.6988 0.2372-1.048 0.3558v-4e-5l-1.086 0.216h3.7e-5l-1.105 0.0723-8.8e-5 4e-5 -1.105-0.0723-1.086-0.216h-3.8e-5c-0.3494-0.1186-0.6988-0.2372-1.048-0.3558h-3.7e-5c-0.3309-0.1632-0.6619-0.3264-0.9928-0.4896h5.1e-5c-0.3068-0.2049-0.6137-0.41-0.9205-0.615z"/><path d="m201.6 310.5 0.7299 0.8322v-4e-5l0.615 0.9206v-4e-5l0.2514 0.5096 0.2382 0.4832v4e-5l0.1826 0.5381 0.1731 0.51v4e-5l0.216 1.086 0.0372 0.567 0.0353 0.5375v5e-5l-0.0372 0.567-0.0352 0.5375-0.216 1.086-0.3558 1.048-0.4896 0.9928-0.615 0.9203v-4e-5l-0.7299 0.8323h-5e-5l-0.8322 0.7299h4e-5l-0.9205 0.615h5e-5l-0.9928 0.4896h-4e-5l-1.048 0.3558h-5e-5l-1.086 0.216h4e-5l-1.105 0.0723-1.105-0.0723-1.086-0.216h-4e-5l-1.048-0.3558h-4e-5l-0.9928-0.4896-0.9203-0.615h3e-5l-0.8323-0.7299-0.7299-0.8323v-4e-5l-0.615-0.9203v4e-5l-0.4896-0.9928-0.3558-1.048-0.1109-0.5573-0.1051-0.5284-0.0372-0.567-0.0353-0.5375v-5e-5l0.0372-0.567 0.0353-0.5375v5e-5l0.216-1.086v-5e-5l0.3557-1.048v-4e-5l0.4896-0.9928v4e-5l0.615-0.9206v4e-5l0.7299-0.8322v-4e-5l0.8323-0.7299h-4e-5l0.9203-0.615 0.9928-0.4896h4e-5l1.048-0.3559h4e-5l1.086-0.2159 1.105-0.0725 1.105 0.0725h-4e-5l1.086 0.2159h5e-5l1.048 0.3559h3e-5l0.9928 0.4896h-5e-5l0.9205 0.615h-4e-5l0.8322 0.7299z"/></g></g><path d="m76 60.05h-29.92v-29.28h29.92z" fill="none" stroke="#000" stroke-miterlimit="9.884" stroke-width=".5"/><g fill-opacity=".251" stroke-miterlimit="9.884" stroke-width=".5"><g stroke="#000"><path d="m130.7 269.1 0.1988 0.331 1.651 3.311 1.192 3.511 0.7234 3.637 0.2419 3.699-0.2429 3.699-0.7234 3.637-1.192 3.51-1.704 3.443-0.2534 0.3574 37.98 0.1584 1.932-0.1266 1.9-0.3779 1.834-0.6225 1.736-0.8565 1.61-1.076 1.456-1.277 1.277-1.456 1.076-1.61 0.8565-1.736 0.6225-1.834 0.3759-1.899 0.1286-1.932-0.1266-1.932-0.3799-1.9-0.6225-1.834-0.8565-1.736-1.076-1.61-1.277-1.456-1.456-1.277-1.61-1.076-1.736-0.8565-1.832-0.6227-1.9-0.3777-1.932-0.1266z"/><path d="m164 277.3v12.69l6.345-6.345-6.345 6.345 6.345-6.345z"/><path d="m167.9 268.8z"/><path d="m180.6 276.3z"/><path d="m133.9 285.5z"/><path d="m77.26 283.6 0.2414 3.699 0.723 3.635 1.193 3.511 1.64 3.326 0.4231 0.634h-38.08 0.0017l-1.932-0.1266-1.899-0.3779-1.834-0.6225-1.736-0.8565-1.61-1.076v-2e-3l-1.456-1.277-1.277-1.456-1.075-1.61-0.8557-1.736-0.6237-1.835-0.3787-1.9-0.1266-1.932 0.1276-1.932 0.3787-1.899 0.6227-1.834 0.8565-1.736 1.075-1.611 1.276-1.457 1.456-1.278 1.61-1.076 1.736-0.8565 1.835-0.6222 1.9-0.3764 1.932-0.1275h38.08l-0.4246 0.635-1.64 3.326-1.191 3.511-0.7222 3.637z"/><path d="m47.78 290-6.345-6.345 6.345-6.345z"/></g><path d="m74.92 39.05a0.7457 0.7457 0 0 0-0.7464 0.7482 0.7442 0.7442 0 0 0 0.7464 0.7456c0.4144 0 0.7482-0.3321 0.7482-0.7456a0.7467 0.7467 0 0 0-0.7482-0.7482m0 0.1477c0.332 0 0.6023 0.2684 0.6023 0.6006 0 0.3303-0.2702 0.6005-0.6023 0.6005-0.3311 0-0.5979-0.2702-0.5979-0.6005 0-0.3321 0.2667-0.6006 0.5979-0.6006zm0.3804 0.9898-0.0895-0.1556c-0.0778-0.1369-0.1001-0.1575-0.1656-0.1817v-0.0037c0.1307-0.01513 0.2088-0.1002 0.2088-0.2167 0-0.1225-0.07801-0.2156-0.2443-0.2156h-0.3848v0.7732h0.1591v-0.3168h0.02851c0.06809 0 0.09586 0.0072 0.1272 0.03847 0.03049 0.03137 0.0779 0.09661 0.1057 0.1522l0.06182 0.1262zm-0.5165-0.4411v-0.2113h0.1432c0.1059 0 0.1611 0.0367 0.1611 0.1048 0 0.05447-0.03477 0.1063-0.1422 0.1063zm-3.723 3.578c-0.03237 0.7966-1.199 3.982-1.613 4.685-0.1797 0.3051-0.382 0.5567-0.7472 0.5558-0.3185 0-0.4601-0.2256-0.469-0.4832-0.0236-0.7188 1.296-4.321 1.747-4.908 0.2005-0.3089 0.4242-0.3588 0.6801-0.3553 0.3744 0.0043 0.4117 0.2749 0.4027 0.5066m2.126 1.3c-0.2649 1.32-0.8609 2.881-1.509 4.046-1.056 1.9-2.338 2.165-3.458 2.151-1.118-0.01342-2.382-0.4268-2.391-2.154-0.0073-1.241 0.5279-2.991 0.9829-4.139 0.791-2.081 1.6-3.776 4.158-3.746 2.982 0.03505 2.451 2.688 2.218 3.842zm-9.47-1.85c-0.4322 0-0.7143 0.273-0.9245 0.5683-0.4619 0.6488-1.464 3.251-1.62 4.319-0.1056 0.7323 0.2096 0.8806 0.5557 0.8806 0.5541 0 1.175-0.5862 1.387-1.554 0 0-1.055-0.02603-0.7642-0.9615 0.282-0.9083 0.819-1.105 1.707-1.141 1.751-0.07149 1.578 1.222 1.438 1.911-0.4549 2.239-2.049 4.038-4.304 4.038-1.543 0-2.501-0.8545-2.501-2.428 0-1.121 0.5563-2.881 0.9968-3.911 0.9384-2.193 1.923-3.727 4.431-3.727 1.504 0 2.691 0.5405 2.517 1.95-0.1271 1.035-0.6444 1.643-1.585 1.716-0.2633 0.02046-1.34-0.0072-0.9827-1.026 0.1242-0.3553 0.1761-0.6345-0.3526-0.6345zm-7.846 3.877c-0.1037 0.28-0.2989 0.8645-0.4564 1.485 0.5115-0.1271 0.8954-0.2174 1.553-0.2005 0.75 0.01784 1.229 0.3295 1.229 0.9487 0 1.503-1.66 1.943-2.813 1.943-1.266 0-2.376-0.7206-2.376-2.103 0-1.623 0.8789-4.081 1.703-5.719 1.014-2.012 2.049-2.28 3.831-2.28 0.7836 0 1.687 0.3348 1.687 1.074 0 1.026-0.8686 1.417-1.73 1.467-0.3674 0.02052-0.9334 0.04111-1.272 0.01703 0 0-0.2869 0.4377-0.5921 1.216 1.596-0.2246 2.272 0.1378 2.003 1.061-0.3638 1.246-1.444 1.328-2.767 1.091zm-5.08 1.441c1.56-0.271 1.953 0.2937 1.903 0.8145-0.1463 1.564-1.581 1.913-2.827 1.885-0.9034-0.0215-1.716-0.4347-1.739-1.484-0.03927-1.835 1.832-6.08 2.713-7.486 0.4063-0.6684 0.9021-0.9979 1.693-0.9979 0.7486 0 0.9347 0.3839 0.9236 0.8448-0.02903 1.228-2.015 4.965-2.667 6.423zm20.06-8.243c-1.611 0-2.725 0.639-3.477 1.531-0.1271-0.2666-0.2247-0.3838-0.3608-0.5379-0.6166-0.6972-1.609-1.023-2.94-1.023-1.3 0-2.384 0.4063-3.137 1.046-0.3911-0.6354-1.322-1.057-2.446-1.057-1.468 0-3.067 0.2085-4.016 1.738-0.02203-0.5505-0.07247-0.8413-0.3821-1.17-0.3759-0.3975-0.9846-0.5021-1.577-0.5021-1.081 0-1.893 0.4717-2.478 1.433-0.8484 1.355-2.906 5.817-2.859 7.976 0.02903 1.396 0.9658 2.401 2.641 2.44 1.31 0.03131 2.336-0.3186 2.989-0.9773 0.5858 0.6354 1.481 1.01 2.55 1.01 1.192 0 2.391-0.3569 3.099-1.139 0.5969 0.732 1.535 1.158 2.742 1.153 1.579-7e-3 2.964-0.7552 3.87-1.903 0.4956 1.352 1.755 1.889 3.133 1.889 3.016 0 4.34-2.073 5.443-5.352 0.2487-0.7394 0.5801-1.972 0.6356-3.006 0.09106-1.724-0.6383-3.546-3.427-3.546z"/></g><path d="m106 258.2-3.312 0.2168-3.258 0.6484-3.145 1.066-2.979 1.469-2.76 1.844-2.498 2.191-2.189 2.496-1.846 2.762-1.467 2.977-1.068 3.146-0.6465 3.256-0.2168 3.312 0.2168 3.314 0.6465 3.256 1.068 3.146 1.467 2.977 1.846 2.762 2.189 2.496 2.498 2.191 2.76 1.844 2.979 1.469 3.145 1.066 3.258 0.6484 3.312 0.2168 3.312-0.2168 3.258-0.6484 3.145-1.066 2.979-1.469 2.762-1.844 2.496-2.191 2.189-2.496 1.846-2.762 1.469-2.977 1.066-3.146 0.6484-3.256 0.2168-3.314-0.2168-3.312-0.6484-3.256-1.066-3.146-1.469-2.977-1.846-2.762-2.189-2.496-2.496-2.191-2.762-1.844-2.979-1.469-3.145-1.066-3.258-0.6484z" fill="#fff" fill-opacity=".502" fill-rule="evenodd" stroke="#000" stroke-miterlimit="9.884" stroke-width=".5"/></svg>
