<?xml version="1.0" encoding="UTF-8" standalone="no"?>
<svg
   xmlns:dc="http://purl.org/dc/elements/1.1/"
   xmlns:cc="http://creativecommons.org/ns#"
   xmlns:rdf="http://www.w3.org/1999/02/22-rdf-syntax-ns#"
   xmlns:svg="http://www.w3.org/2000/svg"
   xmlns="http://www.w3.org/2000/svg"
   xmlns:sodipodi="http://sodipodi.sourceforge.net/DTD/sodipodi-0.dtd"
   xmlns:inkscape="http://www.inkscape.org/namespaces/inkscape"
   width="446.29mm"
   height="701.16mm"
   version="1.1"
   viewBox="0 0 1686.8 2650.1"
   xml:space="preserve"
   id="svg108"
   sodipodi:docname="prime_optimised_simplified.svg"
   inkscape:version="0.92.3 (2405546, 2018-03-11)"><metadata
     id="metadata114"><rdf:RDF><cc:Work
         rdf:about=""><dc:format>image/svg+xml</dc:format><dc:type
           rdf:resource="http://purl.org/dc/dcmitype/StillImage" /></cc:Work></rdf:RDF></metadata><defs
     id="defs112" /><sodipodi:namedview
     pagecolor="#ffffff"
     bordercolor="#666666"
     borderopacity="1"
     objecttolerance="10"
     gridtolerance="10"
     guidetolerance="10"
     inkscape:pageopacity="0"
     inkscape:pageshadow="2"
     inkscape:window-width="1853"
     inkscape:window-height="1025"
     id="namedview110"
     showgrid="false"
     inkscape:zoom="0.25"
     inkscape:cx="702.92287"
     inkscape:cy="1302.9678"
     inkscape:window-x="67"
     inkscape:window-y="27"
     inkscape:window-maximized="1"
     inkscape:current-layer="svg108" /><path
     d="m1568.3 2649.6h-1449.8l-15.403-1.0094-15.139-3.012-14.616-4.9613-13.844-6.8267-12.835-8.576-11.605-10.177-10.177-11.605-8.5747-12.833-6.828-13.844-4.9613-14.617-3.012-15.139-1.0093-15.403v-2413.1l1.0093-15.403 3.012-15.14 4.9613-14.616 6.828-13.844 8.5747-12.833 10.177-11.605 11.605-10.177 12.835-8.576 13.844-6.828 14.616-4.9613 15.139-3.0107 15.403-1.0093h1449.8l15.401 1.0093 15.14 3.0107 14.616 4.9613 13.844 6.828 12.835 8.576 11.605 10.177 10.177 11.605 8.5746 12.833 6.8267 13.844 4.9627 14.616 3.0106 15.14 1.0094 15.403v2413.1l-1.0094 15.403-3.0106 15.139-4.9627 14.617-6.8267 13.844-8.5746 12.833-10.177 11.605-11.605 10.177-12.835 8.576-13.844 6.8267-14.616 4.9613-15.14 3.012-15.401 1.0094z"
     stroke-miterlimit="9.8838"
     id="path2"
     stroke="#000"
     fill-rule="evenodd"
     fill="#fafafa" /><g
     fill="#fef0d5"
     stroke="#000"
     stroke-miterlimit="9.8838"
     id="g60"><path
       d="m691.37 685.72 1.9773 0.976 1.8333 1.224 1.6587 1.4547 1.4533 1.6573 1.2253 1.8333 0.97466 1.9787 0.70934 2.088 0.43066 2.1627 0.144 2.2v182.06l-0.144 2.2-0.43066 2.1627-0.70934 2.088-0.97466 1.9773-1.2253 1.8333-1.4533 1.6587-1.6587 1.4533-1.8333 1.2253-1.9773 0.97467-2.088 0.70933-2.1627 0.43067-2.2 0.144h-182.06l-2.2-0.144-2.1627-0.43067-2.088-0.70933-1.9773-0.97467-1.8347-1.2253-1.6573-1.4533-1.4533-1.6587-1.2253-1.8333-0.976-1.9773-0.708-2.088-0.43067-2.1627-0.144-2.2v-182.06l0.144-2.2 0.43067-2.1627 0.708-2.088 0.976-1.9787 1.2253-1.8333 1.4533-1.6573 1.6573-1.4547 1.8347-1.224 1.9773-0.976 2.088-0.70933 2.1627-0.42933 2.2-0.144h182.06l2.2 0.144 2.1627 0.42933z"
       fill="#fef0d5"
       id="path4" /><path
       d="m441.88 1683.7 1.9773 0.976 1.8347 1.2253 1.6573 1.4533 1.4533 1.6574 1.2267 1.8346 0.97467 1.9774 0.708 2.088 0.43066 2.1626 0.144 2.2v182.06l-0.144 2.2-0.43066 2.1627-0.708 2.088-0.97467 1.9773-1.2267 1.8347-1.4533 1.6573-1.6573 1.4534-1.8347 1.2253-1.9773 0.9747-2.088 0.7093-2.1613 0.4307-2.2013 0.144h-182.06l-2.2013-0.144-2.1627-0.4307-2.088-0.7093-1.9773-0.9747-1.8333-1.2253-1.6587-1.4534-1.4533-1.6573-1.2253-1.8347-0.97467-1.9773-0.70933-2.088-0.43067-2.1627-0.144-2.2v-182.06l0.144-2.2 0.43067-2.1626 0.70933-2.088 0.97467-1.9774 1.2253-1.8346 1.4533-1.6574 1.6587-1.4533 1.8333-1.2253 1.9773-0.976 2.088-0.708 2.1627-0.4307 2.2013-0.144h182.06l2.2013 0.144 2.1613 0.4307z"
       fill="#fafafa"
       id="path6" /><path
       d="m441.88 1184.7 1.9773 0.976 1.8347 1.2253 1.6573 1.4534 1.4533 1.6573 1.2267 1.8347 0.97467 1.9773 0.708 2.088 0.43066 2.1627 0.144 2.2v182.06l-0.144 2.2-0.43066 2.1626-0.708 2.088-0.97467 1.9774-1.2267 1.8333-1.4533 1.6587-1.6573 1.4533-1.8347 1.2253-1.9773 0.9747-2.088 0.7093-2.1613 0.4307-2.2013 0.144h-182.06l-2.2013-0.144-2.1627-0.4307-2.088-0.7093-1.9773-0.9747-1.8333-1.2253-1.6587-1.4533-1.4533-1.6587-1.2253-1.8333-0.97467-1.9774-0.70933-2.088-0.43067-2.1626-0.144-2.2v-182.06l0.144-2.2 0.43067-2.1627 0.70933-2.088 0.97467-1.9773 1.2253-1.8347 1.4533-1.6573 1.6587-1.4534 1.8333-1.2253 1.9773-0.976 2.088-0.708 2.1627-0.4307 2.2013-0.144h182.06l2.2013 0.144 2.1613 0.4307z"
       fill="#fef0d5"
       id="path8" /><path
       d="m1190.4 685.72 1.9773 0.976 1.8347 1.224 1.6573 1.4547 1.4534 1.6573 1.2253 1.8333 0.9747 1.9787 0.7093 2.088 0.4307 2.1627 0.144 2.2v182.06l-0.144 2.2-0.4307 2.1627-0.7093 2.088-0.9747 1.9773-1.2253 1.8333-1.4534 1.6587-1.6573 1.4533-1.8347 1.2253-1.9773 0.97467-2.088 0.70933-2.1627 0.43067-2.2 0.144h-182.06l-2.2-0.144-2.1627-0.43067-2.088-0.70933-1.9773-0.97467-1.8333-1.2253-1.6587-1.4533-1.4533-1.6587-1.2253-1.8333-0.976-1.9773-0.708-2.088-0.43067-2.1627-0.144-2.2v-182.06l0.144-2.2 0.43067-2.1627 0.708-2.088 0.976-1.9787 1.2253-1.8333 1.4533-1.6573 1.6587-1.4547 1.8333-1.224 1.9773-0.976 2.088-0.70933 2.1627-0.42933 2.2-0.144h182.06l2.2 0.144 2.1627 0.42933z"
       fill="#fef0d5"
       id="path10" /><path
       d="m1190.4 1683.7 1.9773 0.976 1.8347 1.2253 1.6573 1.4533 1.4534 1.6574 1.2253 1.8346 0.9747 1.9774 0.7093 2.088 0.4307 2.1626 0.144 2.2v182.06l-0.144 2.2-0.4307 2.1627-0.7093 2.088-0.9747 1.9773-1.2253 1.8347-1.4534 1.6573-1.6573 1.4534-1.8347 1.2253-1.9773 0.9747-2.088 0.7093-2.1627 0.4307-2.2 0.144h-182.06l-2.2-0.144-2.1627-0.4307-2.088-0.7093-1.9773-0.9747-1.8333-1.2253-1.6587-1.4534-1.4533-1.6573-1.2253-1.8347-0.976-1.9773-0.708-2.088-0.43067-2.1627-0.144-2.2v-182.06l0.144-2.2 0.43067-2.1626 0.708-2.088 0.976-1.9774 1.2253-1.8346 1.4533-1.6574 1.6587-1.4533 1.8333-1.2253 1.9773-0.976 2.088-0.708 2.1627-0.4307 2.2-0.144h182.06l2.2 0.144 2.1627 0.4307z"
       fill="#fafafa"
       id="path12" /><g
       fill="#fef0d5"
       id="g22"><path
         d="m441.88 935.22 1.9773 0.97467 1.8347 1.2253 1.6573 1.4533 1.4533 1.6587 1.2267 1.8333 0.97467 1.9773 0.708 2.088 0.43066 2.1627 0.144 2.2013v182.06l-0.144 2.2-0.43066 2.1627-0.708 2.088-0.97467 1.9773-1.2267 1.8347-1.4533 1.6573-1.6573 1.4533-1.8347 1.2254-1.9773 0.976-2.088 0.708-2.1613 0.4306-2.2013 0.144h-182.06l-2.2013-0.144-2.1627-0.4306-2.088-0.708-1.9773-0.976-1.8333-1.2254-1.6587-1.4533-1.4533-1.6573-1.2253-1.8347-0.97467-1.9773-0.70933-2.088-0.43067-2.1627-0.144-2.2v-182.06l0.144-2.2013 0.43067-2.1627 0.70933-2.088 0.97467-1.9773 1.2253-1.8333 1.4533-1.6587 1.6587-1.4533 1.8333-1.2253 1.9773-0.97467 2.088-0.70933 2.1627-0.43067 2.2013-0.144h182.06l2.2013 0.144 2.1613 0.43067z"
         id="path14" /><path
         d="m940.87 935.22 1.9773 0.97467 1.8333 1.2253 1.6573 1.4533 1.4547 1.6587 1.2253 1.8333 0.97466 1.9773 0.70934 2.088 0.42933 2.1627 0.144 2.2013v182.06l-0.144 2.2-0.42933 2.1627-0.70934 2.088-0.97466 1.9773-1.2253 1.8347-1.4547 1.6573-1.6573 1.4533-1.8333 1.2254-1.9773 0.976-2.088 0.708-2.1627 0.4306-2.2013 0.144h-182.06l-2.2013-0.144-2.1627-0.4306-2.088-0.708-1.9773-0.976-1.8333-1.2254-1.6573-1.4533-1.4547-1.6573-1.2253-1.8347-0.97467-1.9773-0.70933-2.088-0.43067-2.1627-0.144-2.2v-182.06l0.144-2.2013 0.43067-2.1627 0.70933-2.088 0.97467-1.9773 1.2253-1.8333 1.4547-1.6587 1.6573-1.4533 1.8333-1.2253 1.9773-0.97467 2.088-0.70933 2.1627-0.43067 2.2013-0.144h182.06l2.2013 0.144 2.1627 0.43067z"
         id="path16" /><path
         d="m691.37 1184.7 1.9773 0.976 1.8333 1.2253 1.6587 1.4534 1.4533 1.6573 1.2253 1.8347 0.97466 1.9773 0.70934 2.088 0.43066 2.1627 0.144 2.2v182.06l-0.144 2.2-0.43066 2.1626-0.70934 2.088-0.97466 1.9774-1.2253 1.8333-1.4533 1.6587-1.6587 1.4533-1.8333 1.2253-1.9773 0.9747-2.088 0.7093-2.1627 0.4307-2.2 0.144h-182.06l-2.2-0.144-2.1627-0.4307-2.088-0.7093-1.9773-0.9747-1.8347-1.2253-1.6573-1.4533-1.4533-1.6587-1.2253-1.8333-0.976-1.9774-0.708-2.088-0.43067-2.1626-0.144-2.2v-182.06l0.144-2.2 0.43067-2.1627 0.708-2.088 0.976-1.9773 1.2253-1.8347 1.4533-1.6573 1.6573-1.4534 1.8347-1.2253 1.9773-0.976 2.088-0.708 2.1627-0.4307 2.2-0.144h182.06l2.2 0.144 2.1627 0.4307z"
         id="path18" /><path
         d="m940.87 1184.7 1.9773 0.976 1.8333 1.2253 1.6573 1.4534 1.4547 1.6573 1.2253 1.8347 0.97466 1.9773 0.70934 2.088 0.42933 2.1627 0.144 2.2v182.06l-0.144 2.2-0.42933 2.1626-0.70934 2.088-0.97466 1.9774-1.2253 1.8333-1.4547 1.6587-1.6573 1.4533-1.8333 1.2253-1.9773 0.9747-2.088 0.7093-2.1627 0.4307-2.2013 0.144h-182.06l-2.2013-0.144-2.1627-0.4307-2.088-0.7093-1.9773-0.9747-1.8333-1.2253-1.6573-1.4533-1.4547-1.6587-1.2253-1.8333-0.97467-1.9774-0.70933-2.088-0.43067-2.1626-0.144-2.2v-182.06l0.144-2.2 0.43067-2.1627 0.70933-2.088 0.97467-1.9773 1.2253-1.8347 1.4547-1.6573 1.6573-1.4534 1.8333-1.2253 1.9773-0.976 2.088-0.708 2.1627-0.4307 2.2013-0.144h182.06l2.2013 0.144 2.1627 0.4307z"
         id="path20" /></g><g
       fill="#fafafa"
       id="g32"><path
         d="m1439.9 1683.7 1.9774 0.976 1.8333 1.2253 1.6587 1.4533 1.4533 1.6574 1.2253 1.8346 0.9747 1.9774 0.7093 2.088 0.4307 2.1626 0.144 2.2v182.06l-0.144 2.2-0.4307 2.1627-0.7093 2.088-0.9747 1.9773-1.2253 1.8347-1.4533 1.6573-1.6587 1.4534-1.8333 1.2253-1.9774 0.9747-2.088 0.7093-2.1626 0.4307-2.2014 0.144h-182.06l-2.2-0.144-2.1627-0.4307-2.088-0.7093-1.9787-0.9747-1.8333-1.2253-1.6573-1.4534-1.4547-1.6573-1.224-1.8347-0.976-1.9773-0.7093-2.088-0.4294-2.1627-0.144-2.2v-182.06l0.144-2.2 0.4294-2.1626 0.7093-2.088 0.976-1.9774 1.224-1.8346 1.4547-1.6574 1.6573-1.4533 1.8333-1.2253 1.9787-0.976 2.088-0.708 2.1627-0.4307 2.2-0.144h182.06l2.2014 0.144 2.1626 0.4307z"
         id="path24" /><path
         d="m1439.9 685.72 1.9774 0.976 1.8333 1.224 1.6587 1.4547 1.4533 1.6573 1.2253 1.8333 0.9747 1.9787 0.7093 2.088 0.4307 2.1627 0.144 2.2v182.06l-0.144 2.2-0.4307 2.1627-0.7093 2.088-0.9747 1.9773-1.2253 1.8333-1.4533 1.6587-1.6587 1.4533-1.8333 1.2253-1.9774 0.97467-2.088 0.70933-2.1626 0.43067-2.2014 0.144h-182.06l-2.2-0.144-2.1627-0.43067-2.088-0.70933-1.9787-0.97467-1.8333-1.2253-1.6573-1.4533-1.4547-1.6587-1.224-1.8333-0.976-1.9773-0.7093-2.088-0.4294-2.1627-0.144-2.2v-182.06l0.144-2.2 0.4294-2.1627 0.7093-2.088 0.976-1.9787 1.224-1.8333 1.4547-1.6573 1.6573-1.4547 1.8333-1.224 1.9787-0.976 2.088-0.70933 2.1627-0.42933 2.2-0.144h182.06l2.2014 0.144 2.1626 0.42933z"
         id="path26" /><path
         d="m441.88 685.72 1.9773 0.976 1.8347 1.224 1.6573 1.4547 1.4533 1.6573 1.2267 1.8333 0.97467 1.9787 0.708 2.088 0.43066 2.1627 0.144 2.2v182.06l-0.144 2.2-0.43066 2.1627-0.708 2.088-0.97467 1.9773-1.2267 1.8333-1.4533 1.6587-1.6573 1.4533-1.8347 1.2253-1.9773 0.97467-2.088 0.70933-2.1613 0.43067-2.2013 0.144h-182.06l-2.2013-0.144-2.1627-0.43067-2.088-0.70933-1.9773-0.97467-1.8333-1.2253-1.6587-1.4533-1.4533-1.6587-1.2253-1.8333-0.97467-1.9773-0.70933-2.088-0.43067-2.1627-0.144-2.2v-182.06l0.144-2.2 0.43067-2.1627 0.70933-2.088 0.97467-1.9787 1.2253-1.8333 1.4533-1.6573 1.6587-1.4547 1.8333-1.224 1.9773-0.976 2.088-0.70933 2.1627-0.42933 2.2013-0.144h182.06l2.2013 0.144 2.1613 0.42933z"
         id="path28" /><path
         d="m940.87 685.72 1.9773 0.976 1.8333 1.224 1.6573 1.4547 1.4547 1.6573 1.2253 1.8333 0.97466 1.9787 0.70934 2.088 0.42933 2.1627 0.144 2.2v182.06l-0.144 2.2-0.42933 2.1627-0.70934 2.088-0.97466 1.9773-1.2253 1.8333-1.4547 1.6587-1.6573 1.4533-1.8333 1.2253-1.9773 0.97467-2.088 0.70933-2.1627 0.43067-2.2013 0.144h-182.06l-2.2013-0.144-2.1627-0.43067-2.088-0.70933-1.9773-0.97467-1.8333-1.2253-1.6573-1.4533-1.4547-1.6587-1.2253-1.8333-0.97467-1.9773-0.70933-2.088-0.43067-2.1627-0.144-2.2v-182.06l0.144-2.2 0.43067-2.1627 0.70933-2.088 0.97467-1.9787 1.2253-1.8333 1.4547-1.6573 1.6573-1.4547 1.8333-1.224 1.9773-0.976 2.088-0.70933 2.1627-0.42933 2.2013-0.144h182.06l2.2013 0.144 2.1627 0.42933z"
         id="path30" /></g><path
       d="m1190.4 1434.2 1.9773 0.9746 1.8347 1.2254 1.6573 1.4546 1.4534 1.6574 1.2253 1.8333 0.9747 1.9773 0.7093 2.088 0.4307 2.1627 0.144 2.2013v182.06l-0.144 2.2013-0.4307 2.1613-0.7093 2.0894-0.9747 1.9773-1.2253 1.8333-1.4534 1.6574-1.6573 1.4546-1.8347 1.2254-1.9773 0.9746-2.088 0.7094-2.1627 0.4293-2.2 0.144h-182.06l-2.2-0.144-2.1627-0.4293-2.088-0.7094-1.9773-0.9746-1.8333-1.2254-1.6587-1.4546-1.4533-1.6574-1.2253-1.8333-0.976-1.9773-0.708-2.0894-0.43067-2.1613-0.144-2.2013v-182.06l0.144-2.2013 0.43067-2.1627 0.708-2.088 0.976-1.9773 1.2253-1.8333 1.4533-1.6574 1.6587-1.4546 1.8333-1.2254 1.9773-0.9746 2.088-0.7094 2.1627-0.4306 2.2-0.144h182.06l2.2 0.144 2.1627 0.4306z"
       fill="#fef0d5"
       id="path34" /><path
       d="m1439.9 1434.2 1.9774 0.9746 1.8333 1.2254 1.6587 1.4546 1.4533 1.6574 1.2253 1.8333 0.9747 1.9773 0.7093 2.088 0.4307 2.1627 0.144 2.2013v182.06l-0.144 2.2013-0.4307 2.1613-0.7093 2.0894-0.9747 1.9773-1.2253 1.8333-1.4533 1.6574-1.6587 1.4546-1.8333 1.2254-1.9774 0.9746-2.088 0.7094-2.1626 0.4293-2.2014 0.144h-182.06l-2.2-0.144-2.1627-0.4293-2.088-0.7094-1.9787-0.9746-1.8333-1.2254-1.6573-1.4546-1.4547-1.6574-1.224-1.8333-0.976-1.9773-0.7093-2.0894-0.4294-2.1613-0.144-2.2013v-182.06l0.144-2.2013 0.4294-2.1627 0.7093-2.088 0.976-1.9773 1.224-1.8333 1.4547-1.6574 1.6573-1.4546 1.8333-1.2254 1.9787-0.9746 2.088-0.7094 2.1627-0.4306 2.2-0.144h182.06l2.2014 0.144 2.1626 0.4306z"
       fill="#fafafa"
       id="path36" /><path
       d="m441.88 1434.2 1.9773 0.9746 1.8347 1.2254 1.6573 1.4546 1.4533 1.6574 1.2267 1.8333 0.97467 1.9773 0.708 2.088 0.43066 2.1627 0.144 2.2013v182.06l-0.144 2.2013-0.43066 2.1613-0.708 2.0894-0.97467 1.9773-1.2267 1.8333-1.4533 1.6574-1.6573 1.4546-1.8347 1.2254-1.9773 0.9746-2.088 0.7094-2.1613 0.4293-2.2013 0.144h-182.06l-2.2013-0.144-2.1627-0.4293-2.088-0.7094-1.9773-0.9746-1.8333-1.2254-1.6587-1.4546-1.4533-1.6574-1.2253-1.8333-0.97467-1.9773-0.70933-2.0894-0.43067-2.1613-0.144-2.2013v-182.06l0.144-2.2013 0.43067-2.1627 0.70933-2.088 0.97467-1.9773 1.2253-1.8333 1.4533-1.6574 1.6587-1.4546 1.8333-1.2254 1.9773-0.9746 2.088-0.7094 2.1627-0.4306 2.2013-0.144h182.06l2.2013 0.144 2.1613 0.4306z"
       fill="#fafafa"
       id="path38" /><g
       fill="#fef0d5"
       id="g54"><path
         d="m1190.4 1184.7 1.9773 0.976 1.8347 1.2253 1.6573 1.4534 1.4534 1.6573 1.2253 1.8347 0.9747 1.9773 0.7093 2.088 0.4307 2.1627 0.144 2.2v182.06l-0.144 2.2-0.4307 2.1626-0.7093 2.088-0.9747 1.9774-1.2253 1.8333-1.4534 1.6587-1.6573 1.4533-1.8347 1.2253-1.9773 0.9747-2.088 0.7093-2.1627 0.4307-2.2 0.144h-182.06l-2.2-0.144-2.1627-0.4307-2.088-0.7093-1.9773-0.9747-1.8333-1.2253-1.6587-1.4533-1.4533-1.6587-1.2253-1.8333-0.976-1.9774-0.708-2.088-0.43067-2.1626-0.144-2.2v-182.06l0.144-2.2 0.43067-2.1627 0.708-2.088 0.976-1.9773 1.2253-1.8347 1.4533-1.6573 1.6587-1.4534 1.8333-1.2253 1.9773-0.976 2.088-0.708 2.1627-0.4307 2.2-0.144h182.06l2.2 0.144 2.1627 0.4307z"
         id="path40" /><path
         d="m1439.9 1184.7 1.9774 0.976 1.8333 1.2253 1.6587 1.4534 1.4533 1.6573 1.2253 1.8347 0.9747 1.9773 0.7093 2.088 0.4307 2.1627 0.144 2.2v182.06l-0.144 2.2-0.4307 2.1626-0.7093 2.088-0.9747 1.9774-1.2253 1.8333-1.4533 1.6587-1.6587 1.4533-1.8333 1.2253-1.9774 0.9747-2.088 0.7093-2.1626 0.4307-2.2014 0.144h-182.06l-2.2-0.144-2.1627-0.4307-2.088-0.7093-1.9787-0.9747-1.8333-1.2253-1.6573-1.4533-1.4547-1.6587-1.224-1.8333-0.976-1.9774-0.7093-2.088-0.4294-2.1626-0.144-2.2v-182.06l0.144-2.2 0.4294-2.1627 0.7093-2.088 0.976-1.9773 1.224-1.8347 1.4547-1.6573 1.6573-1.4534 1.8333-1.2253 1.9787-0.976 2.088-0.708 2.1627-0.4307 2.2-0.144h182.06l2.2014 0.144 2.1626 0.4307z"
         id="path42" /><path
         d="m1190.4 935.22 1.9773 0.97467 1.8347 1.2253 1.6573 1.4533 1.4534 1.6587 1.2253 1.8333 0.9747 1.9773 0.7093 2.088 0.4307 2.1627 0.144 2.2013v182.06l-0.144 2.2-0.4307 2.1627-0.7093 2.088-0.9747 1.9773-1.2253 1.8347-1.4534 1.6573-1.6573 1.4533-1.8347 1.2254-1.9773 0.976-2.088 0.708-2.1627 0.4306-2.2 0.144h-182.06l-2.2-0.144-2.1627-0.4306-2.088-0.708-1.9773-0.976-1.8333-1.2254-1.6587-1.4533-1.4533-1.6573-1.2253-1.8347-0.976-1.9773-0.708-2.088-0.43067-2.1627-0.144-2.2v-182.06l0.144-2.2013 0.43067-2.1627 0.708-2.088 0.976-1.9773 1.2253-1.8333 1.4533-1.6587 1.6587-1.4533 1.8333-1.2253 1.9773-0.97467 2.088-0.70933 2.1627-0.43067 2.2-0.144h182.06l2.2 0.144 2.1627 0.43067z"
         id="path44" /><path
         d="m1439.9 935.22 1.9774 0.97467 1.8333 1.2253 1.6587 1.4533 1.4533 1.6587 1.2253 1.8333 0.9747 1.9773 0.7093 2.088 0.4307 2.1627 0.144 2.2013v182.06l-0.144 2.2-0.4307 2.1627-0.7093 2.088-0.9747 1.9773-1.2253 1.8347-1.4533 1.6573-1.6587 1.4533-1.8333 1.2254-1.9774 0.976-2.088 0.708-2.1626 0.4306-2.2014 0.144h-182.06l-2.2-0.144-2.1627-0.4306-2.088-0.708-1.9787-0.976-1.8333-1.2254-1.6573-1.4533-1.4547-1.6573-1.224-1.8347-0.976-1.9773-0.7093-2.088-0.4294-2.1627-0.144-2.2v-182.06l0.144-2.2013 0.4294-2.1627 0.7093-2.088 0.976-1.9773 1.224-1.8333 1.4547-1.6587 1.6573-1.4533 1.8333-1.2253 1.9787-0.97467 2.088-0.70933 2.1627-0.43067 2.2-0.144h182.06l2.2014 0.144 2.1626 0.43067z"
         id="path46" /><path
         d="m691.37 935.22 1.9773 0.97467 1.8333 1.2253 1.6587 1.4533 1.4533 1.6587 1.2253 1.8333 0.97466 1.9773 0.70934 2.088 0.43066 2.1627 0.144 2.2013v182.06l-0.144 2.2-0.43066 2.1627-0.70934 2.088-0.97466 1.9773-1.2253 1.8347-1.4533 1.6573-1.6587 1.4533-1.8333 1.2254-1.9773 0.976-2.088 0.708-2.1627 0.4306-2.2 0.144h-182.06l-2.2-0.144-2.1627-0.4306-2.088-0.708-1.9773-0.976-1.8347-1.2254-1.6573-1.4533-1.4533-1.6573-1.2253-1.8347-0.976-1.9773-0.708-2.088-0.43067-2.1627-0.144-2.2v-182.06l0.144-2.2013 0.43067-2.1627 0.708-2.088 0.976-1.9773 1.2253-1.8333 1.4533-1.6587 1.6573-1.4533 1.8347-1.2253 1.9773-0.97467 2.088-0.70933 2.1627-0.43067 2.2-0.144h182.06l2.2 0.144 2.1627 0.43067z"
         id="path48" /><path
         d="m691.37 1434.2 1.9773 0.9746 1.8333 1.2254 1.6587 1.4546 1.4533 1.6574 1.2253 1.8333 0.97466 1.9773 0.70934 2.088 0.43066 2.1627 0.144 2.2013v182.06l-0.144 2.2013-0.43066 2.1613-0.70934 2.0894-0.97466 1.9773-1.2253 1.8333-1.4533 1.6574-1.6587 1.4546-1.8333 1.2254-1.9773 0.9746-2.088 0.7094-2.1627 0.4293-2.2 0.144h-182.06l-2.2-0.144-2.1627-0.4293-2.088-0.7094-1.9773-0.9746-1.8347-1.2254-1.6573-1.4546-1.4533-1.6574-1.2253-1.8333-0.976-1.9773-0.708-2.0894-0.43067-2.1613-0.144-2.2013v-182.06l0.144-2.2013 0.43067-2.1627 0.708-2.088 0.976-1.9773 1.2253-1.8333 1.4533-1.6574 1.6573-1.4546 1.8347-1.2254 1.9773-0.9746 2.088-0.7094 2.1627-0.4306 2.2-0.144h182.06l2.2 0.144 2.1627 0.4306z"
         id="path50" /><path
         d="m940.87 1434.2 1.9773 0.9746 1.8333 1.2254 1.6573 1.4546 1.4547 1.6574 1.2253 1.8333 0.97466 1.9773 0.70934 2.088 0.42933 2.1627 0.144 2.2013v182.06l-0.144 2.2013-0.42933 2.1613-0.70934 2.0894-0.97466 1.9773-1.2253 1.8333-1.4547 1.6574-1.6573 1.4546-1.8333 1.2254-1.9773 0.9746-2.088 0.7094-2.1627 0.4293-2.2013 0.144h-182.06l-2.2013-0.144-2.1627-0.4293-2.088-0.7094-1.9773-0.9746-1.8333-1.2254-1.6573-1.4546-1.4547-1.6574-1.2253-1.8333-0.97467-1.9773-0.70933-2.0894-0.43067-2.1613-0.144-2.2013v-182.06l0.144-2.2013 0.43067-2.1627 0.70933-2.088 0.97467-1.9773 1.2253-1.8333 1.4547-1.6574 1.6573-1.4546 1.8333-1.2254 1.9773-0.9746 2.088-0.7094 2.1627-0.4306 2.2013-0.144h182.06l2.2013 0.144 2.1627 0.4306z"
         id="path52" /></g><path
       d="m691.37 1683.7 1.9773 0.976 1.8333 1.2253 1.6587 1.4533 1.4533 1.6574 1.2253 1.8346 0.97466 1.9774 0.70934 2.088 0.43066 2.1626 0.144 2.2v182.06l-0.144 2.2-0.43066 2.1627-0.70934 2.088-0.97466 1.9773-1.2253 1.8347-1.4533 1.6573-1.6587 1.4534-1.8333 1.2253-1.9773 0.9747-2.088 0.7093-2.1627 0.4307-2.2 0.144h-182.06l-2.2-0.144-2.1627-0.4307-2.088-0.7093-1.9773-0.9747-1.8347-1.2253-1.6573-1.4534-1.4533-1.6573-1.2253-1.8347-0.976-1.9773-0.708-2.088-0.43067-2.1627-0.144-2.2v-182.06l0.144-2.2 0.43067-2.1626 0.708-2.088 0.976-1.9774 1.2253-1.8346 1.4533-1.6574 1.6573-1.4533 1.8347-1.2253 1.9773-0.976 2.088-0.708 2.1627-0.4307 2.2-0.144h182.06l2.2 0.144 2.1627 0.4307z"
       fill="#fafafa"
       id="path56" /><path
       d="m940.87 1683.7 1.9773 0.976 1.8333 1.2253 1.6573 1.4533 1.4547 1.6574 1.2253 1.8346 0.97466 1.9774 0.70934 2.088 0.42933 2.1626 0.144 2.2v182.06l-0.144 2.2-0.42933 2.1627-0.70934 2.088-0.97466 1.9773-1.2253 1.8347-1.4547 1.6573-1.6573 1.4534-1.8333 1.2253-1.9773 0.9747-2.088 0.7093-2.1627 0.4307-2.2013 0.144h-182.06l-2.2013-0.144-2.1627-0.4307-2.088-0.7093-1.9773-0.9747-1.8333-1.2253-1.6573-1.4534-1.4547-1.6573-1.2253-1.8347-0.97467-1.9773-0.70933-2.088-0.43067-2.1627-0.144-2.2v-182.06l0.144-2.2 0.43067-2.1626 0.70933-2.088 0.97467-1.9774 1.2253-1.8346 1.4547-1.6574 1.6573-1.4533 1.8333-1.2253 1.9773-0.976 2.088-0.708 2.1627-0.4307 2.2013-0.144h182.06l2.2013 0.144 2.1627 0.4307z"
       fill="#fef0d5"
       id="path58" /></g><g
     fill-opacity=".078431"
     stroke="#000"
     stroke-miterlimit="9.8838"
     id="g74"><path
       d="m1548.8 1831.1h-9.9747m9.9747-34.916v34.916m28.832-34.916h-28.832m28.832-8.392v8.392m-28.832-8.392h28.832m-28.832-23.48v23.48m32.724-23.48h-32.724m32.724-8.516v8.516m-42.699-8.516h42.699m-42.699 75.304v-75.304m0 75.304v-75.304h42.699v8.516h-32.724v23.48h28.832v8.392h-28.832v34.916z"
       id="path62" /><path
       d="m154.51 1344.4 2.6747 8.2734m-10.704-5.0494 8.0293-3.224m-15.451 4.1374 7.4213-0.9134m-11.997 0.456 4.576 0.4574m-8.8187-1.8254 4.2427 1.368m-8.0293-3.6786 3.7867 2.3106m-6.996-5.596 3.2093 3.2854m-5.8093-7.5427 2.6 4.2573m-4.5613-9.4893 1.9613 5.232m-3.1933-11.467 1.232 6.2347m-1.6427-13.503 0.41066 7.268m-0.0307-13.868-0.38 6.6m1.5213-12.529-1.1413 5.9293m2.9813-11.131-1.84 5.2013m4.3187-9.6107-2.4787 4.4094m5.5653-7.9534-3.0867 3.544m30.777-3.6506-7.7853-3.4667m10.705-4.804-2.92 8.2707m-1.6267-10.675 4.5467 2.404m-30.536-2.6773 5.9013-1.916m-11.253 5.0786 5.352-3.1626m-9.9747 7.5426 4.6227-4.38m-8.44 9.9454 3.8173-5.5654m-6.752 12.287 2.9347-6.7213m-4.8053 14.599 1.8707-7.8773m-2.4933 16.909 0.62267-9.032m-0.0293 18.46-0.59333-9.428m2.372 17.517-1.7787-8.0894m4.592 14.856-2.8133-6.7666m6.508 12.227-3.6947-5.46m8.212 9.6574-4.5173-4.1974m9.7947 7.1774-5.2773-2.98m11.192 4.7586-5.9147-1.7786m12.347 2.372-6.432-0.5934m16.712-0.5626-10.28 1.156m14.948-2.6307-4.668 1.4747m9.0613-3.588-4.3933 2.1133m-5.3987-74.74 4.6387 1.612m-13.823-2.828 9.184 1.216m-15.449-0.5773 6.2653-0.6387m-8.5773 11.009-3.664 2.6m7.8773-4.1973-4.2133 1.5973m8.9413-2.1293-4.728 0.532m12.028 0.624-7.3-1.156m7.3 1.156-7.3-1.156-4.728 0.532-4.2133 1.5973-3.664 2.6-3.0867 3.544-2.4787 4.4094-1.84 5.2013-1.1413 5.9293-0.38 6.6 0.41066 7.268 1.232 6.2347 1.9613 5.232 2.6 4.2573 3.2093 3.2854 3.7867 2.3106 4.2427 1.368 4.576 0.4574 7.4213-0.9134 8.0293-3.224 2.6747 8.2734-4.3933 2.1133-4.668 1.4747-10.28 1.156-6.432-0.5934-5.9147-1.7786-5.2773-2.98-4.5173-4.1974-3.6947-5.46-2.8133-6.7666-1.7787-8.0894-0.59333-9.428 0.62267-9.032 1.8707-7.8773 2.9347-6.7213 3.8173-5.5654 4.6227-4.38 5.352-3.1626 5.9013-1.916 6.2653-0.6387 9.184 1.216 4.6387 1.612 4.5467 2.404-2.92 8.2707z"
       id="path64" /><path
       d="m1539.3 1283.5v58.636m2.736-58.94-2.736 0.304m5.8386-0.3654-3.1026 0.061m8.528 0.388-5.4254-0.4494m10.143 1.7947-4.7173-1.3453m8.728 3.588-4.0107-2.2427m7.3147 5.3827-3.304-3.14m5.8853 7.2386-2.5813-4.0986m4.424 9.2146-1.8427-5.116m2.9493 11.252-1.1066-6.136m1.4746 13.291-0.368-7.1547m-0.027 14.499 0.3946-7.344m-1.58 13.564 1.1854-6.22m-22.596 22.339 5.1706-0.4107m-11.375 0.047 6.204 0.364m32.556-39.263 0.6546 9.58m-2.616-17.639 1.9614 8.0587m-5.0627-14.689 3.1013 6.6306m-7.1773-11.923 4.076 5.292m-9.0627-9.276 4.9867 3.984m-10.827-6.6907 5.84 2.7067m-12.363-4.2574 6.5226 1.5507m-13.564-2.0667 7.0414 0.516m-14.613-0.061 7.572-0.4547m-15.207 1.824 7.6346-1.3693m-7.6346 74.359v-72.989m7.6346 74.359-7.6346-1.3693m15.207 1.8253-7.572-0.456m14.613-0.061-7.0414 0.5173m13.564-2.068-6.5226 1.5507m12.363-4.2414-5.84 2.6907m10.827-6.6293-4.9867 3.9386m9.0627-9.1853-4.076 5.2467m7.1773-11.861-3.1013 6.6147m5.0627-14.704-1.9614 8.0893m2.616-17.761-0.6546 9.672m-13.061 9.032 1.916-5.14m-4.5013 9.2453 2.5853-4.1053m-5.8386 7.208 3.2533-3.1027m-7.1773 5.2307 3.924-2.128m-8.4854 3.36 4.5614-1.232m23.479-28.04-0.6546 9.672-1.9614 8.0893-3.1013 6.6147-4.076 5.2467-4.9867 3.9386-5.84 2.6907-6.5226 1.5507-7.0414 0.5173-7.572-0.456-7.6346-1.3693v-72.989l7.6346-1.3693 7.572-0.4547 7.0414 0.516 6.5226 1.5507 5.84 2.7067 4.9867 3.984 4.076 5.292 3.1013 6.6306 1.9614 8.0587zm-28.04 29.272 4.5614-1.232 3.924-2.128 3.2533-3.1027 2.5853-4.1053 1.916-5.14 1.1854-6.22 0.3946-7.344-0.368-7.1547-1.1066-6.136-1.8427-5.116-2.5813-4.0986-3.304-3.14-4.0107-2.2427-4.7173-1.3453-5.4254-0.4494-3.1026 0.061-2.736 0.304v58.636l6.204 0.364z"
       id="path66" /><path
       d="m1548.4 808.22v23.721m3.3453-24.025-3.3453 0.304m8.88-0.36534-5.5347 0.0613m11.557 0.54666-6.0226-0.608m11.071 2.676-5.048-2.068m8.576 5.84-3.528-3.772m4.5307 6.3267-1.0027-2.5547m1.3387 5.5947-0.336-3.04m-0.029 6.264 0.3653-3.224m-1.46 5.84 1.0947-2.616m-2.7974 4.684 1.7027-2.068m-3.892 3.6493 2.1893-1.5813m-21.655 4.136h7.908m2.3106 8.272h-10.219m17.032 0.66933-6.8134-0.66933m12.592 2.86-5.7786-2.1907m8.0293 3.9693-2.2507-1.7787m4.0147 4.076-1.764-2.2973m2.904 5.156-1.14-2.8587m1.52 6.3253-0.38-3.4667m-0.031 7.328 0.4107-3.8613m-1.6427 6.9333 1.232-3.072m-3.1333 5.4893 1.9013-2.4173m-4.3186 4.3187 2.4173-1.9013m-8.5613 4.152 6.144-2.2507m-13.383 2.8587 7.2387-0.608m-13.503 0.42533 6.264 0.18267m-9.0013-0.48533 2.7373 0.30266m-2.7373-27.189v26.887m15.588 8.5213-7.3147 0.35733m13.564-1.4293-6.2493 1.072m11.435-2.8587-5.1853 1.7867m9.3053-4.288-4.12 2.5013m7.26-5.7013-3.14 3.2m-17.152-38.928 5.4747-1.9467m-11.557 2.5547 6.0826-0.608m23.881 27.273-1.3467 4.5693m1.7947-9.824-0.448 5.2547m-0.6014-11.868 1.0494 6.6133m-4.196-11.86 3.1466 5.2467m-7.8453-9.0947 4.6987 3.848m-10.401-6.2667 5.7027 2.4187m-25.411 38.213-4.8666-0.304m19.587-75.24 4.5467 1.3067m-15.008 74.359-4.2587-0.12133m24.027-43.124-4.3187 2.492m7.8467-6.324-3.528 3.832m5.8987-8.516-2.3707 4.684m3.2227-9.8547-0.852 5.1707m0.3506-10.311 0.5014 5.14m-2.0067-9.3667 1.5053 4.2267m-3.908-7.6333 2.4027 3.4067m-5.596-6.0827 3.1933 2.676m-7.1013-4.6533 3.908 1.9773m9.336 59.579-2.2427 3.8853m-26.009-67.721 10.461 0.97333m-14.781-0.852 4.32-0.12133m-9.1853 0.424 4.8653-0.30267m-9.732 0.85067 4.8667-0.548m-9.0627 1.4 4.196-0.852m-4.196 73.843v-72.991m4.2573 73.843-4.2573-0.852m9.1227 1.3987-4.8654-0.54667m4.8654 0.54667-4.8654-0.54667-4.2573-0.852v-72.991l4.196-0.852 4.8667-0.548 4.8653-0.30267 4.32-0.12133 10.461 0.97333 4.5467 1.3067 3.908 1.9773 3.1933 2.676 2.4027 3.4067 1.5053 4.2267 0.5014 5.14-0.852 5.1707-2.3707 4.684-3.528 3.832-4.3187 2.492 5.7027 2.4187 4.6987 3.848 3.1466 5.2467 1.0494 6.6133-0.448 5.2547-1.3467 4.5693-2.2427 3.8853-3.14 3.2-4.12 2.5013-5.1853 1.7867-6.2493 1.072-7.3147 0.35733-4.2587-0.12133zm8.76-43.612 6.0826-0.608 5.4747-1.9467 2.1893-1.5813 1.7027-2.068 1.0947-2.616 0.3653-3.224-0.336-3.04-1.0027-2.5547-3.528-3.772-5.048-2.068-6.0226-0.608-5.5347 0.0613-3.3453 0.304v23.721zm-7.908 8.272v26.887l2.7373 0.30266 6.264 0.18267 7.2387-0.608 6.144-2.2507 2.4173-1.9013 1.9013-2.4173 1.232-3.072 0.4107-3.8613-0.38-3.4667-1.14-2.8587-1.764-2.2973-2.2507-1.7787-5.7786-2.1907-6.8134-0.66933z"
       id="path68" /><path
       d="m156.39 1827.6h-44.889m44.889-8.516v8.516m-34.915-8.516h34.915m-34.915-26.643v26.643m28.224-26.643h-28.224m28.224-8.5147v8.5147m-28.224-8.5147h28.224m-28.224-23.113v23.113m32.239-23.113h-32.239m32.239-8.516v8.516m-42.213-8.516h42.213m-42.213 75.303v-75.303m0 75.303v-75.303h42.213v8.516h-32.239v23.113h28.224v8.5147h-28.224v26.643h34.915v8.516z"
       id="path70" /><path
       d="m140.33 821.96 6.0813 19.768m-34.001 16.909-4.3787 19.708m38.38-36.617 5.4133 19.22m-18.247-57.905 6.752 18.917m16.117 56.385h-10.584m-31.143-27.98h24.331m6.812 27.98-4.5013-19.708m-33.331 19.708h-10.219l4.6213-17.397m38.928-2.3107h-28.952m-4.44-16.909 6.264-19.768m6.6907 7.6027-6.204 20.803m12.288-38.563-6.084 17.76m-18.491 31.385 5.536-19.22m25.06-12.469-6.0213-17.456m12.043 38.563-6.0213-21.107m-11.861-26.216h12.409m-19.344 18.917 6.9347-18.917m30.656 57.905 4.6227 17.397m-4.6227-17.397 4.6227 17.397h-10.584l-4.5013-19.708h-28.952l-4.3787 19.708h-10.219l4.6213-17.397 5.536-19.22 6.264-19.768 6.9347-18.917h12.409l6.752 18.917 6.0813 19.768zm-12.773-10.583-6.0213-21.107-6.0213-17.456-6.084 17.76-6.204 20.803z"
       id="path72" /></g><g
     fill-opacity=".078431"
     stroke="#000"
     stroke-miterlimit="9.8838"
     id="g84"><path
       d="m 1558.1486,61.1863 4.5336,0.297341 4.2691,0.279989 -3e-4,7e-5 4.456,0.886661 4.1946,0.834639 h 4e-4 l 4.3023,1.460226 4.0497,1.374474 h 3e-4 l 4.0748,2.009557 3.8359,1.891743 h -4e-4 l 3.7779,2.523849 3.5568,2.376151 h -3e-4 l 3.4156,2.995983 3.215,2.820017 h 4e-4 l 2.9956,3.41592 2.8204,3.21608 0,-3e-4 2.5242,3.77767 2.3758,3.55563 h 0 l 2.0096,4.074776 1.8918,3.835924 h 0 l 1.46,4.30241 1.3746,4.05089 v 4e-4 l 0.8868,4.45598 0.8346,4.19332 0,4e-4 0.2974,4.53364 0.2799,4.26766 v 0 l -0.2973,4.53364 -0.28,4.26906 v -4e-4 l -0.8867,4.45601 -0.8347,4.19469 v 3e-4 l -1.4602,4.30234 -1.3744,4.04966 v 3e-4 l -2.0096,4.07478 -1.8918,3.83592 v -4e-4 l -2.5238,3.77789 -2.3762,3.55681 v -4e-4 l -2.996,3.41563 -2.82,3.21507 -4e-4,3e-4 -3.4156,2.99598 -3.215,2.82002 h 3e-4 l -3.7779,2.52385 -3.5568,2.37615 h 4e-4 l -4.0748,2.00956 -3.8359,1.89174 h -3e-4 l -4.3021,1.46083 -4.0499,1.37517 h -4e-4 l -4.4561,0.88602 -4.1945,0.83398 3e-4,-3e-5 -4.5336,0.29734 -4.2691,0.27999 v 0 l -4.5336,-0.29739 -4.2677,-0.27994 0,3e-5 -4.4562,-0.88601 -4.1945,-0.83399 h -3e-4 l -4.3021,-1.46083 -4.0499,-1.37517 h -3e-4 l -4.0748,-2.00956 -3.8359,-1.89174 h 0 l -3.7777,-2.52418 -3.5556,-2.37582 h 3e-4 l -3.4159,-2.99563 -3.2161,-2.82037 v -3e-4 l -2.996,-3.41563 -2.82,-3.21507 v 4e-4 l -2.5238,-3.77789 -2.3762,-3.55681 -3e-4,3e-5 -2.0096,-4.0748 -1.8917,-3.8359 0,-3e-4 -1.4602,-4.30233 -1.3745,-4.04967 0,-3e-4 -0.8867,-4.45602 -0.8346,-4.19468 0,4e-4 -0.2974,-4.53364 -0.28,-4.26906 v 0 l 0.2974,-4.53363 0.28,-4.26767 0,-4e-4 0.8868,-4.45599 0.8345,-4.19331 v -4e-4 l 1.46,-4.3024 1.3747,-4.0509 v 0 l 2.0096,-4.074796 1.8917,-3.835904 v 0 l 2.5242,-3.77767 2.3758,-3.55563 0,3e-4 2.9956,-3.41592 2.8204,-3.21608 v 0 l 3.4159,-2.995626 3.2161,-2.820374 0,3.7e-4 3.7777,-2.524182 3.5556,-2.375818 0,-7e-5 4.0748,-2.009557 3.8359,-1.891743 h 3e-4 l 4.3023,-1.460226 4.0497,-1.374474 -3e-4,7e-5 4.456,-0.886651 4.1947,-0.834649 v -7e-5 l 4.5336,-0.297388 4.2677,-0.279942 z"
       id="path76"
       inkscape:connector-curvature="0"
       sodipodi:nodetypes="ccccccccccccccccccccccccccccccccccccccccccccccccccccccccccccccccccccccccccccccccccccccccccccccccccccccccccccccccccccccccccccccccccccccccccccccccc" /><path
       d="M 94.899,70.2213 98.953014,68.221992 102.8097,66.32 h 3e-4 l 4.28038,-1.452779 4.07162,-1.381921 -3e-4,-6.3e-4 4.4333,-0.882129 4.2174,-0.839171 v -7e-5 l 4.51051,-0.295872 4.29079,-0.281458 -6e-4,-0.0066 4.51051,0.295872 4.29079,0.281458 -1e-4,-0.0083 4.43332,0.882001 4.21868,0.839299 -2e-4,0.0083 4.28038,1.452779 4.07162,1.381921 h 3e-4 l 4.05401,1.999308 3.85669,1.901992 2e-4,-0.0083 3.7584,2.511308 3.5749,2.388692 h -3e-4 l 3.3985,2.980347 3.2335,2.835653 h 0 l 2.98035,3.398498 2.83565,3.233502 0,-3e-4 2.51131,3.758403 2.38869,3.574897 h 0 l 1.99931,4.054014 1.90199,3.856686 0,3e-4 1.45258,4.28045 1.38212,4.07285 4e-4,0.008 0.88227,4.43327 0.83903,4.21603 7e-5,4e-4 0.29587,4.51051 0.28146,4.29079 h 0 l -0.29582,4.51052 -0.28151,4.29218 -4.7e-4,-0.008 -0.88213,4.4333 -0.83917,4.2174 4e-4,0.008 -1.45278,4.28038 -1.38192,4.07162 0,3e-4 -1.99931,4.05401 -1.90199,3.85669 v -4e-4 l -2.51098,3.75862 -2.38902,3.57608 0,-4e-4 -2.98068,3.39821 -2.83532,3.23249 v 3e-4 l -3.3985,2.98035 -3.2335,2.83565 h 3e-4 l -3.7584,2.51131 -3.5749,2.38869 -7e-4,1e-4 -4.05401,1.99931 -3.85669,1.90199 v -0.006 l -4.28018,1.45338 -4.07182,1.38262 v 0 l -4.43345,0.88136 -4.21855,0.83864 3e-4,-3e-5 -4.51051,0.29587 -4.29079,0.28146 h -4e-4 l -4.51051,-0.29587 -4.29079,-0.28146 0,3e-5 -4.43342,-0.88149 -4.21728,-0.83851 h -3e-4 l -4.28018,-1.45338 -4.07182,-1.38262 h -3e-4 L 98.754286,188.90309 94.8976,187.0011 h 4e-4 L 91.139376,184.49012 87.5633,182.1011 v 0.006 l -3.398208,-2.98068 -3.232492,-2.83532 8e-4,0.002 -2.980678,-3.39821 -2.835322,-3.23249 v 0.005 L 72.606424,165.90938 70.2174,162.3333 v 4e-4 L 68.218092,158.27969 66.3161,154.423 v -3e-4 l -1.453376,-4.28018 -1.382624,-4.07182 0,-3e-4 -0.881488,-4.43342 -0.838512,-4.21728 3e-5,4e-4 -0.295825,-4.51052 -0.281505,-4.29218 v 0 l 0.295872,-4.51051 0.281458,-4.29079 -3e-5,-4e-4 0.881625,-4.4334 0.838375,-4.2159 0,-4e-4 1.453173,-4.28025 1.382827,-4.07305 v 0 L 68.315408,98.758686 70.2174,94.902 v 0 L 72.728708,91.143597 75.1174,87.5687 v 3e-4 L 78.097747,84.170502 80.9334,80.937 h 3e-4 L 84.331908,77.956322 87.5644,75.121 87.5633,75.1111 91.321924,72.600124 94.898,70.2111 Z"
       id="path78"
       inkscape:connector-curvature="0"
       sodipodi:nodetypes="ccccccccccccccccccccccccccccccccccccccccccccccccccccccccccccccccccccccccccccccccccccccccccccccccccccccccccccccccccccccccccccccccccccccccccccccccc" /><path
       d="m 87.5727,2574.9004 c -2.21029,-1.9386 -4.420496,-3.8773 -6.6307,-5.816 h -3e-4 c -1.938633,-2.2107 -3.877367,-4.4213 -5.816,-6.632 l 0,3e-4 c -1.63325,-2.4445 -3.266622,-4.8889 -4.9,-7.3333 l 0,0 c -1.300424,-2.6369 -2.600858,-5.2738 -3.9013,-7.9107 v 0 c -0.945358,-2.7844 -1.890621,-5.5689 -2.836,-8.3533 v 0 c -0.5733,-2.8836 -1.146681,-5.7671 -1.72,-8.6507 l -0.0013,-10e-5 c -0.192439,-2.9338 -0.384898,-5.8675 -0.57733,-8.8013 v -4e-4 c 0.192439,-2.9338 0.384898,-5.8675 0.57733,-8.8013 h -3e-5 c 0.573318,-2.8836 1.146699,-5.7671 1.72,-8.6507 l 0,-3e-4 c 0.945336,-2.784 1.89067,-5.568 2.836,-8.352 l 0,-3e-4 c 1.300443,-2.6369 2.600876,-5.2738 3.9013,-7.9107 l 0,3e-4 c 1.633295,-2.4449 3.266705,-4.8897 4.9,-7.3346 l 0,3e-4 c 1.938707,-2.2102 3.877407,-4.4204 5.816,-6.6307 l 3e-4,-3e-4 c 2.21029,-1.9386 4.420496,-3.8773 6.6307,-5.816 h -4e-4 c 2.444922,-1.6333 4.889778,-3.2667 7.3347,-4.9 h -4e-4 c 2.636867,-1.3005 5.27378,-2.6009 7.9107,-3.9013 h 3e-4 c 2.78401,-0.9453 5.56799,-1.8907 8.352,-2.836 l 3e-4,0 c 2.88357,-0.5733 5.76713,-1.1467 8.6507,-1.72 v 0 c 2.93376,-0.1925 5.86754,-0.3849 8.8013,-0.5774 h 4e-4 c 2.93376,0.1925 5.86754,0.3849 8.8013,0.5774 h -3e-4 c 2.88401,0.5733 5.76799,1.1467 8.652,1.72 v 0 c 2.78401,0.9453 5.56799,1.8907 8.352,2.836 h 3e-4 c 2.63692,1.3004 5.27383,2.6008 7.9107,3.9013 v 0 c 2.44445,1.6333 4.88885,3.2667 7.3333,4.9 h -3e-4 c 2.21064,1.9387 4.42136,3.8773 6.632,5.816 v 3e-4 c 1.93871,2.2102 3.8774,4.4204 5.816,6.6307 v -3e-4 c 1.63329,2.4449 3.26671,4.8897 4.9,7.3346 l 4e-4,-2e-4 c 1.30045,2.6369 2.60089,5.2738 3.9013,7.9107 v 3e-4 c 0.94491,2.784 1.88981,5.568 2.8347,8.352 l -7e-4,-10e-5 c 0.57373,2.8836 1.14756,5.7671 1.7213,8.6507 h 7e-5 c 0.19243,2.9338 0.38488,5.8675 0.57733,8.8013 v 4e-4 c -0.19243,2.9338 -0.38488,5.8675 -0.57733,8.8013 h -7e-5 c -0.57373,2.8836 -1.14756,5.7671 -1.7213,8.6507 v 0 c -0.94495,2.7844 -1.88978,5.5689 -2.8347,8.3533 l 7e-4,4e-4 c -1.30045,2.6369 -2.60089,5.2738 -3.9013,7.9107 v 0 c -1.63337,2.4444 -3.26675,4.8888 -4.9,7.3333 v -3e-4 c -1.93864,2.2107 -3.87736,4.4213 -5.816,6.632 v 0 c -2.21064,1.9387 -4.42136,3.8773 -6.632,5.816 l -4e-4,-4e-4 c -2.44445,1.6333 -4.88885,3.2667 -7.3333,4.9 l 7e-4,3e-4 c -2.63688,1.3005 -5.27382,2.6009 -7.9107,3.9014 l -3e-4,0 c -2.78399,0.9449 -5.56801,1.8897 -8.352,2.8346 l 0,-3e-4 -8.652,1.7214 h 3e-4 l -8.8013,0.576 -7e-4,3e-4 -8.8013,-0.576 v 0 l -8.6507,-1.7214 h -3e-4 c -2.78399,-0.9449 -5.56801,-1.8897 -8.352,-2.8346 l -3e-4,0 c -2.63688,-1.3005 -5.273816,-2.6009 -7.9107,-3.9014 l 4e-4,0 c -2.444922,-1.6333 -4.889778,-3.2667 -7.3347,-4.9 z"
       id="path80"
       inkscape:connector-curvature="0"
       sodipodi:nodetypes="ccccccccccccccccccccccccccccccccccccccccccccccccccccccccccccccccccccccccccccccccccccccccccccccccc" /><path
       d="m 1605.8617,2473.7386 2.9859,3.4042 2.8301,3.2265 v -3e-4 l 2.5154,3.7652 2.3846,3.5694 v -3e-4 l 2.0029,4.0611 1.8985,3.8496 v 3e-4 l 1.4553,4.2879 1.3793,4.0641 0,3e-4 0.8837,4.4411 0.8377,4.2096 v 0 l 0.2964,4.5184 0.2809,4.2829 v 4e-4 l -0.2964,4.5184 -0.2809,4.2829 v 0 l -0.8837,4.4411 -0.8377,4.2096 v 0 l -1.4551,4.288 -1.3795,4.0653 h 0 l -2.0029,4.0611 -1.8985,3.8496 0,0 -2.5157,3.765 -2.3843,3.5683 v -3e-4 l -2.9856,3.4045 -2.8304,3.2275 -4e-4,0 -3.4041,2.9859 -3.2265,2.8301 3e-4,0 -3.7652,2.5154 -3.5695,2.3846 h 4e-4 l -4.0611,2.0029 -3.8496,1.8985 h -3e-4 l -4.2879,1.4553 -4.0641,1.3793 h -4e-4 l -4.441,0.8837 -4.2096,0.8377 h 3e-4 l -4.5185,0.2957 -4.2842,0.2803 h 0 l -4.5185,-0.2957 -4.2828,-0.2803 h 0 l -4.4411,-0.8837 -4.2096,-0.8377 h -3e-4 l -4.2879,-1.4553 -4.0641,-1.3793 h -3e-4 l -4.0611,-2.0029 -3.8496,-1.8985 v 0 l -3.765,-2.5157 -3.5683,-2.3843 h 3e-4 l -3.4045,-2.9856 -3.2275,-2.8304 v 0 l -2.9856,-3.4045 -2.8304,-3.2275 0,-3e-4 -2.5157,-3.765 -2.3843,-3.5683 0,3e-4 -2.0028,-4.0611 -1.8985,-3.8496 0,0 -1.4551,-4.288 -1.3796,-4.0653 v 0 l -0.8837,-4.4411 -0.8376,-4.2096 v 0 l -0.2964,-4.5184 -0.281,-4.2829 v -4e-4 l 0.2964,-4.5184 0.281,-4.2829 0,4e-4 0.8837,-4.4411 0.8376,-4.2096 0,-4e-4 1.4553,-4.2879 1.3794,-4.0641 v -3e-4 l 2.0028,-4.0611 1.8985,-3.8496 v 3e-4 l 2.5154,-3.7652 2.3846,-3.5694 v 3e-4 l 2.9859,-3.4042 2.8301,-3.2265 0,-3e-4 3.4045,-2.9856 3.2275,-2.8304 h -3e-4 l 3.765,-2.5157 3.5683,-2.3843 v 0 l 4.0611,-2.0028 3.8496,-1.8985 h 3e-4 l 4.2877,-1.4559 4.0643,-1.3801 3e-4,0 4.4412,-0.883 4.2095,-0.837 h 0 l 4.5184,-0.2964 4.2829,-0.281 h 0 l 4.5184,0.2964 4.2843,0.281 h -3e-4 l 4.4412,0.883 4.2094,0.837 4e-4,0 4.2877,1.4559 4.0643,1.3801 h 3e-4 l 4.0611,2.0028 3.8496,1.8985 h -4e-4 l 3.7652,2.5154 3.5695,2.3846 -3e-4,0 3.4041,2.9859 3.2265,2.8301 z"
       id="path82"
       inkscape:connector-curvature="0"
       sodipodi:nodetypes="ccccccccccccccccccccccccccccccccccccccccccccccccccccccccccccccccccccccccccccccccccccccccccccccccccccccccccccccccccccccccccccccccccccccccccccccccc" /></g><g
     stroke="#000"
     stroke-miterlimit="9.8838"
     id="g90"><path
       d="m1208.4 387.71 4.96 14.617 6.828 13.844 8.576 12.833 10.177 11.605 11.604 10.177 12.835 8.576 13.844 6.8267 14.616 4.9613 15.14 3.012 15.403 1.0093 15.403-1.0093 15.139-3.012 14.616-4.9613 13.844-6.8267 12.835-8.576 11.605-10.177 10.177-11.605 8.5747-12.833 6.828-13.844 4.9613-14.617 3.0107-15.139 1.0106-15.403-1.0106-15.403-3.0107-15.139-4.9613-14.617-6.828-13.843-8.5747-12.835-10.177-11.605-11.605-10.177-12.835-8.576-13.844-6.8267-14.616-4.9613-15.139-3.012-15.403-1.0093-15.403 1.0093-15.14 3.012-14.616 4.9613-13.844 6.8267-12.835 8.576-11.604 10.177-10.177 11.605-8.576 12.835-6.828 13.843-4.96 14.617-3.012 15.139-1.0093 15.403 1.0093 15.403zm113.98-172.15 18.483 1.2107 18.167 3.6133 17.54 5.9547 16.612 8.192 15.401 10.291 13.927 12.213 12.213 13.927 10.291 15.4 8.192 16.613 5.9533 17.54 3.6147 18.167 1.2106 18.483-1.2106 18.483-3.6147 18.168-5.9533 17.539-8.192 16.613-10.291 15.401-12.213 13.925-13.927 12.213-15.401 10.291-16.612 8.192-17.54 5.9547-18.167 3.6133-18.483 1.212-18.484-1.212-18.167-3.6133-17.54-5.9547-16.612-8.192-15.401-10.291-13.927-12.213-12.212-13.925-10.291-15.401-8.1933-16.613-5.9533-17.539-3.6134-18.168-1.212-18.483 1.212-18.483 3.6134-18.167 5.9533-17.54 8.1933-16.613 10.291-15.4 12.212-13.927 13.927-12.213 15.401-10.291 16.612-8.192 17.54-5.9547 18.167-3.6133z"
       fill="#fef0d5"
       id="path86" /><path
       d="m1371.6 324.66-55.975-46.968v65.016m0 28.921v65.015m0-65.015-27.663 23.212m27.663-52.133-27.663-23.213m41.149 52.135v36.093m0-101.11v36.095m-41.149 52.133-8.6694-10.331m8.6694-65.016-8.6694 10.331m49.819-23.212 21.508 18.047m0 65.016-21.508 18.047m-17.233-50.555-32.585 27.343m71.327-59.851-21.508 18.048m-17.233 14.46-32.585-27.343m71.327 59.851-21.508-18.047m42.488-46.969-38.741 32.508m38.741 32.508-38.741-32.508m38.741 32.508-55.975 46.968m55.975-46.968-55.975 46.968v-65.015l-27.663 23.212-8.6694-10.331 32.585-27.343-32.585-27.343 8.6694-10.331 27.663 23.213v-65.016l55.975 46.968-38.741 32.508zm-20.98 0-21.508-18.047v36.093zm-21.508-46.968 21.508-18.048-21.508-18.047z"
       fill="none"
       id="path88" /></g><path
     d="m605.63 478.53h-238.37m238.37-233.31v233.31m-238.37 0v-233.31h238.37"
     fill="none"
     stroke="#000"
     stroke-miterlimit="9.8838"
     id="path92" /><g
     stroke-miterlimit="9.8838"
     id="g102"
     stroke="#000"><path
       d="m872.87 2036.1 28.981 5.7653 27.98 9.4974 26.5 13.069 24.569 16.416 22.216 19.483 19.481 22.215 16.416 24.569 13.069 26.5 9.4974 27.981 5.7653 28.98 1.932 29.485-1.932 29.484-5.7653 28.981-9.4974 27.98-13.069 26.501-16.416 24.568-19.481 22.216-22.216 19.483-24.569 16.416-26.5 13.068-27.98 9.4986-28.981 5.764-29.485 1.9334-29.484-1.9334-28.981-5.764-27.98-9.4986-26.5-13.068-24.569-16.416-22.216-19.483-19.481-22.216-16.416-24.568-13.069-26.501-9.4987-27.98-5.764-28.981-1.932-29.484 1.932-29.485 5.764-28.98 9.4987-27.981 13.069-26.5 16.416-24.569 19.481-22.215 22.216-19.483 24.569-16.416 26.5-13.069 27.98-9.4974 28.981-5.7653 29.484-1.932zm-152.63 384.45 22.001 14.701 23.732 11.703 25.056 8.5053 25.953 5.1627 26.404 1.7306 26.405-1.7306 25.952-5.1627 25.057-8.5053 23.732-11.703 22.001-14.701 19.895-17.447 17.448-19.895 14.7-22.003 11.704-23.732 8.5054-25.056 5.1626-25.953 1.7307-26.404-1.7307-26.405-5.1626-25.952-8.5054-25.057-11.704-23.732-14.7-22.001-17.448-19.895-19.895-17.447-22.001-14.701-23.732-11.704-25.057-8.5054-25.952-5.1626-26.405-1.7307-26.404 1.7307-25.953 5.1626-25.056 8.5054-23.732 11.704-22.001 14.701-19.896 17.447-17.447 19.895-14.7 22.001-11.704 23.732-8.5053 25.057-5.1627 25.952-1.7307 26.405 1.7307 26.404 5.1627 25.953 8.5053 25.056 11.704 23.732 14.7 22.003 17.447 19.895z"
       id="path94"
       fill="#fef0d5" /><g
       transform="matrix(1.3333,0,0,-1.3333,-3440.5333,3965.4463)"
       id="g100"
       style="fill-opacity:0.07843101;stroke-width:0.75"><path
         d="M 3559.5,1241.14 V 1317 l 37.93,-37.93 z"
         id="path880" /><g
         id="g884"><path
           id="path872"
           d="m 3358.483,1365.6795 v 0 l 11.063,-21.773 7.123,-20.986 4.324,-21.735 1.4465,-22.1142 -1.4515,-22.1133 -4.324,-21.736 -7.123,-20.985 -11.6969,-22.7192 226.9519,-0.9468 v 0 l 11.552,0.757 11.355,2.259 10.962,3.721 v 10e-4 l 10.383,5.12 v -10e-4 l 9.6249,6.432 8.7041,7.633 v 0 l 7.633,8.704 6.432,9.626 5.12,10.383 v -10e-4 l 3.721,10.962 h -0.01 l 2.259,11.354 h 0.01 l 0.7569,11.552 -0.7569,11.552 h -0.01 l -2.259,11.355 -3.721,10.962 v 0 l -5.12,10.383 -6.432,9.626 -7.633,8.703 -8.7041,7.633 -9.6249,6.432 -10.383,5.12 h 0.01 l -10.962,3.722 -11.355,2.258 v 0 l -11.552,0.757 z" /><path
           id="path878"
           d="m 3559.5,1317 v -75.86 l 37.93,37.93 -37.93,-37.93 37.93,37.93 z" /></g><path
         d="M 3584.796,1367.576 Z"
         id="path876" /><path
         d="M 3661.432,1323.325 Z"
         id="path874" /><path
         d="M 3381.7137,1268.0146 Z"
         id="path96" /><path
         d="m 2866.6,1241.2 -37.93,37.93 37.93,37.93 z"
         id="path868" /><g
         id="g888"><path
           id="path98"
           d="m 3043.67,1279.107 1.443,-22.107 4.322,-21.7345 7.129,-20.9895 9.802,-19.876 2.529,-3.7905 h -227.585 0.01 l -11.552,0.757 -11.354,2.259 -10.963,3.721 -10.383,5.12 -9.626,6.432 v 0.01 l -8.703,7.633 v 0 l -7.633,8.704 -6.427,9.621 -5.115,10.378 -3.728,10.967 -2.264,11.359 -0.757,11.552 0.763,11.547 2.264,11.35 3.722,10.962 5.12,10.383 6.427,9.631 7.628,8.708 8.703,7.638 9.626,6.432 10.383,5.12 10.968,3.719 11.359,2.25 11.546,0.762 h 227.57 l -2.538,-3.7955 -9.802,-19.877 -7.118,-20.992 -4.317,-21.739 z" /><path
           id="path866"
           d="m 2866.6,1241.2 v 75.86 l -37.93,-37.93 z" /></g></g></g><g
     transform="matrix(8.3211 0 0 8.3211 -2543.4 -255.09)"
     fill-opacity=".078431"
     id="g106"><path
       d="m377.04 68.054a0.71411 0.71411 0 0 0-0.7147 0.71649 0.71262 0.71262 0 0 0 0.7147 0.71401c0.39685 0 0.7165-0.31796 0.7165-0.71401a0.715 0.715 0 0 0-0.7165-0.71649m0 0.14139c0.31786 0 0.57679 0.25705 0.57679 0.5751 0 0.31627-0.25873 0.575-0.57679 0.575-0.31706 0-0.57251-0.25873-0.57251-0.575 0-0.31796 0.25535-0.5751 0.57251-0.5751zm0.36427 0.9478-0.0857-0.14904c-0.0745-0.13106-0.0959-0.15083-0.15859-0.17398v-0.0035c0.12521-0.01449 0.19993-0.09598 0.19993-0.20747 0-0.11734-0.0747-0.20647-0.23391-0.20647h-0.36852v0.74043h0.15242v-0.30335h0.0273c0.0652 0 0.0918 0.0069 0.12182 0.03684 0.0292 0.03004 0.0746 0.09251 0.10125 0.14567l0.0592 0.12082zm-0.49463-0.42238v-0.2023h0.13712c0.10137 0 0.15431 0.03514 0.15431 0.10035 0 0.05216-0.0333 0.10184-0.13622 0.10184zm-3.5652 3.4263c-0.031 0.76279-1.1483 3.8129-1.5452 4.4855-0.1721 0.29222-0.36585 0.53307-0.7155 0.53218-0.30504 0-0.44057-0.21601-0.44912-0.46273-0.0226-0.68827 1.2408-4.1385 1.6728-4.6999 0.19196-0.2958 0.40618-0.34359 0.65131-0.34022 0.35849 0.0041 0.39416 0.26321 0.38562 0.48508m2.0363 1.2453c-0.25368 1.2641-0.8244 2.7593-1.445 3.8736-1.0113 1.8186-2.2393 2.073-3.3113 2.0601-1.0712-0.01285-2.2814-0.40868-2.29-2.0628-7e-3 -1.1879 0.50554-2.8642 0.94115-3.9629 0.75751-1.9926 1.5322-3.6164 3.9815-3.5873 2.8557 0.03356 2.3467 2.5737 2.1236 3.6793zm-9.0678-1.7715c-0.41394 0-0.684 0.26142-0.8853 0.5442-0.44226 0.6213-1.4021 3.1126-1.5511 4.1359-0.10114 0.70119 0.20071 0.84328 0.53208 0.84328 0.53059 0 1.1253-0.56129 1.3283-1.4877 0 0-1.0105-0.02493-0.73179-0.92068 0.26997-0.8698 0.78426-1.0575 1.6352-1.0927 1.6771-0.06846 1.511 1.1698 1.3771 1.8297-0.43559 2.1443-1.9617 3.8668-4.1207 3.8668-1.4779 0-2.3948-0.81833-2.3948-2.3248 0-1.0732 0.53267-2.7589 0.95454-3.7451 0.89863-2.0997 1.8414-3.5694 4.2427-3.5694 1.4405 0 2.5771 0.51757 2.4099 1.8674-0.12171 0.99072-0.61712 1.5726-1.5175 1.6428-0.25208 0.01959-1.2829-0.0069-0.94104-0.98208 0.11893-0.34021 0.16861-0.60759-0.33763-0.60759zm-7.5131 3.7127c-0.0993 0.26807-0.28616 0.82777-0.43699 1.4218 0.48975-0.12172 0.85738-0.20816 1.4873-0.19197 0.71818 0.01708 1.1771 0.31547 1.1771 0.90846 0 1.4388-1.5902 1.8614-2.6936 1.8614-1.2118 0-2.2754-0.68996-2.2754-2.0141 0-1.5538 0.84159-3.908 1.6313-5.4763 0.97056-1.9266 1.9622-2.1829 3.6693-2.1829 0.75037 0 1.6146 0.32064 1.6146 1.0285 0 0.98218-0.83175 1.3566-1.657 1.4047-0.35184 0.01965-0.89385 0.03937-1.2178 0.01631 0 0-0.27473 0.4191-0.56695 1.1638 1.5277-0.21512 2.1756 0.13205 1.9176 1.0156-0.34845 1.1929-1.3833 1.2718-2.6496 1.0448zm-4.8652 1.3804c1.4942-0.25953 1.8701 0.2812 1.8225 0.77998-0.1401 1.498-1.5144 1.8322-2.7073 1.8048-0.86513-0.02059-1.6429-0.41632-1.6647-1.4209-0.0376-1.7569 1.7543-5.8216 2.5984-7.1688 0.3891-0.64008 0.86385-0.95555 1.621-0.95555 0.71689 0 0.89514 0.36764 0.88442 0.80899-0.0278 1.1765-1.9304 4.7537-2.5543 6.1514zm19.213-7.8929c-1.5426 0-2.6087 0.61186-3.3304 1.4655-0.12172-0.25526-0.21521-0.36753-0.34548-0.51509-0.5905-0.6676-1.541-0.9796-2.8153-0.9796-1.2451 0-2.2832 0.3891-3.0037 1.0019-0.37449-0.60848-1.2663-1.0122-2.3422-1.0122-1.4058 0-2.937 0.19971-3.8462 1.6635-0.0211-0.52721-0.0694-0.80562-0.36594-1.1201-0.35999-0.38055-0.94275-0.48081-1.5105-0.48081-1.0348 0-1.813 0.4517-2.3731 1.3723-0.81237 1.2982-2.7827 5.5697-2.7377 7.6376 0.0278 1.3369 0.92475 2.2994 2.529 2.3371 1.2538 0.02998 2.2368-0.30514 2.8624-0.93588 0.56099 0.60848 1.4175 0.96668 2.4417 0.96668 1.1406 0 2.2895-0.3418 2.9678-1.0909 0.57162 0.70099 1.4701 1.109 2.6258 1.1036 1.5118-0.0067 2.8383-0.72315 3.7059-1.822 0.47465 1.2949 1.6814 1.8092 2.9995 1.8092 2.888 0 4.1555-1.9848 5.2123-5.1249 0.23816-0.70795 0.55553-1.888 0.60858-2.8794 0.0872-1.6506-0.61117-3.3963-3.2825-3.3963z"
       fill-opacity=".078431"
       stroke-width=".099361"
       id="path104" /></g></svg>