<?xml version="1.0" encoding="UTF-8"?>
<svg width="56mm" height="88mm" version="1.1" viewBox="0 0 211.7 332.6" xml:space="preserve" xmlns="http://www.w3.org/2000/svg"><g transform="matrix(.1255 0 0 .1255 .0005396 .0003301)"><g stroke="#000" stroke-miterlimit="9.884"><path d="m1568 2650h-1450l-15.4-1.009-15.14-3.012-14.62-4.961-13.84-6.827-12.84-8.576-11.6-10.18-10.18-11.6-8.575-12.83-6.828-13.84-4.961-14.62-3.012-15.14-1.009-15.4v-2413l1.009-15.4 3.012-15.14 4.961-14.62 6.828-13.84 8.575-12.83 10.18-11.6 11.6-10.18 12.84-8.576 13.84-6.828 14.62-4.961 15.14-3.011 15.4-1.009h1450l15.4 1.009 15.14 3.011 14.62 4.961 13.84 6.828 12.84 8.576 11.6 10.18 10.18 11.6 8.575 12.83 6.827 13.84 4.963 14.62 3.011 15.14 1.009 15.4v2413l-1.009 15.4-3.011 15.14-4.963 14.62-6.827 13.84-8.575 12.83-10.18 11.6-11.6 10.18-12.84 8.576-13.84 6.827-14.62 4.961-15.14 3.012z" fill="#fafafa" fill-rule="evenodd"/><path d="m691.4 685.7 1.977 0.976 1.833 1.224 1.659 1.455 1.453 1.657 1.225 1.833 0.9747 1.979 0.7093 2.088 0.4307 2.163 0.144 2.2v182.1l-0.144 2.2-0.4307 2.163-0.7093 2.088-0.9747 1.977-1.225 1.833-1.453 1.659-1.659 1.453-1.833 1.225-1.977 0.9747-2.088 0.7093-2.163 0.4307-2.2 0.144h-182.1l-2.2-0.144-2.163-0.4307-2.088-0.7093-1.977-0.9747-1.835-1.225-1.657-1.453-1.453-1.659-1.225-1.833-0.976-1.977-0.708-2.088-0.4307-2.163-0.144-2.2v-182.1l0.144-2.2 0.4307-2.163 0.708-2.088 0.976-1.979 1.225-1.833 1.453-1.657 1.657-1.455 1.835-1.224 1.977-0.976 2.088-0.7093 2.163-0.4293 2.2-0.144h182.1l2.2 0.144 2.163 0.4293z" fill="#fef0d5"/><path d="m441.9 1684 1.977 0.976 1.835 1.225 1.657 1.453 1.453 1.657 1.227 1.835 0.9747 1.977 0.708 2.088 0.4307 2.163 0.144 2.2v182.1l-0.144 2.2-0.4307 2.163-0.708 2.088-0.9747 1.977-1.227 1.835-1.453 1.657-1.657 1.453-1.835 1.225-1.977 0.9747-2.088 0.7093-2.161 0.4307-2.201 0.144h-182.1l-2.201-0.144-2.163-0.4307-2.088-0.7093-1.977-0.9747-1.833-1.225-1.659-1.453-1.453-1.657-1.225-1.835-0.9747-1.977-0.7093-2.088-0.4307-2.163-0.144-2.2v-182.1l0.144-2.2 0.4307-2.163 0.7093-2.088 0.9747-1.977 1.225-1.835 1.453-1.657 1.659-1.453 1.833-1.225 1.977-0.976 2.088-0.708 2.163-0.4307 2.201-0.144h182.1l2.201 0.144 2.161 0.4307z" fill="#fafafa"/><path d="m441.9 1185 1.977 0.976 1.835 1.225 1.657 1.453 1.453 1.657 1.227 1.835 0.9747 1.977 0.708 2.088 0.4307 2.163 0.144 2.2v182.1l-0.144 2.2-0.4307 2.163-0.708 2.088-0.9747 1.977-1.227 1.833-1.453 1.659-1.657 1.453-1.835 1.225-1.977 0.9747-2.088 0.7093-2.161 0.4307-2.201 0.144h-182.1l-2.201-0.144-2.163-0.4307-2.088-0.7093-1.977-0.9747-1.833-1.225-1.659-1.453-1.453-1.659-1.225-1.833-0.9747-1.977-0.7093-2.088-0.4307-2.163-0.144-2.2v-182.1l0.144-2.2 0.4307-2.163 0.7093-2.088 0.9747-1.977 1.225-1.835 1.453-1.657 1.659-1.453 1.833-1.225 1.977-0.976 2.088-0.708 2.163-0.4307 2.201-0.144h182.1l2.201 0.144 2.161 0.4307z" fill="#fef0d5"/><path d="m1190 685.7 1.977 0.976 1.835 1.224 1.657 1.455 1.453 1.657 1.225 1.833 0.9747 1.979 0.7093 2.088 0.4307 2.163 0.144 2.2v182.1l-0.144 2.2-0.4307 2.163-0.7093 2.088-0.9747 1.977-1.225 1.833-1.453 1.659-1.657 1.453-1.835 1.225-1.977 0.9747-2.088 0.7093-2.163 0.4307-2.2 0.144h-182.1l-2.2-0.144-2.163-0.4307-2.088-0.7093-1.977-0.9747-1.833-1.225-1.659-1.453-1.453-1.659-1.225-1.833-0.976-1.977-0.708-2.088-0.4307-2.163-0.144-2.2v-182.1l0.144-2.2 0.4307-2.163 0.708-2.088 0.976-1.979 1.225-1.833 1.453-1.657 1.659-1.455 1.833-1.224 1.977-0.976 2.088-0.7093 2.163-0.4293 2.2-0.144h182.1l2.2 0.144 2.163 0.4293z" fill="#fef0d5"/><path d="m1190 1684 1.977 0.976 1.835 1.225 1.657 1.453 1.453 1.657 1.225 1.835 0.9747 1.977 0.7093 2.088 0.4307 2.163 0.144 2.2v182.1l-0.144 2.2-0.4307 2.163-0.7093 2.088-0.9747 1.977-1.225 1.835-1.453 1.657-1.657 1.453-1.835 1.225-1.977 0.9747-2.088 0.7093-2.163 0.4307-2.2 0.144h-182.1l-2.2-0.144-2.163-0.4307-2.088-0.7093-1.977-0.9747-1.833-1.225-1.659-1.453-1.453-1.657-1.225-1.835-0.976-1.977-0.708-2.088-0.4307-2.163-0.144-2.2v-182.1l0.144-2.2 0.4307-2.163 0.708-2.088 0.976-1.977 1.225-1.835 1.453-1.657 1.659-1.453 1.833-1.225 1.977-0.976 2.088-0.708 2.163-0.4307 2.2-0.144h182.1l2.2 0.144 2.163 0.4307z" fill="#fafafa"/><g fill="#fef0d5"><path d="m441.9 935.2 1.977 0.9747 1.835 1.225 1.657 1.453 1.453 1.659 1.227 1.833 0.9747 1.977 0.708 2.088 0.4307 2.163 0.144 2.201v182.1l-0.144 2.2-0.4307 2.163-0.708 2.088-0.9747 1.977-1.227 1.835-1.453 1.657-1.657 1.453-1.835 1.225-1.977 0.976-2.088 0.708-2.161 0.4306-2.201 0.144h-182.1l-2.201-0.144-2.163-0.4306-2.088-0.708-1.977-0.976-1.833-1.225-1.659-1.453-1.453-1.657-1.225-1.835-0.9747-1.977-0.7093-2.088-0.4307-2.163-0.144-2.2v-182.1l0.144-2.201 0.4307-2.163 0.7093-2.088 0.9747-1.977 1.225-1.833 1.453-1.659 1.659-1.453 1.833-1.225 1.977-0.9747 2.088-0.7093 2.163-0.4307 2.201-0.144h182.1l2.201 0.144 2.161 0.4307z"/><path d="m940.9 935.2 1.977 0.9747 1.833 1.225 1.657 1.453 1.455 1.659 1.225 1.833 0.9747 1.977 0.7093 2.088 0.4293 2.163 0.144 2.201v182.1l-0.144 2.2-0.4293 2.163-0.7093 2.088-0.9747 1.977-1.225 1.835-1.455 1.657-1.657 1.453-1.833 1.225-1.977 0.976-2.088 0.708-2.163 0.4306-2.201 0.144h-182.1l-2.201-0.144-2.163-0.4306-2.088-0.708-1.977-0.976-1.833-1.225-1.657-1.453-1.455-1.657-1.225-1.835-0.9747-1.977-0.7093-2.088-0.4307-2.163-0.144-2.2v-182.1l0.144-2.201 0.4307-2.163 0.7093-2.088 0.9747-1.977 1.225-1.833 1.455-1.659 1.657-1.453 1.833-1.225 1.977-0.9747 2.088-0.7093 2.163-0.4307 2.201-0.144h182.1l2.201 0.144 2.163 0.4307z"/><path d="m691.4 1185 1.977 0.976 1.833 1.225 1.659 1.453 1.453 1.657 1.225 1.835 0.9747 1.977 0.7093 2.088 0.4307 2.163 0.144 2.2v182.1l-0.144 2.2-0.4307 2.163-0.7093 2.088-0.9747 1.977-1.225 1.833-1.453 1.659-1.659 1.453-1.833 1.225-1.977 0.9747-2.088 0.7093-2.163 0.4307-2.2 0.144h-182.1l-2.2-0.144-2.163-0.4307-2.088-0.7093-1.977-0.9747-1.835-1.225-1.657-1.453-1.453-1.659-1.225-1.833-0.976-1.977-0.708-2.088-0.4307-2.163-0.144-2.2v-182.1l0.144-2.2 0.4307-2.163 0.708-2.088 0.976-1.977 1.225-1.835 1.453-1.657 1.657-1.453 1.835-1.225 1.977-0.976 2.088-0.708 2.163-0.4307 2.2-0.144h182.1l2.2 0.144 2.163 0.4307z"/><path d="m940.9 1185 1.977 0.976 1.833 1.225 1.657 1.453 1.455 1.657 1.225 1.835 0.9747 1.977 0.7093 2.088 0.4293 2.163 0.144 2.2v182.1l-0.144 2.2-0.4293 2.163-0.7093 2.088-0.9747 1.977-1.225 1.833-1.455 1.659-1.657 1.453-1.833 1.225-1.977 0.9747-2.088 0.7093-2.163 0.4307-2.201 0.144h-182.1l-2.201-0.144-2.163-0.4307-2.088-0.7093-1.977-0.9747-1.833-1.225-1.657-1.453-1.455-1.659-1.225-1.833-0.9747-1.977-0.7093-2.088-0.4307-2.163-0.144-2.2v-182.1l0.144-2.2 0.4307-2.163 0.7093-2.088 0.9747-1.977 1.225-1.835 1.455-1.657 1.657-1.453 1.833-1.225 1.977-0.976 2.088-0.708 2.163-0.4307 2.201-0.144h182.1l2.201 0.144 2.163 0.4307z"/></g><g fill="#fafafa"><path d="m1440 1684 1.977 0.976 1.833 1.225 1.659 1.453 1.453 1.657 1.225 1.835 0.9747 1.977 0.7093 2.088 0.4307 2.163 0.144 2.2v182.1l-0.144 2.2-0.4307 2.163-0.7093 2.088-0.9747 1.977-1.225 1.835-1.453 1.657-1.659 1.453-1.833 1.225-1.977 0.9747-2.088 0.7093-2.163 0.4307-2.201 0.144h-182.1l-2.2-0.144-2.163-0.4307-2.088-0.7093-1.979-0.9747-1.833-1.225-1.657-1.453-1.455-1.657-1.224-1.835-0.976-1.977-0.7093-2.088-0.4294-2.163-0.144-2.2v-182.1l0.144-2.2 0.4294-2.163 0.7093-2.088 0.976-1.977 1.224-1.835 1.455-1.657 1.657-1.453 1.833-1.225 1.979-0.976 2.088-0.708 2.163-0.4307 2.2-0.144h182.1l2.201 0.144 2.163 0.4307z"/><path d="m1440 685.7 1.977 0.976 1.833 1.224 1.659 1.455 1.453 1.657 1.225 1.833 0.9747 1.979 0.7093 2.088 0.4307 2.163 0.144 2.2v182.1l-0.144 2.2-0.4307 2.163-0.7093 2.088-0.9747 1.977-1.225 1.833-1.453 1.659-1.659 1.453-1.833 1.225-1.977 0.9747-2.088 0.7093-2.163 0.4307-2.201 0.144h-182.1l-2.2-0.144-2.163-0.4307-2.088-0.7093-1.979-0.9747-1.833-1.225-1.657-1.453-1.455-1.659-1.224-1.833-0.976-1.977-0.7093-2.088-0.4294-2.163-0.144-2.2v-182.1l0.144-2.2 0.4294-2.163 0.7093-2.088 0.976-1.979 1.224-1.833 1.455-1.657 1.657-1.455 1.833-1.224 1.979-0.976 2.088-0.7093 2.163-0.4293 2.2-0.144h182.1l2.201 0.144 2.163 0.4293z"/><path d="m441.9 685.7 1.977 0.976 1.835 1.224 1.657 1.455 1.453 1.657 1.227 1.833 0.9747 1.979 0.708 2.088 0.4307 2.163 0.144 2.2v182.1l-0.144 2.2-0.4307 2.163-0.708 2.088-0.9747 1.977-1.227 1.833-1.453 1.659-1.657 1.453-1.835 1.225-1.977 0.9747-2.088 0.7093-2.161 0.4307-2.201 0.144h-182.1l-2.201-0.144-2.163-0.4307-2.088-0.7093-1.977-0.9747-1.833-1.225-1.659-1.453-1.453-1.659-1.225-1.833-0.9747-1.977-0.7093-2.088-0.4307-2.163-0.144-2.2v-182.1l0.144-2.2 0.4307-2.163 0.7093-2.088 0.9747-1.979 1.225-1.833 1.453-1.657 1.659-1.455 1.833-1.224 1.977-0.976 2.088-0.7093 2.163-0.4293 2.201-0.144h182.1l2.201 0.144 2.161 0.4293z"/><path d="m940.9 685.7 1.977 0.976 1.833 1.224 1.657 1.455 1.455 1.657 1.225 1.833 0.9747 1.979 0.7093 2.088 0.4293 2.163 0.144 2.2v182.1l-0.144 2.2-0.4293 2.163-0.7093 2.088-0.9747 1.977-1.225 1.833-1.455 1.659-1.657 1.453-1.833 1.225-1.977 0.9747-2.088 0.7093-2.163 0.4307-2.201 0.144h-182.1l-2.201-0.144-2.163-0.4307-2.088-0.7093-1.977-0.9747-1.833-1.225-1.657-1.453-1.455-1.659-1.225-1.833-0.9747-1.977-0.7093-2.088-0.4307-2.163-0.144-2.2v-182.1l0.144-2.2 0.4307-2.163 0.7093-2.088 0.9747-1.979 1.225-1.833 1.455-1.657 1.657-1.455 1.833-1.224 1.977-0.976 2.088-0.7093 2.163-0.4293 2.201-0.144h182.1l2.201 0.144 2.163 0.4293z"/></g><path d="m1190 1434 1.977 0.9746 1.835 1.225 1.657 1.455 1.453 1.657 1.225 1.833 0.9747 1.977 0.7093 2.088 0.4307 2.163 0.144 2.201v182.1l-0.144 2.201-0.4307 2.161-0.7093 2.089-0.9747 1.977-1.225 1.833-1.453 1.657-1.657 1.455-1.835 1.225-1.977 0.9746-2.088 0.7094-2.163 0.4293-2.2 0.144h-182.1l-2.2-0.144-2.163-0.4293-2.088-0.7094-1.977-0.9746-1.833-1.225-1.659-1.455-1.453-1.657-1.225-1.833-0.976-1.977-0.708-2.089-0.4307-2.161-0.144-2.201v-182.1l0.144-2.201 0.4307-2.163 0.708-2.088 0.976-1.977 1.225-1.833 1.453-1.657 1.659-1.455 1.833-1.225 1.977-0.9746 2.088-0.7094 2.163-0.4306 2.2-0.144h182.1l2.2 0.144 2.163 0.4306z" fill="#fef0d5"/><path d="m1440 1434 1.977 0.9746 1.833 1.225 1.659 1.455 1.453 1.657 1.225 1.833 0.9747 1.977 0.7093 2.088 0.4307 2.163 0.144 2.201v182.1l-0.144 2.201-0.4307 2.161-0.7093 2.089-0.9747 1.977-1.225 1.833-1.453 1.657-1.659 1.455-1.833 1.225-1.977 0.9746-2.088 0.7094-2.163 0.4293-2.201 0.144h-182.1l-2.2-0.144-2.163-0.4293-2.088-0.7094-1.979-0.9746-1.833-1.225-1.657-1.455-1.455-1.657-1.224-1.833-0.976-1.977-0.7093-2.089-0.4294-2.161-0.144-2.201v-182.1l0.144-2.201 0.4294-2.163 0.7093-2.088 0.976-1.977 1.224-1.833 1.455-1.657 1.657-1.455 1.833-1.225 1.979-0.9746 2.088-0.7094 2.163-0.4306 2.2-0.144h182.1l2.201 0.144 2.163 0.4306z" fill="#fafafa"/><path d="m441.9 1434 1.977 0.9746 1.835 1.225 1.657 1.455 1.453 1.657 1.227 1.833 0.9747 1.977 0.708 2.088 0.4307 2.163 0.144 2.201v182.1l-0.144 2.201-0.4307 2.161-0.708 2.089-0.9747 1.977-1.227 1.833-1.453 1.657-1.657 1.455-1.835 1.225-1.977 0.9746-2.088 0.7094-2.161 0.4293-2.201 0.144h-182.1l-2.201-0.144-2.163-0.4293-2.088-0.7094-1.977-0.9746-1.833-1.225-1.659-1.455-1.453-1.657-1.225-1.833-0.9747-1.977-0.7093-2.089-0.4307-2.161-0.144-2.201v-182.1l0.144-2.201 0.4307-2.163 0.7093-2.088 0.9747-1.977 1.225-1.833 1.453-1.657 1.659-1.455 1.833-1.225 1.977-0.9746 2.088-0.7094 2.163-0.4306 2.201-0.144h182.1l2.201 0.144 2.161 0.4306z" fill="#fafafa"/><g fill="#fef0d5"><path d="m1190 1185 1.977 0.976 1.835 1.225 1.657 1.453 1.453 1.657 1.225 1.835 0.9747 1.977 0.7093 2.088 0.4307 2.163 0.144 2.2v182.1l-0.144 2.2-0.4307 2.163-0.7093 2.088-0.9747 1.977-1.225 1.833-1.453 1.659-1.657 1.453-1.835 1.225-1.977 0.9747-2.088 0.7093-2.163 0.4307-2.2 0.144h-182.1l-2.2-0.144-2.163-0.4307-2.088-0.7093-1.977-0.9747-1.833-1.225-1.659-1.453-1.453-1.659-1.225-1.833-0.976-1.977-0.708-2.088-0.4307-2.163-0.144-2.2v-182.1l0.144-2.2 0.4307-2.163 0.708-2.088 0.976-1.977 1.225-1.835 1.453-1.657 1.659-1.453 1.833-1.225 1.977-0.976 2.088-0.708 2.163-0.4307 2.2-0.144h182.1l2.2 0.144 2.163 0.4307z"/><path d="m1440 1185 1.977 0.976 1.833 1.225 1.659 1.453 1.453 1.657 1.225 1.835 0.9747 1.977 0.7093 2.088 0.4307 2.163 0.144 2.2v182.1l-0.144 2.2-0.4307 2.163-0.7093 2.088-0.9747 1.977-1.225 1.833-1.453 1.659-1.659 1.453-1.833 1.225-1.977 0.9747-2.088 0.7093-2.163 0.4307-2.201 0.144h-182.1l-2.2-0.144-2.163-0.4307-2.088-0.7093-1.979-0.9747-1.833-1.225-1.657-1.453-1.455-1.659-1.224-1.833-0.976-1.977-0.7093-2.088-0.4294-2.163-0.144-2.2v-182.1l0.144-2.2 0.4294-2.163 0.7093-2.088 0.976-1.977 1.224-1.835 1.455-1.657 1.657-1.453 1.833-1.225 1.979-0.976 2.088-0.708 2.163-0.4307 2.2-0.144h182.1l2.201 0.144 2.163 0.4307z"/><path d="m1190 935.2 1.977 0.9747 1.835 1.225 1.657 1.453 1.453 1.659 1.225 1.833 0.9747 1.977 0.7093 2.088 0.4307 2.163 0.144 2.201v182.1l-0.144 2.2-0.4307 2.163-0.7093 2.088-0.9747 1.977-1.225 1.835-1.453 1.657-1.657 1.453-1.835 1.225-1.977 0.976-2.088 0.708-2.163 0.4306-2.2 0.144h-182.1l-2.2-0.144-2.163-0.4306-2.088-0.708-1.977-0.976-1.833-1.225-1.659-1.453-1.453-1.657-1.225-1.835-0.976-1.977-0.708-2.088-0.4307-2.163-0.144-2.2v-182.1l0.144-2.201 0.4307-2.163 0.708-2.088 0.976-1.977 1.225-1.833 1.453-1.659 1.659-1.453 1.833-1.225 1.977-0.9747 2.088-0.7093 2.163-0.4307 2.2-0.144h182.1l2.2 0.144 2.163 0.4307z"/><path d="m1440 935.2 1.977 0.9747 1.833 1.225 1.659 1.453 1.453 1.659 1.225 1.833 0.9747 1.977 0.7093 2.088 0.4307 2.163 0.144 2.201v182.1l-0.144 2.2-0.4307 2.163-0.7093 2.088-0.9747 1.977-1.225 1.835-1.453 1.657-1.659 1.453-1.833 1.225-1.977 0.976-2.088 0.708-2.163 0.4306-2.201 0.144h-182.1l-2.2-0.144-2.163-0.4306-2.088-0.708-1.979-0.976-1.833-1.225-1.657-1.453-1.455-1.657-1.224-1.835-0.976-1.977-0.7093-2.088-0.4294-2.163-0.144-2.2v-182.1l0.144-2.201 0.4294-2.163 0.7093-2.088 0.976-1.977 1.224-1.833 1.455-1.659 1.657-1.453 1.833-1.225 1.979-0.9747 2.088-0.7093 2.163-0.4307 2.2-0.144h182.1l2.201 0.144 2.163 0.4307z"/><path d="m691.4 935.2 1.977 0.9747 1.833 1.225 1.659 1.453 1.453 1.659 1.225 1.833 0.9747 1.977 0.7093 2.088 0.4307 2.163 0.144 2.201v182.1l-0.144 2.2-0.4307 2.163-0.7093 2.088-0.9747 1.977-1.225 1.835-1.453 1.657-1.659 1.453-1.833 1.225-1.977 0.976-2.088 0.708-2.163 0.4306-2.2 0.144h-182.1l-2.2-0.144-2.163-0.4306-2.088-0.708-1.977-0.976-1.835-1.225-1.657-1.453-1.453-1.657-1.225-1.835-0.976-1.977-0.708-2.088-0.4307-2.163-0.144-2.2v-182.1l0.144-2.201 0.4307-2.163 0.708-2.088 0.976-1.977 1.225-1.833 1.453-1.659 1.657-1.453 1.835-1.225 1.977-0.9747 2.088-0.7093 2.163-0.4307 2.2-0.144h182.1l2.2 0.144 2.163 0.4307z"/><path d="m691.4 1434 1.977 0.9746 1.833 1.225 1.659 1.455 1.453 1.657 1.225 1.833 0.9747 1.977 0.7093 2.088 0.4307 2.163 0.144 2.201v182.1l-0.144 2.201-0.4307 2.161-0.7093 2.089-0.9747 1.977-1.225 1.833-1.453 1.657-1.659 1.455-1.833 1.225-1.977 0.9746-2.088 0.7094-2.163 0.4293-2.2 0.144h-182.1l-2.2-0.144-2.163-0.4293-2.088-0.7094-1.977-0.9746-1.835-1.225-1.657-1.455-1.453-1.657-1.225-1.833-0.976-1.977-0.708-2.089-0.4307-2.161-0.144-2.201v-182.1l0.144-2.201 0.4307-2.163 0.708-2.088 0.976-1.977 1.225-1.833 1.453-1.657 1.657-1.455 1.835-1.225 1.977-0.9746 2.088-0.7094 2.163-0.4306 2.2-0.144h182.1l2.2 0.144 2.163 0.4306z"/><path d="m940.9 1434 1.977 0.9746 1.833 1.225 1.657 1.455 1.455 1.657 1.225 1.833 0.9747 1.977 0.7093 2.088 0.4293 2.163 0.144 2.201v182.1l-0.144 2.201-0.4293 2.161-0.7093 2.089-0.9747 1.977-1.225 1.833-1.455 1.657-1.657 1.455-1.833 1.225-1.977 0.9746-2.088 0.7094-2.163 0.4293-2.201 0.144h-182.1l-2.201-0.144-2.163-0.4293-2.088-0.7094-1.977-0.9746-1.833-1.225-1.657-1.455-1.455-1.657-1.225-1.833-0.9747-1.977-0.7093-2.089-0.4307-2.161-0.144-2.201v-182.1l0.144-2.201 0.4307-2.163 0.7093-2.088 0.9747-1.977 1.225-1.833 1.455-1.657 1.657-1.455 1.833-1.225 1.977-0.9746 2.088-0.7094 2.163-0.4306 2.201-0.144h182.1l2.201 0.144 2.163 0.4306z"/></g><path d="m691.4 1684 1.977 0.976 1.833 1.225 1.659 1.453 1.453 1.657 1.225 1.835 0.9747 1.977 0.7093 2.088 0.4307 2.163 0.144 2.2v182.1l-0.144 2.2-0.4307 2.163-0.7093 2.088-0.9747 1.977-1.225 1.835-1.453 1.657-1.659 1.453-1.833 1.225-1.977 0.9747-2.088 0.7093-2.163 0.4307-2.2 0.144h-182.1l-2.2-0.144-2.163-0.4307-2.088-0.7093-1.977-0.9747-1.835-1.225-1.657-1.453-1.453-1.657-1.225-1.835-0.976-1.977-0.708-2.088-0.4307-2.163-0.144-2.2v-182.1l0.144-2.2 0.4307-2.163 0.708-2.088 0.976-1.977 1.225-1.835 1.453-1.657 1.657-1.453 1.835-1.225 1.977-0.976 2.088-0.708 2.163-0.4307 2.2-0.144h182.1l2.2 0.144 2.163 0.4307z" fill="#fafafa"/><path d="m940.9 1684 1.977 0.976 1.833 1.225 1.657 1.453 1.455 1.657 1.225 1.835 0.9747 1.977 0.7093 2.088 0.4293 2.163 0.144 2.2v182.1l-0.144 2.2-0.4293 2.163-0.7093 2.088-0.9747 1.977-1.225 1.835-1.455 1.657-1.657 1.453-1.833 1.225-1.977 0.9747-2.088 0.7093-2.163 0.4307-2.201 0.144h-182.1l-2.201-0.144-2.163-0.4307-2.088-0.7093-1.977-0.9747-1.833-1.225-1.657-1.453-1.455-1.657-1.225-1.835-0.9747-1.977-0.7093-2.088-0.4307-2.163-0.144-2.2v-182.1l0.144-2.2 0.4307-2.163 0.7093-2.088 0.9747-1.977 1.225-1.835 1.455-1.657 1.657-1.453 1.833-1.225 1.977-0.976 2.088-0.708 2.163-0.4307 2.201-0.144h182.1l2.201 0.144 2.163 0.4307z" fill="#fef0d5"/><g fill-opacity=".07843"><path d="m1549 1831h-9.975m9.975-34.92v34.92m28.83-34.92h-28.83m28.83-8.392v8.392m-28.83-8.392h28.83m-28.83-23.48v23.48m32.72-23.48h-32.72m32.72-8.516v8.516m-42.7-8.516h42.7m-42.7 75.3v-75.3m0 75.3v-75.3h42.7v8.516h-32.72v23.48h28.83v8.392h-28.83v34.92z"/><path d="m154.5 1344 2.675 8.273m-10.7-5.049 8.029-3.224m-15.45 4.137 7.421-0.9134m-12 0.456 4.576 0.4574m-8.819-1.825 4.243 1.368m-8.029-3.679 3.787 2.311m-6.996-5.596 3.209 3.285m-5.809-7.543 2.6 4.257m-4.561-9.489 1.961 5.232m-3.193-11.47 1.232 6.235m-1.643-13.5 0.4107 7.268m-0.0307-13.87-0.38 6.6m1.521-12.53-1.141 5.929m2.981-11.13-1.84 5.201m4.319-9.611-2.479 4.409m5.565-7.953-3.087 3.544m30.78-3.651-7.785-3.467m10.7-4.804-2.92 8.271m-1.627-10.68 4.547 2.404m-30.54-2.677 5.901-1.916m-11.25 5.079 5.352-3.163m-9.975 7.543 4.623-4.38m-8.44 9.945 3.817-5.565m-6.752 12.29 2.935-6.721m-4.805 14.6 1.871-7.877m-2.493 16.91 0.6227-9.032m-0.0293 18.46-0.5933-9.428m2.372 17.52-1.779-8.089m4.592 14.86-2.813-6.767m6.508 12.23-3.695-5.46m8.212 9.657-4.517-4.197m9.795 7.177-5.277-2.98m11.19 4.759-5.915-1.779m12.35 2.372-6.432-0.5934m16.71-0.5626-10.28 1.156m14.95-2.631-4.668 1.475m9.061-3.588-4.393 2.113m-5.399-74.74 4.639 1.612m-13.82-2.828 9.184 1.216m-15.45-0.5773 6.265-0.6387m-8.577 11.01-3.664 2.6m7.877-4.197-4.213 1.597m8.941-2.129-4.728 0.532m12.03 0.624-7.3-1.156m7.3 1.156-7.3-1.156-4.728 0.532-4.213 1.597-3.664 2.6-3.087 3.544-2.479 4.409-1.84 5.201-1.141 5.929-0.38 6.6 0.4107 7.268 1.232 6.235 1.961 5.232 2.6 4.257 3.209 3.285 3.787 2.311 4.243 1.368 4.576 0.4574 7.421-0.9134 8.029-3.224 2.675 8.273-4.393 2.113-4.668 1.475-10.28 1.156-6.432-0.5934-5.915-1.779-5.277-2.98-4.517-4.197-3.695-5.46-2.813-6.767-1.779-8.089-0.5933-9.428 0.6227-9.032 1.871-7.877 2.935-6.721 3.817-5.565 4.623-4.38 5.352-3.163 5.901-1.916 6.265-0.6387 9.184 1.216 4.639 1.612 4.547 2.404-2.92 8.271z"/><path d="m1539 1284v58.64m2.736-58.94-2.736 0.304m5.839-0.3654-3.103 0.061m8.528 0.388-5.425-0.4494m10.14 1.795-4.717-1.345m8.728 3.588-4.011-2.243m7.315 5.383-3.304-3.14m5.885 7.239-2.581-4.099m4.424 9.215-1.843-5.116m2.949 11.25-1.107-6.136m1.475 13.29-0.368-7.155m-0.027 14.5 0.3946-7.344m-1.58 13.56 1.185-6.22m-22.6 22.34 5.171-0.4107m-11.38 0.047 6.204 0.364m32.56-39.26 0.6546 9.58m-2.616-17.64 1.961 8.059m-5.063-14.69 3.101 6.631m-7.177-11.92 4.076 5.292m-9.063-9.276 4.987 3.984m-10.83-6.691 5.84 2.707m-12.36-4.257 6.523 1.551m-13.56-2.067 7.041 0.516m-14.61-0.061 7.572-0.4547m-15.21 1.824 7.635-1.369m-7.635 74.36v-72.99m7.635 74.36-7.635-1.369m15.21 1.825-7.572-0.456m14.61-0.061-7.041 0.5173m13.56-2.068-6.523 1.551m12.36-4.241-5.84 2.691m10.83-6.629-4.987 3.939m9.063-9.185-4.076 5.247m7.177-11.86-3.101 6.615m5.063-14.7-1.961 8.089m2.616-17.76-0.6546 9.672m-13.06 9.032 1.916-5.14m-4.501 9.245 2.585-4.105m-5.839 7.208 3.253-3.103m-7.177 5.231 3.924-2.128m-8.485 3.36 4.561-1.232m23.48-28.04-0.6546 9.672-1.961 8.089-3.101 6.615-4.076 5.247-4.987 3.939-5.84 2.691-6.523 1.551-7.041 0.5173-7.572-0.456-7.635-1.369v-72.99l7.635-1.369 7.572-0.4547 7.041 0.516 6.523 1.551 5.84 2.707 4.987 3.984 4.076 5.292 3.101 6.631 1.961 8.059zm-28.04 29.27 4.561-1.232 3.924-2.128 3.253-3.103 2.585-4.105 1.916-5.14 1.185-6.22 0.3946-7.344-0.368-7.155-1.107-6.136-1.843-5.116-2.581-4.099-3.304-3.14-4.011-2.243-4.717-1.345-5.425-0.4494-3.103 0.061-2.736 0.304v58.64l6.204 0.364z"/><path d="m1548 808.2v23.72m3.345-24.02-3.345 0.304m8.88-0.3653-5.535 0.0613m11.56 0.5467-6.023-0.608m11.07 2.676-5.048-2.068m8.576 5.84-3.528-3.772m4.531 6.327-1.003-2.555m1.339 5.595-0.336-3.04m-0.029 6.264 0.3653-3.224m-1.46 5.84 1.095-2.616m-2.797 4.684 1.703-2.068m-3.892 3.649 2.189-1.581m-21.66 4.136h7.908m2.311 8.272h-10.22m17.03 0.6693-6.813-0.6693m12.59 2.86-5.779-2.191m8.029 3.969-2.251-1.779m4.015 4.076-1.764-2.297m2.904 5.156-1.14-2.859m1.52 6.325-0.38-3.467m-0.031 7.328 0.4107-3.861m-1.643 6.933 1.232-3.072m-3.133 5.489 1.901-2.417m-4.319 4.319 2.417-1.901m-8.561 4.152 6.144-2.251m-13.38 2.859 7.239-0.608m-13.5 0.4253 6.264 0.1827m-9.001-0.4853 2.737 0.3027m-2.737-27.19v26.89m15.59 8.521-7.315 0.3573m13.56-1.429-6.249 1.072m11.44-2.859-5.185 1.787m9.305-4.288-4.12 2.501m7.26-5.701-3.14 3.2m-17.15-38.93 5.475-1.947m-11.56 2.555 6.083-0.608m23.88 27.27-1.347 4.569m1.795-9.824-0.448 5.255m-0.6014-11.87 1.049 6.613m-4.196-11.86 3.147 5.247m-7.845-9.095 4.699 3.848m-10.4-6.267 5.703 2.419m-25.41 38.21-4.867-0.304m19.59-75.24 4.547 1.307m-15.01 74.36-4.259-0.1213m24.03-43.12-4.319 2.492m7.847-6.324-3.528 3.832m5.899-8.516-2.371 4.684m3.223-9.855-0.852 5.171m0.3506-10.31 0.5014 5.14m-2.007-9.367 1.505 4.227m-3.908-7.633 2.403 3.407m-5.596-6.083 3.193 2.676m-7.101-4.653 3.908 1.977m9.336 59.58-2.243 3.885m-26.01-67.72 10.46 0.9733m-14.78-0.852 4.32-0.1213m-9.185 0.424 4.865-0.3027m-9.732 0.8507 4.867-0.548m-9.063 1.4 4.196-0.852m-4.196 73.84v-72.99m4.257 73.84-4.257-0.852m9.123 1.399-4.865-0.5467m4.865 0.5467-4.865-0.5467-4.257-0.852v-72.99l4.196-0.852 4.867-0.548 4.865-0.3027 4.32-0.1213 10.46 0.9733 4.547 1.307 3.908 1.977 3.193 2.676 2.403 3.407 1.505 4.227 0.5014 5.14-0.852 5.171-2.371 4.684-3.528 3.832-4.319 2.492 5.703 2.419 4.699 3.848 3.147 5.247 1.049 6.613-0.448 5.255-1.347 4.569-2.243 3.885-3.14 3.2-4.12 2.501-5.185 1.787-6.249 1.072-7.315 0.3573-4.259-0.1213zm8.76-43.61 6.083-0.608 5.475-1.947 2.189-1.581 1.703-2.068 1.095-2.616 0.3653-3.224-0.336-3.04-1.003-2.555-3.528-3.772-5.048-2.068-6.023-0.608-5.535 0.0613-3.345 0.304v23.72zm-7.908 8.272v26.89l2.737 0.3027 6.264 0.1827 7.239-0.608 6.144-2.251 2.417-1.901 1.901-2.417 1.232-3.072 0.4107-3.861-0.38-3.467-1.14-2.859-1.764-2.297-2.251-1.779-5.779-2.191-6.813-0.6693z"/><path d="m156.4 1828h-44.89m44.89-8.516v8.516m-34.92-8.516h34.92m-34.92-26.64v26.64m28.22-26.64h-28.22m28.22-8.515v8.515m-28.22-8.515h28.22m-28.22-23.11v23.11m32.24-23.11h-32.24m32.24-8.516v8.516m-42.21-8.516h42.21m-42.21 75.3v-75.3m0 75.3v-75.3h42.21v8.516h-32.24v23.11h28.22v8.515h-28.22v26.64h34.92v8.516z"/><path d="m140.3 822 6.081 19.77m-34 16.91-4.379 19.71m38.38-36.62 5.413 19.22m-18.25-57.9 6.752 18.92m16.12 56.38h-10.58m-31.14-27.98h24.33m6.812 27.98-4.501-19.71m-33.33 19.71h-10.22l4.621-17.4m38.93-2.311h-28.95m-4.44-16.91 6.264-19.77m6.691 7.603-6.204 20.8m12.29-38.56-6.084 17.76m-18.49 31.38 5.536-19.22m25.06-12.47-6.021-17.46m12.04 38.56-6.021-21.11m-11.86-26.22h12.41m-19.34 18.92 6.935-18.92m30.66 57.9 4.623 17.4m-4.623-17.4 4.623 17.4h-10.58l-4.501-19.71h-28.95l-4.379 19.71h-10.22l4.621-17.4 5.536-19.22 6.264-19.77 6.935-18.92h12.41l6.752 18.92 6.081 19.77zm-12.77-10.58-6.021-21.11-6.021-17.46-6.084 17.76-6.204 20.8z"/></g><g fill-opacity=".07843"><path d="m1558 61.19 8.803 0.5773-3e-4 7e-5 8.651 1.721h4e-4l8.352 2.835h3e-4l7.911 3.901h-4e-4l7.335 4.9h-3e-4l6.631 5.816h4e-4l5.816 6.632v-3e-4l4.9 7.333 3.901 7.911 1.46 4.302 1.375 4.051v4e-4l1.721 8.649v4e-4l0.2974 4.534 0.2799 4.268-0.2973 4.534-0.28 4.269v-4e-4l-1.721 8.651v3e-4l-2.835 8.352v3e-4l-3.901 7.911v-4e-4l-2.524 3.778-2.376 3.557v-4e-4l-5.816 6.631-4e-4 3e-4 -6.631 5.816h3e-4l-7.335 4.9h4e-4l-7.911 3.901h-3e-4l-8.352 2.836h-4e-4l-8.651 1.72 3e-4 -3e-5 -8.803 0.5773-8.801-0.5773v3e-5l-8.651-1.72h-3e-4l-8.352-2.836h-3e-4l-7.911-3.901-7.333-4.9h3e-4l-6.632-5.816v-3e-4l-5.816-6.631v4e-4l-4.9-7.335-3e-4 3e-5 -2.01-4.075-1.892-3.836v-3e-4l-2.835-8.352v-3e-4l-0.8867-4.456-0.8346-4.195v4e-4l-0.2974-4.534-0.28-4.269 0.2974-4.534 0.28-4.268v-4e-4l1.721-8.649v-4e-4l1.46-4.302 1.375-4.051 3.901-7.911 4.9-7.333v3e-4l5.816-6.632 6.632-5.816v3.7e-4l7.333-4.9v-7e-5l7.911-3.901h3e-4l8.352-2.835-3e-4 7e-5 8.651-1.721v-7e-5l8.801-0.5773z"/><path d="m94.9 70.22 7.911-3.901h3e-4l8.352-2.835-3e-4 -6.3e-4 8.651-1.721v-7e-5l8.801-0.5773-6e-4 -0.0066 8.801 0.5773-1e-4 -0.0083 8.652 1.721-2e-4 0.0083 8.352 2.835h3e-4l7.911 3.901 2e-4 -0.0083 7.333 4.9h-3e-4l6.632 5.816 5.816 6.632v-3e-4l4.9 7.333 3.901 7.911v3e-4l2.835 8.353 4e-4 8e-3 1.721 8.649 7e-5 4e-4 0.5773 8.801-0.2958 4.511-0.2815 4.292-4.7e-4 -8e-3 -1.721 8.651 4e-4 8e-3 -2.835 8.352v3e-4l-3.901 7.911v-4e-4l-4.9 7.335v-4e-4l-5.816 6.631v3e-4l-6.632 5.816h3e-4l-7.333 4.9-7e-4 1e-4 -7.911 3.901v-6e-3l-8.352 2.836-8.652 1.72 3e-4 -3e-5 -8.801 0.5773h-4e-4l-8.801-0.5773v3e-5l-8.651-1.72h-3e-4l-8.352-2.836h-3e-4l-7.911-3.902h4e-4l-7.335-4.9v6e-3l-6.631-5.816 8e-4 2e-3 -5.816-6.631v5e-3l-2.511-3.758-2.389-3.576v4e-4l-3.901-7.911v-3e-4l-2.836-8.352v-3e-4l-1.72-8.651 3e-5 4e-4 -0.5773-8.803 0.5773-8.801-3e-5 -4e-4 1.72-8.649v-4e-4l2.836-8.353 3.901-7.911 4.9-7.333v3e-4l5.816-6.632h3e-4l6.631-5.816-0.0011-0.0099 7.335-4.9z"/><path d="m87.57 2575c-2.21-1.939-4.42-3.877-6.631-5.816h-3e-4c-1.939-2.211-3.877-4.421-5.816-6.632v3e-4c-1.633-2.444-3.267-4.889-4.9-7.333-1.3-2.637-2.601-5.274-3.901-7.911-0.9454-2.784-1.891-5.569-2.836-8.353-0.5733-2.884-1.147-5.767-1.72-8.651l-0.0013-1e-4c-0.1924-2.934-0.3849-5.868-0.5773-8.801v-4e-4c0.1924-2.934 0.3849-5.868 0.5773-8.801h-3e-5c0.5733-2.884 1.147-5.767 1.72-8.651v-3e-4c0.9453-2.784 1.891-5.568 2.836-8.352v-3e-4c1.3-2.637 2.601-5.274 3.901-7.911v3e-4c1.633-2.445 3.267-4.89 4.9-7.335v3e-4c1.939-2.21 3.877-4.42 5.816-6.631l3e-4 -3e-4c2.21-1.939 4.42-3.877 6.631-5.816h-4e-4c2.445-1.633 4.89-3.267 7.335-4.9h-4e-4c2.637-1.3 5.274-2.601 7.911-3.901h3e-4c2.784-0.9453 5.568-1.891 8.352-2.836h3e-4c2.884-0.5733 5.767-1.147 8.651-1.72 2.934-0.1925 5.868-0.3849 8.801-0.5774h4e-4c2.934 0.1925 5.868 0.3849 8.801 0.5774h-3e-4c2.884 0.5733 5.768 1.147 8.652 1.72 2.784 0.9453 5.568 1.891 8.352 2.836h3e-4c2.637 1.3 5.274 2.601 7.911 3.901 2.444 1.633 4.889 3.267 7.333 4.9h-3e-4c2.211 1.939 4.421 3.877 6.632 5.816v3e-4c1.939 2.21 3.877 4.42 5.816 6.631v-3e-4c1.633 2.445 3.267 4.89 4.9 7.335l4e-4 -2e-4c1.3 2.637 2.601 5.274 3.901 7.911v3e-4c0.9449 2.784 1.89 5.568 2.835 8.352l-7e-4 -1e-4c0.5737 2.884 1.148 5.767 1.721 8.651h7e-5c0.1924 2.934 0.3849 5.868 0.5773 8.801v4e-4c-0.1924 2.934-0.3849 5.868-0.5773 8.801h-7e-5c-0.5737 2.884-1.148 5.767-1.721 8.651-0.945 2.784-1.89 5.569-2.835 8.353l7e-4 4e-4c-1.3 2.637-2.601 5.274-3.901 7.911-1.633 2.444-3.267 4.889-4.9 7.333v-3e-4c-1.939 2.211-3.877 4.421-5.816 6.632-2.211 1.939-4.421 3.877-6.632 5.816l-4e-4 -4e-4c-2.444 1.633-4.889 3.267-7.333 4.9l7e-4 3e-4c-2.637 1.3-5.274 2.601-7.911 3.901h-3e-4c-2.784 0.9449-5.568 1.89-8.352 2.835v-3e-4l-8.652 1.721h3e-4l-8.801 0.576-7e-4 3e-4 -8.801-0.576-8.651-1.721h-3e-4c-2.784-0.9449-5.568-1.89-8.352-2.835h-3e-4c-2.637-1.3-5.274-2.601-7.911-3.901h4e-4c-2.445-1.633-4.89-3.267-7.335-4.9z"/><path d="m1606 2474 5.816 6.631v-3e-4l4.9 7.335v-3e-4l2.003 4.061 1.898 3.85v3e-4l1.455 4.288 1.379 4.064v3e-4l1.721 8.651 0.2964 4.518 0.2809 4.283v4e-4l-0.2964 4.518-0.2809 4.283-0.8837 4.441-0.8377 4.21-2.835 8.353-3.901 7.911-4.9 7.333v-3e-4l-5.816 6.632h-4e-4l-6.631 5.816h3e-4l-7.335 4.9h4e-4l-7.911 3.901h-3e-4l-8.352 2.835h-4e-4l-8.651 1.721h3e-4l-8.803 0.576-8.801-0.576-8.651-1.721h-3e-4l-8.352-2.835h-3e-4l-7.911-3.901-7.333-4.9h3e-4l-6.632-5.816-5.816-6.632v-3e-4l-4.9-7.333v3e-4l-3.901-7.911-2.835-8.353-0.8837-4.441-0.8376-4.21-0.2964-4.518-0.281-4.283v-4e-4l0.2964-4.518 0.281-4.283v4e-4l1.721-8.651v-4e-4l1.455-4.288 1.379-4.064v-3e-4l3.901-7.911v3e-4l4.9-7.335v3e-4l5.816-6.631v-3e-4l6.632-5.816h-3e-4l7.333-4.9 7.911-3.901h3e-4l8.352-2.836h3e-4l8.651-1.72 8.801-0.5774 8.803 0.5774h-3e-4l8.651 1.72h4e-4l8.352 2.836h3e-4l7.911 3.901h-4e-4l7.335 4.9h-3e-4l6.631 5.816z"/></g><path d="m1208 387.7 4.96 14.62 6.828 13.84 8.576 12.83 10.18 11.6 11.6 10.18 12.84 8.576 13.84 6.827 14.62 4.961 15.14 3.012 15.4 1.009 15.4-1.009 15.14-3.012 14.62-4.961 13.84-6.827 12.84-8.576 11.6-10.18 10.18-11.6 8.575-12.83 6.828-13.84 4.961-14.62 3.011-15.14 1.011-15.4-1.011-15.4-3.011-15.14-4.961-14.62-6.828-13.84-8.575-12.84-10.18-11.6-11.6-10.18-12.84-8.576-13.84-6.827-14.62-4.961-15.14-3.012-15.4-1.009-15.4 1.009-15.14 3.012-14.62 4.961-13.84 6.827-12.84 8.576-11.6 10.18-10.18 11.6-8.576 12.84-6.828 13.84-4.96 14.62-3.012 15.14-1.009 15.4 1.009 15.4zm114-172.2 18.48 1.211 18.17 3.613 17.54 5.955 16.61 8.192 15.4 10.29 13.93 12.21 12.21 13.93 10.29 15.4 8.192 16.61 5.953 17.54 3.615 18.17 1.211 18.48-1.211 18.48-3.615 18.17-5.953 17.54-8.192 16.61-10.29 15.4-12.21 13.92-13.93 12.21-15.4 10.29-16.61 8.192-17.54 5.955-18.17 3.613-18.48 1.212-18.48-1.212-18.17-3.613-17.54-5.955-16.61-8.192-15.4-10.29-13.93-12.21-12.21-13.92-10.29-15.4-8.193-16.61-5.953-17.54-3.613-18.17-1.212-18.48 1.212-18.48 3.613-18.17 5.953-17.54 8.193-16.61 10.29-15.4 12.21-13.93 13.93-12.21 15.4-10.29 16.61-8.192 17.54-5.955 18.17-3.613z" fill="#fef0d5"/><path d="m1372 324.7-55.98-46.97v65.02m0 28.92v65.02m0-65.02-27.66 23.21m27.66-52.13-27.66-23.21m41.15 52.14v36.09m0-101.1v36.1m-41.15 52.13-8.669-10.33m8.669-65.02-8.669 10.33m49.82-23.21 21.51 18.05m0 65.02-21.51 18.05m-17.23-50.56-32.58 27.34m71.33-59.85-21.51 18.05m-17.23 14.46-32.58-27.34m71.33 59.85-21.51-18.05m42.49-46.97-38.74 32.51m38.74 32.51-38.74-32.51m38.74 32.51-55.98 46.97m55.98-46.97-55.98 46.97v-65.02l-27.66 23.21-8.669-10.33 32.58-27.34-32.58-27.34 8.669-10.33 27.66 23.21v-65.02l55.98 46.97-38.74 32.51zm-20.98 0-21.51-18.05v36.09zm-21.51-46.97 21.51-18.05-21.51-18.05z" fill="none"/><path d="m605.6 478.5h-238.4m238.4-233.3v233.3m-238.4 0v-233.3h238.4" fill="none"/><path d="m872.9 2036 28.98 5.765 27.98 9.497 26.5 13.07 24.57 16.42 22.22 19.48 19.48 22.22 16.42 24.57 13.07 26.5 9.497 27.98 5.765 28.98 1.932 29.48-1.932 29.48-5.765 28.98-9.497 27.98-13.07 26.5-16.42 24.57-19.48 22.22-22.22 19.48-24.57 16.42-26.5 13.07-27.98 9.499-28.98 5.764-29.48 1.933-29.48-1.933-28.98-5.764-27.98-9.499-26.5-13.07-24.57-16.42-22.22-19.48-19.48-22.22-16.42-24.57-13.07-26.5-9.499-27.98-5.764-28.98-1.932-29.48 1.932-29.48 5.764-28.98 9.499-27.98 13.07-26.5 16.42-24.57 19.48-22.22 22.22-19.48 24.57-16.42 26.5-13.07 27.98-9.497 28.98-5.765 29.48-1.932zm-152.6 384.4 22 14.7 23.73 11.7 25.06 8.505 25.95 5.163 26.4 1.731 26.4-1.731 25.95-5.163 25.06-8.505 23.73-11.7 22-14.7 19.9-17.45 17.45-19.9 14.7-22 11.7-23.73 8.505-25.06 5.163-25.95 1.731-26.4-1.731-26.4-5.163-25.95-8.505-25.06-11.7-23.73-14.7-22-17.45-19.9-19.9-17.45-22-14.7-23.73-11.7-25.06-8.505-25.95-5.163-26.4-1.731-26.4 1.731-25.95 5.163-25.06 8.505-23.73 11.7-22 14.7-19.9 17.45-17.45 19.9-14.7 22-11.7 23.73-8.505 25.06-5.163 25.95-1.731 26.4 1.731 26.4 5.163 25.95 8.505 25.06 11.7 23.73 14.7 22 17.45 19.9z" fill="#fef0d5"/><g transform="matrix(1.333 0 0 -1.333 -3441 3965)" fill-opacity=".07843" stroke-width=".75"><path d="m3560 1241v75.86l37.93-37.93z"/><path d="m3358 1366 11.06-21.77 7.123-20.99 4.324-21.74 1.446-22.11-1.452-22.11-4.324-21.74-7.123-20.98-11.7-22.72 227-0.9468 11.55 0.757 11.36 2.259 10.96 3.721v1e-3l10.38 5.12v-1e-3l9.625 6.432 8.704 7.633 7.633 8.704 6.432 9.626 5.12 10.38v-1e-3l3.721 10.96h-0.01l2.259 11.35h0.01l0.7569 11.55-0.7569 11.55h-0.01l-2.259 11.36-3.721 10.96-5.12 10.38-6.432 9.626-7.633 8.703-8.704 7.633-9.625 6.432-10.38 5.12h0.01l-10.96 3.722-11.36 2.258-11.55 0.757z"/><path d="m3560 1317v-75.86l37.93 37.93-37.93-37.93 37.93 37.93z"/><path d="m3585 1368z"/><path d="m3661 1323z"/><path d="m3382 1268z"/><path d="m2867 1241-37.93 37.93 37.93 37.93z"/><path d="m3044 1279 1.443-22.11 4.322-21.73 7.129-20.99 9.802-19.88 2.529-3.79h-227.6 0.01l-11.55 0.757-11.35 2.259-10.96 3.721-10.38 5.12-9.626 6.432v0.01l-8.703 7.633-7.633 8.704-6.427 9.621-5.115 10.38-3.728 10.97-2.264 11.36-0.757 11.55 0.763 11.55 2.264 11.35 3.722 10.96 5.12 10.38 6.427 9.631 7.628 8.708 8.703 7.638 9.626 6.432 10.38 5.12 10.97 3.719 11.36 2.25 11.55 0.762h227.6l-2.538-3.796-9.802-19.88-7.118-20.99-4.317-21.74z"/><path d="m2867 1241v75.86l-37.93-37.93z"/></g></g><g transform="matrix(8.321 0 0 8.321 -2543 -255.1)" fill-opacity=".07843"><path d="m377 68.05a0.7141 0.7141 0 0 0-0.7147 0.7165 0.7126 0.7126 0 0 0 0.7147 0.714c0.3968 0 0.7165-0.318 0.7165-0.714a0.715 0.715 0 0 0-0.7165-0.7165m0 0.1414c0.3179 0 0.5768 0.257 0.5768 0.5751 0 0.3163-0.2587 0.575-0.5768 0.575-0.3171 0-0.5725-0.2587-0.5725-0.575 0-0.318 0.2554-0.5751 0.5725-0.5751zm0.3643 0.9478-0.0857-0.149c-0.0745-0.1311-0.0959-0.1508-0.1586-0.174v-0.0035c0.1252-0.01449 0.1999-0.09598 0.1999-0.2075 0-0.1173-0.0747-0.2065-0.2339-0.2065h-0.3685v0.7404h0.1524v-0.3034h0.0273c0.0652 0 0.0918 0.0069 0.1218 0.03684 0.0292 0.03004 0.0746 0.09251 0.1012 0.1457l0.0592 0.1208zm-0.4946-0.4224v-0.2023h0.1371c0.1014 0 0.1543 0.03514 0.1543 0.1004 0 0.05216-0.0333 0.1018-0.1362 0.1018zm-3.565 3.426c-0.031 0.7628-1.148 3.813-1.545 4.486-0.1721 0.2922-0.3658 0.5331-0.7155 0.5322-0.305 0-0.4406-0.216-0.4491-0.4627-0.0226-0.6883 1.241-4.138 1.673-4.7 0.192-0.2958 0.4062-0.3436 0.6513-0.3402 0.3585 0.0041 0.3942 0.2632 0.3856 0.4851m2.036 1.245c-0.2537 1.264-0.8244 2.759-1.445 3.874-1.011 1.819-2.239 2.073-3.311 2.06-1.071-0.01285-2.281-0.4087-2.29-2.063-7e-3 -1.188 0.5055-2.864 0.9412-3.963 0.7575-1.993 1.532-3.616 3.982-3.587 2.856 0.03356 2.347 2.574 2.124 3.679zm-9.068-1.772c-0.4139 0-0.684 0.2614-0.8853 0.5442-0.4423 0.6213-1.402 3.113-1.551 4.136-0.1011 0.7012 0.2007 0.8433 0.5321 0.8433 0.5306 0 1.125-0.5613 1.328-1.488 0 0-1.01-0.02493-0.7318-0.9207 0.27-0.8698 0.7843-1.058 1.635-1.093 1.677-0.06846 1.511 1.17 1.377 1.83-0.4356 2.144-1.962 3.867-4.121 3.867-1.478 0-2.395-0.8183-2.395-2.325 0-1.073 0.5327-2.759 0.9545-3.745 0.8986-2.1 1.841-3.569 4.243-3.569 1.44 0 2.577 0.5176 2.41 1.867-0.1217 0.9907-0.6171 1.573-1.518 1.643-0.2521 0.01959-1.283-0.0069-0.941-0.9821 0.1189-0.3402 0.1686-0.6076-0.3376-0.6076zm-7.513 3.713c-0.0993 0.2681-0.2862 0.8278-0.437 1.422 0.4898-0.1217 0.8574-0.2082 1.487-0.192 0.7182 0.01708 1.177 0.3155 1.177 0.9085 0 1.439-1.59 1.861-2.694 1.861-1.212 0-2.275-0.69-2.275-2.014 0-1.554 0.8416-3.908 1.631-5.476 0.9706-1.927 1.962-2.183 3.669-2.183 0.7504 0 1.615 0.3206 1.615 1.028 0 0.9822-0.8318 1.357-1.657 1.405-0.3518 0.01965-0.8938 0.03937-1.218 0.01631 0 0-0.2747 0.4191-0.567 1.164 1.528-0.2151 2.176 0.132 1.918 1.016-0.3484 1.193-1.383 1.272-2.65 1.045zm-4.865 1.38c1.494-0.2595 1.87 0.2812 1.822 0.78-0.1401 1.498-1.514 1.832-2.707 1.805-0.8651-0.02059-1.643-0.4163-1.665-1.421-0.0376-1.757 1.754-5.822 2.598-7.169 0.3891-0.6401 0.8638-0.9556 1.621-0.9556 0.7169 0 0.8951 0.3676 0.8844 0.809-0.0278 1.176-1.93 4.754-2.554 6.151zm19.21-7.893c-1.543 0-2.609 0.6119-3.33 1.466-0.1217-0.2553-0.2152-0.3675-0.3455-0.5151-0.5905-0.6676-1.541-0.9796-2.815-0.9796-1.245 0-2.283 0.3891-3.004 1.002-0.3745-0.6085-1.266-1.012-2.342-1.012-1.406 0-2.937 0.1997-3.846 1.664-0.0211-0.5272-0.0694-0.8056-0.3659-1.12-0.36-0.3806-0.9428-0.4808-1.51-0.4808-1.035 0-1.813 0.4517-2.373 1.372-0.8124 1.298-2.783 5.57-2.738 7.638 0.0278 1.337 0.9248 2.299 2.529 2.337 1.254 0.02998 2.237-0.3051 2.862-0.9359 0.561 0.6085 1.418 0.9667 2.442 0.9667 1.141 0 2.29-0.3418 2.968-1.091 0.5716 0.701 1.47 1.109 2.626 1.104 1.512-0.0067 2.838-0.7232 3.706-1.822 0.4746 1.295 1.681 1.809 3 1.809 2.888 0 4.156-1.985 5.212-5.125 0.2382-0.708 0.5555-1.888 0.6086-2.879 0.0872-1.651-0.6112-3.396-3.282-3.396z" fill-opacity=".07843" stroke-width=".09936"/></g></g></svg>
