<?xml version="1.0" encoding="UTF-8" standalone="no"?>
<svg
   xmlns:dc="http://purl.org/dc/elements/1.1/"
   xmlns:cc="http://creativecommons.org/ns#"
   xmlns:rdf="http://www.w3.org/1999/02/22-rdf-syntax-ns#"
   xmlns:svg="http://www.w3.org/2000/svg"
   xmlns="http://www.w3.org/2000/svg"
   viewBox="0 0 1686.7706 2650.0679"
   height="701.16382mm"
   width="446.29138mm"
   xml:space="preserve"
   id="svg2"
   version="1.1"><metadata
     id="metadata8"><rdf:RDF><cc:Work
         rdf:about=""><dc:format>image/svg+xml</dc:format><dc:type
           rdf:resource="http://purl.org/dc/dcmitype/StillImage" /><dc:title></dc:title></cc:Work></rdf:RDF></metadata><defs
     id="defs6" /><path
     d="M 1568.268,2649.568 H 118.50404 v 0 l -15.40266,-1.0094 h 0 l -15.138668,-3.012 v 0 l -14.616,-4.9613 v 0 l -13.843999,-6.8267 v 0 l -12.834667,-8.576 v 0 l -11.605333,-10.1773 v 0 L 24.88538,2603.4 v 0 l -8.574666,-12.8334 0,0 -6.8280002,-13.844 h 0 l -4.9613332,-14.6173 h 0 l -3.0119999,-15.1387 0,0 -1.00933334,-15.4026 v 0 -2413.05998 0 L 1.5093807,103.10135 v 0 L 4.5213806,87.961351 v 0 L 9.4827138,73.345352 v 0 l 6.8280002,-13.844 v 0 L 24.88538,46.668019 v 0 L 35.062713,35.062686 v 0 L 46.668046,24.885353 h 0 l 12.834667,-8.576 v 0 L 73.346712,9.4813532 v 0 l 14.616,-4.9613332 v 0 L 103.10138,1.5093534 v 0 l 15.40266,-1.00933326 v 0 H 1568.268 v 0 l 15.4013,1.00933326 v 0 l 15.14,3.0106666 v 0 l 14.616,4.9613332 v 0 l 13.844,6.8279998 h 0 l 12.8347,8.576 v 0 l 11.6053,10.177333 v 0 l 10.1774,11.605333 v 0 l 8.5746,12.833333 v 0 l 6.8267,13.844 v 0 l 4.9627,14.615999 v 0 l 3.0106,15.139999 v 0 l 1.0094,15.40267 h 0 v 2413.05998 0 l -1.0094,15.4026 v 0 l -3.0106,15.1387 v 0 l -4.9627,14.6173 h 0 l -6.8267,13.844 v 0 l -8.5746,12.8334 v 0 l -10.1774,11.6053 v 0 l -11.6053,10.1773 v 0 l -12.8347,8.576 h 0 l -13.844,6.8267 h 0 l -14.616,4.9613 v 0 l -15.14,3.012 v 0 l -15.4013,1.0094 z"
     style="fill:#fafafa;fill-opacity:1;fill-rule:evenodd;stroke:#000000;stroke-width:1;stroke-linecap:butt;stroke-linejoin:miter;stroke-miterlimit:9.88377762;stroke-dasharray:none;stroke-opacity:1"
     id="path4140" /><g
     style="stroke:#000000;stroke-opacity:1;fill:#fef0d5;fill-opacity:1"
     id="g1048"><path
       id="path2935"
       d="m 691.3747,685.724 1.97733,0.976 1.83333,1.224 1.65867,1.45467 1.45333,1.65733 1.22534,1.83334 0.97466,1.97866 0.70934,2.088 0.43066,2.16267 0.144,2.2 v 182.06399 l -0.144,2.2 -0.43066,2.16267 -0.70934,2.088 -0.97466,1.97733 -1.22534,1.83334 -1.45333,1.65866 -1.65867,1.45334 -1.83333,1.22533 -1.97733,0.97467 -2.088,0.70933 -2.16267,0.43067 -2.2,0.144 h -182.064 l -2.2,-0.144 -2.16266,-0.43067 -2.088,-0.70933 -1.97733,-0.97467 -1.83467,-1.22533 -1.65733,-1.45334 -1.45334,-1.65866 -1.22533,-1.83334 -0.976,-1.97733 -0.708,-2.088 -0.43067,-2.16267 -0.144,-2.2 V 701.29867 l 0.144,-2.2 0.43067,-2.16267 0.708,-2.088 0.976,-1.97866 1.22533,-1.83334 1.45334,-1.65733 1.65733,-1.45467 1.83467,-1.224 1.97733,-0.976 2.088,-0.70933 2.16266,-0.42933 2.2,-0.144 h 182.064 l 2.2,0.144 2.16267,0.42933 z"
       style="fill:#fef0d5;stroke:#000000;stroke-width:1;stroke-linecap:butt;stroke-linejoin:miter;stroke-miterlimit:9.88377762;stroke-dasharray:none;stroke-opacity:1;fill-opacity:1" /><path
       id="path2933"
       d="m 441.88004,1683.7 1.97733,0.976 1.83467,1.2253 1.65733,1.4533 1.45333,1.6574 1.22667,1.8346 0.97467,1.9774 0.708,2.088 0.43066,2.1626 0.144,2.2 v 182.064 l -0.144,2.2 -0.43066,2.1627 -0.708,2.088 -0.97467,1.9773 -1.22667,1.8347 -1.45333,1.6573 -1.65733,1.4534 -1.83467,1.2253 -1.97733,0.9747 -2.088,0.7093 -2.16134,0.4307 -2.20133,0.144 H 253.36671 l -2.20134,-0.144 -2.16266,-0.4307 -2.088,-0.7093 -1.97734,-0.9747 -1.83333,-1.2253 -1.65867,-1.4534 -1.45333,-1.6573 -1.22533,-1.8347 -0.97467,-1.9773 -0.70933,-2.088 -0.43067,-2.1627 -0.144,-2.2 v -182.064 l 0.144,-2.2 0.43067,-2.1626 0.70933,-2.088 0.97467,-1.9774 1.22533,-1.8346 1.45333,-1.6574 1.65867,-1.4533 1.83333,-1.2253 1.97734,-0.976 2.088,-0.708 2.16266,-0.4307 2.20134,-0.144 h 182.06266 l 2.20133,0.144 2.16134,0.4307 z"
       style="fill:#fafafa;stroke:#000000;stroke-width:1;stroke-linecap:butt;stroke-linejoin:miter;stroke-miterlimit:9.88377762;stroke-dasharray:none;stroke-opacity:1;fill-opacity:1" /><path
       id="path2931"
       d="m 441.88004,1184.712 1.97733,0.976 1.83467,1.2253 1.65733,1.4534 1.45333,1.6573 1.22667,1.8347 0.97467,1.9773 0.708,2.088 0.43066,2.1627 0.144,2.2 v 182.064 l -0.144,2.2 -0.43066,2.1626 -0.708,2.088 -0.97467,1.9774 -1.22667,1.8333 -1.45333,1.6587 -1.65733,1.4533 -1.83467,1.2253 -1.97733,0.9747 -2.088,0.7093 -2.16134,0.4307 -2.20133,0.144 H 253.36671 l -2.20134,-0.144 -2.16266,-0.4307 -2.088,-0.7093 -1.97734,-0.9747 -1.83333,-1.2253 -1.65867,-1.4533 -1.45333,-1.6587 -1.22533,-1.8333 -0.97467,-1.9774 -0.70933,-2.088 -0.43067,-2.1626 -0.144,-2.2 v -182.064 l 0.144,-2.2 0.43067,-2.1627 0.70933,-2.088 0.97467,-1.9773 1.22533,-1.8347 1.45333,-1.6573 1.65867,-1.4534 1.83333,-1.2253 1.97734,-0.976 2.088,-0.708 2.16266,-0.4307 2.20134,-0.144 h 182.06266 l 2.20133,0.144 2.16134,0.4307 z"
       style="fill:#fef0d5;stroke:#000000;stroke-width:1;stroke-linecap:butt;stroke-linejoin:miter;stroke-miterlimit:9.88377762;stroke-dasharray:none;stroke-opacity:1;fill-opacity:1" /><path
       id="path2929"
       d="m 1190.3627,685.724 1.9773,0.976 1.8347,1.224 1.6573,1.45467 1.4534,1.65733 1.2253,1.83334 0.9747,1.97866 0.7093,2.088 0.4307,2.16267 0.144,2.2 v 182.06399 l -0.144,2.2 -0.4307,2.16267 -0.7093,2.088 -0.9747,1.97733 -1.2253,1.83334 -1.4534,1.65866 -1.6573,1.45334 -1.8347,1.22533 -1.9773,0.97467 -2.088,0.70933 -2.1627,0.43067 -2.2,0.144 h -182.064 l -2.19998,-0.144 -2.16266,-0.43067 -2.088,-0.70933 -1.97734,-0.97467 -1.83333,-1.22533 -1.65867,-1.45334 -1.45333,-1.65866 -1.22533,-1.83334 -0.976,-1.97733 -0.708,-2.088 -0.43067,-2.16267 -0.144,-2.2 V 701.29867 l 0.144,-2.2 0.43067,-2.16267 0.708,-2.088 0.976,-1.97866 1.22533,-1.83334 1.45333,-1.65733 1.65867,-1.45467 1.83333,-1.224 1.97734,-0.976 2.088,-0.70933 2.16266,-0.42933 2.19998,-0.144 h 182.064 l 2.2,0.144 2.1627,0.42933 z"
       style="fill:#fef0d5;stroke:#000000;stroke-width:1;stroke-linecap:butt;stroke-linejoin:miter;stroke-miterlimit:9.88377762;stroke-dasharray:none;stroke-opacity:1;fill-opacity:1" /><path
       id="path2927"
       d="m 1190.3627,1683.7 1.9773,0.976 1.8347,1.2253 1.6573,1.4533 1.4534,1.6574 1.2253,1.8346 0.9747,1.9774 0.7093,2.088 0.4307,2.1626 0.144,2.2 v 182.064 l -0.144,2.2 -0.4307,2.1627 -0.7093,2.088 -0.9747,1.9773 -1.2253,1.8347 -1.4534,1.6573 -1.6573,1.4534 -1.8347,1.2253 -1.9773,0.9747 -2.088,0.7093 -2.1627,0.4307 -2.2,0.144 h -182.064 l -2.19998,-0.144 -2.16266,-0.4307 -2.088,-0.7093 -1.97734,-0.9747 -1.83333,-1.2253 -1.65867,-1.4534 -1.45333,-1.6573 -1.22533,-1.8347 -0.976,-1.9773 -0.708,-2.088 -0.43067,-2.1627 -0.144,-2.2 v -182.064 l 0.144,-2.2 0.43067,-2.1626 0.708,-2.088 0.976,-1.9774 1.22533,-1.8346 1.45333,-1.6574 1.65867,-1.4533 1.83333,-1.2253 1.97734,-0.976 2.088,-0.708 2.16266,-0.4307 2.19998,-0.144 h 182.064 l 2.2,0.144 2.1627,0.4307 z"
       style="fill:#fafafa;stroke:#000000;stroke-width:1;stroke-linecap:butt;stroke-linejoin:miter;stroke-miterlimit:9.88377762;stroke-dasharray:none;stroke-opacity:1;fill-opacity:1" /><path
       id="path2925"
       d="m 441.88004,935.21866 1.97733,0.97467 1.83467,1.22533 1.65733,1.45334 1.45333,1.65866 1.22667,1.83334 0.97467,1.97733 0.708,2.088 0.43066,2.16267 0.144,2.20133 V 1132.856 l -0.144,2.2 -0.43066,2.1627 -0.708,2.088 -0.97467,1.9773 -1.22667,1.8347 -1.45333,1.6573 -1.65733,1.4533 -1.83467,1.2254 -1.97733,0.976 -2.088,0.708 -2.16134,0.4306 -2.20133,0.144 H 253.36671 l -2.20134,-0.144 -2.16266,-0.4306 -2.088,-0.708 -1.97734,-0.976 -1.83333,-1.2254 -1.65867,-1.4533 -1.45333,-1.6573 -1.22533,-1.8347 -0.97467,-1.9773 -0.70933,-2.088 -0.43067,-2.1627 -0.144,-2.2 V 950.79333 l 0.144,-2.20133 0.43067,-2.16267 0.70933,-2.088 0.97467,-1.97733 1.22533,-1.83334 1.45333,-1.65866 1.65867,-1.45334 1.83333,-1.22533 1.97734,-0.97467 2.088,-0.70933 2.16266,-0.43067 2.20134,-0.144 h 182.06266 l 2.20133,0.144 2.16134,0.43067 z"
       style="fill:#fef0d5;stroke:#000000;stroke-width:1;stroke-linecap:butt;stroke-linejoin:miter;stroke-miterlimit:9.88377762;stroke-dasharray:none;stroke-opacity:1;fill-opacity:1" /><path
       id="path2923"
       d="m 940.86936,935.21866 1.97733,0.97467 1.83333,1.22533 1.65734,1.45334 1.45466,1.65866 1.22534,1.83334 0.97466,1.97733 0.70934,2.088 0.42933,2.16267 0.144,2.20133 V 1132.856 l -0.144,2.2 -0.42933,2.1627 -0.70934,2.088 -0.97466,1.9773 -1.22534,1.8347 -1.45466,1.6573 -1.65734,1.4533 -1.83333,1.2254 -1.97733,0.976 -2.088,0.708 -2.16267,0.4306 -2.20133,0.144 H 752.3547 l -2.20134,-0.144 -2.16266,-0.4306 -2.088,-0.708 -1.97734,-0.976 -1.83333,-1.2254 -1.65733,-1.4533 -1.45467,-1.6573 -1.22533,-1.8347 -0.97467,-1.9773 -0.70933,-2.088 -0.43067,-2.1627 -0.144,-2.2 V 950.79333 l 0.144,-2.20133 0.43067,-2.16267 0.70933,-2.088 0.97467,-1.97733 1.22533,-1.83334 1.45467,-1.65866 1.65733,-1.45334 1.83333,-1.22533 1.97734,-0.97467 2.088,-0.70933 2.16266,-0.43067 2.20134,-0.144 h 182.06266 l 2.20133,0.144 2.16267,0.43067 z"
       style="fill:#fef0d5;stroke:#000000;stroke-width:1;stroke-linecap:butt;stroke-linejoin:miter;stroke-miterlimit:9.88377762;stroke-dasharray:none;stroke-opacity:1;fill-opacity:1" /><path
       id="path2921"
       d="m 691.3747,1184.712 1.97733,0.976 1.83333,1.2253 1.65867,1.4534 1.45333,1.6573 1.22534,1.8347 0.97466,1.9773 0.70934,2.088 0.43066,2.1627 0.144,2.2 v 182.064 l -0.144,2.2 -0.43066,2.1626 -0.70934,2.088 -0.97466,1.9774 -1.22534,1.8333 -1.45333,1.6587 -1.65867,1.4533 -1.83333,1.2253 -1.97733,0.9747 -2.088,0.7093 -2.16267,0.4307 -2.2,0.144 h -182.064 l -2.2,-0.144 -2.16266,-0.4307 -2.088,-0.7093 -1.97733,-0.9747 -1.83467,-1.2253 -1.65733,-1.4533 -1.45334,-1.6587 -1.22533,-1.8333 -0.976,-1.9774 -0.708,-2.088 -0.43067,-2.1626 -0.144,-2.2 v -182.064 l 0.144,-2.2 0.43067,-2.1627 0.708,-2.088 0.976,-1.9773 1.22533,-1.8347 1.45334,-1.6573 1.65733,-1.4534 1.83467,-1.2253 1.97733,-0.976 2.088,-0.708 2.16266,-0.4307 2.2,-0.144 h 182.064 l 2.2,0.144 2.16267,0.4307 z"
       style="fill:#fef0d5;stroke:#000000;stroke-width:1;stroke-linecap:butt;stroke-linejoin:miter;stroke-miterlimit:9.88377762;stroke-dasharray:none;stroke-opacity:1;fill-opacity:1" /><path
       id="path2919"
       d="m 940.86936,1184.712 1.97733,0.976 1.83333,1.2253 1.65734,1.4534 1.45466,1.6573 1.22534,1.8347 0.97466,1.9773 0.70934,2.088 0.42933,2.1627 0.144,2.2 v 182.064 l -0.144,2.2 -0.42933,2.1626 -0.70934,2.088 -0.97466,1.9774 -1.22534,1.8333 -1.45466,1.6587 -1.65734,1.4533 -1.83333,1.2253 -1.97733,0.9747 -2.088,0.7093 -2.16267,0.4307 -2.20133,0.144 H 752.3547 l -2.20134,-0.144 -2.16266,-0.4307 -2.088,-0.7093 -1.97734,-0.9747 -1.83333,-1.2253 -1.65733,-1.4533 -1.45467,-1.6587 -1.22533,-1.8333 -0.97467,-1.9774 -0.70933,-2.088 -0.43067,-2.1626 -0.144,-2.2 v -182.064 l 0.144,-2.2 0.43067,-2.1627 0.70933,-2.088 0.97467,-1.9773 1.22533,-1.8347 1.45467,-1.6573 1.65733,-1.4534 1.83333,-1.2253 1.97734,-0.976 2.088,-0.708 2.16266,-0.4307 2.20134,-0.144 h 182.06266 l 2.20133,0.144 2.16267,0.4307 z"
       style="fill:#fef0d5;fill-opacity:1;stroke:#000000;stroke-width:1;stroke-linecap:butt;stroke-linejoin:miter;stroke-miterlimit:9.88377762;stroke-dasharray:none;stroke-opacity:1" /><path
       id="path2916"
       d="m 1439.8573,1683.7 1.9774,0.976 1.8333,1.2253 1.6587,1.4533 1.4533,1.6574 1.2253,1.8346 0.9747,1.9774 0.7093,2.088 0.4307,2.1626 0.144,2.2 v 182.064 l -0.144,2.2 -0.4307,2.1627 -0.7093,2.088 -0.9747,1.9773 -1.2253,1.8347 -1.4533,1.6573 -1.6587,1.4534 -1.8333,1.2253 -1.9774,0.9747 -2.088,0.7093 -2.1626,0.4307 -2.2014,0.144 h -182.0626 l -2.2,-0.144 -2.1627,-0.4307 -2.088,-0.7093 -1.9787,-0.9747 -1.8333,-1.2253 -1.6573,-1.4534 -1.4547,-1.6573 -1.224,-1.8347 -0.976,-1.9773 -0.7093,-2.088 -0.4294,-2.1627 -0.144,-2.2 v -182.064 l 0.144,-2.2 0.4294,-2.1626 0.7093,-2.088 0.976,-1.9774 1.224,-1.8346 1.4547,-1.6574 1.6573,-1.4533 1.8333,-1.2253 1.9787,-0.976 2.088,-0.708 2.1627,-0.4307 2.2,-0.144 h 182.0626 l 2.2014,0.144 2.1626,0.4307 z"
       style="fill:#fafafa;stroke:#000000;stroke-width:1;stroke-linecap:butt;stroke-linejoin:miter;stroke-miterlimit:9.88377762;stroke-dasharray:none;stroke-opacity:1;fill-opacity:1" /><path
       id="path2914"
       d="m 1439.8573,685.724 1.9774,0.976 1.8333,1.224 1.6587,1.45467 1.4533,1.65733 1.2253,1.83334 0.9747,1.97866 0.7093,2.088 0.4307,2.16267 0.144,2.2 v 182.06399 l -0.144,2.2 -0.4307,2.16267 -0.7093,2.088 -0.9747,1.97733 -1.2253,1.83334 -1.4533,1.65866 -1.6587,1.45334 -1.8333,1.22533 -1.9774,0.97467 -2.088,0.70933 -2.1626,0.43067 -2.2014,0.144 h -182.0626 l -2.2,-0.144 -2.1627,-0.43067 -2.088,-0.70933 -1.9787,-0.97467 -1.8333,-1.22533 -1.6573,-1.45334 -1.4547,-1.65866 -1.224,-1.83334 -0.976,-1.97733 -0.7093,-2.088 -0.4294,-2.16267 -0.144,-2.2 V 701.29867 l 0.144,-2.2 0.4294,-2.16267 0.7093,-2.088 0.976,-1.97866 1.224,-1.83334 1.4547,-1.65733 1.6573,-1.45467 1.8333,-1.224 1.9787,-0.976 2.088,-0.70933 2.1627,-0.42933 2.2,-0.144 h 182.0626 l 2.2014,0.144 2.1626,0.42933 z"
       style="fill:#fafafa;stroke:#000000;stroke-width:1;stroke-linecap:butt;stroke-linejoin:miter;stroke-miterlimit:9.88377762;stroke-dasharray:none;stroke-opacity:1;fill-opacity:1" /><path
       id="path2912"
       d="m 441.88004,685.724 1.97733,0.976 1.83467,1.224 1.65733,1.45467 1.45333,1.65733 1.22667,1.83334 0.97467,1.97866 0.708,2.088 0.43066,2.16267 0.144,2.2 v 182.06399 l -0.144,2.2 -0.43066,2.16267 -0.708,2.088 -0.97467,1.97733 -1.22667,1.83334 -1.45333,1.65866 -1.65733,1.45334 -1.83467,1.22533 -1.97733,0.97467 -2.088,0.70933 -2.16134,0.43067 -2.20133,0.144 H 253.36671 l -2.20134,-0.144 -2.16266,-0.43067 -2.088,-0.70933 -1.97734,-0.97467 -1.83333,-1.22533 -1.65867,-1.45334 -1.45333,-1.65866 -1.22533,-1.83334 -0.97467,-1.97733 -0.70933,-2.088 -0.43067,-2.16267 -0.144,-2.2 V 701.29867 l 0.144,-2.2 0.43067,-2.16267 0.70933,-2.088 0.97467,-1.97866 1.22533,-1.83334 1.45333,-1.65733 1.65867,-1.45467 1.83333,-1.224 1.97734,-0.976 2.088,-0.70933 2.16266,-0.42933 2.20134,-0.144 h 182.06266 l 2.20133,0.144 2.16134,0.42933 z"
       style="fill:#fafafa;stroke:#000000;stroke-width:1;stroke-linecap:butt;stroke-linejoin:miter;stroke-miterlimit:9.88377762;stroke-dasharray:none;stroke-opacity:1;fill-opacity:1" /><path
       id="path2910"
       d="m 940.86936,685.724 1.97733,0.976 1.83333,1.224 1.65734,1.45467 1.45466,1.65733 1.22534,1.83334 0.97466,1.97866 0.70934,2.088 0.42933,2.16267 0.144,2.2 v 182.06399 l -0.144,2.2 -0.42933,2.16267 -0.70934,2.088 -0.97466,1.97733 -1.22534,1.83334 -1.45466,1.65866 -1.65734,1.45334 -1.83333,1.22533 -1.97733,0.97467 -2.088,0.70933 -2.16267,0.43067 -2.20133,0.144 H 752.3547 l -2.20134,-0.144 -2.16266,-0.43067 -2.088,-0.70933 -1.97734,-0.97467 -1.83333,-1.22533 -1.65733,-1.45334 -1.45467,-1.65866 -1.22533,-1.83334 -0.97467,-1.97733 -0.70933,-2.088 -0.43067,-2.16267 -0.144,-2.2 V 701.29867 l 0.144,-2.2 0.43067,-2.16267 0.70933,-2.088 0.97467,-1.97866 1.22533,-1.83334 1.45467,-1.65733 1.65733,-1.45467 1.83333,-1.224 1.97734,-0.976 2.088,-0.70933 2.16266,-0.42933 2.20134,-0.144 h 182.06266 l 2.20133,0.144 2.16267,0.42933 z"
       style="fill:#fafafa;stroke:#000000;stroke-width:1;stroke-linecap:butt;stroke-linejoin:miter;stroke-miterlimit:9.88377762;stroke-dasharray:none;stroke-opacity:1;fill-opacity:1" /><path
       id="path2908"
       d="m 1190.3627,1434.2067 1.9773,0.9746 1.8347,1.2254 1.6573,1.4546 1.4534,1.6574 1.2253,1.8333 0.9747,1.9773 0.7093,2.088 0.4307,2.1627 0.144,2.2013 v 182.0627 l -0.144,2.2013 -0.4307,2.1613 -0.7093,2.0894 -0.9747,1.9773 -1.2253,1.8333 -1.4534,1.6574 -1.6573,1.4546 -1.8347,1.2254 -1.9773,0.9746 -2.088,0.7094 -2.1627,0.4293 -2.2,0.144 h -182.064 l -2.19998,-0.144 -2.16266,-0.4293 -2.088,-0.7094 -1.97734,-0.9746 -1.83333,-1.2254 -1.65867,-1.4546 -1.45333,-1.6574 -1.22533,-1.8333 -0.976,-1.9773 -0.708,-2.0894 -0.43067,-2.1613 -0.144,-2.2013 v -182.0627 l 0.144,-2.2013 0.43067,-2.1627 0.708,-2.088 0.976,-1.9773 1.22533,-1.8333 1.45333,-1.6574 1.65867,-1.4546 1.83333,-1.2254 1.97734,-0.9746 2.088,-0.7094 2.16266,-0.4306 2.19998,-0.144 h 182.064 l 2.2,0.144 2.1627,0.4306 z"
       style="fill:#fef0d5;stroke:#000000;stroke-width:1;stroke-linecap:butt;stroke-linejoin:miter;stroke-miterlimit:9.88377762;stroke-dasharray:none;stroke-opacity:1;fill-opacity:1" /><path
       id="path2906"
       d="m 1439.8573,1434.2067 1.9774,0.9746 1.8333,1.2254 1.6587,1.4546 1.4533,1.6574 1.2253,1.8333 0.9747,1.9773 0.7093,2.088 0.4307,2.1627 0.144,2.2013 v 182.0627 l -0.144,2.2013 -0.4307,2.1613 -0.7093,2.0894 -0.9747,1.9773 -1.2253,1.8333 -1.4533,1.6574 -1.6587,1.4546 -1.8333,1.2254 -1.9774,0.9746 -2.088,0.7094 -2.1626,0.4293 -2.2014,0.144 h -182.0626 l -2.2,-0.144 -2.1627,-0.4293 -2.088,-0.7094 -1.9787,-0.9746 -1.8333,-1.2254 -1.6573,-1.4546 -1.4547,-1.6574 -1.224,-1.8333 -0.976,-1.9773 -0.7093,-2.0894 -0.4294,-2.1613 -0.144,-2.2013 v -182.0627 l 0.144,-2.2013 0.4294,-2.1627 0.7093,-2.088 0.976,-1.9773 1.224,-1.8333 1.4547,-1.6574 1.6573,-1.4546 1.8333,-1.2254 1.9787,-0.9746 2.088,-0.7094 2.1627,-0.4306 2.2,-0.144 h 182.0626 l 2.2014,0.144 2.1626,0.4306 z"
       style="fill:#fafafa;stroke:#000000;stroke-width:1;stroke-linecap:butt;stroke-linejoin:miter;stroke-miterlimit:9.88377762;stroke-dasharray:none;stroke-opacity:1;fill-opacity:1" /><path
       id="path2904"
       d="m 441.88004,1434.2067 1.97733,0.9746 1.83467,1.2254 1.65733,1.4546 1.45333,1.6574 1.22667,1.8333 0.97467,1.9773 0.708,2.088 0.43066,2.1627 0.144,2.2013 v 182.0627 l -0.144,2.2013 -0.43066,2.1613 -0.708,2.0894 -0.97467,1.9773 -1.22667,1.8333 -1.45333,1.6574 -1.65733,1.4546 -1.83467,1.2254 -1.97733,0.9746 -2.088,0.7094 -2.16134,0.4293 -2.20133,0.144 H 253.36671 l -2.20134,-0.144 -2.16266,-0.4293 -2.088,-0.7094 -1.97734,-0.9746 -1.83333,-1.2254 -1.65867,-1.4546 -1.45333,-1.6574 -1.22533,-1.8333 -0.97467,-1.9773 -0.70933,-2.0894 -0.43067,-2.1613 -0.144,-2.2013 v -182.0627 l 0.144,-2.2013 0.43067,-2.1627 0.70933,-2.088 0.97467,-1.9773 1.22533,-1.8333 1.45333,-1.6574 1.65867,-1.4546 1.83333,-1.2254 1.97734,-0.9746 2.088,-0.7094 2.16266,-0.4306 2.20134,-0.144 h 182.06266 l 2.20133,0.144 2.16134,0.4306 z"
       style="fill:#fafafa;stroke:#000000;stroke-width:1;stroke-linecap:butt;stroke-linejoin:miter;stroke-miterlimit:9.88377762;stroke-dasharray:none;stroke-opacity:1;fill-opacity:1" /><path
       id="path2902"
       d="m 1190.3627,1184.712 1.9773,0.976 1.8347,1.2253 1.6573,1.4534 1.4534,1.6573 1.2253,1.8347 0.9747,1.9773 0.7093,2.088 0.4307,2.1627 0.144,2.2 v 182.064 l -0.144,2.2 -0.4307,2.1626 -0.7093,2.088 -0.9747,1.9774 -1.2253,1.8333 -1.4534,1.6587 -1.6573,1.4533 -1.8347,1.2253 -1.9773,0.9747 -2.088,0.7093 -2.1627,0.4307 -2.2,0.144 h -182.064 l -2.19998,-0.144 -2.16266,-0.4307 -2.088,-0.7093 -1.97734,-0.9747 -1.83333,-1.2253 -1.65867,-1.4533 -1.45333,-1.6587 -1.22533,-1.8333 -0.976,-1.9774 -0.708,-2.088 -0.43067,-2.1626 -0.144,-2.2 v -182.064 l 0.144,-2.2 0.43067,-2.1627 0.708,-2.088 0.976,-1.9773 1.22533,-1.8347 1.45333,-1.6573 1.65867,-1.4534 1.83333,-1.2253 1.97734,-0.976 2.088,-0.708 2.16266,-0.4307 2.19998,-0.144 h 182.064 l 2.2,0.144 2.1627,0.4307 z"
       style="fill:#fef0d5;stroke:#000000;stroke-width:1;stroke-linecap:butt;stroke-linejoin:miter;stroke-miterlimit:9.88377762;stroke-dasharray:none;stroke-opacity:1;fill-opacity:1" /><path
       id="path2900"
       d="m 1439.8573,1184.712 1.9774,0.976 1.8333,1.2253 1.6587,1.4534 1.4533,1.6573 1.2253,1.8347 0.9747,1.9773 0.7093,2.088 0.4307,2.1627 0.144,2.2 v 182.064 l -0.144,2.2 -0.4307,2.1626 -0.7093,2.088 -0.9747,1.9774 -1.2253,1.8333 -1.4533,1.6587 -1.6587,1.4533 -1.8333,1.2253 -1.9774,0.9747 -2.088,0.7093 -2.1626,0.4307 -2.2014,0.144 h -182.0626 l -2.2,-0.144 -2.1627,-0.4307 -2.088,-0.7093 -1.9787,-0.9747 -1.8333,-1.2253 -1.6573,-1.4533 -1.4547,-1.6587 -1.224,-1.8333 -0.976,-1.9774 -0.7093,-2.088 -0.4294,-2.1626 -0.144,-2.2 v -182.064 l 0.144,-2.2 0.4294,-2.1627 0.7093,-2.088 0.976,-1.9773 1.224,-1.8347 1.4547,-1.6573 1.6573,-1.4534 1.8333,-1.2253 1.9787,-0.976 2.088,-0.708 2.1627,-0.4307 2.2,-0.144 h 182.0626 l 2.2014,0.144 2.1626,0.4307 z"
       style="fill:#fef0d5;stroke:#000000;stroke-width:1;stroke-linecap:butt;stroke-linejoin:miter;stroke-miterlimit:9.88377762;stroke-dasharray:none;stroke-opacity:1;fill-opacity:1" /><path
       id="path2898"
       d="m 1190.3627,935.21866 1.9773,0.97467 1.8347,1.22533 1.6573,1.45334 1.4534,1.65866 1.2253,1.83334 0.9747,1.97733 0.7093,2.088 0.4307,2.16267 0.144,2.20133 V 1132.856 l -0.144,2.2 -0.4307,2.1627 -0.7093,2.088 -0.9747,1.9773 -1.2253,1.8347 -1.4534,1.6573 -1.6573,1.4533 -1.8347,1.2254 -1.9773,0.976 -2.088,0.708 -2.1627,0.4306 -2.2,0.144 h -182.064 l -2.19998,-0.144 -2.16266,-0.4306 -2.088,-0.708 -1.97734,-0.976 -1.83333,-1.2254 -1.65867,-1.4533 -1.45333,-1.6573 -1.22533,-1.8347 -0.976,-1.9773 -0.708,-2.088 -0.43067,-2.1627 -0.144,-2.2 V 950.79333 l 0.144,-2.20133 0.43067,-2.16267 0.708,-2.088 0.976,-1.97733 1.22533,-1.83334 1.45333,-1.65866 1.65867,-1.45334 1.83333,-1.22533 1.97734,-0.97467 2.088,-0.70933 2.16266,-0.43067 2.19998,-0.144 h 182.064 l 2.2,0.144 2.1627,0.43067 z"
       style="fill:#fef0d5;stroke:#000000;stroke-width:1;stroke-linecap:butt;stroke-linejoin:miter;stroke-miterlimit:9.88377762;stroke-dasharray:none;stroke-opacity:1;fill-opacity:1" /><path
       id="path2896"
       d="m 1439.8573,935.21866 1.9774,0.97467 1.8333,1.22533 1.6587,1.45334 1.4533,1.65866 1.2253,1.83334 0.9747,1.97733 0.7093,2.088 0.4307,2.16267 0.144,2.20133 V 1132.856 l -0.144,2.2 -0.4307,2.1627 -0.7093,2.088 -0.9747,1.9773 -1.2253,1.8347 -1.4533,1.6573 -1.6587,1.4533 -1.8333,1.2254 -1.9774,0.976 -2.088,0.708 -2.1626,0.4306 -2.2014,0.144 h -182.0626 l -2.2,-0.144 -2.1627,-0.4306 -2.088,-0.708 -1.9787,-0.976 -1.8333,-1.2254 -1.6573,-1.4533 -1.4547,-1.6573 -1.224,-1.8347 -0.976,-1.9773 -0.7093,-2.088 -0.4294,-2.1627 -0.144,-2.2 V 950.79333 l 0.144,-2.20133 0.4294,-2.16267 0.7093,-2.088 0.976,-1.97733 1.224,-1.83334 1.4547,-1.65866 1.6573,-1.45334 1.8333,-1.22533 1.9787,-0.97467 2.088,-0.70933 2.1627,-0.43067 2.2,-0.144 h 182.0626 l 2.2014,0.144 2.1626,0.43067 z"
       style="fill:#fef0d5;stroke:#000000;stroke-width:1;stroke-linecap:butt;stroke-linejoin:miter;stroke-miterlimit:9.88377762;stroke-dasharray:none;stroke-opacity:1;fill-opacity:1" /><path
       id="path2894"
       d="m 691.3747,935.21866 1.97733,0.97467 1.83333,1.22533 1.65867,1.45334 1.45333,1.65866 1.22534,1.83334 0.97466,1.97733 0.70934,2.088 0.43066,2.16267 0.144,2.20133 V 1132.856 l -0.144,2.2 -0.43066,2.1627 -0.70934,2.088 -0.97466,1.9773 -1.22534,1.8347 -1.45333,1.6573 -1.65867,1.4533 -1.83333,1.2254 -1.97733,0.976 -2.088,0.708 -2.16267,0.4306 -2.2,0.144 h -182.064 l -2.2,-0.144 -2.16266,-0.4306 -2.088,-0.708 -1.97733,-0.976 -1.83467,-1.2254 -1.65733,-1.4533 -1.45334,-1.6573 -1.22533,-1.8347 -0.976,-1.9773 -0.708,-2.088 -0.43067,-2.1627 -0.144,-2.2 V 950.79333 l 0.144,-2.20133 0.43067,-2.16267 0.708,-2.088 0.976,-1.97733 1.22533,-1.83334 1.45334,-1.65866 1.65733,-1.45334 1.83467,-1.22533 1.97733,-0.97467 2.088,-0.70933 2.16266,-0.43067 2.2,-0.144 h 182.064 l 2.2,0.144 2.16267,0.43067 z"
       style="fill:#fef0d5;stroke:#000000;stroke-width:1;stroke-linecap:butt;stroke-linejoin:miter;stroke-miterlimit:9.88377762;stroke-dasharray:none;stroke-opacity:1;fill-opacity:1" /><path
       id="path2892"
       d="m 691.3747,1434.2067 1.97733,0.9746 1.83333,1.2254 1.65867,1.4546 1.45333,1.6574 1.22534,1.8333 0.97466,1.9773 0.70934,2.088 0.43066,2.1627 0.144,2.2013 v 182.0627 l -0.144,2.2013 -0.43066,2.1613 -0.70934,2.0894 -0.97466,1.9773 -1.22534,1.8333 -1.45333,1.6574 -1.65867,1.4546 -1.83333,1.2254 -1.97733,0.9746 -2.088,0.7094 -2.16267,0.4293 -2.2,0.144 h -182.064 l -2.2,-0.144 -2.16266,-0.4293 -2.088,-0.7094 -1.97733,-0.9746 -1.83467,-1.2254 -1.65733,-1.4546 -1.45334,-1.6574 -1.22533,-1.8333 -0.976,-1.9773 -0.708,-2.0894 -0.43067,-2.1613 -0.144,-2.2013 v -182.0627 l 0.144,-2.2013 0.43067,-2.1627 0.708,-2.088 0.976,-1.9773 1.22533,-1.8333 1.45334,-1.6574 1.65733,-1.4546 1.83467,-1.2254 1.97733,-0.9746 2.088,-0.7094 2.16266,-0.4306 2.2,-0.144 h 182.064 l 2.2,0.144 2.16267,0.4306 z"
       style="fill:#fef0d5;stroke:#000000;stroke-width:1;stroke-linecap:butt;stroke-linejoin:miter;stroke-miterlimit:9.88377762;stroke-dasharray:none;stroke-opacity:1;fill-opacity:1" /><path
       id="path2890"
       d="m 940.86936,1434.2067 1.97733,0.9746 1.83333,1.2254 1.65734,1.4546 1.45466,1.6574 1.22534,1.8333 0.97466,1.9773 0.70934,2.088 0.42933,2.1627 0.144,2.2013 v 182.0627 l -0.144,2.2013 -0.42933,2.1613 -0.70934,2.0894 -0.97466,1.9773 -1.22534,1.8333 -1.45466,1.6574 -1.65734,1.4546 -1.83333,1.2254 -1.97733,0.9746 -2.088,0.7094 -2.16267,0.4293 -2.20133,0.144 H 752.3547 l -2.20134,-0.144 -2.16266,-0.4293 -2.088,-0.7094 -1.97734,-0.9746 -1.83333,-1.2254 -1.65733,-1.4546 -1.45467,-1.6574 -1.22533,-1.8333 -0.97467,-1.9773 -0.70933,-2.0894 -0.43067,-2.1613 -0.144,-2.2013 v -182.0627 l 0.144,-2.2013 0.43067,-2.1627 0.70933,-2.088 0.97467,-1.9773 1.22533,-1.8333 1.45467,-1.6574 1.65733,-1.4546 1.83333,-1.2254 1.97734,-0.9746 2.088,-0.7094 2.16266,-0.4306 2.20134,-0.144 h 182.06266 l 2.20133,0.144 2.16267,0.4306 z"
       style="fill:#fef0d5;stroke:#000000;stroke-width:1;stroke-linecap:butt;stroke-linejoin:miter;stroke-miterlimit:9.88377762;stroke-dasharray:none;stroke-opacity:1;fill-opacity:1" /><path
       id="path2888"
       d="m 691.3747,1683.7 1.97733,0.976 1.83333,1.2253 1.65867,1.4533 1.45333,1.6574 1.22534,1.8346 0.97466,1.9774 0.70934,2.088 0.43066,2.1626 0.144,2.2 v 182.064 l -0.144,2.2 -0.43066,2.1627 -0.70934,2.088 -0.97466,1.9773 -1.22534,1.8347 -1.45333,1.6573 -1.65867,1.4534 -1.83333,1.2253 -1.97733,0.9747 -2.088,0.7093 -2.16267,0.4307 -2.2,0.144 h -182.064 l -2.2,-0.144 -2.16266,-0.4307 -2.088,-0.7093 -1.97733,-0.9747 -1.83467,-1.2253 -1.65733,-1.4534 -1.45334,-1.6573 -1.22533,-1.8347 -0.976,-1.9773 -0.708,-2.088 -0.43067,-2.1627 -0.144,-2.2 v -182.064 l 0.144,-2.2 0.43067,-2.1626 0.708,-2.088 0.976,-1.9774 1.22533,-1.8346 1.45334,-1.6574 1.65733,-1.4533 1.83467,-1.2253 1.97733,-0.976 2.088,-0.708 2.16266,-0.4307 2.2,-0.144 h 182.064 l 2.2,0.144 2.16267,0.4307 z"
       style="fill:#fafafa;stroke:#000000;stroke-width:1;stroke-linecap:butt;stroke-linejoin:miter;stroke-miterlimit:9.88377762;stroke-dasharray:none;stroke-opacity:1;fill-opacity:1" /><path
       id="path2690"
       d="m 940.86936,1683.7 1.97733,0.976 1.83333,1.2253 1.65734,1.4533 1.45466,1.6574 1.22534,1.8346 0.97466,1.9774 0.70934,2.088 0.42933,2.1626 0.144,2.2 v 182.064 l -0.144,2.2 -0.42933,2.1627 -0.70934,2.088 -0.97466,1.9773 -1.22534,1.8347 -1.45466,1.6573 -1.65734,1.4534 -1.83333,1.2253 -1.97733,0.9747 -2.088,0.7093 -2.16267,0.4307 -2.20133,0.144 H 752.3547 l -2.20134,-0.144 -2.16266,-0.4307 -2.088,-0.7093 -1.97734,-0.9747 -1.83333,-1.2253 -1.65733,-1.4534 -1.45467,-1.6573 -1.22533,-1.8347 -0.97467,-1.9773 -0.70933,-2.088 -0.43067,-2.1627 -0.144,-2.2 v -182.064 l 0.144,-2.2 0.43067,-2.1626 0.70933,-2.088 0.97467,-1.9774 1.22533,-1.8346 1.45467,-1.6574 1.65733,-1.4533 1.83333,-1.2253 1.97734,-0.976 2.088,-0.708 2.16266,-0.4307 2.20134,-0.144 h 182.06266 l 2.20133,0.144 2.16267,0.4307 z"
       style="fill:#fef0d5;stroke:#000000;stroke-width:1;stroke-linecap:butt;stroke-linejoin:miter;stroke-miterlimit:9.88377762;stroke-dasharray:none;stroke-opacity:1;fill-opacity:1" /></g><g
     style="fill:#000000;fill-opacity:0.07843138"
     id="g1056"><path
       d="m 1548.816,1831.1306 h -9.9747 m 9.9747,-34.916 v 34.916 m 28.832,-34.916 h -28.832 m 28.832,-8.392 v 8.392 m -28.832,-8.392 h 28.832 m -28.832,-23.48 v 23.48 m 32.724,-23.48 h -32.724 m 32.724,-8.516 v 8.516 m -42.6987,-8.516 h 42.6987 m -42.6987,75.304 v -75.304 m 0,75.304 v -75.304 h 42.6987 v 8.516 h -32.724 v 23.48 h 28.832 v 8.392 h -28.832 v 34.916 z"
       style="fill:#000000;stroke:#000000;stroke-width:1;stroke-linecap:butt;stroke-linejoin:miter;stroke-miterlimit:9.88377762;stroke-dasharray:none;stroke-opacity:1;fill-opacity:0.07843138"
       id="path3140" /><path
       d="m 154.50671,1344.4213 2.67467,8.2734 m -10.704,-5.0494 8.02933,-3.224 m -15.45067,4.1374 7.42134,-0.9134 m -11.99734,0.456 4.576,0.4574 m -8.81866,-1.8254 4.24266,1.368 m -8.02933,-3.6786 3.78667,2.3106 m -6.996,-5.596 3.20933,3.2854 m -5.80933,-7.5427 2.6,4.2573 m -4.56134,-9.4893 1.96134,5.232 m -3.19334,-11.4667 1.232,6.2347 m -1.64266,-13.5027 0.41066,7.268 m -0.0307,-13.868 -0.38,6.6 m 1.52133,-12.5293 -1.14133,5.9293 m 2.98133,-11.1306 -1.84,5.2013 m 4.31867,-9.6107 -2.47867,4.4094 m 5.56533,-7.9534 -3.08666,3.544 m 30.77733,-3.6506 -7.78533,-3.4667 m 10.70533,-4.804 -2.92,8.2707 m -1.62667,-10.6747 4.54667,2.404 m -30.536,-2.6773 5.90133,-1.916 m -11.25333,5.0786 5.352,-3.1626 m -9.97467,7.5426 4.62267,-4.38 m -8.44,9.9454 3.81733,-5.5654 m -6.752,12.2867 2.93467,-6.7213 m -4.80533,14.5986 1.87066,-7.8773 m -2.49333,16.9093 0.62267,-9.032 m -0.0293,18.46 -0.59333,-9.428 m 2.372,17.5174 -1.77867,-8.0894 m 4.592,14.856 -2.81333,-6.7666 m 6.508,12.2266 -3.69467,-5.46 m 8.212,9.6574 -4.51733,-4.1974 m 9.79467,7.1774 -5.27734,-2.98 m 11.192,4.7586 -5.91466,-1.7786 m 12.34666,2.372 -6.432,-0.5934 m 16.712,-0.5626 -10.28,1.156 m 14.948,-2.6307 -4.668,1.4747 m 9.06134,-3.588 -4.39334,2.1133 m -5.39866,-74.74 4.63866,1.612 m -13.82266,-2.828 9.184,1.216 m -15.44934,-0.5773 6.26534,-0.6387 m -8.57734,11.0093 -3.664,2.6 m 7.87734,-4.1973 -4.21334,1.5973 m 8.94134,-2.1293 -4.728,0.532 m 12.028,0.624 -7.3,-1.156 m 7.3,1.156 -7.3,-1.156 -4.728,0.532 -4.21334,1.5973 -3.664,2.6 -3.08666,3.544 -2.47867,4.4094 -1.84,5.2013 -1.14133,5.9293 -0.38,6.6 0.41066,7.268 1.232,6.2347 1.96134,5.232 2.6,4.2573 3.20933,3.2854 3.78667,2.3106 4.24266,1.368 4.576,0.4574 7.42134,-0.9134 8.02933,-3.224 2.67467,8.2734 -4.39334,2.1133 -4.668,1.4747 -10.28,1.156 -6.432,-0.5934 -5.91466,-1.7786 -5.27734,-2.98 -4.51733,-4.1974 -3.69467,-5.46 -2.81333,-6.7666 -1.77867,-8.0894 -0.59333,-9.428 0.62267,-9.032 1.87066,-7.8773 2.93467,-6.7213 3.81733,-5.5654 4.62267,-4.38 5.352,-3.1626 5.90133,-1.916 6.26534,-0.6387 9.184,1.216 4.63866,1.612 4.54667,2.404 -2.92,8.2707 z"
       style="fill:#000000;stroke:#000000;stroke-width:1;stroke-linecap:butt;stroke-linejoin:miter;stroke-miterlimit:9.88377762;stroke-dasharray:none;stroke-opacity:1;fill-opacity:0.07843138"
       id="path3228" /><path
       d="m 1539.3027,1283.4707 v 58.636 m 2.736,-58.94 -2.736,0.304 m 5.8386,-0.3654 -3.1026,0.061 m 8.528,0.388 -5.4254,-0.4494 m 10.1427,1.7947 -4.7173,-1.3453 m 8.728,3.588 -4.0107,-2.2427 m 7.3147,5.3827 -3.304,-3.14 m 5.8853,7.2386 -2.5813,-4.0986 m 4.424,9.2146 -1.8427,-5.116 m 2.9493,11.252 -1.1066,-6.136 m 1.4746,13.2907 -0.368,-7.1547 m -0.027,14.4987 0.3946,-7.344 m -1.58,13.564 1.1854,-6.22 m -22.596,22.3387 5.1706,-0.4107 m -11.3746,0.047 6.204,0.364 m 32.556,-39.2627 0.6546,9.58 m -2.616,-17.6387 1.9614,8.0587 m -5.0627,-14.6893 3.1013,6.6306 m -7.1773,-11.9226 4.076,5.292 m -9.0627,-9.276 4.9867,3.984 m -10.8267,-6.6907 5.84,2.7067 m -12.3626,-4.2574 6.5226,1.5507 m -13.564,-2.0667 7.0414,0.516 m -14.6134,-0.061 7.572,-0.4547 m -15.2066,1.824 7.6346,-1.3693 m -7.6346,74.3587 v -72.9894 m 7.6346,74.3587 -7.6346,-1.3693 m 15.2066,1.8253 -7.572,-0.456 m 14.6134,-0.061 -7.0414,0.5173 m 13.564,-2.068 -6.5226,1.5507 m 12.3626,-4.2414 -5.84,2.6907 m 10.8267,-6.6293 -4.9867,3.9386 m 9.0627,-9.1853 -4.076,5.2467 m 7.1773,-11.8614 -3.1013,6.6147 m 5.0627,-14.704 -1.9614,8.0893 m 2.616,-17.7613 -0.6546,9.672 m -13.0614,9.032 1.916,-5.14 m -4.5013,9.2453 2.5853,-4.1053 m -5.8386,7.208 3.2533,-3.1027 m -7.1773,5.2307 3.924,-2.128 m -8.4854,3.36 4.5614,-1.232 m 23.4786,-28.04 -0.6546,9.672 -1.9614,8.0893 -3.1013,6.6147 -4.076,5.2467 -4.9867,3.9386 -5.84,2.6907 -6.5226,1.5507 -7.0414,0.5173 -7.572,-0.456 -7.6346,-1.3693 v -72.9894 l 7.6346,-1.3693 7.572,-0.4547 7.0414,0.516 6.5226,1.5507 5.84,2.7067 4.9867,3.984 4.076,5.292 3.1013,6.6306 1.9614,8.0587 z m -28.04,29.272 4.5614,-1.232 3.924,-2.128 3.2533,-3.1027 2.5853,-4.1053 1.916,-5.14 1.1854,-6.22 0.3946,-7.344 -0.368,-7.1547 -1.1066,-6.136 -1.8427,-5.116 -2.5813,-4.0986 -3.304,-3.14 -4.0107,-2.2427 -4.7173,-1.3453 -5.4254,-0.4494 -3.1026,0.061 -2.736,0.304 v 58.636 l 6.204,0.364 z"
       style="fill:#000000;stroke:#000000;stroke-width:1;stroke-linecap:butt;stroke-linejoin:miter;stroke-miterlimit:9.88377762;stroke-dasharray:none;stroke-opacity:1;fill-opacity:0.07843138"
       id="path3310" /><path
       d="M 1548.4187,808.22267 V 831.944 m 3.3453,-24.02533 -3.3453,0.304 m 8.88,-0.36534 -5.5347,0.0613 m 11.5573,0.54666 -6.0226,-0.608 m 11.0706,2.676 -5.048,-2.068 m 8.576,5.84 -3.528,-3.772 m 4.5307,6.32667 -1.0027,-2.55467 m 1.3387,5.59467 -0.336,-3.04 m -0.029,6.264 0.3653,-3.224 m -1.46,5.84 1.0947,-2.616 m -2.7974,4.684 1.7027,-2.068 m -3.892,3.64933 2.1893,-1.58133 m -21.6546,4.136 h 7.908 m 2.3106,8.272 h -10.2186 m 17.032,0.66933 -6.8134,-0.66933 m 12.592,2.86 -5.7786,-2.19067 m 8.0293,3.96934 -2.2507,-1.77867 m 4.0147,4.076 -1.764,-2.29733 m 2.904,5.156 -1.14,-2.85867 m 1.52,6.32533 -0.38,-3.46666 m -0.031,7.328 0.4107,-3.86134 m -1.6427,6.93334 1.232,-3.072 m -3.1333,5.48933 1.9013,-2.41733 m -4.3186,4.31866 2.4173,-1.90133 m -8.5613,4.152 6.144,-2.25067 m -13.3827,2.85867 7.2387,-0.608 m -13.5027,0.42533 6.264,0.18267 m -9.0013,-0.48533 2.7373,0.30266 m -2.7373,-27.18933 v 26.88667 m 15.588,8.52133 -7.3147,0.35733 m 13.564,-1.42933 -6.2493,1.072 m 11.4346,-2.85867 -5.1853,1.78667 m 9.3053,-4.288 -4.12,2.50133 m 7.26,-5.70133 -3.14,3.2 m -17.152,-38.928 5.4747,-1.94667 m -11.5573,2.55467 6.0826,-0.608 m 23.8814,27.27333 -1.3467,4.56934 m 1.7947,-9.824 -0.448,5.25466 m -0.6014,-11.868 1.0494,6.61334 m -4.196,-11.86 3.1466,5.24666 m -7.8453,-9.09466 4.6987,3.848 m -10.4014,-6.26667 5.7027,2.41867 m -25.4107,38.21333 -4.8666,-0.304 m 19.5866,-75.24 4.5467,1.30667 m -15.008,74.35866 -4.2587,-0.12133 m 24.0267,-43.124 -4.3187,2.492 m 7.8467,-6.324 -3.528,3.832 m 5.8987,-8.516 -2.3707,4.684 m 3.2227,-9.85467 -0.852,5.17067 m 0.3506,-10.31067 0.5014,5.14 m -2.0067,-9.36666 1.5053,4.22666 m -3.908,-7.63333 2.4027,3.40667 m -5.596,-6.08267 3.1933,2.676 m -7.1013,-4.65333 3.908,1.97733 m 9.336,59.57867 -2.2427,3.88533 m -26.0093,-67.72133 10.4613,0.97333 m -14.7813,-0.852 4.32,-0.12133 m -9.1853,0.424 4.8653,-0.30267 m -9.732,0.85067 4.8667,-0.548 m -9.0627,1.4 4.196,-0.852 m -4.196,73.84266 v -72.99066 m 4.2573,73.84266 -4.2573,-0.852 m 9.1227,1.39867 -4.8654,-0.54667 m 4.8654,0.54667 -4.8654,-0.54667 -4.2573,-0.852 v -72.99066 l 4.196,-0.852 4.8667,-0.548 4.8653,-0.30267 4.32,-0.12133 10.4613,0.97333 4.5467,1.30667 3.908,1.97733 3.1933,2.676 2.4027,3.40667 1.5053,4.22666 0.5014,5.14 -0.852,5.17067 -2.3707,4.684 -3.528,3.832 -4.3187,2.492 5.7027,2.41867 4.6987,3.848 3.1466,5.24666 1.0494,6.61334 -0.448,5.25466 -1.3467,4.56934 -2.2427,3.88533 -3.14,3.2 -4.12,2.50133 -5.1853,1.78667 -6.2493,1.072 -7.3147,0.35733 -4.2587,-0.12133 z m 8.76,-43.612 6.0826,-0.608 5.4747,-1.94667 2.1893,-1.58133 1.7027,-2.068 1.0947,-2.616 0.3653,-3.224 -0.336,-3.04 -1.0027,-2.55467 -3.528,-3.772 -5.048,-2.068 -6.0226,-0.608 -5.5347,0.0613 -3.3453,0.304 V 831.944 Z m -7.908,8.272 v 26.88667 l 2.7373,0.30266 6.264,0.18267 7.2387,-0.608 6.144,-2.25067 2.4173,-1.90133 1.9013,-2.41733 1.232,-3.072 0.4107,-3.86134 -0.38,-3.46666 -1.14,-2.85867 -1.764,-2.29733 -2.2507,-1.77867 -5.7786,-2.19067 -6.8134,-0.66933 z"
       style="fill:#000000;stroke:#000000;stroke-width:1;stroke-linecap:butt;stroke-linejoin:miter;stroke-miterlimit:9.88377762;stroke-dasharray:none;stroke-opacity:1;fill-opacity:0.07843138"
       id="path3436" /><path
       d="m 156.39071,1827.636 h -44.88933 m 44.88933,-8.516 v 8.516 m -34.91467,-8.516 h 34.91467 m -34.91467,-26.6427 v 26.6427 m 28.224,-26.6427 h -28.224 m 28.224,-8.5147 v 8.5147 m -28.224,-8.5147 h 28.224 m -28.224,-23.1133 v 23.1133 m 32.23867,-23.1133 h -32.23867 m 32.23867,-8.516 v 8.516 m -42.21333,-8.516 h 42.21333 m -42.21333,75.3027 v -75.3027 m 0,75.3027 v -75.3027 h 42.21333 v 8.516 h -32.23867 v 23.1133 h 28.224 v 8.5147 h -28.224 v 26.6427 h 34.91467 v 8.516 z"
       style="fill:#000000;stroke:#000000;stroke-width:1;stroke-linecap:butt;stroke-linejoin:miter;stroke-miterlimit:9.88377762;stroke-dasharray:none;stroke-opacity:1;fill-opacity:0.07843138"
       id="path3460" /><path
       d="m 140.32671,821.96267 6.08133,19.768 m -34.00133,16.90933 -4.37867,19.708 m 38.38,-36.61733 5.41334,19.22 m -18.24667,-57.90534 6.752,18.91734 m 16.11733,56.38533 h -10.584 m -31.14266,-27.98 h 24.33066 m 6.812,27.98 -4.50133,-19.708 m -33.33067,19.708 H 97.809378 m 0,0 4.621332,-17.39733 m 38.928,-2.31067 h -28.952 m -4.44,-16.90933 6.264,-19.768 m 6.69067,7.60266 -6.204,20.80267 m 12.288,-38.56267 -6.084,17.76 m -18.49067,31.38534 5.536,-19.22 m 25.06,-12.46934 -6.02133,-17.456 m 12.04266,38.56267 -6.02133,-21.10667 m -11.86133,-26.216 h 12.40933 m -19.344,18.91734 6.93467,-18.91734 m 30.656,57.90534 4.62266,17.39733 m -4.62266,-17.39733 4.62266,17.39733 h -10.584 l -4.50133,-19.708 h -28.952 l -4.37867,19.708 H 97.809378 l 4.621332,-17.39733 5.536,-19.22 6.264,-19.768 6.93467,-18.91734 h 12.40933 l 6.752,18.91734 6.08133,19.768 z m -12.77334,-10.58267 -6.02133,-21.10667 -6.02133,-17.456 -6.084,17.76 -6.204,20.80267 z"
       style="fill:#000000;stroke:#000000;stroke-width:1;stroke-linecap:butt;stroke-linejoin:miter;stroke-miterlimit:9.88377762;stroke-dasharray:none;stroke-opacity:1;fill-opacity:0.07843138"
       id="path3498" /></g><g
     style="fill:#000000;fill-opacity:0.07843138"
     id="g1017"><path
       d="m 1517.104,75.121352 7.3333,-4.9 m -19.7813,99.446668 -4.9,-7.33467 m 10.716,13.96533 -5.816,-6.63066 m 12.448,12.44666 -6.632,-5.816 m 13.9653,10.716 -7.3333,-4.9 m 15.244,8.80134 -7.9107,-3.90134 m 16.2627,6.73734 -8.352,-2.836 m 17.0027,4.556 -8.6507,-1.72 m 17.452,2.29733 -8.8013,-0.57733 m 17.604,0 -8.8027,0.57733 m 17.4533,-2.29733 -8.6506,1.72 m 17.0026,-4.556 -8.352,2.836 m 16.2627,-6.73734 -7.9107,3.90134 m 15.2454,-8.80134 -7.3347,4.9 m 13.9653,-10.716 -6.6306,5.816 m 12.4466,-12.44666 -5.816,6.63066 m 10.716,-13.96533 -4.9,7.33467 m 8.8014,-15.24534 -3.9014,7.91067 m 6.736,-16.26267 -2.8346,8.352 m 4.556,-17.00266 -1.7214,8.65066 m 2.2987,-17.45333 -0.5773,8.80267 m 0,-17.604 0.5773,8.80133 m -2.2987,-17.45067 1.7214,8.64934 m -4.556,-17.00267 2.8346,8.35333 m -6.736,-16.263996 3.9014,7.910666 m -8.8014,-15.243999 4.9,7.333333 m -10.716,-13.965333 5.816,6.632 m -12.4466,-12.447999 6.6306,5.815999 m -13.9653,-10.715999 7.3347,4.9 m -15.2454,-8.801334 7.9107,3.901334 m -16.2627,-6.736 8.352,2.834666 m -17.0026,-4.555999 8.6506,1.721333 m -17.4533,-2.298667 8.8027,0.577334 m -34.6067,4.555999 8.352,-2.834666 m -16.2627,6.736 7.9107,-3.901334 m -21.876,14.617333 6.632,-5.815999 m -12.448,12.447999 5.816,-6.632 m -10.716,13.965333 4.9,-7.333333 m -8.8013,15.243999 3.9013,-7.910666 m -6.736,16.263996 2.8347,-8.35333 m -4.556,17.00267 1.7213,-8.64934 m -2.2987,17.45067 0.5774,-8.80133 m 0,17.604 -0.5774,-8.80267 m 2.2987,17.45333 -1.7213,-8.65066 m 4.556,17.00266 -2.8347,-8.352 m 6.736,16.26267 -3.9013,-7.91067 m 53.496,-92.658661 8.8013,-0.577334 m -17.452,2.298667 8.6507,-1.721333 m -8.6507,1.721333 8.6507,-1.721333 8.8013,-0.577334 8.8027,0.577334 8.6506,1.721333 8.352,2.834666 7.9107,3.901334 7.3347,4.9 6.6306,5.815999 5.816,6.632 4.9,7.333333 3.9014,7.910666 2.8346,8.35333 1.7214,8.64934 0.5773,8.80133 -0.5773,8.80267 -1.7214,8.65066 -2.8346,8.352 -3.9014,7.91067 -4.9,7.33467 -5.816,6.63066 -6.6306,5.816 -7.3347,4.9 -7.9107,3.90134 -8.352,2.836 -8.6506,1.72 -8.8027,0.57733 -8.8013,-0.57733 -8.6507,-1.72 -8.352,-2.836 -7.9107,-3.90134 -7.3333,-4.9 -6.632,-5.816 -5.816,-6.63066 -4.9,-7.33467 -3.9013,-7.91067 -2.8347,-8.352 -1.7213,-8.65066 -0.5774,-8.80267 0.5774,-8.80133 1.7213,-8.64934 2.8347,-8.35333 3.9013,-7.910666 4.9,-7.333333 5.816,-6.632 6.632,-5.815999 7.3333,-4.9 7.9107,-3.901334 z"
       style="fill:#000000;stroke:#000000;stroke-width:1;stroke-linecap:butt;stroke-linejoin:miter;stroke-miterlimit:9.88377762;stroke-dasharray:none;stroke-opacity:1;fill-opacity:0.07843138"
       id="path3594" /><path
       d="m 102.81471,66.320018 8.352,-2.834666 m -16.262665,6.736 7.910665,-3.901334 m -21.875998,14.617333 6.630667,-5.815999 m -12.446667,12.447999 5.816,-6.632 m -10.716,13.965333 4.9,-7.333333 m -8.801333,15.243999 3.901333,-7.910666 m -6.737333,16.263996 2.836,-8.35333 m -4.556,17.00267 1.72,-8.64934 m -2.297333,17.45067 0.577333,-8.80133 m 0,17.604 -0.577333,-8.80267 m 2.297333,17.45333 -1.72,-8.65066 m 4.556,17.00266 -2.836,-8.352 m 6.737333,16.26267 -3.901333,-7.91067 m 8.801333,15.24534 -4.9,-7.33467 m 49.594668,-100.569331 8.80133,-0.577334 m -17.452,2.298667 8.65067,-1.721333 m -38.878668,114.534661 -5.816,-6.63066 m 79.301328,-103.348002 7.91067,3.901334 m -16.26267,-6.736 8.352,2.834666 m -25.80533,-5.133333 8.80133,0.577334 m 58.63067,66.853331 -0.57733,8.80267 m 0,-17.604 0.57733,8.80133 m -2.29867,-17.45067 1.72134,8.64934 m -25.80534,62.29866 -7.33333,4.9 m 13.96533,-10.716 -6.632,5.816 m 12.448,-12.44666 -5.816,6.63066 m 10.716,-13.96533 -4.9,7.33467 m 8.80134,-15.24534 -3.90134,7.91067 m 6.736,-16.26267 -2.83466,8.352 m -28.58267,32.592 -7.91067,3.90134 m -66.854661,-8.80134 -6.630667,-5.816 m 6.630667,-101.177328 7.334666,-4.9 m 0,116.793328 -7.334666,-4.9 m 15.245331,8.80134 -7.910665,-3.90134 m 16.262665,6.73734 -8.352,-2.836 m 17.00267,4.556 -8.65067,-1.72 m 17.452,2.29733 -8.80133,-0.57733 m 17.60266,0 -8.80133,0.57733 m 17.45333,-2.29733 -8.652,1.72 m 17.004,-4.556 -8.352,2.836 m -8.652,-131.988001 8.652,1.721333 m 30.228,17.451999 5.816,6.632 m -12.448,-12.447999 6.632,5.815999 m -13.96533,-10.715999 7.33333,4.9 m 21.24934,27.691998 2.83466,8.35333 m 1.72134,26.25334 -1.72134,8.65066 m -6.736,-51.167996 3.90134,7.910666 m -8.80134,-15.243999 4.9,7.333333 m -4.9,-7.333333 4.9,7.333333 3.90134,7.910666 2.83466,8.35333 1.72134,8.64934 0.57733,8.80133 -0.57733,8.80267 -1.72134,8.65066 -2.83466,8.352 -3.90134,7.91067 -4.9,7.33467 -5.816,6.63066 -6.632,5.816 -7.33333,4.9 -7.91067,3.90134 -8.352,2.836 -8.652,1.72 -8.80133,0.57733 -8.80133,-0.57733 -8.65067,-1.72 -8.352,-2.836 -7.910665,-3.90134 -7.334666,-4.9 -6.630667,-5.816 -5.816,-6.63066 -4.9,-7.33467 -3.901333,-7.91067 -2.836,-8.352 -1.72,-8.65066 -0.577333,-8.80267 0.577333,-8.80133 1.72,-8.64934 2.836,-8.35333 3.901333,-7.910666 4.9,-7.333333 5.816,-6.632 6.630667,-5.815999 7.334666,-4.9 7.910665,-3.901334 8.352,-2.834666 8.65067,-1.721333 8.80133,-0.577334 8.80133,0.577334 8.652,1.721333 8.352,2.834666 7.91067,3.901334 7.33333,4.9 6.632,5.815999 z"
       style="fill:#000000;stroke:#000000;stroke-width:1;stroke-linecap:butt;stroke-linejoin:miter;stroke-miterlimit:9.88377762;stroke-dasharray:none;stroke-opacity:1;fill-opacity:0.07843138"
       id="path3690" /><path
       d="m 169.66804,2574.9466 -7.33333,4.9 m 31.41733,-40.9453 -2.83466,8.3533 m 4.556,-17.004 -1.72134,8.6507 m 2.29867,-17.452 -0.57733,8.8013 m 0,-17.6026 0.57733,8.8013 m -2.29867,-17.452 1.72134,8.6507 m -13.35734,-32.248 4.9,7.3346 m -10.716,-13.9653 5.816,6.6307 m -12.448,-12.4467 6.632,5.816 m -13.96533,-10.716 7.33333,4.9 m -15.244,-8.8013 7.91067,3.9013 m -16.26267,-6.7373 8.352,2.836 m -17.004,-4.556 8.652,1.72 m -17.45333,-2.2974 8.80133,0.5774 m -17.60266,0 8.80133,-0.5774 m -17.452,2.2974 8.65067,-1.72 m -17.00267,4.556 8.352,-2.836 m -16.262665,6.7373 7.910665,-3.9013 m -15.245331,8.8013 7.334666,-4.9 m -13.965333,10.716 6.630667,-5.816 m -12.446667,12.4467 5.816,-6.6307 m -10.716,13.9653 4.9,-7.3346 m -8.801333,15.2453 3.901333,-7.9107 m -6.737333,16.2627 2.836,-8.352 m -4.556,17.0027 1.72,-8.6507 m -2.297333,17.452 0.577333,-8.8013 m 0,17.6026 -0.577333,-8.8013 m 33.715999,58.3973 -7.334666,-4.9 m 15.245331,8.8014 -7.910665,-3.9014 m 16.262665,6.736 -8.352,-2.8346 m 17.00267,4.556 -8.65067,-1.7214 m 17.452,2.2974 -8.80133,-0.576 m 34.60666,-4.556 -8.352,2.8346 m 16.26267,-6.736 -7.91067,3.9014 m 36.49334,-88.1027 2.83466,8.352 m -6.736,-16.2627 3.90134,7.9107 m -53.49734,92.6587 -8.80133,0.576 m 17.45333,-2.2974 -8.652,1.7214 m 38.88,-19.1734 -6.632,5.816 m 12.448,-12.448 -5.816,6.632 m 10.716,-13.9653 -4.9,7.3333 m 8.80134,-15.244 -3.90134,7.9107 m -123.530661,-16.264 -1.72,-8.6507 m 4.556,17.004 -2.836,-8.3533 m 6.737333,16.264 -3.901333,-7.9107 m 8.801333,15.244 -4.9,-7.3333 m 10.716,13.9653 -5.816,-6.632 m 12.446667,12.448 -6.630667,-5.816 m 6.630667,5.816 -6.630667,-5.816 -5.816,-6.632 -4.9,-7.3333 -3.901333,-7.9107 -2.836,-8.3533 -1.72,-8.6507 -0.577333,-8.8013 0.577333,-8.8013 1.72,-8.6507 2.836,-8.352 3.901333,-7.9107 4.9,-7.3346 5.816,-6.6307 6.630667,-5.816 7.334666,-4.9 7.910665,-3.9013 8.352,-2.836 8.65067,-1.72 8.80133,-0.5774 8.80133,0.5774 8.652,1.72 8.352,2.836 7.91067,3.9013 7.33333,4.9 6.632,5.816 5.816,6.6307 4.9,7.3346 3.90134,7.9107 2.83466,8.352 1.72134,8.6507 0.57733,8.8013 -0.57733,8.8013 -1.72134,8.6507 -2.83466,8.3533 -3.90134,7.9107 -4.9,7.3333 -5.816,6.632 -6.632,5.816 -7.33333,4.9 -7.91067,3.9014 -8.352,2.8346 -8.652,1.7214 -8.80133,0.576 -8.80133,-0.576 -8.65067,-1.7214 -8.352,-2.8346 -7.910665,-3.9014 z"
       style="fill:#000000;stroke:#000000;stroke-width:1;stroke-linecap:butt;stroke-linejoin:miter;stroke-miterlimit:9.88377762;stroke-dasharray:none;stroke-opacity:1;fill-opacity:0.07843138"
       id="path3786" /><path
       d="m 1510.472,2569.1306 -5.816,-6.632 m 12.448,12.448 -6.632,-5.816 m 13.9653,10.716 -7.3333,-4.9 m 15.244,8.8014 -7.9107,-3.9014 m 16.2627,6.736 -8.352,-2.8346 m 17.0027,4.556 -8.6507,-1.7214 m 17.452,2.2974 -8.8013,-0.576 m 17.604,0 -8.8027,0.576 m 17.4533,-2.2974 -8.6506,1.7214 m 17.0026,-4.556 -8.352,2.8346 m 16.2627,-6.736 -7.9107,3.9014 m 15.2454,-8.8014 -7.3347,4.9 m 13.9653,-10.716 -6.6306,5.816 m 12.4466,-12.448 -5.816,6.632 m 10.716,-13.9653 -4.9,7.3333 m 8.8014,-15.244 -3.9014,7.9107 m 6.736,-16.264 -2.8346,8.3533 m 4.556,-17.004 -1.7214,8.6507 m 2.2987,-17.452 -0.5773,8.8013 m 0,-17.6026 0.5773,8.8013 m -2.2987,-17.452 1.7214,8.6507 m -4.556,-17.0027 2.8346,8.352 m -6.736,-16.2627 3.9014,7.9107 m -8.8014,-15.2453 4.9,7.3346 m -10.716,-13.9653 5.816,6.6307 m -12.4466,-12.4467 6.6306,5.816 m -13.9653,-10.716 7.3347,4.9 m -15.2454,-8.8013 7.9107,3.9013 m -16.2627,-6.7373 8.352,2.836 m -17.0026,-4.556 8.6506,1.72 m -17.4533,-2.2974 8.8027,0.5774 m -17.604,0 8.8013,-0.5774 m -17.452,2.2974 8.6507,-1.72 m -17.0027,4.556 8.352,-2.836 m -16.2627,6.7373 7.9107,-3.9013 m -15.244,8.8013 7.3333,-4.9 m -13.9653,10.716 6.632,-5.816 m -12.448,12.4467 5.816,-6.6307 m -10.716,13.9653 4.9,-7.3346 m -8.8013,15.2453 3.9013,-7.9107 m -6.736,16.2627 2.8347,-8.352 m -5.1334,25.804 0.5774,-8.8013 m 0,17.6026 -0.5774,-8.8013 m 2.2987,17.452 -1.7213,-8.6507 m 4.556,17.004 -2.8347,-8.3533 m 11.636,23.5973 -4.9,-7.3333 m -8.4573,-42.5173 1.7213,-8.6507 m 6.736,51.168 -3.9013,-7.9107 m 3.9013,7.9107 -3.9013,-7.9107 -2.8347,-8.3533 -1.7213,-8.6507 -0.5774,-8.8013 0.5774,-8.8013 1.7213,-8.6507 2.8347,-8.352 3.9013,-7.9107 4.9,-7.3346 5.816,-6.6307 6.632,-5.816 7.3333,-4.9 7.9107,-3.9013 8.352,-2.836 8.6507,-1.72 8.8013,-0.5774 8.8027,0.5774 8.6506,1.72 8.352,2.836 7.9107,3.9013 7.3347,4.9 6.6306,5.816 5.816,6.6307 4.9,7.3346 3.9014,7.9107 2.8346,8.352 1.7214,8.6507 0.5773,8.8013 -0.5773,8.8013 -1.7214,8.6507 -2.8346,8.3533 -3.9014,7.9107 -4.9,7.3333 -5.816,6.632 -6.6306,5.816 -7.3347,4.9 -7.9107,3.9014 -8.352,2.8346 -8.6506,1.7214 -8.8027,0.576 -8.8013,-0.576 -8.6507,-1.7214 -8.352,-2.8346 -7.9107,-3.9014 -7.3333,-4.9 -6.632,-5.816 -5.816,-6.632 z"
       style="fill:#000000;stroke:#000000;stroke-width:1;stroke-linecap:butt;stroke-linejoin:miter;stroke-miterlimit:9.88377762;stroke-dasharray:none;stroke-opacity:1;fill-opacity:0.07843138"
       id="path3882" /></g><g
     id="g1021"><path
       d="m 1208.3707,387.70534 4.96,14.61734 6.828,13.844 8.576,12.83333 10.1773,11.60533 11.604,10.17734 12.8347,8.576 13.844,6.82666 14.616,4.96134 15.14,3.01199 15.4026,1.00934 15.4027,-1.00934 15.1387,-3.01199 14.616,-4.96134 13.844,-6.82666 12.8346,-8.576 11.6054,-10.17734 10.1773,-11.60533 8.5747,-12.83333 6.828,-13.844 4.9613,-14.61734 3.0107,-15.13866 1.0106,-15.40267 -1.0106,-15.40267 -3.0107,-15.13866 -4.9613,-14.61733 -6.828,-13.84267 -8.5747,-12.83467 -10.1773,-11.60533 -11.6054,-10.17733 -12.8346,-8.576 -13.844,-6.82667 -14.616,-4.96133 -15.1387,-3.012 -15.4027,-1.00934 -15.4026,1.00934 -15.14,3.012 -14.616,4.96133 -13.844,6.82667 -12.8347,8.576 -11.604,10.17733 -10.1773,11.60533 -8.576,12.83467 -6.828,13.84267 -4.96,14.61733 -3.012,15.13866 -1.0093,15.40267 1.0093,15.40267 z m 113.9826,-172.14533 18.4827,1.21067 18.1667,3.61333 17.54,5.95467 16.612,8.192 15.4013,10.29067 13.9267,12.21333 12.2133,13.92667 10.2907,15.4 8.192,16.61333 5.9533,17.54 3.6147,18.16667 1.2106,18.48266 -1.2106,18.48267 -3.6147,18.168 -5.9533,17.53866 -8.192,16.61334 -10.2907,15.40133 -12.2133,13.92533 -13.9267,12.21334 -15.4013,10.29066 -16.612,8.192 -17.54,5.95467 -18.1667,3.61333 -18.4827,1.212 -18.484,-1.212 -18.1666,-3.61333 -17.54,-5.95467 -16.612,-8.192 -15.4014,-10.29066 -13.9266,-12.21334 -12.212,-13.92533 -10.2907,-15.40133 -8.1933,-16.61334 -5.9533,-17.53866 -3.6134,-18.168 -1.212,-18.48267 1.212,-18.48266 3.6134,-18.16667 5.9533,-17.54 8.1933,-16.61333 10.2907,-15.4 12.212,-13.92667 13.9266,-12.21333 15.4014,-10.29067 16.612,-8.192 17.54,-5.95467 18.1666,-3.61333 z"
       style="fill:#fef0d5;fill-opacity:1;stroke:#000000;stroke-width:1;stroke-linecap:butt;stroke-linejoin:miter;stroke-miterlimit:9.88377762;stroke-dasharray:none;stroke-opacity:1"
       id="path2882" /><path
       d="m 1371.584,324.65601 -55.9747,-46.968 m 0,0 v 65.016 m 0,28.92133 v 65.01467 m 0,-65.01467 -27.6626,23.212 m 27.6626,-52.13333 -27.6626,-23.21333 m 41.1493,52.13466 v 36.09334 m 0,-101.10933 v 36.09466 m -41.1493,52.13333 -8.6694,-10.33066 m 8.6694,-65.016 -8.6694,10.33067 m 49.8187,-23.212 21.508,18.04666 m 0,65.016 -21.508,18.04667 m -17.2333,-50.55467 -32.5854,27.34267 m 71.3267,-59.85067 -21.508,18.048 m -17.2333,14.46 -32.5854,-27.34266 m 71.3267,59.85066 -21.508,-18.04667 m 42.488,-46.96933 -38.7413,32.508 m 38.7413,32.508 -38.7413,-32.508 m 38.7413,32.508 -55.9747,46.968 m 55.9747,-46.968 -55.9747,46.968 v -65.01467 l -27.6626,23.212 -8.6694,-10.33066 32.5854,-27.34267 -32.5854,-27.34266 8.6694,-10.33067 27.6626,23.21333 v -65.016 l 55.9747,46.968 -38.7413,32.508 z m -20.98,0 -21.508,-18.04667 v 36.09334 z m -21.508,-46.968 21.508,-18.048 -21.508,-18.04666 z"
       style="fill:none;stroke:#000000;stroke-width:1;stroke-linecap:butt;stroke-linejoin:miter;stroke-miterlimit:9.88377762;stroke-dasharray:none;stroke-opacity:1"
       id="path3884" /></g><path
     id="path4036"
     style="fill:none;stroke:#000000;stroke-width:1;stroke-linecap:butt;stroke-linejoin:miter;stroke-miterlimit:9.88377762;stroke-dasharray:none;stroke-opacity:1"
     d="M 605.62803,478.52667 H 367.26004 M 605.62803,245.21601 v 233.31066 m -238.36799,0 V 245.21601 m 0,0 h 238.36799" /><g
     id="g1062"><path
       id="path66"
       style="fill:#fef0d5;fill-opacity:1;fill-rule:nonzero;stroke:#000000;stroke-width:1;stroke-miterlimit:9.88377762;stroke-dasharray:none;stroke-opacity:1"
       d="m 872.87069,2036.0613 28.98133,5.7653 27.98,9.4974 26.5,13.0693 24.56934,16.416 22.21604,19.4827 19.4813,22.2146 16.416,24.5694 13.0693,26.5 9.4974,27.9813 5.7653,28.98 1.932,29.4853 -1.932,29.484 -5.7653,28.9814 -9.4974,27.98 -13.0693,26.5013 -16.416,24.568 -19.4813,22.216 -22.21604,19.4827 -24.56934,16.416 -26.5,13.068 -27.98,9.4986 -28.98133,5.764 -29.48533,1.9334 -29.484,-1.9334 -28.98133,-5.764 -27.98,-9.4986 -26.5,-13.068 -24.56933,-16.416 -22.216,-19.4827 -19.48134,-22.216 -16.416,-24.568 -13.06933,-26.5013 -9.49866,-27.98 -5.764,-28.9814 -1.932,-29.484 1.932,-29.4853 5.764,-28.98 9.49866,-27.9813 13.06933,-26.5 16.416,-24.5694 19.48134,-22.2146 22.216,-19.4827 24.56933,-16.416 26.5,-13.0693 27.98,-9.4974 28.98133,-5.7653 29.484,-1.932 z m -152.63199,384.4507 22.00133,14.7013 23.732,11.7027 25.056,8.5053 25.95333,5.1627 26.404,1.7306 26.40533,-1.7306 25.952,-5.1627 25.05733,-8.5053 23.732,-11.7027 22.00134,-14.7013 19.89466,-17.4467 17.44798,-19.8947 14.7,-22.0026 11.704,-23.732 8.5054,-25.056 5.1626,-25.9534 1.7307,-26.404 -1.7307,-26.4053 -5.1626,-25.952 -8.5054,-25.0573 -11.704,-23.732 -14.7,-22.0014 -17.44798,-19.8946 -19.89466,-17.4467 -22.00134,-14.7013 -23.732,-11.704 -25.05733,-8.5054 -25.952,-5.1626 -26.40533,-1.7307 -26.404,1.7307 -25.95333,5.1626 -25.056,8.5054 -23.732,11.704 -22.00133,14.7013 -19.896,17.4467 -17.44667,19.8946 -14.7,22.0014 -11.704,23.732 -8.50533,25.0573 -5.16267,25.952 -1.73067,26.4053 1.73067,26.404 5.16267,25.9534 8.50533,25.056 11.704,23.732 14.7,22.0026 17.44667,19.8947 z" /><g
       style="fill:#000000;fill-opacity:0.07843138"
       transform="matrix(1.3333333,0,0,-1.3333333,-3440.6637,3965.4938)"
       id="g6812"><path
         id="path6458"
         style="fill:#000000;stroke:#000000;stroke-width:0.75;stroke-linecap:butt;stroke-linejoin:miter;stroke-miterlimit:9.88377762;stroke-dasharray:none;stroke-opacity:1;fill-opacity:0.07843138"
         d="m 3559.5168,1317.0334 37.9301,-37.93 -37.9301,-37.93 z m -178.5089,-15.816 -4.324,21.735 m 0,0 -7.123,20.986 m 0,0 -9.802,19.875 m 22.698,-84.71 -1.449,22.114 m 0,-44.227 1.449,22.113 m -5.773,-43.849 4.324,21.736 m -11.447,-42.721 7.123,20.985 m -16.925,-40.861 9.802,19.876 m 227.886,64.834 -37.9301,37.93 m 0,0 v -75.86 m 37.9301,37.93 -37.9301,-37.93 m 101.9331,82.182 5.12,-10.383 m 5.98,-45.421 -2.259,-11.354 m -3.721,56.775 3.721,-10.962 m 0,0 2.259,-11.355 m -53.877,70.214 10.383,-5.12 m 0,0 9.6249,-6.432 m 0,0 8.7041,-7.633 m 0,0 7.633,-8.703 m 0,0 6.432,-9.626 m -301.691,-128.962 9.802,19.876 m 0,0 7.123,20.985 m 0,0 4.324,21.736 m 0,0 1.449,22.113 m 236.216,-81.766 -10.962,-3.721 m 0,0 -11.355,-2.259 m 0,0 -11.5521,-0.757 m -227.5789,0 h 227.5789 m -227.5789,0 2.534,3.793 m 287.626,22.129 -8.7041,-7.633 m 0,0 -9.6249,-6.432 m -44.2521,165.149 11.5521,-0.757 m 76.194,-76.194 0.7569,-11.552 m 0,0 -0.7569,-11.552 m -43.494,-65.094 -10.383,-5.12 m 51.618,58.86 -3.721,-10.962 m -284.113,33.868 -1.449,22.114 m 0,0 -4.324,21.735 m 0,0 -7.123,20.986 m 0,0 -9.802,19.875 m 0,0 -2.534,3.793 m 239.131,-0.757 11.355,-2.258 m 0,0 10.962,-3.722 m -261.448,6.737 h 227.5789 m 81.7661,-122.371 -5.12,-10.383 m 0,0 -6.432,-9.626 m 0,0 -7.633,-8.704" /><path
         d="m 2866.5569,1241.1734 -37.93,37.93 37.93,37.93 z m 178.51,60.044 -1.449,-22.114 m 12.896,-64.834 9.802,-19.876 m -16.926,40.861 7.124,-20.985 m -11.447,42.721 4.323,-21.736 m -5.772,43.849 1.449,-22.113 m 4.323,65.962 -4.323,-21.735 m 11.447,42.721 -7.124,-20.986 m 16.926,40.861 -9.802,-19.875 m -227.887,-64.835 37.93,-37.93 m -37.93,37.93 37.93,37.93 m 0,-75.86 v 75.86 m -110.774,-60.836 -2.258,11.354 m 0,0 -0.757,11.552 m 0,0 0.757,11.552 m 87.746,-100.055 h 227.579 m 0,177.006 h -227.579 m 227.579,0 -2.534,-3.793 m -278.923,-154.924 -8.703,7.633 m 28.712,144.347 10.963,3.722 m -30.972,-15.274 9.626,6.432 m -18.329,-139.227 -7.633,8.704 m 0,0 -6.432,9.626 m 301.691,128.961 -9.802,-19.875 m -11.447,-86.948 4.323,-21.736 m 7.124,108.684 -7.124,-20.986 m -278.333,10.029 7.633,8.703 m 0,0 8.703,7.633 m 9.626,6.432 10.383,5.12 m 241.988,-125.615 7.124,-20.985 m 0,0 9.802,-19.876 m 0,0 2.534,-3.793 m -227.579,0 -11.552,0.757 m 0,0 -11.354,2.259 m 0,0 -10.963,3.721 m 0,0 -10.383,5.12 m 0,0 -9.626,6.432 m 261.997,114.063 -4.323,-21.735 m 0,0 -1.449,-22.114 m 0,0 1.449,-22.113 m -291.542,33.665 2.258,11.355 m 0,0 3.722,10.962 m 0,0 5.12,10.383 m 0,0 6.432,9.626 m 47.308,31.61 11.354,2.258 m 0,0 11.552,0.757 m -76.646,-132.754 -5.12,10.383 m 0,0 -3.722,10.962"
         style="fill:#000000;fill-opacity:0.07843138;stroke:#000000;stroke-width:0.75;stroke-linecap:butt;stroke-linejoin:miter;stroke-miterlimit:9.88377762;stroke-dasharray:none;stroke-opacity:1"
         id="path6456" /></g></g><g
     style="fill:#000000;fill-opacity:0.07843138"
     transform="matrix(8.321129,0,0,8.321129,-2543.4245,-255.08974)"
     id="g1089"><path
       style="fill:#000000;fill-opacity:0.07843138;stroke-width:0.09936075"
       d="m 377.04111,68.05362 a 0.71410567,0.71410567 0 0 0 -0.7147,0.716494 0.71261526,0.71261526 0 0 0 0.7147,0.714006 c 0.39685,0 0.7165,-0.317957 0.7165,-0.714006 a 0.71499994,0.71499994 0 0 0 -0.7165,-0.716494 m 0,0.141391 c 0.31786,0 0.57679,0.257047 0.57679,0.575103 0,0.316267 -0.25873,0.574998 -0.57679,0.574998 -0.31706,0 -0.57251,-0.258731 -0.57251,-0.574998 0,-0.317957 0.25535,-0.575103 0.57251,-0.575103 z m 0.36427,0.947803 -0.0857,-0.149041 c -0.0745,-0.131057 -0.0959,-0.150828 -0.15859,-0.173979 v -0.0035 c 0.12521,-0.01449 0.19993,-0.09598 0.19993,-0.207468 0,-0.117342 -0.0747,-0.206469 -0.23391,-0.206469 h -0.36852 v 0.740434 h 0.15242 v -0.303348 h 0.0273 c 0.0652,0 0.0918,0.0069 0.12182,0.03684 0.0292,0.03004 0.0746,0.09251 0.10125,0.145667 l 0.0592,0.120821 z m -0.49463,-0.42238 v -0.202299 h 0.13712 c 0.10137,0 0.15431,0.03514 0.15431,0.100346 0,0.05216 -0.0333,0.101843 -0.13622,0.101843 z m -3.56525,3.426257 c -0.031,0.762788 -1.14831,3.812867 -1.54516,4.485541 -0.1721,0.292219 -0.36585,0.533068 -0.7155,0.532177 -0.30504,0 -0.44057,-0.21601 -0.44912,-0.462726 -0.0226,-0.688274 1.24083,-4.138474 1.67285,-4.699861 0.19196,-0.295797 0.40618,-0.343588 0.65131,-0.340215 0.35849,0.0041 0.39416,0.263208 0.38562,0.485084 m 2.0363,1.245285 c -0.25368,1.26407 -0.8244,2.759349 -1.44501,3.873582 -1.01129,1.818599 -2.23929,2.07296 -3.31129,2.060146 -1.07122,-0.01285 -2.28143,-0.408675 -2.28997,-2.062832 -0.007,-1.187855 0.50554,-2.864173 0.94115,-3.962905 0.75751,-1.992579 1.53223,-3.61643 3.98148,-3.587318 2.85572,0.03356 2.3467,2.573742 2.12364,3.679327 z m -9.06777,-1.7715 c -0.41394,0 -0.684,0.261417 -0.8853,0.544197 -0.44226,0.621304 -1.40208,3.112577 -1.55112,4.135892 -0.10114,0.701187 0.20071,0.843275 0.53208,0.843275 0.53059,0 1.12526,-0.561287 1.32834,-1.48773 0,0 -1.01049,-0.02493 -0.73179,-0.920675 0.26997,-0.869804 0.78426,-1.0575 1.63519,-1.092671 1.67711,-0.06846 1.51097,1.169773 1.37713,1.829728 -0.43559,2.144305 -1.96168,3.866823 -4.12068,3.866823 -1.47789,0 -2.39479,-0.818334 -2.39479,-2.324844 0,-1.073194 0.53267,-2.758852 0.95454,-3.745106 0.89863,-2.099688 1.84136,-3.569436 4.24272,-3.569436 1.44053,0 2.57712,0.517574 2.40989,1.867387 -0.12171,0.990725 -0.61712,1.572581 -1.51754,1.64283 -0.25208,0.01959 -1.28293,-0.0069 -0.94104,-0.982082 0.11893,-0.34021 0.16861,-0.607588 -0.33763,-0.607588 z m -7.51306,3.712715 c -0.0993,0.26807 -0.28616,0.827774 -0.43699,1.421751 0.48975,-0.121719 0.85738,-0.208159 1.48733,-0.191968 0.71818,0.01708 1.17713,0.31547 1.17713,0.908455 0,1.438848 -1.59018,1.861427 -2.69358,1.861427 -1.2118,0 -2.27536,-0.689964 -2.27536,-2.014144 0,-1.553802 0.84159,-3.907956 1.63131,-5.476266 0.97056,-1.926607 1.96218,-2.182857 3.6693,-2.182857 0.75037,0 1.61461,0.320638 1.61461,1.028484 0,0.982182 -0.83175,1.356572 -1.65704,1.404662 -0.35184,0.01965 -0.89385,0.03937 -1.21777,0.01631 0,0 -0.27473,0.419099 -0.56695,1.163812 1.52767,-0.215117 2.17561,0.13205 1.91756,1.015564 -0.34845,1.192924 -1.3833,1.27182 -2.64955,1.044782 z m -4.8652,1.380413 c 1.49418,-0.259528 1.87007,0.281196 1.82247,0.779984 -0.1401,1.497961 -1.51435,1.832216 -2.70728,1.804789 -0.86513,-0.02059 -1.64293,-0.416319 -1.66469,-1.42086 -0.0376,-1.756892 1.75432,-5.821644 2.59838,-7.168775 0.3891,-0.640085 0.86385,-0.955553 1.62097,-0.955553 0.71689,0 0.89514,0.367636 0.88442,0.808994 -0.0278,1.176532 -1.93039,4.753718 -2.55427,6.151421 z m 19.21279,-7.892918 c -1.54257,0 -2.60871,0.611865 -3.33037,1.465471 -0.12172,-0.255258 -0.21521,-0.367531 -0.34548,-0.515087 -0.5905,-0.6676 -1.54099,-0.979596 -2.81529,-0.979596 -1.24509,0 -2.28321,0.389098 -3.00367,1.001854 -0.37449,-0.608485 -1.26626,-1.012184 -2.34224,-1.012184 -1.40585,0 -2.937,0.199711 -3.84615,1.663498 -0.0211,-0.527213 -0.0694,-0.805621 -0.36594,-1.120099 -0.35999,-0.380549 -0.94275,-0.480807 -1.51049,-0.480807 -1.03484,0 -1.81303,0.451696 -2.37313,1.372277 -0.81237,1.298244 -2.78269,5.569665 -2.73768,7.637561 0.0278,1.336895 0.92475,2.299407 2.52903,2.337065 1.25383,0.02998 2.23681,-0.305138 2.86238,-0.935881 0.56099,0.608484 1.41748,0.966681 2.44168,0.966681 1.14057,0 2.28948,-0.341799 2.96782,-1.090881 0.57162,0.700986 1.47014,1.108963 2.6258,1.103601 1.51178,-0.0067 2.83834,-0.723153 3.70586,-1.821978 0.47465,1.294864 1.68138,1.809158 2.9995,1.809158 2.88803,0 4.15547,-1.984827 5.21227,-5.124926 0.23816,-0.707946 0.55553,-1.887956 0.60858,-2.87938 0.0872,-1.650579 -0.61117,-3.396347 -3.28248,-3.396347 z"
       id="path1074" /></g></svg>