<?xml version="1.0" encoding="UTF-8"?>
<svg width="55mm" height="23mm" version="1.1" viewBox="0 0 207.9 86.93" xml:space="preserve" xmlns="http://www.w3.org/2000/svg"><g fill-rule="evenodd"><path d="m0.249 0.249v86.43h207.4v-86.43zm43.54 19.41c13.33 0 24.07 10.7 24.07 23.99 0 13.29-10.74 23.99-24.07 23.99-13.33 0-24.07-10.7-24.07-23.99 0-13.29 10.73-23.99 24.07-23.99zm120.3 0c13.33 0 24.07 10.7 24.07 23.99 0 13.29-10.73 23.99-24.07 23.99-13.33 0-24.07-10.7-24.07-23.99 0-13.29 10.74-23.99 24.07-23.99z" fill="#fff" opacity=".99" stroke="#000" stroke-linecap="square" stroke-linejoin="round" stroke-miterlimit="9.884" stroke-width=".498"/><path transform="scale(1)" d="m43.64 14.91c-0.02618 0-0.05196 0.001884-0.07812 0.001954h-0.3418v0.007812c-15.72 0.2238-28.31 12.94-28.31 28.72 0 15.92 12.81 28.73 28.73 28.73 10.92 0 20.38-6.036 25.24-14.96h0.007812c0.8848-1.655 3.641-2.855 6.926-2.855h56.22c3.284 0 6.041 1.2 6.926 2.855h0.01172c4.862 8.929 14.32 14.96 25.24 14.96 15.92 0 28.73-12.81 28.73-28.73 0-15.92-12.81-28.73-28.73-28.73-0.09108 0-0.1806 0.005022-0.2715 0.00586v-0.003906h-120.2c-0.0262-7e-5 -0.05191-0.001954-0.07812-0.001954zm0 4.604c13.37 0 24.12 10.76 24.12 24.13s-10.76 24.12-24.12 24.12-24.13-10.76-24.13-24.12 10.76-24.13 24.13-24.13zm120.6 0c13.37 0 24.12 10.76 24.12 24.13s-10.76 24.12-24.12 24.12c-13.37 0-24.13-10.76-24.13-24.12s10.76-24.13 24.13-24.13z" opacity=".99" stroke-width="2.6"/><rect x="26.15" y="26.15" width="34.99" height="34.99" rx="17.5" ry="17.5" fill="#808080" opacity=".99" stroke-width="1.583"/></g><g fill="#fff" fill-rule="evenodd" stroke="#000" stroke-linecap="square" stroke-linejoin="round" stroke-miterlimit="9.884" stroke-width=".5"><path d="m207.5 1.399h-207.1" opacity=".99"/><path d="m207.5 2.53h-207.1" opacity=".99"/><path d="m207.5 4.036h-207.1" opacity=".99"/><path d="m207.5 5.92h-207.1" opacity=".99"/><path d="m207.5 85.41h-207.1" opacity=".99"/><path d="m207.5 84.28h-207.1" opacity=".99"/><path d="m207.5 82.77h-207.1" opacity=".99"/><path d="m207.5 80.89h-207.1" opacity=".99"/></g><path d="m118.9 50.11h-29.92v-29.28h29.92z" fill="none" stroke="#808080" stroke-miterlimit="9.884" stroke-width=".5"/><path d="m117.8 29.1a0.7457 0.7457 0 0 0-0.7464 0.7482 0.7442 0.7442 0 0 0 0.7464 0.7456c0.4144 0 0.7482-0.3321 0.7482-0.7456a0.7467 0.7467 0 0 0-0.7482-0.7482m0 0.1477c0.332 0 0.6023 0.2684 0.6023 0.6006 0 0.3303-0.2702 0.6005-0.6023 0.6005-0.3311 0-0.5979-0.2702-0.5979-0.6005 0-0.3321 0.2667-0.6006 0.5979-0.6006zm0.3804 0.9898-0.0895-0.1556c-0.0778-0.1369-0.1001-0.1575-0.1656-0.1817v-4e-3c0.1307-0.0151 0.2088-0.1002 0.2088-0.2167 0-0.1225-0.078-0.2156-0.2443-0.2156h-0.3848v0.7732h0.1591v-0.3168h0.0285c0.0681 0 0.0959 7e-3 0.1272 0.0385 0.0305 0.0314 0.0779 0.0966 0.1057 0.1522l0.0618 0.1262zm-0.5165-0.4411v-0.2113h0.1432c0.1059 0 0.1611 0.0367 0.1611 0.1048 0 0.0545-0.0348 0.1063-0.1422 0.1063zm-3.723 3.578c-0.0324 0.7966-1.199 3.982-1.613 4.685-0.1797 0.3051-0.382 0.5567-0.7472 0.5558-0.3185 0-0.4601-0.2256-0.469-0.4832-0.0236-0.7188 1.296-4.321 1.747-4.908 0.2005-0.3089 0.4242-0.3588 0.6801-0.3553 0.3744 4e-3 0.4117 0.2749 0.4027 0.5066m2.126 1.3c-0.2649 1.32-0.8609 2.881-1.509 4.046-1.056 1.9-2.338 2.165-3.458 2.151-1.118-0.0134-2.382-0.4268-2.391-2.154-7e-3 -1.241 0.5279-2.991 0.9829-4.139 0.791-2.081 1.6-3.776 4.158-3.746 2.982 0.035 2.451 2.688 2.218 3.842zm-9.47-1.85c-0.4322 0-0.7143 0.273-0.9245 0.5683-0.4619 0.6488-1.464 3.251-1.62 4.319-0.1056 0.7323 0.2096 0.8806 0.5557 0.8806 0.5541 0 1.175-0.5862 1.387-1.554 0 0-1.055-0.026-0.7642-0.9615 0.282-0.9083 0.819-1.105 1.707-1.141 1.751-0.0715 1.578 1.222 1.438 1.911-0.4549 2.239-2.049 4.038-4.304 4.038-1.543 0-2.501-0.8545-2.501-2.428 0-1.121 0.5563-2.881 0.9968-3.911 0.9384-2.193 1.923-3.727 4.431-3.727 1.504 0 2.691 0.5405 2.517 1.95-0.1271 1.035-0.6444 1.643-1.585 1.716-0.2633 0.0205-1.34-7e-3 -0.9827-1.026 0.1242-0.3553 0.1761-0.6345-0.3526-0.6345zm-7.846 3.877c-0.1037 0.28-0.2989 0.8645-0.4564 1.485 0.5115-0.1271 0.8954-0.2174 1.553-0.2005 0.75 0.0178 1.229 0.3295 1.229 0.9487 0 1.503-1.66 1.943-2.813 1.943-1.266 0-2.376-0.7206-2.376-2.103 0-1.623 0.8789-4.081 1.703-5.719 1.014-2.012 2.049-2.28 3.831-2.28 0.7836 0 1.687 0.3348 1.687 1.074 0 1.026-0.8686 1.417-1.73 1.467-0.3674 0.0205-0.9334 0.0411-1.272 0.017 0 0-0.2869 0.4377-0.5921 1.216 1.596-0.2246 2.272 0.1378 2.003 1.061-0.3638 1.246-1.444 1.328-2.767 1.091zm-5.08 1.441c1.56-0.271 1.953 0.2937 1.903 0.8145-0.1463 1.564-1.581 1.913-2.827 1.885-0.9034-0.0215-1.716-0.4347-1.739-1.484-0.03927-1.835 1.832-6.08 2.713-7.486 0.4063-0.6684 0.9021-0.9979 1.693-0.9979 0.7486 0 0.9347 0.3839 0.9236 0.8448-0.029 1.228-2.015 4.965-2.667 6.423zm20.06-8.243c-1.611 0-2.725 0.639-3.477 1.531-0.1271-0.2666-0.2247-0.3838-0.3608-0.5379-0.6166-0.6972-1.609-1.023-2.94-1.023-1.3 0-2.384 0.4063-3.137 1.046-0.3911-0.6354-1.322-1.057-2.446-1.057-1.468 0-3.067 0.2085-4.016 1.738-0.022-0.5505-0.0725-0.8413-0.3821-1.17-0.3759-0.3975-0.9846-0.5021-1.577-0.5021-1.081 0-1.893 0.4717-2.478 1.433-0.8484 1.355-2.906 5.817-2.859 7.976 0.02903 1.396 0.9658 2.401 2.641 2.44 1.31 0.0313 2.336-0.3186 2.989-0.9773 0.5858 0.6354 1.481 1.01 2.55 1.01 1.192 0 2.391-0.3569 3.099-1.139 0.5969 0.732 1.535 1.158 2.742 1.153 1.579-7e-3 2.964-0.7552 3.87-1.903 0.4956 1.352 1.755 1.889 3.133 1.889 3.016 0 4.34-2.073 5.443-5.352 0.2487-0.7394 0.5801-1.972 0.6356-3.006 0.0911-1.724-0.6383-3.546-3.427-3.546z" fill="#808080" fill-opacity=".5436" stroke-miterlimit="9.884" stroke-width=".5"/><rect x="146.7" y="26.15" width="34.99" height="34.99" rx="17.5" ry="17.5" fill="#808080" fill-rule="evenodd" opacity=".99" stroke-width="1.583"/></svg>
