<?xml version="1.0" encoding="UTF-8"?>
<svg width="23mm" height="23mm" version="1.1" viewBox="0 0 86.93 86.93" xml:space="preserve" xmlns="http://www.w3.org/2000/svg"><path d="m0.25 0.25v86.43h86.43v-86.43z" fill="#fff" fill-rule="evenodd" opacity=".99" stroke="#000" stroke-linecap="square" stroke-linejoin="round" stroke-miterlimit="9.884" stroke-width=".5"/><rect x="25.89" y="-1.388e-17" width="4.574" height="25.48" rx="0" fill-opacity=".502" fill-rule="evenodd" opacity=".99"/><path transform="scale(1)" d="m25.65 1.262-25.4 1e-7" fill="none" opacity=".99" stroke="#000" stroke-linecap="square" stroke-linejoin="round" stroke-miterlimit="9.884" stroke-width=".5"/><path transform="scale(1)" d="m56.21 1.262h-25.52" fill="none" opacity=".99" stroke="#000" stroke-linecap="square" stroke-linejoin="round" stroke-miterlimit="9.884" stroke-width=".5"/><rect x="56.46" y="-1.11e-16" width="4.574" height="25.48" rx="0" fill-opacity=".502" fill-rule="evenodd" opacity=".99"/><g fill="none" stroke="#000" stroke-linecap="square" stroke-linejoin="round" stroke-miterlimit="9.884" stroke-width=".5"><path transform="scale(1)" d="m86.68 1.262h-25.4" opacity=".99"/><path transform="scale(1)" d="m25.65 2.396h-25.4" opacity=".99"/><path transform="scale(1)" d="m56.21 2.396-25.52-1e-7" opacity=".99"/><path transform="scale(1)" d="m86.68 2.396h-25.4" opacity=".99"/><path transform="scale(1)" d="m25.65 3.907-25.4 1e-7" opacity=".99"/><path transform="scale(1)" d="m56.21 3.907-25.52-1e-7" opacity=".99"/><path transform="scale(1)" d="m86.68 3.907h-25.4" opacity=".99"/><path transform="scale(1)" d="m25.65 5.797-25.4 2e-7" opacity=".99"/><path transform="scale(1)" d="m56.21 5.797-25.52-2e-7" opacity=".99"/><path transform="scale(1)" d="m86.68 5.797h-25.4" opacity=".99"/></g><g fill-rule="evenodd"><rect x="15.24" y="36.6" width="56.45" height="13.72" fill="#404040" opacity=".99"/><ellipse cx="43.46" cy="43.46" rx="14.55" ry="14.61" fill="#202020" opacity=".99"/><circle cx="43.46" cy="43.46" r="10.27" fill="#404040" opacity=".99"/><path d="m43.46 33.2a10.27 10.27 0 0 0-4.189 0.9082v5.17h-5.176a10.27 10.27 0 0 0-0.9023 4.189 10.27 10.27 0 0 0 0.9082 4.189h5.17v5.176a10.27 10.27 0 0 0 4.189 0.9023 10.27 10.27 0 0 0 4.189-0.9082v-5.17h5.176a10.27 10.27 0 0 0 0.9023-4.189 10.27 10.27 0 0 0-0.9082-4.189h-5.17v-5.176a10.27 10.27 0 0 0-4.189-0.9023z" opacity=".99"/></g><g transform="matrix(1 0 0 -1 1.757e-6 86.63)"><rect x="25.89" y="-1.388e-17" width="4.574" height="25.48" rx="0" fill-opacity=".502" fill-rule="evenodd" opacity=".99"/><path transform="scale(1)" d="m25.65 1.262-25.4 1e-7" fill="none" opacity=".99" stroke="#000" stroke-linecap="square" stroke-linejoin="round" stroke-miterlimit="9.884" stroke-width=".5"/><path transform="scale(1)" d="m56.21 1.262h-25.52" fill="none" opacity=".99" stroke="#000" stroke-linecap="square" stroke-linejoin="round" stroke-miterlimit="9.884" stroke-width=".5"/><rect x="56.46" y="-1.11e-16" width="4.574" height="25.48" rx="0" fill-opacity=".502" fill-rule="evenodd" opacity=".99"/><g fill="none" stroke="#000" stroke-linecap="square" stroke-linejoin="round" stroke-miterlimit="9.884" stroke-width=".5"><path transform="scale(1)" d="m86.68 1.262h-25.4" opacity=".99"/><path transform="scale(1)" d="m25.65 2.396h-25.4" opacity=".99"/><path transform="scale(1)" d="m56.21 2.396-25.52-1e-7" opacity=".99"/><path transform="scale(1)" d="m86.68 2.396h-25.4" opacity=".99"/><path transform="scale(1)" d="m25.65 3.907-25.4 1e-7" opacity=".99"/><path transform="scale(1)" d="m56.21 3.907-25.52-1e-7" opacity=".99"/><path transform="scale(1)" d="m86.68 3.907h-25.4" opacity=".99"/><path transform="scale(1)" d="m25.65 5.797-25.4 2e-7" opacity=".99"/><path transform="scale(1)" d="m56.21 5.797-25.52-2e-7" opacity=".99"/><path transform="scale(1)" d="m86.68 5.797h-25.4" opacity=".99"/></g></g></svg>
