<?xml version="1.0" encoding="UTF-8"?>
<svg width="23mm" height="23mm" version="1.1" viewBox="0 0 86.93 86.93" xml:space="preserve" xmlns="http://www.w3.org/2000/svg"><g fill-rule="evenodd"><path d="m0.25 0.25v86.43h86.43v-86.43z" fill="#fff" opacity=".99" stroke="#000" stroke-linecap="square" stroke-linejoin="round" stroke-miterlimit="9.884" stroke-width=".5"/><rect x="25.89" y="-1.388e-17" width="4.574" height="25.48" rx="0" fill-opacity=".502" opacity=".99"/><path d="m86.68 1.262h-86.43" fill="#fff" opacity=".99" stroke="#000" stroke-linecap="square" stroke-linejoin="round" stroke-miterlimit="9.884" stroke-width=".5"/><rect x="56.46" y="-1.11e-16" width="4.574" height="25.48" rx="0" fill-opacity=".502" opacity=".99"/><path d="m86.68 2.396h-86.43" fill="#fff" opacity=".99" stroke="#000" stroke-linecap="square" stroke-linejoin="round" stroke-miterlimit="9.884" stroke-width=".5"/><rect x="25.89" y="61.45" width="4.574" height="25.48" rx="0" fill-opacity=".502" opacity=".99"/><path d="m86.68 3.907h-86.43" fill="#fff" opacity=".99" stroke="#000" stroke-linecap="square" stroke-linejoin="round" stroke-miterlimit="9.884" stroke-width=".5"/><rect x="56.46" y="61.45" width="4.574" height="25.48" rx="0" fill-opacity=".502" opacity=".99"/></g><g fill="#fff" fill-rule="evenodd" stroke="#000" stroke-linecap="square" stroke-linejoin="round" stroke-miterlimit="9.884" stroke-width=".5"><path d="m86.68 5.797h-86.43" opacity=".99"/><path d="m86.68 85.55h-86.43" opacity=".99"/><path d="m86.68 84.41h-86.43" opacity=".99"/><path d="m86.68 82.9h-86.43" opacity=".99"/><path d="m86.68 81.01h-86.43" opacity=".99"/></g><g fill-rule="evenodd"><rect x="15.24" y="36.6" width="56.45" height="13.72" fill="#404040" opacity=".99"/><ellipse cx="43.46" cy="43.46" rx="14.55" ry="14.61" fill="#202020" opacity=".99"/><circle cx="43.46" cy="43.46" r="10.27" fill="#404040" opacity=".99"/><path transform="scale(1)" d="m43.46 33.2a10.27 10.27 0 0 0-4.189 0.9082v5.17h-5.176a10.27 10.27 0 0 0-0.9023 4.189 10.27 10.27 0 0 0 0.9082 4.189h5.17v5.176a10.27 10.27 0 0 0 4.189 0.9023 10.27 10.27 0 0 0 4.189-0.9082v-5.17h5.176a10.27 10.27 0 0 0 0.9023-4.189 10.27 10.27 0 0 0-0.9082-4.189h-5.17v-5.176a10.27 10.27 0 0 0-4.189-0.9023z" opacity=".99"/></g></svg>
