<?xml version="1.0" encoding="UTF-8"?>
<svg width="23mm" height="23mm" version="1.1" viewBox="0 0 86.93 86.93" xml:space="preserve" xmlns="http://www.w3.org/2000/svg"><g fill-rule="evenodd"><path d="m0.25 0.25v86.43h86.43v-86.43zm25.28 13.15h35.86c6.721 0 12.13 5.41 12.13 12.13v35.86c0 6.721-5.41 12.13-12.13 12.13h-35.86c-6.721 0-12.13-5.41-12.13-12.13v-35.86c0-6.721 5.41-12.13 12.13-12.13z" fill="#fff" opacity=".99" stroke="#000" stroke-linecap="square" stroke-linejoin="round" stroke-miterlimit="9.884" stroke-width=".5"/><path d="m25.53 13.4c-6.721 0-12.13 5.41-12.13 12.13v35.86c0 6.721 5.41 12.13 12.13 12.13h35.86c6.721 0 12.13-5.41 12.13-12.13v-35.86c0-6.721-5.41-12.13-12.13-12.13zm17.93 7.678c12.4 0 22.38 9.983 22.38 22.38 0 12.4-9.982 22.38-22.38 22.38s-22.38-9.982-22.38-22.38c0-12.4 9.983-22.38 22.38-22.38z" opacity=".99"/><path d="m43.47 27.24c-8.988 0-16.23 7.238-16.23 16.23 0 8.988 7.238 16.22 16.23 16.22 8.988 0 16.22-7.236 16.22-16.22 0-8.988-7.236-16.23-16.22-16.23z" fill="#404040" opacity=".99"/><rect x="30.58" y="30.58" width="25.76" height="25.76" rx="12.88" ry="12.88" opacity=".99"/><rect x="32.41" y="32.41" width="22.1" height="22.1" rx="11.05" ry="11.05" fill="#dedede" opacity=".99"/></g><g fill="#fff" fill-rule="evenodd" stroke="#000" stroke-linecap="square" stroke-linejoin="round" stroke-miterlimit="9.884" stroke-width=".5"><path d="m86.68 1.262h-86.43" opacity=".99"/><path d="m86.68 2.396h-86.43" opacity=".99"/><path d="m86.68 3.907h-86.43" opacity=".99"/><path d="m86.68 5.797h-86.43" opacity=".99"/><path d="m86.68 85.55h-86.43" opacity=".99"/><path d="m86.68 84.41h-86.43" opacity=".99"/><path d="m86.68 82.9h-86.43" opacity=".99"/><path d="m86.68 81.01h-86.43" opacity=".99"/></g></svg>
