<?xml version="1.0" encoding="UTF-8" standalone="no"?>
<svg
   xmlns:dc="http://purl.org/dc/elements/1.1/"
   xmlns:cc="http://creativecommons.org/ns#"
   xmlns:rdf="http://www.w3.org/1999/02/22-rdf-syntax-ns#"
   xmlns:svg="http://www.w3.org/2000/svg"
   xmlns="http://www.w3.org/2000/svg"
   id="svg8"
   version="1.1"
   viewBox="0 0 793.94427 264.64807"
   height="264.64807mm"
   width="793.94427mm">
  <defs
     id="defs2" />
  <metadata
     id="metadata5">
    <rdf:RDF>
      <cc:Work
         rdf:about="">
        <dc:format>image/svg+xml</dc:format>
        <dc:type
           rdf:resource="http://purl.org/dc/dcmitype/StillImage" />
        <dc:title></dc:title>
      </cc:Work>
    </rdf:RDF>
  </metadata>
  <g
     transform="translate(-148.89024,16.752614)"
     id="layer1">
    <g
       style="stroke:#000000;stroke-miterlimit:9.88399982"
       transform="matrix(0.16613188,0,0,0.16613188,148.89024,-16.752697)"
       stroke-miterlimit="9.884"
       id="g976">
      <rect
         style="opacity:0.98999999;fill:#028d7a;fill-rule:evenodd;stroke:none"
         transform="scale(-1,1)"
         x="-1593"
         y="0.00050149998"
         width="1593"
         height="1593"
         id="rect916" />
      <g
         style="fill:#ffffff;fill-opacity:0.25100002"
         id="g940">
        <path
           style="fill:#ffffff;fill-opacity:0.25100002"
           d="m 394.8,1189 1.977,0.976 1.835,1.225 1.657,1.453 1.453,1.657 1.227,1.835 0.9747,1.977 0.708,2.088 0.4307,2.163 0.144,2.2 v 182.1 l -0.144,2.2 -0.4307,2.163 -0.708,2.088 -0.9747,1.977 -1.227,1.835 -1.453,1.657 -1.657,1.453 -1.835,1.225 -1.977,0.9747 -2.088,0.7093 -2.161,0.4307 -2.201,0.144 h -182.1 l -2.201,-0.144 -2.163,-0.4307 -2.088,-0.7093 -1.977,-0.9747 -1.833,-1.225 -1.659,-1.453 -1.453,-1.657 -1.225,-1.835 -0.9747,-1.977 -0.7093,-2.088 -0.4307,-2.163 -0.144,-2.2 v -182.1 l 0.144,-2.2 0.4307,-2.163 0.7093,-2.088 0.9747,-1.977 1.225,-1.835 1.453,-1.657 1.659,-1.453 1.833,-1.225 1.977,-0.976 2.088,-0.708 2.163,-0.4307 2.201,-0.144 h 182.1 l 2.201,0.144 2.161,0.4307 z"
           id="path918" />
        <path
           d="m 1143,1189 1.977,0.976 1.835,1.225 1.657,1.453 1.453,1.657 1.225,1.835 0.9747,1.977 0.7093,2.088 0.4307,2.163 0.144,2.2 v 182.1 l -0.144,2.2 -0.4307,2.163 -0.7093,2.088 -0.9747,1.977 -1.225,1.835 -1.453,1.657 -1.657,1.453 -1.835,1.225 -1.977,0.9747 -2.088,0.7093 -2.163,0.4307 -2.2,0.144 h -182.1 l -2.2,-0.144 -2.163,-0.4307 -2.088,-0.7093 -1.977,-0.9747 -1.833,-1.225 -1.659,-1.453 -1.453,-1.657 -1.225,-1.835 -0.976,-1.977 -0.708,-2.088 -0.4307,-2.163 -0.144,-2.2 v -182.1 l 0.144,-2.2 0.4307,-2.163 0.708,-2.088 0.976,-1.977 1.225,-1.835 1.453,-1.657 1.659,-1.453 1.833,-1.225 1.977,-0.976 2.088,-0.708 2.163,-0.4307 2.2,-0.144 h 182.1 l 2.2,0.144 2.163,0.4307 z"
           id="path920" />
        <g
           style="fill:#ffffff"
           id="g938">
          <g
             style="fill-opacity:0.25100002"
             id="g930">
            <path
               d="m 1393,1189 1.977,0.976 1.833,1.225 1.659,1.453 1.453,1.657 1.225,1.835 0.9747,1.977 0.7093,2.088 0.4307,2.163 0.144,2.2 v 182.1 l -0.144,2.2 -0.4307,2.163 -0.7093,2.088 -0.9747,1.977 -1.225,1.835 -1.453,1.657 -1.659,1.453 -1.833,1.225 -1.977,0.9747 -2.088,0.7093 -2.163,0.4307 -2.201,0.144 h -182.1 l -2.2,-0.144 -2.163,-0.4307 -2.088,-0.7093 -1.979,-0.9747 -1.833,-1.225 -1.657,-1.453 -1.455,-1.657 -1.224,-1.835 -0.976,-1.977 -0.7093,-2.088 -0.4294,-2.163 -0.144,-2.2 v -182.1 l 0.144,-2.2 0.4294,-2.163 0.7093,-2.088 0.976,-1.977 1.224,-1.835 1.455,-1.657 1.657,-1.453 1.833,-1.225 1.979,-0.976 2.088,-0.708 2.163,-0.4307 2.2,-0.144 h 182.1 l 2.201,0.144 2.163,0.4307 z"
               id="path922" />
            <path
               d="m 1393,190.8 1.977,0.976 1.833,1.224 1.659,1.455 1.453,1.657 1.225,1.833 0.9747,1.979 0.7093,2.088 0.4307,2.163 0.144,2.2 v 182.1 l -0.144,2.2 -0.4307,2.163 -0.7093,2.088 -0.9747,1.977 -1.225,1.833 -1.453,1.659 -1.659,1.453 -1.833,1.225 -1.977,0.9747 -2.088,0.7093 -2.163,0.4307 -2.201,0.144 h -182.1 l -2.2,-0.144 -2.163,-0.4307 -2.088,-0.7093 -1.979,-0.9747 -1.833,-1.225 -1.657,-1.453 -1.455,-1.659 -1.224,-1.833 -0.976,-1.977 -0.7093,-2.088 -0.4294,-2.163 -0.144,-2.2 v -182.1 l 0.144,-2.2 0.4294,-2.163 0.7093,-2.088 0.976,-1.979 1.224,-1.833 1.455,-1.657 1.657,-1.455 1.833,-1.224 1.979,-0.976 2.088,-0.7093 2.163,-0.4293 2.2,-0.144 h 182.1 l 2.201,0.144 2.163,0.4293 z"
               id="path924" />
            <path
               d="m 394.8,190.8 1.977,0.976 1.835,1.224 1.657,1.455 1.453,1.657 1.227,1.833 0.9747,1.979 0.708,2.088 0.4307,2.163 0.144,2.2 v 182.1 l -0.144,2.2 -0.4307,2.163 -0.708,2.088 -0.9747,1.977 -1.227,1.833 -1.453,1.659 -1.657,1.453 -1.835,1.225 -1.977,0.9747 -2.088,0.7093 -2.161,0.4307 -2.201,0.144 h -182.1 l -2.201,-0.144 -2.163,-0.4307 -2.088,-0.7093 -1.977,-0.9747 -1.833,-1.225 -1.659,-1.453 -1.453,-1.659 -1.225,-1.833 -0.9747,-1.977 -0.7093,-2.088 -0.4307,-2.163 -0.144,-2.2 v -182.1 l 0.144,-2.2 0.4307,-2.163 0.7093,-2.088 0.9747,-1.979 1.225,-1.833 1.453,-1.657 1.659,-1.455 1.833,-1.224 1.977,-0.976 2.088,-0.7093 2.163,-0.4293 2.201,-0.144 h 182.1 l 2.201,0.144 2.161,0.4293 z"
               id="path926" />
            <path
               d="m 893.8,190.8 1.977,0.976 1.833,1.224 1.657,1.455 1.455,1.657 1.225,1.833 0.9747,1.979 0.7093,2.088 0.4293,2.163 0.144,2.2 v 182.1 l -0.144,2.2 -0.4293,2.163 -0.7093,2.088 -0.9747,1.977 -1.225,1.833 -1.455,1.659 -1.657,1.453 -1.833,1.225 -1.977,0.9747 -2.088,0.7093 -2.163,0.4307 -2.201,0.144 h -182.1 l -2.201,-0.144 -2.163,-0.4307 -2.088,-0.7093 -1.977,-0.9747 -1.833,-1.225 -1.657,-1.453 -1.455,-1.659 -1.225,-1.833 -0.9747,-1.977 -0.7093,-2.088 -0.4307,-2.163 -0.144,-2.2 v -182.1 l 0.144,-2.2 0.4307,-2.163 0.7093,-2.088 0.9747,-1.979 1.225,-1.833 1.455,-1.657 1.657,-1.455 1.833,-1.224 1.977,-0.976 2.088,-0.7093 2.163,-0.4293 2.201,-0.144 h 182.1 l 2.201,0.144 2.163,0.4293 z"
               id="path928" />
          </g>
          <path
             style="fill-opacity:1"
             d="m 1393,939.2 1.977,0.9746 1.833,1.225 1.659,1.455 1.453,1.657 1.225,1.833 0.9747,1.977 0.7093,2.088 0.4307,2.163 0.144,2.201 v 182.1 l -0.144,2.201 -0.4307,2.161 -0.7093,2.089 -0.9747,1.977 -1.225,1.833 -1.453,1.657 -1.659,1.455 -1.833,1.225 -1.977,0.9746 -2.088,0.7094 -2.163,0.4293 -2.201,0.144 h -182.1 l -2.2,-0.144 -2.163,-0.4293 -2.088,-0.7094 -1.979,-0.9746 -1.833,-1.225 -1.657,-1.455 -1.455,-1.657 -1.224,-1.833 -0.976,-1.977 -0.7093,-2.089 -0.4294,-2.161 -0.144,-2.201 v -182.1 l 0.144,-2.201 0.4294,-2.163 0.7093,-2.088 0.976,-1.977 1.224,-1.833 1.455,-1.657 1.657,-1.455 1.833,-1.225 1.979,-0.9746 2.088,-0.7094 2.163,-0.4306 2.2,-0.144 h 182.1 l 2.201,0.144 2.163,0.4306 z"
             id="path932" />
          <path
             style="fill-opacity:1"
             d="m 394.8,939.2 1.977,0.9746 1.835,1.225 1.657,1.455 1.453,1.657 1.227,1.833 0.9747,1.977 0.708,2.088 0.4307,2.163 0.144,2.201 v 182.1 l -0.144,2.201 -0.4307,2.161 -0.708,2.089 -0.9747,1.977 -1.227,1.833 -1.453,1.657 -1.657,1.455 -1.835,1.225 -1.977,0.9746 -2.088,0.7094 -2.161,0.4293 -2.201,0.144 h -182.1 l -2.201,-0.144 -2.163,-0.4293 -2.088,-0.7094 -1.977,-0.9746 -1.833,-1.225 -1.659,-1.455 -1.453,-1.657 -1.225,-1.833 -0.9747,-1.977 -0.7093,-2.089 -0.4307,-2.161 -0.144,-2.201 v -182.1 l 0.144,-2.201 0.4307,-2.163 0.7093,-2.088 0.9747,-1.977 1.225,-1.833 1.453,-1.657 1.659,-1.455 1.833,-1.225 1.977,-0.9746 2.088,-0.7094 2.163,-0.4306 2.201,-0.144 h 182.1 l 2.201,0.144 2.161,0.4306 z"
             id="path934" />
          <path
             style="fill-opacity:0.25100002"
             d="m 644.3,1189 1.977,0.976 1.833,1.225 1.659,1.453 1.453,1.657 1.225,1.835 0.9747,1.977 0.7093,2.088 0.4307,2.163 0.144,2.2 v 182.1 l -0.144,2.2 -0.4307,2.163 -0.7093,2.088 -0.9747,1.977 -1.225,1.835 -1.453,1.657 -1.659,1.453 -1.833,1.225 -1.977,0.9747 -2.088,0.7093 -2.163,0.4307 -2.2,0.144 h -182.1 l -2.2,-0.144 -2.163,-0.4307 -2.088,-0.7093 -1.977,-0.9747 -1.835,-1.225 -1.657,-1.453 -1.453,-1.657 -1.225,-1.835 -0.976,-1.977 -0.708,-2.088 -0.4307,-2.163 -0.144,-2.2 v -182.1 l 0.144,-2.2 0.4307,-2.163 0.708,-2.088 0.976,-1.977 1.225,-1.835 1.453,-1.657 1.657,-1.453 1.835,-1.225 1.977,-0.976 2.088,-0.708 2.163,-0.4307 2.2,-0.144 h 182.1 l 2.2,0.144 2.163,0.4307 z"
             id="path936" />
        </g>
      </g>
      <g
         style="fill:#ffffff"
         id="g974">
        <path
           style="fill:#ffffff;fill-opacity:0.25100002"
           d="m 644.3,190.8 1.977,0.976 1.833,1.224 1.659,1.455 1.453,1.657 1.225,1.833 0.9747,1.979 0.7093,2.088 0.4307,2.163 0.144,2.2 v 182.1 l -0.144,2.2 -0.4307,2.163 -0.7093,2.088 -0.9747,1.977 -1.225,1.833 -1.453,1.659 -1.659,1.453 -1.833,1.225 -1.977,0.9747 -2.088,0.7093 -2.163,0.4307 -2.2,0.144 h -182.1 l -2.2,-0.144 -2.163,-0.4307 -2.088,-0.7093 -1.977,-0.9747 -1.835,-1.225 -1.657,-1.453 -1.453,-1.659 -1.225,-1.833 -0.976,-1.977 -0.708,-2.088 -0.4307,-2.163 -0.144,-2.2 v -182.1 l 0.144,-2.2 0.4307,-2.163 0.708,-2.088 0.976,-1.979 1.225,-1.833 1.453,-1.657 1.657,-1.455 1.835,-1.224 1.977,-0.976 2.088,-0.7093 2.163,-0.4293 2.2,-0.144 h 182.1 l 2.2,0.144 2.163,0.4293 z"
           id="path942" />
        <path
           d="m 394.8,689.7 1.977,0.976 1.835,1.225 1.657,1.453 1.453,1.657 1.227,1.835 0.9747,1.977 0.708,2.088 0.4307,2.163 0.144,2.2 v 182.1 l -0.144,2.2 -0.4307,2.163 -0.708,2.088 -0.9747,1.977 -1.227,1.833 -1.453,1.659 -1.657,1.453 -1.835,1.225 -1.977,0.9747 -2.088,0.7093 -2.161,0.4307 -2.201,0.144 h -182.1 l -2.201,-0.144 -2.163,-0.4307 -2.088,-0.7093 -1.977,-0.9747 -1.833,-1.225 -1.659,-1.453 -1.453,-1.659 -1.225,-1.833 -0.9747,-1.977 -0.7093,-2.088 -0.4307,-2.163 -0.144,-2.2 v -182.1 l 0.144,-2.2 0.4307,-2.163 0.7093,-2.088 0.9747,-1.977 1.225,-1.835 1.453,-1.657 1.659,-1.453 1.833,-1.225 1.977,-0.976 2.088,-0.708 2.163,-0.4307 2.201,-0.144 h 182.1 l 2.201,0.144 2.161,0.4307 z"
           id="path944" />
        <path
           style="fill:#ffffff;fill-opacity:0.25100002"
           d="m 1143,190.8 1.977,0.976 1.835,1.224 1.657,1.455 1.453,1.657 1.225,1.833 0.9747,1.979 0.7093,2.088 0.4307,2.163 0.144,2.2 v 182.1 l -0.144,2.2 -0.4307,2.163 -0.7093,2.088 -0.9747,1.977 -1.225,1.833 -1.453,1.659 -1.657,1.453 -1.835,1.225 -1.977,0.9747 -2.088,0.7093 -2.163,0.4307 -2.2,0.144 h -182.1 l -2.2,-0.144 -2.163,-0.4307 -2.088,-0.7093 -1.977,-0.9747 -1.833,-1.225 -1.659,-1.453 -1.453,-1.659 -1.225,-1.833 -0.976,-1.977 -0.708,-2.088 -0.4307,-2.163 -0.144,-2.2 v -182.1 l 0.144,-2.2 0.4307,-2.163 0.708,-2.088 0.976,-1.979 1.225,-1.833 1.453,-1.657 1.659,-1.455 1.833,-1.224 1.977,-0.976 2.088,-0.7093 2.163,-0.4293 2.2,-0.144 h 182.1 l 2.2,0.144 2.163,0.4293 z"
           id="path946" />
        <path
           d="m 394.8,440.3 1.977,0.9747 1.835,1.225 1.657,1.453 1.453,1.659 1.227,1.833 0.9747,1.977 0.708,2.088 0.4307,2.163 0.144,2.201 v 182.1 l -0.144,2.2 -0.4307,2.163 -0.708,2.088 -0.9747,1.977 -1.227,1.835 -1.453,1.657 -1.657,1.453 -1.835,1.225 -1.977,0.976 -2.088,0.708 -2.161,0.4306 -2.201,0.144 h -182.1 l -2.201,-0.144 -2.163,-0.4306 -2.088,-0.708 -1.977,-0.976 -1.833,-1.225 -1.659,-1.453 -1.453,-1.657 -1.225,-1.835 -0.9747,-1.977 -0.7093,-2.088 -0.4307,-2.163 -0.144,-2.2 v -182.1 l 0.144,-2.201 0.4307,-2.163 0.7093,-2.088 0.9747,-1.977 1.225,-1.833 1.453,-1.659 1.659,-1.453 1.833,-1.225 1.977,-0.9747 2.088,-0.7093 2.163,-0.4307 2.201,-0.144 h 182.1 l 2.201,0.144 2.161,0.4307 z"
           id="path948" />
        <path
           d="m 893.8,440.3 1.977,0.9747 1.833,1.225 1.657,1.453 1.455,1.659 1.225,1.833 0.9747,1.977 0.7093,2.088 0.4293,2.163 0.144,2.201 v 182.1 l -0.144,2.2 -0.4293,2.163 -0.7093,2.088 -0.9747,1.977 -1.225,1.835 -1.455,1.657 -1.657,1.453 -1.833,1.225 -1.977,0.976 -2.088,0.708 -2.163,0.4306 -2.201,0.144 h -182.1 l -2.201,-0.144 -2.163,-0.4306 -2.088,-0.708 -1.977,-0.976 -1.833,-1.225 -1.657,-1.453 -1.455,-1.657 -1.225,-1.835 -0.9747,-1.977 -0.7093,-2.088 -0.4307,-2.163 -0.144,-2.2 v -182.1 l 0.144,-2.201 0.4307,-2.163 0.7093,-2.088 0.9747,-1.977 1.225,-1.833 1.455,-1.659 1.657,-1.453 1.833,-1.225 1.977,-0.9747 2.088,-0.7093 2.163,-0.4307 2.201,-0.144 h 182.1 l 2.201,0.144 2.163,0.4307 z"
           id="path950" />
        <path
           style="fill:#ffffff;fill-opacity:0.25100002"
           d="m 644.3,689.7 1.977,0.976 1.833,1.225 1.659,1.453 1.453,1.657 1.225,1.835 0.9747,1.977 0.7093,2.088 0.4307,2.163 0.144,2.2 v 182.1 l -0.144,2.2 -0.4307,2.163 -0.7093,2.088 -0.9747,1.977 -1.225,1.833 -1.453,1.659 -1.659,1.453 -1.833,1.225 -1.977,0.9747 -2.088,0.7093 -2.163,0.4307 -2.2,0.144 h -182.1 l -2.2,-0.144 -2.163,-0.4307 -2.088,-0.7093 -1.977,-0.9747 -1.835,-1.225 -1.657,-1.453 -1.453,-1.659 -1.225,-1.833 -0.976,-1.977 -0.708,-2.088 -0.4307,-2.163 -0.144,-2.2 v -182.1 l 0.144,-2.2 0.4307,-2.163 0.708,-2.088 0.976,-1.977 1.225,-1.835 1.453,-1.657 1.657,-1.453 1.835,-1.225 1.977,-0.976 2.088,-0.708 2.163,-0.4307 2.2,-0.144 h 182.1 l 2.2,0.144 2.163,0.4307 z"
           id="path952" />
        <path
           d="m 893.8,689.7 1.977,0.976 1.833,1.225 1.657,1.453 1.455,1.657 1.225,1.835 0.9747,1.977 0.7093,2.088 0.4293,2.163 0.144,2.2 v 182.1 l -0.144,2.2 -0.4293,2.163 -0.7093,2.088 -0.9747,1.977 -1.225,1.833 -1.455,1.659 -1.657,1.453 -1.833,1.225 -1.977,0.9747 -2.088,0.7093 -2.163,0.4307 -2.201,0.144 h -182.1 l -2.201,-0.144 -2.163,-0.4307 -2.088,-0.7093 -1.977,-0.9747 -1.833,-1.225 -1.657,-1.453 -1.455,-1.659 -1.225,-1.833 -0.9747,-1.977 -0.7093,-2.088 -0.4307,-2.163 -0.144,-2.2 v -182.1 l 0.144,-2.2 0.4307,-2.163 0.7093,-2.088 0.9747,-1.977 1.225,-1.835 1.455,-1.657 1.657,-1.453 1.833,-1.225 1.977,-0.976 2.088,-0.708 2.163,-0.4307 2.201,-0.144 h 182.1 l 2.201,0.144 2.163,0.4307 z"
           id="path954" />
        <path
           style="fill:#ffffff;fill-opacity:0.25100002"
           d="m 1143,939.2 1.977,0.9746 1.835,1.225 1.657,1.455 1.453,1.657 1.225,1.833 0.9747,1.977 0.7093,2.088 0.4307,2.163 0.144,2.201 v 182.1 l -0.144,2.201 -0.4307,2.161 -0.7093,2.089 -0.9747,1.977 -1.225,1.833 -1.453,1.657 -1.657,1.455 -1.835,1.225 -1.977,0.9746 -2.088,0.7094 -2.163,0.4293 -2.2,0.144 h -182.1 l -2.2,-0.144 -2.163,-0.4293 -2.088,-0.7094 -1.977,-0.9746 -1.833,-1.225 -1.659,-1.455 -1.453,-1.657 -1.225,-1.833 -0.976,-1.977 -0.708,-2.089 -0.4307,-2.161 -0.144,-2.201 v -182.1 l 0.144,-2.201 0.4307,-2.163 0.708,-2.088 0.976,-1.977 1.225,-1.833 1.453,-1.657 1.659,-1.455 1.833,-1.225 1.977,-0.9746 2.088,-0.7094 2.163,-0.4306 2.2,-0.144 h 182.1 l 2.2,0.144 2.163,0.4306 z"
           id="path956" />
        <path
           style="fill:#ffffff;fill-opacity:0.25100002"
           d="m 1143,689.7 1.977,0.976 1.835,1.225 1.657,1.453 1.453,1.657 1.225,1.835 0.9747,1.977 0.7093,2.088 0.4307,2.163 0.144,2.2 v 182.1 l -0.144,2.2 -0.4307,2.163 -0.7093,2.088 -0.9747,1.977 -1.225,1.833 -1.453,1.659 -1.657,1.453 -1.835,1.225 -1.977,0.9747 -2.088,0.7093 -2.163,0.4307 -2.2,0.144 h -182.1 l -2.2,-0.144 -2.163,-0.4307 -2.088,-0.7093 -1.977,-0.9747 -1.833,-1.225 -1.659,-1.453 -1.453,-1.659 -1.225,-1.833 -0.976,-1.977 -0.708,-2.088 -0.4307,-2.163 -0.144,-2.2 v -182.1 l 0.144,-2.2 0.4307,-2.163 0.708,-2.088 0.976,-1.977 1.225,-1.835 1.453,-1.657 1.659,-1.453 1.833,-1.225 1.977,-0.976 2.088,-0.708 2.163,-0.4307 2.2,-0.144 h 182.1 l 2.2,0.144 2.163,0.4307 z"
           id="path958" />
        <path
           d="m 1393,689.7 1.977,0.976 1.833,1.225 1.659,1.453 1.453,1.657 1.225,1.835 0.9747,1.977 0.7093,2.088 0.4307,2.163 0.144,2.2 v 182.1 l -0.144,2.2 -0.4307,2.163 -0.7093,2.088 -0.9747,1.977 -1.225,1.833 -1.453,1.659 -1.659,1.453 -1.833,1.225 -1.977,0.9747 -2.088,0.7093 -2.163,0.4307 -2.201,0.144 h -182.1 l -2.2,-0.144 -2.163,-0.4307 -2.088,-0.7093 -1.979,-0.9747 -1.833,-1.225 -1.657,-1.453 -1.455,-1.659 -1.224,-1.833 -0.976,-1.977 -0.7093,-2.088 -0.4294,-2.163 -0.144,-2.2 v -182.1 l 0.144,-2.2 0.4294,-2.163 0.7093,-2.088 0.976,-1.977 1.224,-1.835 1.455,-1.657 1.657,-1.453 1.833,-1.225 1.979,-0.976 2.088,-0.708 2.163,-0.4307 2.2,-0.144 h 182.1 l 2.201,0.144 2.163,0.4307 z"
           id="path960" />
        <path
           style="fill:#ffffff"
           d="m 1143,440.3 1.977,0.9747 1.835,1.225 1.657,1.453 1.453,1.659 1.225,1.833 0.9747,1.977 0.7093,2.088 0.4307,2.163 0.144,2.201 v 182.1 l -0.144,2.2 -0.4307,2.163 -0.7093,2.088 -0.9747,1.977 -1.225,1.835 -1.453,1.657 -1.657,1.453 -1.835,1.225 -1.977,0.976 -2.088,0.708 -2.163,0.4306 -2.2,0.144 h -182.1 l -2.2,-0.144 -2.163,-0.4306 -2.088,-0.708 -1.977,-0.976 -1.833,-1.225 -1.659,-1.453 -1.453,-1.657 -1.225,-1.835 -0.976,-1.977 -0.708,-2.088 -0.4307,-2.163 -0.144,-2.2 v -182.1 l 0.144,-2.201 0.4307,-2.163 0.708,-2.088 0.976,-1.977 1.225,-1.833 1.453,-1.659 1.659,-1.453 1.833,-1.225 1.977,-0.9747 2.088,-0.7093 2.163,-0.4307 2.2,-0.144 h 182.1 l 2.2,0.144 2.163,0.4307 z"
           id="path962" />
        <path
           d="m 1393,440.3 1.977,0.9747 1.833,1.225 1.659,1.453 1.453,1.659 1.225,1.833 0.9747,1.977 0.7093,2.088 0.4307,2.163 0.144,2.201 v 182.1 l -0.144,2.2 -0.4307,2.163 -0.7093,2.088 -0.9747,1.977 -1.225,1.835 -1.453,1.657 -1.659,1.453 -1.833,1.225 -1.977,0.976 -2.088,0.708 -2.163,0.4306 -2.201,0.144 h -182.1 l -2.2,-0.144 -2.163,-0.4306 -2.088,-0.708 -1.979,-0.976 -1.833,-1.225 -1.657,-1.453 -1.455,-1.657 -1.224,-1.835 -0.976,-1.977 -0.7093,-2.088 -0.4294,-2.163 -0.144,-2.2 v -182.1 l 0.144,-2.201 0.4294,-2.163 0.7093,-2.088 0.976,-1.977 1.224,-1.833 1.455,-1.659 1.657,-1.453 1.833,-1.225 1.979,-0.9747 2.088,-0.7093 2.163,-0.4307 2.2,-0.144 h 182.1 l 2.201,0.144 2.163,0.4307 z"
           id="path964" />
        <path
           style="fill:#ffffff"
           d="m 644.3,440.3 1.977,0.9747 1.833,1.225 1.659,1.453 1.453,1.659 1.225,1.833 0.9747,1.977 0.7093,2.088 0.4307,2.163 0.144,2.201 v 182.1 l -0.144,2.2 -0.4307,2.163 -0.7093,2.088 -0.9747,1.977 -1.225,1.835 -1.453,1.657 -1.659,1.453 -1.833,1.225 -1.977,0.976 -2.088,0.708 -2.163,0.4306 -2.2,0.144 h -182.1 l -2.2,-0.144 -2.163,-0.4306 -2.088,-0.708 -1.977,-0.976 -1.835,-1.225 -1.657,-1.453 -1.453,-1.657 -1.225,-1.835 -0.976,-1.977 -0.708,-2.088 -0.4307,-2.163 -0.144,-2.2 v -182.1 l 0.144,-2.201 0.4307,-2.163 0.708,-2.088 0.976,-1.977 1.225,-1.833 1.453,-1.659 1.657,-1.453 1.835,-1.225 1.977,-0.9747 2.088,-0.7093 2.163,-0.4307 2.2,-0.144 h 182.1 l 2.2,0.144 2.163,0.4307 z"
           id="path966" />
        <path
           style="fill:#ffffff;fill-opacity:0.25100002"
           d="m 644.3,939.2 1.977,0.9746 1.833,1.225 1.659,1.455 1.453,1.657 1.225,1.833 0.9747,1.977 0.7093,2.088 0.4307,2.163 0.144,2.201 v 182.1 l -0.144,2.201 -0.4307,2.161 -0.7093,2.089 -0.9747,1.977 -1.225,1.833 -1.453,1.657 -1.659,1.455 -1.833,1.225 -1.977,0.9746 -2.088,0.7094 -2.163,0.4293 -2.2,0.144 h -182.1 l -2.2,-0.144 -2.163,-0.4293 -2.088,-0.7094 -1.977,-0.9746 -1.835,-1.225 -1.657,-1.455 -1.453,-1.657 -1.225,-1.833 -0.976,-1.977 -0.708,-2.089 -0.4307,-2.161 -0.144,-2.201 v -182.1 l 0.144,-2.201 0.4307,-2.163 0.708,-2.088 0.976,-1.977 1.225,-1.833 1.453,-1.657 1.657,-1.455 1.835,-1.225 1.977,-0.9746 2.088,-0.7094 2.163,-0.4306 2.2,-0.144 h 182.1 l 2.2,0.144 2.163,0.4306 z"
           id="path968" />
        <path
           d="m 893.8,939.2 1.977,0.9746 1.833,1.225 1.657,1.455 1.455,1.657 1.225,1.833 0.9747,1.977 0.7093,2.088 0.4293,2.163 0.144,2.201 v 182.1 l -0.144,2.201 -0.4293,2.161 -0.7093,2.089 -0.9747,1.977 -1.225,1.833 -1.455,1.657 -1.657,1.455 -1.833,1.225 -1.977,0.9746 -2.088,0.7094 -2.163,0.4293 -2.201,0.144 h -182.1 l -2.201,-0.144 -2.163,-0.4293 -2.088,-0.7094 -1.977,-0.9746 -1.833,-1.225 -1.657,-1.455 -1.455,-1.657 -1.225,-1.833 -0.9747,-1.977 -0.7093,-2.089 -0.4307,-2.161 -0.144,-2.201 v -182.1 l 0.144,-2.201 0.4307,-2.163 0.7093,-2.088 0.9747,-1.977 1.225,-1.833 1.455,-1.657 1.657,-1.455 1.833,-1.225 1.977,-0.9746 2.088,-0.7094 2.163,-0.4306 2.201,-0.144 h 182.1 l 2.201,0.144 2.163,0.4306 z"
           id="path970" />
        <path
           style="fill:#ffffff;fill-opacity:0.25100002"
           d="m 893.8,1189 1.977,0.976 1.833,1.225 1.657,1.453 1.455,1.657 1.225,1.835 0.9747,1.977 0.7093,2.088 0.4293,2.163 0.144,2.2 v 182.1 l -0.144,2.2 -0.4293,2.163 -0.7093,2.088 -0.9747,1.977 -1.225,1.835 -1.455,1.657 -1.657,1.453 -1.833,1.225 -1.977,0.9747 -2.088,0.7093 -2.163,0.4307 -2.201,0.144 h -182.1 l -2.201,-0.144 -2.163,-0.4307 -2.088,-0.7093 -1.977,-0.9747 -1.833,-1.225 -1.657,-1.453 -1.455,-1.657 -1.225,-1.835 -0.9747,-1.977 -0.7093,-2.088 -0.4307,-2.163 -0.144,-2.2 v -182.1 l 0.144,-2.2 0.4307,-2.163 0.7093,-2.088 0.9747,-1.977 1.225,-1.835 1.455,-1.657 1.657,-1.453 1.833,-1.225 1.977,-0.976 2.088,-0.708 2.163,-0.4307 2.201,-0.144 h 182.1 l 2.201,0.144 2.163,0.4307 z"
           id="path972" />
      </g>
    </g>
    <g
       style="stroke:#000000;stroke-miterlimit:9.88399982"
       transform="matrix(0.16613188,0,0,0.16613188,678.1864,-16.752697)"
       stroke-miterlimit="9.884"
       id="g1091">
      <rect
         style="opacity:0.98999999;fill:#028d7a;fill-rule:evenodd;stroke:none"
         transform="scale(-1,1)"
         x="-1593"
         y="0.00050149998"
         width="1593"
         height="1593"
         id="rect1019" />
      <g
         style="fill:#ffffff;fill-opacity:0.25100002"
         id="g1047">
        <path
           style="fill:#ffffff;fill-opacity:0.25100002"
           d="m 394.8,1189 1.977,0.976 1.835,1.225 1.657,1.453 1.453,1.657 1.227,1.835 0.9747,1.977 0.708,2.088 0.4307,2.163 0.144,2.2 v 182.1 l -0.144,2.2 -0.4307,2.163 -0.708,2.088 -0.9747,1.977 -1.227,1.835 -1.453,1.657 -1.657,1.453 -1.835,1.225 -1.977,0.9747 -2.088,0.7093 -2.161,0.4307 -2.201,0.144 h -182.1 l -2.201,-0.144 -2.163,-0.4307 -2.088,-0.7093 -1.977,-0.9747 -1.833,-1.225 -1.659,-1.453 -1.453,-1.657 -1.225,-1.835 -0.9747,-1.977 -0.7093,-2.088 -0.4307,-2.163 -0.144,-2.2 v -182.1 l 0.144,-2.2 0.4307,-2.163 0.7093,-2.088 0.9747,-1.977 1.225,-1.835 1.453,-1.657 1.659,-1.453 1.833,-1.225 1.977,-0.976 2.088,-0.708 2.163,-0.4307 2.201,-0.144 h 182.1 l 2.201,0.144 2.161,0.4307 z"
           id="path1021" />
        <path
           d="m 1143,1189 1.977,0.976 1.835,1.225 1.657,1.453 1.453,1.657 1.225,1.835 0.9747,1.977 0.7093,2.088 0.4307,2.163 0.144,2.2 v 182.1 l -0.144,2.2 -0.4307,2.163 -0.7093,2.088 -0.9747,1.977 -1.225,1.835 -1.453,1.657 -1.657,1.453 -1.835,1.225 -1.977,0.9747 -2.088,0.7093 -2.163,0.4307 -2.2,0.144 h -182.1 l -2.2,-0.144 -2.163,-0.4307 -2.088,-0.7093 -1.977,-0.9747 -1.833,-1.225 -1.659,-1.453 -1.453,-1.657 -1.225,-1.835 -0.976,-1.977 -0.708,-2.088 -0.4307,-2.163 -0.144,-2.2 v -182.1 l 0.144,-2.2 0.4307,-2.163 0.708,-2.088 0.976,-1.977 1.225,-1.835 1.453,-1.657 1.659,-1.453 1.833,-1.225 1.977,-0.976 2.088,-0.708 2.163,-0.4307 2.2,-0.144 h 182.1 l 2.2,0.144 2.163,0.4307 z"
           id="path1023" />
        <g
           style="fill:#ffffff"
           id="g1045">
          <g
             style="fill-opacity:0.25100002"
             id="g1035">
            <path
               d="m 1393,1189 1.977,0.976 1.833,1.225 1.659,1.453 1.453,1.657 1.225,1.835 0.9747,1.977 0.7093,2.088 0.4307,2.163 0.144,2.2 v 182.1 l -0.144,2.2 -0.4307,2.163 -0.7093,2.088 -0.9747,1.977 -1.225,1.835 -1.453,1.657 -1.659,1.453 -1.833,1.225 -1.977,0.9747 -2.088,0.7093 -2.163,0.4307 -2.201,0.144 h -182.1 l -2.2,-0.144 -2.163,-0.4307 -2.088,-0.7093 -1.979,-0.9747 -1.833,-1.225 -1.657,-1.453 -1.455,-1.657 -1.224,-1.835 -0.976,-1.977 -0.7093,-2.088 -0.4294,-2.163 -0.144,-2.2 v -182.1 l 0.144,-2.2 0.4294,-2.163 0.7093,-2.088 0.976,-1.977 1.224,-1.835 1.455,-1.657 1.657,-1.453 1.833,-1.225 1.979,-0.976 2.088,-0.708 2.163,-0.4307 2.2,-0.144 h 182.1 l 2.201,0.144 2.163,0.4307 z"
               id="path1025" />
            <g
               style="fill:#ffffff;fill-opacity:0.25100002"
               id="g1033">
              <path
                 d="m 1393,190.8 1.977,0.976 1.833,1.224 1.659,1.455 1.453,1.657 1.225,1.833 0.9747,1.979 0.7093,2.088 0.4307,2.163 0.144,2.2 v 182.1 l -0.144,2.2 -0.4307,2.163 -0.7093,2.088 -0.9747,1.977 -1.225,1.833 -1.453,1.659 -1.659,1.453 -1.833,1.225 -1.977,0.9747 -2.088,0.7093 -2.163,0.4307 -2.201,0.144 h -182.1 l -2.2,-0.144 -2.163,-0.4307 -2.088,-0.7093 -1.979,-0.9747 -1.833,-1.225 -1.657,-1.453 -1.455,-1.659 -1.224,-1.833 -0.976,-1.977 -0.7093,-2.088 -0.4294,-2.163 -0.144,-2.2 v -182.1 l 0.144,-2.2 0.4294,-2.163 0.7093,-2.088 0.976,-1.979 1.224,-1.833 1.455,-1.657 1.657,-1.455 1.833,-1.224 1.979,-0.976 2.088,-0.7093 2.163,-0.4293 2.2,-0.144 h 182.1 l 2.201,0.144 2.163,0.4293 z"
                 id="path1027" />
              <path
                 d="m 394.8,190.8 1.977,0.976 1.835,1.224 1.657,1.455 1.453,1.657 1.227,1.833 0.9747,1.979 0.708,2.088 0.4307,2.163 0.144,2.2 v 182.1 l -0.144,2.2 -0.4307,2.163 -0.708,2.088 -0.9747,1.977 -1.227,1.833 -1.453,1.659 -1.657,1.453 -1.835,1.225 -1.977,0.9747 -2.088,0.7093 -2.161,0.4307 -2.201,0.144 h -182.1 l -2.201,-0.144 -2.163,-0.4307 -2.088,-0.7093 -1.977,-0.9747 -1.833,-1.225 -1.659,-1.453 -1.453,-1.659 -1.225,-1.833 -0.9747,-1.977 -0.7093,-2.088 -0.4307,-2.163 -0.144,-2.2 v -182.1 l 0.144,-2.2 0.4307,-2.163 0.7093,-2.088 0.9747,-1.979 1.225,-1.833 1.453,-1.657 1.659,-1.455 1.833,-1.224 1.977,-0.976 2.088,-0.7093 2.163,-0.4293 2.201,-0.144 h 182.1 l 2.201,0.144 2.161,0.4293 z"
                 id="path1029" />
              <path
                 d="m 893.8,190.8 1.977,0.976 1.833,1.224 1.657,1.455 1.455,1.657 1.225,1.833 0.9747,1.979 0.7093,2.088 0.4293,2.163 0.144,2.2 v 182.1 l -0.144,2.2 -0.4293,2.163 -0.7093,2.088 -0.9747,1.977 -1.225,1.833 -1.455,1.659 -1.657,1.453 -1.833,1.225 -1.977,0.9747 -2.088,0.7093 -2.163,0.4307 -2.201,0.144 h -182.1 l -2.201,-0.144 -2.163,-0.4307 -2.088,-0.7093 -1.977,-0.9747 -1.833,-1.225 -1.657,-1.453 -1.455,-1.659 -1.225,-1.833 -0.9747,-1.977 -0.7093,-2.088 -0.4307,-2.163 -0.144,-2.2 v -182.1 l 0.144,-2.2 0.4307,-2.163 0.7093,-2.088 0.9747,-1.979 1.225,-1.833 1.455,-1.657 1.657,-1.455 1.833,-1.224 1.977,-0.976 2.088,-0.7093 2.163,-0.4293 2.201,-0.144 h 182.1 l 2.201,0.144 2.163,0.4293 z"
                 id="path1031" />
            </g>
          </g>
          <g
             style="fill:#ffffff"
             id="g1043">
            <path
               style="fill-opacity:0.25100002"
               d="m 1393,939.2 1.977,0.9746 1.833,1.225 1.659,1.455 1.453,1.657 1.225,1.833 0.9747,1.977 0.7093,2.088 0.4307,2.163 0.144,2.201 v 182.1 l -0.144,2.201 -0.4307,2.161 -0.7093,2.089 -0.9747,1.977 -1.225,1.833 -1.453,1.657 -1.659,1.455 -1.833,1.225 -1.977,0.9746 -2.088,0.7094 -2.163,0.4293 -2.201,0.144 h -182.1 l -2.2,-0.144 -2.163,-0.4293 -2.088,-0.7094 -1.979,-0.9746 -1.833,-1.225 -1.657,-1.455 -1.455,-1.657 -1.224,-1.833 -0.976,-1.977 -0.7093,-2.089 -0.4294,-2.161 -0.144,-2.201 v -182.1 l 0.144,-2.201 0.4294,-2.163 0.7093,-2.088 0.976,-1.977 1.224,-1.833 1.455,-1.657 1.657,-1.455 1.833,-1.225 1.979,-0.9746 2.088,-0.7094 2.163,-0.4306 2.2,-0.144 h 182.1 l 2.201,0.144 2.163,0.4306 z"
               id="path1037" />
            <path
               style="fill-opacity:0.25100002"
               d="m 394.8,939.2 1.977,0.9746 1.835,1.225 1.657,1.455 1.453,1.657 1.227,1.833 0.9747,1.977 0.708,2.088 0.4307,2.163 0.144,2.201 v 182.1 l -0.144,2.201 -0.4307,2.161 -0.708,2.089 -0.9747,1.977 -1.227,1.833 -1.453,1.657 -1.657,1.455 -1.835,1.225 -1.977,0.9746 -2.088,0.7094 -2.161,0.4293 -2.201,0.144 h -182.1 l -2.201,-0.144 -2.163,-0.4293 -2.088,-0.7094 -1.977,-0.9746 -1.833,-1.225 -1.659,-1.455 -1.453,-1.657 -1.225,-1.833 -0.9747,-1.977 -0.7093,-2.089 -0.4307,-2.161 -0.144,-2.201 v -182.1 l 0.144,-2.201 0.4307,-2.163 0.7093,-2.088 0.9747,-1.977 1.225,-1.833 1.453,-1.657 1.659,-1.455 1.833,-1.225 1.977,-0.9746 2.088,-0.7094 2.163,-0.4306 2.201,-0.144 h 182.1 l 2.201,0.144 2.161,0.4306 z"
               id="path1039" />
            <path
               style="fill-opacity:1"
               d="m 644.3,1189 1.977,0.976 1.833,1.225 1.659,1.453 1.453,1.657 1.225,1.835 0.9747,1.977 0.7093,2.088 0.4307,2.163 0.144,2.2 v 182.1 l -0.144,2.2 -0.4307,2.163 -0.7093,2.088 -0.9747,1.977 -1.225,1.835 -1.453,1.657 -1.659,1.453 -1.833,1.225 -1.977,0.9747 -2.088,0.7093 -2.163,0.4307 -2.2,0.144 h -182.1 l -2.2,-0.144 -2.163,-0.4307 -2.088,-0.7093 -1.977,-0.9747 -1.835,-1.225 -1.657,-1.453 -1.453,-1.657 -1.225,-1.835 -0.976,-1.977 -0.708,-2.088 -0.4307,-2.163 -0.144,-2.2 v -182.1 l 0.144,-2.2 0.4307,-2.163 0.708,-2.088 0.976,-1.977 1.225,-1.835 1.453,-1.657 1.657,-1.453 1.835,-1.225 1.977,-0.976 2.088,-0.708 2.163,-0.4307 2.2,-0.144 h 182.1 l 2.2,0.144 2.163,0.4307 z"
               id="path1041" />
          </g>
        </g>
      </g>
      <g
         style="fill:#ffffff"
         id="g1089">
        <g
           style="fill:#ffffff"
           id="g1059">
          <path
             d="m 644.3,190.8 1.977,0.976 1.833,1.224 1.659,1.455 1.453,1.657 1.225,1.833 0.9747,1.979 0.7093,2.088 0.4307,2.163 0.144,2.2 v 182.1 l -0.144,2.2 -0.4307,2.163 -0.7093,2.088 -0.9747,1.977 -1.225,1.833 -1.453,1.659 -1.659,1.453 -1.833,1.225 -1.977,0.9747 -2.088,0.7093 -2.163,0.4307 -2.2,0.144 h -182.1 l -2.2,-0.144 -2.163,-0.4307 -2.088,-0.7093 -1.977,-0.9747 -1.835,-1.225 -1.657,-1.453 -1.453,-1.659 -1.225,-1.833 -0.976,-1.977 -0.708,-2.088 -0.4307,-2.163 -0.144,-2.2 v -182.1 l 0.144,-2.2 0.4307,-2.163 0.708,-2.088 0.976,-1.979 1.225,-1.833 1.453,-1.657 1.657,-1.455 1.835,-1.224 1.977,-0.976 2.088,-0.7093 2.163,-0.4293 2.2,-0.144 h 182.1 l 2.2,0.144 2.163,0.4293 z"
             id="path1049" />
          <g
             style="fill-opacity:0.25100002"
             id="g1057">
            <path
               d="m 394.8,689.7 1.977,0.976 1.835,1.225 1.657,1.453 1.453,1.657 1.227,1.835 0.9747,1.977 0.708,2.088 0.4307,2.163 0.144,2.2 v 182.1 l -0.144,2.2 -0.4307,2.163 -0.708,2.088 -0.9747,1.977 -1.227,1.833 -1.453,1.659 -1.657,1.453 -1.835,1.225 -1.977,0.9747 -2.088,0.7093 -2.161,0.4307 -2.201,0.144 h -182.1 l -2.201,-0.144 -2.163,-0.4307 -2.088,-0.7093 -1.977,-0.9747 -1.833,-1.225 -1.659,-1.453 -1.453,-1.659 -1.225,-1.833 -0.9747,-1.977 -0.7093,-2.088 -0.4307,-2.163 -0.144,-2.2 v -182.1 l 0.144,-2.2 0.4307,-2.163 0.7093,-2.088 0.9747,-1.977 1.225,-1.835 1.453,-1.657 1.659,-1.453 1.833,-1.225 1.977,-0.976 2.088,-0.708 2.163,-0.4307 2.201,-0.144 h 182.1 l 2.201,0.144 2.161,0.4307 z"
               id="path1051" />
            <path
               d="m 1143,190.8 1.977,0.976 1.835,1.224 1.657,1.455 1.453,1.657 1.225,1.833 0.9747,1.979 0.7093,2.088 0.4307,2.163 0.144,2.2 v 182.1 l -0.144,2.2 -0.4307,2.163 -0.7093,2.088 -0.9747,1.977 -1.225,1.833 -1.453,1.659 -1.657,1.453 -1.835,1.225 -1.977,0.9747 -2.088,0.7093 -2.163,0.4307 -2.2,0.144 h -182.1 l -2.2,-0.144 -2.163,-0.4307 -2.088,-0.7093 -1.977,-0.9747 -1.833,-1.225 -1.659,-1.453 -1.453,-1.659 -1.225,-1.833 -0.976,-1.977 -0.708,-2.088 -0.4307,-2.163 -0.144,-2.2 v -182.1 l 0.144,-2.2 0.4307,-2.163 0.708,-2.088 0.976,-1.979 1.225,-1.833 1.453,-1.657 1.659,-1.455 1.833,-1.224 1.977,-0.976 2.088,-0.7093 2.163,-0.4293 2.2,-0.144 h 182.1 l 2.2,0.144 2.163,0.4293 z"
               id="path1053" />
            <path
               d="m 394.8,440.3 1.977,0.9747 1.835,1.225 1.657,1.453 1.453,1.659 1.227,1.833 0.9747,1.977 0.708,2.088 0.4307,2.163 0.144,2.201 v 182.1 l -0.144,2.2 -0.4307,2.163 -0.708,2.088 -0.9747,1.977 -1.227,1.835 -1.453,1.657 -1.657,1.453 -1.835,1.225 -1.977,0.976 -2.088,0.708 -2.161,0.4306 -2.201,0.144 h -182.1 l -2.201,-0.144 -2.163,-0.4306 -2.088,-0.708 -1.977,-0.976 -1.833,-1.225 -1.659,-1.453 -1.453,-1.657 -1.225,-1.835 -0.9747,-1.977 -0.7093,-2.088 -0.4307,-2.163 -0.144,-2.2 v -182.1 l 0.144,-2.201 0.4307,-2.163 0.7093,-2.088 0.9747,-1.977 1.225,-1.833 1.453,-1.659 1.659,-1.453 1.833,-1.225 1.977,-0.9747 2.088,-0.7093 2.163,-0.4307 2.201,-0.144 h 182.1 l 2.201,0.144 2.161,0.4307 z"
               id="path1055" />
          </g>
        </g>
        <path
           d="m 893.8,440.3 1.977,0.9747 1.833,1.225 1.657,1.453 1.455,1.659 1.225,1.833 0.9747,1.977 0.7093,2.088 0.4293,2.163 0.144,2.201 v 182.1 l -0.144,2.2 -0.4293,2.163 -0.7093,2.088 -0.9747,1.977 -1.225,1.835 -1.455,1.657 -1.657,1.453 -1.833,1.225 -1.977,0.976 -2.088,0.708 -2.163,0.4306 -2.201,0.144 h -182.1 l -2.201,-0.144 -2.163,-0.4306 -2.088,-0.708 -1.977,-0.976 -1.833,-1.225 -1.657,-1.453 -1.455,-1.657 -1.225,-1.835 -0.9747,-1.977 -0.7093,-2.088 -0.4307,-2.163 -0.144,-2.2 v -182.1 l 0.144,-2.201 0.4307,-2.163 0.7093,-2.088 0.9747,-1.977 1.225,-1.833 1.455,-1.659 1.657,-1.453 1.833,-1.225 1.977,-0.9747 2.088,-0.7093 2.163,-0.4307 2.201,-0.144 h 182.1 l 2.201,0.144 2.163,0.4307 z"
           id="path1061" />
        <path
           style="fill:#ffffff"
           d="m 644.3,689.7 1.977,0.976 1.833,1.225 1.659,1.453 1.453,1.657 1.225,1.835 0.9747,1.977 0.7093,2.088 0.4307,2.163 0.144,2.2 v 182.1 l -0.144,2.2 -0.4307,2.163 -0.7093,2.088 -0.9747,1.977 -1.225,1.833 -1.453,1.659 -1.659,1.453 -1.833,1.225 -1.977,0.9747 -2.088,0.7093 -2.163,0.4307 -2.2,0.144 h -182.1 l -2.2,-0.144 -2.163,-0.4307 -2.088,-0.7093 -1.977,-0.9747 -1.835,-1.225 -1.657,-1.453 -1.453,-1.659 -1.225,-1.833 -0.976,-1.977 -0.708,-2.088 -0.4307,-2.163 -0.144,-2.2 v -182.1 l 0.144,-2.2 0.4307,-2.163 0.708,-2.088 0.976,-1.977 1.225,-1.835 1.453,-1.657 1.657,-1.453 1.835,-1.225 1.977,-0.976 2.088,-0.708 2.163,-0.4307 2.2,-0.144 h 182.1 l 2.2,0.144 2.163,0.4307 z"
           id="path1063" />
        <path
           d="m 893.8,689.7 1.977,0.976 1.833,1.225 1.657,1.453 1.455,1.657 1.225,1.835 0.9747,1.977 0.7093,2.088 0.4293,2.163 0.144,2.2 v 182.1 l -0.144,2.2 -0.4293,2.163 -0.7093,2.088 -0.9747,1.977 -1.225,1.833 -1.455,1.659 -1.657,1.453 -1.833,1.225 -1.977,0.9747 -2.088,0.7093 -2.163,0.4307 -2.201,0.144 h -182.1 l -2.201,-0.144 -2.163,-0.4307 -2.088,-0.7093 -1.977,-0.9747 -1.833,-1.225 -1.657,-1.453 -1.455,-1.659 -1.225,-1.833 -0.9747,-1.977 -0.7093,-2.088 -0.4307,-2.163 -0.144,-2.2 v -182.1 l 0.144,-2.2 0.4307,-2.163 0.7093,-2.088 0.9747,-1.977 1.225,-1.835 1.455,-1.657 1.657,-1.453 1.833,-1.225 1.977,-0.976 2.088,-0.708 2.163,-0.4307 2.201,-0.144 h 182.1 l 2.201,0.144 2.163,0.4307 z"
           id="path1065" />
        <g
           style="fill:#ffffff"
           id="g1083">
          <path
             style="fill-opacity:0.25100002"
             d="m 1143,939.2 1.977,0.9746 1.835,1.225 1.657,1.455 1.453,1.657 1.225,1.833 0.9747,1.977 0.7093,2.088 0.4307,2.163 0.144,2.201 v 182.1 l -0.144,2.201 -0.4307,2.161 -0.7093,2.089 -0.9747,1.977 -1.225,1.833 -1.453,1.657 -1.657,1.455 -1.835,1.225 -1.977,0.9746 -2.088,0.7094 -2.163,0.4293 -2.2,0.144 h -182.1 l -2.2,-0.144 -2.163,-0.4293 -2.088,-0.7094 -1.977,-0.9746 -1.833,-1.225 -1.659,-1.455 -1.453,-1.657 -1.225,-1.833 -0.976,-1.977 -0.708,-2.089 -0.4307,-2.161 -0.144,-2.201 v -182.1 l 0.144,-2.201 0.4307,-2.163 0.708,-2.088 0.976,-1.977 1.225,-1.833 1.453,-1.657 1.659,-1.455 1.833,-1.225 1.977,-0.9746 2.088,-0.7094 2.163,-0.4306 2.2,-0.144 h 182.1 l 2.2,0.144 2.163,0.4306 z"
             id="path1067" />
          <path
             d="m 1143,689.7 1.977,0.976 1.835,1.225 1.657,1.453 1.453,1.657 1.225,1.835 0.9747,1.977 0.7093,2.088 0.4307,2.163 0.144,2.2 v 182.1 l -0.144,2.2 -0.4307,2.163 -0.7093,2.088 -0.9747,1.977 -1.225,1.833 -1.453,1.659 -1.657,1.453 -1.835,1.225 -1.977,0.9747 -2.088,0.7093 -2.163,0.4307 -2.2,0.144 h -182.1 l -2.2,-0.144 -2.163,-0.4307 -2.088,-0.7093 -1.977,-0.9747 -1.833,-1.225 -1.659,-1.453 -1.453,-1.659 -1.225,-1.833 -0.976,-1.977 -0.708,-2.088 -0.4307,-2.163 -0.144,-2.2 v -182.1 l 0.144,-2.2 0.4307,-2.163 0.708,-2.088 0.976,-1.977 1.225,-1.835 1.453,-1.657 1.659,-1.453 1.833,-1.225 1.977,-0.976 2.088,-0.708 2.163,-0.4307 2.2,-0.144 h 182.1 l 2.2,0.144 2.163,0.4307 z"
             id="path1069" />
          <g
             style="fill-opacity:0.25100002"
             id="g1077">
            <path
               d="m 1393,689.7 1.977,0.976 1.833,1.225 1.659,1.453 1.453,1.657 1.225,1.835 0.9747,1.977 0.7093,2.088 0.4307,2.163 0.144,2.2 v 182.1 l -0.144,2.2 -0.4307,2.163 -0.7093,2.088 -0.9747,1.977 -1.225,1.833 -1.453,1.659 -1.659,1.453 -1.833,1.225 -1.977,0.9747 -2.088,0.7093 -2.163,0.4307 -2.201,0.144 h -182.1 l -2.2,-0.144 -2.163,-0.4307 -2.088,-0.7093 -1.979,-0.9747 -1.833,-1.225 -1.657,-1.453 -1.455,-1.659 -1.224,-1.833 -0.976,-1.977 -0.7093,-2.088 -0.4294,-2.163 -0.144,-2.2 v -182.1 l 0.144,-2.2 0.4294,-2.163 0.7093,-2.088 0.976,-1.977 1.224,-1.835 1.455,-1.657 1.657,-1.453 1.833,-1.225 1.979,-0.976 2.088,-0.708 2.163,-0.4307 2.2,-0.144 h 182.1 l 2.201,0.144 2.163,0.4307 z"
               id="path1071" />
            <path
               d="m 1143,440.3 1.977,0.9747 1.835,1.225 1.657,1.453 1.453,1.659 1.225,1.833 0.9747,1.977 0.7093,2.088 0.4307,2.163 0.144,2.201 v 182.1 l -0.144,2.2 -0.4307,2.163 -0.7093,2.088 -0.9747,1.977 -1.225,1.835 -1.453,1.657 -1.657,1.453 -1.835,1.225 -1.977,0.976 -2.088,0.708 -2.163,0.4306 -2.2,0.144 h -182.1 l -2.2,-0.144 -2.163,-0.4306 -2.088,-0.708 -1.977,-0.976 -1.833,-1.225 -1.659,-1.453 -1.453,-1.657 -1.225,-1.835 -0.976,-1.977 -0.708,-2.088 -0.4307,-2.163 -0.144,-2.2 v -182.1 l 0.144,-2.201 0.4307,-2.163 0.708,-2.088 0.976,-1.977 1.225,-1.833 1.453,-1.659 1.659,-1.453 1.833,-1.225 1.977,-0.9747 2.088,-0.7093 2.163,-0.4307 2.2,-0.144 h 182.1 l 2.2,0.144 2.163,0.4307 z"
               id="path1073" />
            <path
               d="m 1393,440.3 1.977,0.9747 1.833,1.225 1.659,1.453 1.453,1.659 1.225,1.833 0.9747,1.977 0.7093,2.088 0.4307,2.163 0.144,2.201 v 182.1 l -0.144,2.2 -0.4307,2.163 -0.7093,2.088 -0.9747,1.977 -1.225,1.835 -1.453,1.657 -1.659,1.453 -1.833,1.225 -1.977,0.976 -2.088,0.708 -2.163,0.4306 -2.201,0.144 h -182.1 l -2.2,-0.144 -2.163,-0.4306 -2.088,-0.708 -1.979,-0.976 -1.833,-1.225 -1.657,-1.453 -1.455,-1.657 -1.224,-1.835 -0.976,-1.977 -0.7093,-2.088 -0.4294,-2.163 -0.144,-2.2 v -182.1 l 0.144,-2.201 0.4294,-2.163 0.7093,-2.088 0.976,-1.977 1.224,-1.833 1.455,-1.659 1.657,-1.453 1.833,-1.225 1.979,-0.9747 2.088,-0.7093 2.163,-0.4307 2.2,-0.144 h 182.1 l 2.201,0.144 2.163,0.4307 z"
               id="path1075" />
          </g>
          <path
             d="m 644.3,440.3 1.977,0.9747 1.833,1.225 1.659,1.453 1.453,1.659 1.225,1.833 0.9747,1.977 0.7093,2.088 0.4307,2.163 0.144,2.201 v 182.1 l -0.144,2.2 -0.4307,2.163 -0.7093,2.088 -0.9747,1.977 -1.225,1.835 -1.453,1.657 -1.659,1.453 -1.833,1.225 -1.977,0.976 -2.088,0.708 -2.163,0.4306 -2.2,0.144 h -182.1 l -2.2,-0.144 -2.163,-0.4306 -2.088,-0.708 -1.977,-0.976 -1.835,-1.225 -1.657,-1.453 -1.453,-1.657 -1.225,-1.835 -0.976,-1.977 -0.708,-2.088 -0.4307,-2.163 -0.144,-2.2 v -182.1 l 0.144,-2.201 0.4307,-2.163 0.708,-2.088 0.976,-1.977 1.225,-1.833 1.453,-1.659 1.657,-1.453 1.835,-1.225 1.977,-0.9747 2.088,-0.7093 2.163,-0.4307 2.2,-0.144 h 182.1 l 2.2,0.144 2.163,0.4307 z"
             id="path1079" />
          <path
             d="m 644.3,939.2 1.977,0.9746 1.833,1.225 1.659,1.455 1.453,1.657 1.225,1.833 0.9747,1.977 0.7093,2.088 0.4307,2.163 0.144,2.201 v 182.1 l -0.144,2.201 -0.4307,2.161 -0.7093,2.089 -0.9747,1.977 -1.225,1.833 -1.453,1.657 -1.659,1.455 -1.833,1.225 -1.977,0.9746 -2.088,0.7094 -2.163,0.4293 -2.2,0.144 h -182.1 l -2.2,-0.144 -2.163,-0.4293 -2.088,-0.7094 -1.977,-0.9746 -1.835,-1.225 -1.657,-1.455 -1.453,-1.657 -1.225,-1.833 -0.976,-1.977 -0.708,-2.089 -0.4307,-2.161 -0.144,-2.201 v -182.1 l 0.144,-2.201 0.4307,-2.163 0.708,-2.088 0.976,-1.977 1.225,-1.833 1.453,-1.657 1.657,-1.455 1.835,-1.225 1.977,-0.9746 2.088,-0.7094 2.163,-0.4306 2.2,-0.144 h 182.1 l 2.2,0.144 2.163,0.4306 z"
             id="path1081" />
        </g>
        <path
           d="m 893.8,939.2 1.977,0.9746 1.833,1.225 1.657,1.455 1.455,1.657 1.225,1.833 0.9747,1.977 0.7093,2.088 0.4293,2.163 0.144,2.201 v 182.1 l -0.144,2.201 -0.4293,2.161 -0.7093,2.089 -0.9747,1.977 -1.225,1.833 -1.455,1.657 -1.657,1.455 -1.833,1.225 -1.977,0.9746 -2.088,0.7094 -2.163,0.4293 -2.201,0.144 h -182.1 l -2.201,-0.144 -2.163,-0.4293 -2.088,-0.7094 -1.977,-0.9746 -1.833,-1.225 -1.657,-1.455 -1.455,-1.657 -1.225,-1.833 -0.9747,-1.977 -0.7093,-2.089 -0.4307,-2.161 -0.144,-2.201 v -182.1 l 0.144,-2.201 0.4307,-2.163 0.7093,-2.088 0.9747,-1.977 1.225,-1.833 1.455,-1.657 1.657,-1.455 1.833,-1.225 1.977,-0.9746 2.088,-0.7094 2.163,-0.4306 2.201,-0.144 h 182.1 l 2.201,0.144 2.163,0.4306 z"
           id="path1085" />
        <path
           style="fill:#ffffff;fill-opacity:0.25100002"
           d="m 893.8,1189 1.977,0.976 1.833,1.225 1.657,1.453 1.455,1.657 1.225,1.835 0.9747,1.977 0.7093,2.088 0.4293,2.163 0.144,2.2 v 182.1 l -0.144,2.2 -0.4293,2.163 -0.7093,2.088 -0.9747,1.977 -1.225,1.835 -1.455,1.657 -1.657,1.453 -1.833,1.225 -1.977,0.9747 -2.088,0.7093 -2.163,0.4307 -2.201,0.144 h -182.1 l -2.201,-0.144 -2.163,-0.4307 -2.088,-0.7093 -1.977,-0.9747 -1.833,-1.225 -1.657,-1.453 -1.455,-1.657 -1.225,-1.835 -0.9747,-1.977 -0.7093,-2.088 -0.4307,-2.163 -0.144,-2.2 v -182.1 l 0.144,-2.2 0.4307,-2.163 0.7093,-2.088 0.9747,-1.977 1.225,-1.835 1.455,-1.657 1.657,-1.453 1.833,-1.225 1.977,-0.976 2.088,-0.708 2.163,-0.4307 2.201,-0.144 h 182.1 l 2.201,0.144 2.163,0.4307 z"
           id="path1087" />
      </g>
    </g>
    <g
       style="stroke:#000000;stroke-miterlimit:9.88399982"
       transform="matrix(0.16613188,0,0,0.16613188,413.53832,-16.752697)"
       stroke-miterlimit="9.884"
       id="g1192">
      <rect
         style="opacity:0.98999999;fill:#ffd500;fill-rule:evenodd;stroke:none"
         transform="scale(-1,1)"
         x="-1593"
         y="0.00050149998"
         width="1593"
         height="1593"
         id="rect1136" />
      <g
         style="fill:#ffffff;fill-opacity:0.25100002"
         id="g1156">
        <path
           d="m 394.8,1189 1.977,0.976 1.835,1.225 1.657,1.453 1.453,1.657 1.227,1.835 0.9747,1.977 0.708,2.088 0.4307,2.163 0.144,2.2 v 182.1 l -0.144,2.2 -0.4307,2.163 -0.708,2.088 -0.9747,1.977 -1.227,1.835 -1.453,1.657 -1.657,1.453 -1.835,1.225 -1.977,0.9747 -2.088,0.7093 -2.161,0.4307 -2.201,0.144 h -182.1 l -2.201,-0.144 -2.163,-0.4307 -2.088,-0.7093 -1.977,-0.9747 -1.833,-1.225 -1.659,-1.453 -1.453,-1.657 -1.225,-1.835 -0.9747,-1.977 -0.7093,-2.088 -0.4307,-2.163 -0.144,-2.2 v -182.1 l 0.144,-2.2 0.4307,-2.163 0.7093,-2.088 0.9747,-1.977 1.225,-1.835 1.453,-1.657 1.659,-1.453 1.833,-1.225 1.977,-0.976 2.088,-0.708 2.163,-0.4307 2.201,-0.144 h 182.1 l 2.201,0.144 2.161,0.4307 z"
           id="path1138" />
        <path
           d="m 1143,1189 1.977,0.976 1.835,1.225 1.657,1.453 1.453,1.657 1.225,1.835 0.9747,1.977 0.7093,2.088 0.4307,2.163 0.144,2.2 v 182.1 l -0.144,2.2 -0.4307,2.163 -0.7093,2.088 -0.9747,1.977 -1.225,1.835 -1.453,1.657 -1.657,1.453 -1.835,1.225 -1.977,0.9747 -2.088,0.7093 -2.163,0.4307 -2.2,0.144 h -182.1 l -2.2,-0.144 -2.163,-0.4307 -2.088,-0.7093 -1.977,-0.9747 -1.833,-1.225 -1.659,-1.453 -1.453,-1.657 -1.225,-1.835 -0.976,-1.977 -0.708,-2.088 -0.4307,-2.163 -0.144,-2.2 v -182.1 l 0.144,-2.2 0.4307,-2.163 0.708,-2.088 0.976,-1.977 1.225,-1.835 1.453,-1.657 1.659,-1.453 1.833,-1.225 1.977,-0.976 2.088,-0.708 2.163,-0.4307 2.2,-0.144 h 182.1 l 2.2,0.144 2.163,0.4307 z"
           id="path1140" />
        <path
           d="m 1393,1189 1.977,0.976 1.833,1.225 1.659,1.453 1.453,1.657 1.225,1.835 0.9747,1.977 0.7093,2.088 0.4307,2.163 0.144,2.2 v 182.1 l -0.144,2.2 -0.4307,2.163 -0.7093,2.088 -0.9747,1.977 -1.225,1.835 -1.453,1.657 -1.659,1.453 -1.833,1.225 -1.977,0.9747 -2.088,0.7093 -2.163,0.4307 -2.201,0.144 h -182.1 l -2.2,-0.144 -2.163,-0.4307 -2.088,-0.7093 -1.979,-0.9747 -1.833,-1.225 -1.657,-1.453 -1.455,-1.657 -1.224,-1.835 -0.976,-1.977 -0.7093,-2.088 -0.4294,-2.163 -0.144,-2.2 v -182.1 l 0.144,-2.2 0.4294,-2.163 0.7093,-2.088 0.976,-1.977 1.224,-1.835 1.455,-1.657 1.657,-1.453 1.833,-1.225 1.979,-0.976 2.088,-0.708 2.163,-0.4307 2.2,-0.144 h 182.1 l 2.201,0.144 2.163,0.4307 z"
           id="path1142" />
        <path
           d="m 1393,190.8 1.977,0.976 1.833,1.224 1.659,1.455 1.453,1.657 1.225,1.833 0.9747,1.979 0.7093,2.088 0.4307,2.163 0.144,2.2 v 182.1 l -0.144,2.2 -0.4307,2.163 -0.7093,2.088 -0.9747,1.977 -1.225,1.833 -1.453,1.659 -1.659,1.453 -1.833,1.225 -1.977,0.9747 -2.088,0.7093 -2.163,0.4307 -2.201,0.144 h -182.1 l -2.2,-0.144 -2.163,-0.4307 -2.088,-0.7093 -1.979,-0.9747 -1.833,-1.225 -1.657,-1.453 -1.455,-1.659 -1.224,-1.833 -0.976,-1.977 -0.7093,-2.088 -0.4294,-2.163 -0.144,-2.2 v -182.1 l 0.144,-2.2 0.4294,-2.163 0.7093,-2.088 0.976,-1.979 1.224,-1.833 1.455,-1.657 1.657,-1.455 1.833,-1.224 1.979,-0.976 2.088,-0.7093 2.163,-0.4293 2.2,-0.144 h 182.1 l 2.201,0.144 2.163,0.4293 z"
           id="path1144" />
        <path
           d="m 394.8,190.8 1.977,0.976 1.835,1.224 1.657,1.455 1.453,1.657 1.227,1.833 0.9747,1.979 0.708,2.088 0.4307,2.163 0.144,2.2 v 182.1 l -0.144,2.2 -0.4307,2.163 -0.708,2.088 -0.9747,1.977 -1.227,1.833 -1.453,1.659 -1.657,1.453 -1.835,1.225 -1.977,0.9747 -2.088,0.7093 -2.161,0.4307 -2.201,0.144 h -182.1 l -2.201,-0.144 -2.163,-0.4307 -2.088,-0.7093 -1.977,-0.9747 -1.833,-1.225 -1.659,-1.453 -1.453,-1.659 -1.225,-1.833 -0.9747,-1.977 -0.7093,-2.088 -0.4307,-2.163 -0.144,-2.2 v -182.1 l 0.144,-2.2 0.4307,-2.163 0.7093,-2.088 0.9747,-1.979 1.225,-1.833 1.453,-1.657 1.659,-1.455 1.833,-1.224 1.977,-0.976 2.088,-0.7093 2.163,-0.4293 2.201,-0.144 h 182.1 l 2.201,0.144 2.161,0.4293 z"
           id="path1146" />
        <path
           d="m 893.8,190.8 1.977,0.976 1.833,1.224 1.657,1.455 1.455,1.657 1.225,1.833 0.9747,1.979 0.7093,2.088 0.4293,2.163 0.144,2.2 v 182.1 l -0.144,2.2 -0.4293,2.163 -0.7093,2.088 -0.9747,1.977 -1.225,1.833 -1.455,1.659 -1.657,1.453 -1.833,1.225 -1.977,0.9747 -2.088,0.7093 -2.163,0.4307 -2.201,0.144 h -182.1 l -2.201,-0.144 -2.163,-0.4307 -2.088,-0.7093 -1.977,-0.9747 -1.833,-1.225 -1.657,-1.453 -1.455,-1.659 -1.225,-1.833 -0.9747,-1.977 -0.7093,-2.088 -0.4307,-2.163 -0.144,-2.2 v -182.1 l 0.144,-2.2 0.4307,-2.163 0.7093,-2.088 0.9747,-1.979 1.225,-1.833 1.455,-1.657 1.657,-1.455 1.833,-1.224 1.977,-0.976 2.088,-0.7093 2.163,-0.4293 2.201,-0.144 h 182.1 l 2.201,0.144 2.163,0.4293 z"
           id="path1148" />
        <path
           d="m 1393,939.2 1.977,0.9746 1.833,1.225 1.659,1.455 1.453,1.657 1.225,1.833 0.9747,1.977 0.7093,2.088 0.4307,2.163 0.144,2.201 v 182.1 l -0.144,2.201 -0.4307,2.161 -0.7093,2.089 -0.9747,1.977 -1.225,1.833 -1.453,1.657 -1.659,1.455 -1.833,1.225 -1.977,0.9746 -2.088,0.7094 -2.163,0.4293 -2.201,0.144 h -182.1 l -2.2,-0.144 -2.163,-0.4293 -2.088,-0.7094 -1.979,-0.9746 -1.833,-1.225 -1.657,-1.455 -1.455,-1.657 -1.224,-1.833 -0.976,-1.977 -0.7093,-2.089 -0.4294,-2.161 -0.144,-2.201 v -182.1 l 0.144,-2.201 0.4294,-2.163 0.7093,-2.088 0.976,-1.977 1.224,-1.833 1.455,-1.657 1.657,-1.455 1.833,-1.225 1.979,-0.9746 2.088,-0.7094 2.163,-0.4306 2.2,-0.144 h 182.1 l 2.201,0.144 2.163,0.4306 z"
           id="path1150" />
        <path
           d="m 394.8,939.2 1.977,0.9746 1.835,1.225 1.657,1.455 1.453,1.657 1.227,1.833 0.9747,1.977 0.708,2.088 0.4307,2.163 0.144,2.201 v 182.1 l -0.144,2.201 -0.4307,2.161 -0.708,2.089 -0.9747,1.977 -1.227,1.833 -1.453,1.657 -1.657,1.455 -1.835,1.225 -1.977,0.9746 -2.088,0.7094 -2.161,0.4293 -2.201,0.144 h -182.1 l -2.201,-0.144 -2.163,-0.4293 -2.088,-0.7094 -1.977,-0.9746 -1.833,-1.225 -1.659,-1.455 -1.453,-1.657 -1.225,-1.833 -0.9747,-1.977 -0.7093,-2.089 -0.4307,-2.161 -0.144,-2.201 v -182.1 l 0.144,-2.201 0.4307,-2.163 0.7093,-2.088 0.9747,-1.977 1.225,-1.833 1.453,-1.657 1.659,-1.455 1.833,-1.225 1.977,-0.9746 2.088,-0.7094 2.163,-0.4306 2.201,-0.144 h 182.1 l 2.201,0.144 2.161,0.4306 z"
           id="path1152" />
        <path
           d="m 644.3,1189 1.977,0.976 1.833,1.225 1.659,1.453 1.453,1.657 1.225,1.835 0.9747,1.977 0.7093,2.088 0.4307,2.163 0.144,2.2 v 182.1 l -0.144,2.2 -0.4307,2.163 -0.7093,2.088 -0.9747,1.977 -1.225,1.835 -1.453,1.657 -1.659,1.453 -1.833,1.225 -1.977,0.9747 -2.088,0.7093 -2.163,0.4307 -2.2,0.144 h -182.1 l -2.2,-0.144 -2.163,-0.4307 -2.088,-0.7093 -1.977,-0.9747 -1.835,-1.225 -1.657,-1.453 -1.453,-1.657 -1.225,-1.835 -0.976,-1.977 -0.708,-2.088 -0.4307,-2.163 -0.144,-2.2 v -182.1 l 0.144,-2.2 0.4307,-2.163 0.708,-2.088 0.976,-1.977 1.225,-1.835 1.453,-1.657 1.657,-1.453 1.835,-1.225 1.977,-0.976 2.088,-0.708 2.163,-0.4307 2.2,-0.144 h 182.1 l 2.2,0.144 2.163,0.4307 z"
           id="path1154" />
      </g>
      <g
         style="fill:#ffffff"
         id="g1190">
        <path
           d="m 644.3,190.8 1.977,0.976 1.833,1.224 1.659,1.455 1.453,1.657 1.225,1.833 0.9747,1.979 0.7093,2.088 0.4307,2.163 0.144,2.2 v 182.1 l -0.144,2.2 -0.4307,2.163 -0.7093,2.088 -0.9747,1.977 -1.225,1.833 -1.453,1.659 -1.659,1.453 -1.833,1.225 -1.977,0.9747 -2.088,0.7093 -2.163,0.4307 -2.2,0.144 h -182.1 l -2.2,-0.144 -2.163,-0.4307 -2.088,-0.7093 -1.977,-0.9747 -1.835,-1.225 -1.657,-1.453 -1.453,-1.659 -1.225,-1.833 -0.976,-1.977 -0.708,-2.088 -0.4307,-2.163 -0.144,-2.2 v -182.1 l 0.144,-2.2 0.4307,-2.163 0.708,-2.088 0.976,-1.979 1.225,-1.833 1.453,-1.657 1.657,-1.455 1.835,-1.224 1.977,-0.976 2.088,-0.7093 2.163,-0.4293 2.2,-0.144 h 182.1 l 2.2,0.144 2.163,0.4293 z"
           id="path1158" />
        <path
           d="m 394.8,689.7 1.977,0.976 1.835,1.225 1.657,1.453 1.453,1.657 1.227,1.835 0.9747,1.977 0.708,2.088 0.4307,2.163 0.144,2.2 v 182.1 l -0.144,2.2 -0.4307,2.163 -0.708,2.088 -0.9747,1.977 -1.227,1.833 -1.453,1.659 -1.657,1.453 -1.835,1.225 -1.977,0.9747 -2.088,0.7093 -2.161,0.4307 -2.201,0.144 h -182.1 l -2.201,-0.144 -2.163,-0.4307 -2.088,-0.7093 -1.977,-0.9747 -1.833,-1.225 -1.659,-1.453 -1.453,-1.659 -1.225,-1.833 -0.9747,-1.977 -0.7093,-2.088 -0.4307,-2.163 -0.144,-2.2 v -182.1 l 0.144,-2.2 0.4307,-2.163 0.7093,-2.088 0.9747,-1.977 1.225,-1.835 1.453,-1.657 1.659,-1.453 1.833,-1.225 1.977,-0.976 2.088,-0.708 2.163,-0.4307 2.201,-0.144 h 182.1 l 2.201,0.144 2.161,0.4307 z"
           id="path1160" />
        <path
           d="m 1143,190.8 1.977,0.976 1.835,1.224 1.657,1.455 1.453,1.657 1.225,1.833 0.9747,1.979 0.7093,2.088 0.4307,2.163 0.144,2.2 v 182.1 l -0.144,2.2 -0.4307,2.163 -0.7093,2.088 -0.9747,1.977 -1.225,1.833 -1.453,1.659 -1.657,1.453 -1.835,1.225 -1.977,0.9747 -2.088,0.7093 -2.163,0.4307 -2.2,0.144 h -182.1 l -2.2,-0.144 -2.163,-0.4307 -2.088,-0.7093 -1.977,-0.9747 -1.833,-1.225 -1.659,-1.453 -1.453,-1.659 -1.225,-1.833 -0.976,-1.977 -0.708,-2.088 -0.4307,-2.163 -0.144,-2.2 v -182.1 l 0.144,-2.2 0.4307,-2.163 0.708,-2.088 0.976,-1.979 1.225,-1.833 1.453,-1.657 1.659,-1.455 1.833,-1.224 1.977,-0.976 2.088,-0.7093 2.163,-0.4293 2.2,-0.144 h 182.1 l 2.2,0.144 2.163,0.4293 z"
           id="path1162" />
        <path
           d="m 394.8,440.3 1.977,0.9747 1.835,1.225 1.657,1.453 1.453,1.659 1.227,1.833 0.9747,1.977 0.708,2.088 0.4307,2.163 0.144,2.201 v 182.1 l -0.144,2.2 -0.4307,2.163 -0.708,2.088 -0.9747,1.977 -1.227,1.835 -1.453,1.657 -1.657,1.453 -1.835,1.225 -1.977,0.976 -2.088,0.708 -2.161,0.4306 -2.201,0.144 h -182.1 l -2.201,-0.144 -2.163,-0.4306 -2.088,-0.708 -1.977,-0.976 -1.833,-1.225 -1.659,-1.453 -1.453,-1.657 -1.225,-1.835 -0.9747,-1.977 -0.7093,-2.088 -0.4307,-2.163 -0.144,-2.2 v -182.1 l 0.144,-2.201 0.4307,-2.163 0.7093,-2.088 0.9747,-1.977 1.225,-1.833 1.453,-1.659 1.659,-1.453 1.833,-1.225 1.977,-0.9747 2.088,-0.7093 2.163,-0.4307 2.201,-0.144 h 182.1 l 2.201,0.144 2.161,0.4307 z"
           id="path1164" />
        <path
           d="m 893.8,440.3 1.977,0.9747 1.833,1.225 1.657,1.453 1.455,1.659 1.225,1.833 0.9747,1.977 0.7093,2.088 0.4293,2.163 0.144,2.201 v 182.1 l -0.144,2.2 -0.4293,2.163 -0.7093,2.088 -0.9747,1.977 -1.225,1.835 -1.455,1.657 -1.657,1.453 -1.833,1.225 -1.977,0.976 -2.088,0.708 -2.163,0.4306 -2.201,0.144 h -182.1 l -2.201,-0.144 -2.163,-0.4306 -2.088,-0.708 -1.977,-0.976 -1.833,-1.225 -1.657,-1.453 -1.455,-1.657 -1.225,-1.835 -0.9747,-1.977 -0.7093,-2.088 -0.4307,-2.163 -0.144,-2.2 v -182.1 l 0.144,-2.201 0.4307,-2.163 0.7093,-2.088 0.9747,-1.977 1.225,-1.833 1.455,-1.659 1.657,-1.453 1.833,-1.225 1.977,-0.9747 2.088,-0.7093 2.163,-0.4307 2.201,-0.144 h 182.1 l 2.201,0.144 2.163,0.4307 z"
           id="path1166" />
        <path
           d="m 644.3,689.7 1.977,0.976 1.833,1.225 1.659,1.453 1.453,1.657 1.225,1.835 0.9747,1.977 0.7093,2.088 0.4307,2.163 0.144,2.2 v 182.1 l -0.144,2.2 -0.4307,2.163 -0.7093,2.088 -0.9747,1.977 -1.225,1.833 -1.453,1.659 -1.659,1.453 -1.833,1.225 -1.977,0.9747 -2.088,0.7093 -2.163,0.4307 -2.2,0.144 h -182.1 l -2.2,-0.144 -2.163,-0.4307 -2.088,-0.7093 -1.977,-0.9747 -1.835,-1.225 -1.657,-1.453 -1.453,-1.659 -1.225,-1.833 -0.976,-1.977 -0.708,-2.088 -0.4307,-2.163 -0.144,-2.2 v -182.1 l 0.144,-2.2 0.4307,-2.163 0.708,-2.088 0.976,-1.977 1.225,-1.835 1.453,-1.657 1.657,-1.453 1.835,-1.225 1.977,-0.976 2.088,-0.708 2.163,-0.4307 2.2,-0.144 h 182.1 l 2.2,0.144 2.163,0.4307 z"
           id="path1168" />
        <path
           d="m 893.8,689.7 1.977,0.976 1.833,1.225 1.657,1.453 1.455,1.657 1.225,1.835 0.9747,1.977 0.7093,2.088 0.4293,2.163 0.144,2.2 v 182.1 l -0.144,2.2 -0.4293,2.163 -0.7093,2.088 -0.9747,1.977 -1.225,1.833 -1.455,1.659 -1.657,1.453 -1.833,1.225 -1.977,0.9747 -2.088,0.7093 -2.163,0.4307 -2.201,0.144 h -182.1 l -2.201,-0.144 -2.163,-0.4307 -2.088,-0.7093 -1.977,-0.9747 -1.833,-1.225 -1.657,-1.453 -1.455,-1.659 -1.225,-1.833 -0.9747,-1.977 -0.7093,-2.088 -0.4307,-2.163 -0.144,-2.2 v -182.1 l 0.144,-2.2 0.4307,-2.163 0.7093,-2.088 0.9747,-1.977 1.225,-1.835 1.455,-1.657 1.657,-1.453 1.833,-1.225 1.977,-0.976 2.088,-0.708 2.163,-0.4307 2.201,-0.144 h 182.1 l 2.201,0.144 2.163,0.4307 z"
           id="path1170" />
        <path
           d="m 1143,939.2 1.977,0.9746 1.835,1.225 1.657,1.455 1.453,1.657 1.225,1.833 0.9747,1.977 0.7093,2.088 0.4307,2.163 0.144,2.201 v 182.1 l -0.144,2.201 -0.4307,2.161 -0.7093,2.089 -0.9747,1.977 -1.225,1.833 -1.453,1.657 -1.657,1.455 -1.835,1.225 -1.977,0.9746 -2.088,0.7094 -2.163,0.4293 -2.2,0.144 h -182.1 l -2.2,-0.144 -2.163,-0.4293 -2.088,-0.7094 -1.977,-0.9746 -1.833,-1.225 -1.659,-1.455 -1.453,-1.657 -1.225,-1.833 -0.976,-1.977 -0.708,-2.089 -0.4307,-2.161 -0.144,-2.201 v -182.1 l 0.144,-2.201 0.4307,-2.163 0.708,-2.088 0.976,-1.977 1.225,-1.833 1.453,-1.657 1.659,-1.455 1.833,-1.225 1.977,-0.9746 2.088,-0.7094 2.163,-0.4306 2.2,-0.144 h 182.1 l 2.2,0.144 2.163,0.4306 z"
           id="path1172" />
        <path
           d="m 1143,689.7 1.977,0.976 1.835,1.225 1.657,1.453 1.453,1.657 1.225,1.835 0.9747,1.977 0.7093,2.088 0.4307,2.163 0.144,2.2 v 182.1 l -0.144,2.2 -0.4307,2.163 -0.7093,2.088 -0.9747,1.977 -1.225,1.833 -1.453,1.659 -1.657,1.453 -1.835,1.225 -1.977,0.9747 -2.088,0.7093 -2.163,0.4307 -2.2,0.144 h -182.1 l -2.2,-0.144 -2.163,-0.4307 -2.088,-0.7093 -1.977,-0.9747 -1.833,-1.225 -1.659,-1.453 -1.453,-1.659 -1.225,-1.833 -0.976,-1.977 -0.708,-2.088 -0.4307,-2.163 -0.144,-2.2 v -182.1 l 0.144,-2.2 0.4307,-2.163 0.708,-2.088 0.976,-1.977 1.225,-1.835 1.453,-1.657 1.659,-1.453 1.833,-1.225 1.977,-0.976 2.088,-0.708 2.163,-0.4307 2.2,-0.144 h 182.1 l 2.2,0.144 2.163,0.4307 z"
           id="path1174" />
        <path
           d="m 1393,689.7 1.977,0.976 1.833,1.225 1.659,1.453 1.453,1.657 1.225,1.835 0.9747,1.977 0.7093,2.088 0.4307,2.163 0.144,2.2 v 182.1 l -0.144,2.2 -0.4307,2.163 -0.7093,2.088 -0.9747,1.977 -1.225,1.833 -1.453,1.659 -1.659,1.453 -1.833,1.225 -1.977,0.9747 -2.088,0.7093 -2.163,0.4307 -2.201,0.144 h -182.1 l -2.2,-0.144 -2.163,-0.4307 -2.088,-0.7093 -1.979,-0.9747 -1.833,-1.225 -1.657,-1.453 -1.455,-1.659 -1.224,-1.833 -0.976,-1.977 -0.7093,-2.088 -0.4294,-2.163 -0.144,-2.2 v -182.1 l 0.144,-2.2 0.4294,-2.163 0.7093,-2.088 0.976,-1.977 1.224,-1.835 1.455,-1.657 1.657,-1.453 1.833,-1.225 1.979,-0.976 2.088,-0.708 2.163,-0.4307 2.2,-0.144 h 182.1 l 2.201,0.144 2.163,0.4307 z"
           id="path1176" />
        <path
           d="m 1143,440.3 1.977,0.9747 1.835,1.225 1.657,1.453 1.453,1.659 1.225,1.833 0.9747,1.977 0.7093,2.088 0.4307,2.163 0.144,2.201 v 182.1 l -0.144,2.2 -0.4307,2.163 -0.7093,2.088 -0.9747,1.977 -1.225,1.835 -1.453,1.657 -1.657,1.453 -1.835,1.225 -1.977,0.976 -2.088,0.708 -2.163,0.4306 -2.2,0.144 h -182.1 l -2.2,-0.144 -2.163,-0.4306 -2.088,-0.708 -1.977,-0.976 -1.833,-1.225 -1.659,-1.453 -1.453,-1.657 -1.225,-1.835 -0.976,-1.977 -0.708,-2.088 -0.4307,-2.163 -0.144,-2.2 v -182.1 l 0.144,-2.201 0.4307,-2.163 0.708,-2.088 0.976,-1.977 1.225,-1.833 1.453,-1.659 1.659,-1.453 1.833,-1.225 1.977,-0.9747 2.088,-0.7093 2.163,-0.4307 2.2,-0.144 h 182.1 l 2.2,0.144 2.163,0.4307 z"
           id="path1178" />
        <path
           d="m 1393,440.3 1.977,0.9747 1.833,1.225 1.659,1.453 1.453,1.659 1.225,1.833 0.9747,1.977 0.7093,2.088 0.4307,2.163 0.144,2.201 v 182.1 l -0.144,2.2 -0.4307,2.163 -0.7093,2.088 -0.9747,1.977 -1.225,1.835 -1.453,1.657 -1.659,1.453 -1.833,1.225 -1.977,0.976 -2.088,0.708 -2.163,0.4306 -2.201,0.144 h -182.1 l -2.2,-0.144 -2.163,-0.4306 -2.088,-0.708 -1.979,-0.976 -1.833,-1.225 -1.657,-1.453 -1.455,-1.657 -1.224,-1.835 -0.976,-1.977 -0.7093,-2.088 -0.4294,-2.163 -0.144,-2.2 v -182.1 l 0.144,-2.201 0.4294,-2.163 0.7093,-2.088 0.976,-1.977 1.224,-1.833 1.455,-1.659 1.657,-1.453 1.833,-1.225 1.979,-0.9747 2.088,-0.7093 2.163,-0.4307 2.2,-0.144 h 182.1 l 2.201,0.144 2.163,0.4307 z"
           id="path1180" />
        <path
           d="m 644.3,440.3 1.977,0.9747 1.833,1.225 1.659,1.453 1.453,1.659 1.225,1.833 0.9747,1.977 0.7093,2.088 0.4307,2.163 0.144,2.201 v 182.1 l -0.144,2.2 -0.4307,2.163 -0.7093,2.088 -0.9747,1.977 -1.225,1.835 -1.453,1.657 -1.659,1.453 -1.833,1.225 -1.977,0.976 -2.088,0.708 -2.163,0.4306 -2.2,0.144 h -182.1 l -2.2,-0.144 -2.163,-0.4306 -2.088,-0.708 -1.977,-0.976 -1.835,-1.225 -1.657,-1.453 -1.453,-1.657 -1.225,-1.835 -0.976,-1.977 -0.708,-2.088 -0.4307,-2.163 -0.144,-2.2 v -182.1 l 0.144,-2.201 0.4307,-2.163 0.708,-2.088 0.976,-1.977 1.225,-1.833 1.453,-1.659 1.657,-1.453 1.835,-1.225 1.977,-0.9747 2.088,-0.7093 2.163,-0.4307 2.2,-0.144 h 182.1 l 2.2,0.144 2.163,0.4307 z"
           id="path1182" />
        <path
           d="m 644.3,939.2 1.977,0.9746 1.833,1.225 1.659,1.455 1.453,1.657 1.225,1.833 0.9747,1.977 0.7093,2.088 0.4307,2.163 0.144,2.201 v 182.1 l -0.144,2.201 -0.4307,2.161 -0.7093,2.089 -0.9747,1.977 -1.225,1.833 -1.453,1.657 -1.659,1.455 -1.833,1.225 -1.977,0.9746 -2.088,0.7094 -2.163,0.4293 -2.2,0.144 h -182.1 l -2.2,-0.144 -2.163,-0.4293 -2.088,-0.7094 -1.977,-0.9746 -1.835,-1.225 -1.657,-1.455 -1.453,-1.657 -1.225,-1.833 -0.976,-1.977 -0.708,-2.089 -0.4307,-2.161 -0.144,-2.201 v -182.1 l 0.144,-2.201 0.4307,-2.163 0.708,-2.088 0.976,-1.977 1.225,-1.833 1.453,-1.657 1.657,-1.455 1.835,-1.225 1.977,-0.9746 2.088,-0.7094 2.163,-0.4306 2.2,-0.144 h 182.1 l 2.2,0.144 2.163,0.4306 z"
           id="path1184" />
        <path
           d="m 893.8,939.2 1.977,0.9746 1.833,1.225 1.657,1.455 1.455,1.657 1.225,1.833 0.9747,1.977 0.7093,2.088 0.4293,2.163 0.144,2.201 v 182.1 l -0.144,2.201 -0.4293,2.161 -0.7093,2.089 -0.9747,1.977 -1.225,1.833 -1.455,1.657 -1.657,1.455 -1.833,1.225 -1.977,0.9746 -2.088,0.7094 -2.163,0.4293 -2.201,0.144 h -182.1 l -2.201,-0.144 -2.163,-0.4293 -2.088,-0.7094 -1.977,-0.9746 -1.833,-1.225 -1.657,-1.455 -1.455,-1.657 -1.225,-1.833 -0.9747,-1.977 -0.7093,-2.089 -0.4307,-2.161 -0.144,-2.201 v -182.1 l 0.144,-2.201 0.4307,-2.163 0.7093,-2.088 0.9747,-1.977 1.225,-1.833 1.455,-1.657 1.657,-1.455 1.833,-1.225 1.977,-0.9746 2.088,-0.7094 2.163,-0.4306 2.201,-0.144 h 182.1 l 2.201,0.144 2.163,0.4306 z"
           id="path1186" />
        <path
           d="m 893.8,1189 1.977,0.976 1.833,1.225 1.657,1.453 1.455,1.657 1.225,1.835 0.9747,1.977 0.7093,2.088 0.4293,2.163 0.144,2.2 v 182.1 l -0.144,2.2 -0.4293,2.163 -0.7093,2.088 -0.9747,1.977 -1.225,1.835 -1.455,1.657 -1.657,1.453 -1.833,1.225 -1.977,0.9747 -2.088,0.7093 -2.163,0.4307 -2.201,0.144 h -182.1 l -2.201,-0.144 -2.163,-0.4307 -2.088,-0.7093 -1.977,-0.9747 -1.833,-1.225 -1.657,-1.453 -1.455,-1.657 -1.225,-1.835 -0.9747,-1.977 -0.7093,-2.088 -0.4307,-2.163 -0.144,-2.2 v -182.1 l 0.144,-2.2 0.4307,-2.163 0.7093,-2.088 0.9747,-1.977 1.225,-1.835 1.455,-1.657 1.657,-1.453 1.833,-1.225 1.977,-0.976 2.088,-0.708 2.163,-0.4307 2.201,-0.144 h 182.1 l 2.201,0.144 2.163,0.4307 z"
           id="path1188" />
      </g>
    </g>
  </g>
</svg>
